%FSLAX44Y44*%
%MOMM*%
G71*
G01*
G75*
G04 Layer_Physical_Order=2*
G04 Layer_Color=21504*
%ADD10C,0.4500*%
%ADD11R,0.9000X0.9500*%
%ADD12R,0.9500X0.9000*%
%ADD13R,1.5000X1.2500*%
%ADD14R,1.2500X1.5000*%
%ADD15R,6.3500X1.5240*%
%ADD16R,3.2000X1.0000*%
%ADD17R,0.9144X0.9144*%
%ADD18R,1.2700X0.9144*%
%ADD19R,0.9144X0.9144*%
%ADD20R,0.9144X1.2700*%
%ADD21R,0.9500X0.8000*%
%ADD22R,0.8000X0.9500*%
%ADD23O,0.5000X2.0000*%
%ADD24R,0.5000X2.0000*%
%ADD25R,0.9000X3.2000*%
%ADD26R,11.5000X9.0000*%
%ADD27R,0.9000X0.9000*%
%ADD28R,0.9000X1.2500*%
%ADD29R,2.0000X2.0000*%
%ADD30R,8.0000X4.0000*%
%ADD31O,2.0000X0.6000*%
%ADD32O,2.0000X1.0000*%
%ADD33C,0.5000*%
%ADD34C,0.3000*%
%ADD35R,1.7500X1.7500*%
%ADD36C,1.7500*%
%ADD37C,1.4000*%
%ADD38C,1.5000*%
%ADD39C,1.8000*%
%ADD40C,2.5000*%
%ADD41R,25.0000X8.0000*%
%ADD42R,22.0000X8.0000*%
%ADD43R,1.3000X1.3000*%
%ADD44C,1.3000*%
%ADD45C,1.2000*%
D10*
X418500Y-430909D02*
G03*
X452750Y-417500I14500J13409D01*
G01*
D02*
G03*
X418500Y-404091I-19750J0D01*
G01*
X311250Y-323500D02*
G03*
X288500Y-332737I-13250J0D01*
G01*
X307500D02*
G03*
X311250Y-323500I-9500J9237D01*
G01*
X26250Y-353250D02*
G03*
X26250Y-353250I-16250J0D01*
G01*
X-478Y-283000D02*
G03*
X-1892Y-307250I5728J-12500D01*
G01*
X-2155Y-171000D02*
G03*
X-218Y-206884I9155J-17500D01*
G01*
X102Y-257750D02*
G03*
X-478Y-283000I5148J-12750D01*
G01*
X102Y-232250D02*
G03*
X102Y-257750I5148J-12750D01*
G01*
X-218Y-206884D02*
G03*
X102Y-232250I5468J-12616D01*
G01*
X-26480Y-93965D02*
G03*
X-3250Y-98624I13730J8215D01*
G01*
Y-72876D02*
G03*
X-26480Y-77535I-9500J-12874D01*
G01*
X-2264Y-136058D02*
G03*
X-2155Y-171000I9264J-17443D01*
G01*
X-2803Y-101750D02*
G03*
X-2264Y-136058I10053J-17000D01*
G01*
X27000Y-47750D02*
G03*
X27000Y-47750I-19750J0D01*
G01*
X-22239Y712D02*
G03*
X22250Y0I22239J-712D01*
G01*
D02*
G03*
X-712Y22239I-22250J0D01*
G01*
X12392Y-307250D02*
G03*
X19000Y-295500I-7142J11750D01*
G01*
D02*
G03*
X10978Y-283000I-13750J0D01*
G01*
D02*
G03*
X19000Y-270500I-5728J12500D01*
G01*
D02*
G03*
X10398Y-257750I-13750J0D01*
G01*
Y-257750D02*
G03*
X19000Y-245000I-5148J12750D01*
G01*
D02*
G03*
X10398Y-232250I-13750J0D01*
G01*
Y-232250D02*
G03*
X19000Y-219500I-5148J12750D01*
G01*
D02*
G03*
X12103Y-207579I-13750J0D01*
G01*
D02*
G03*
X26750Y-188500I-5103J19079D01*
G01*
D02*
G03*
X16155Y-171000I-19750J0D01*
G01*
Y-171000D02*
G03*
X26750Y-153500I-9155J17500D01*
G01*
D02*
G03*
X16514Y-136193I-19750J0D01*
G01*
D02*
G03*
X27000Y-118750I-9264J17443D01*
G01*
D02*
G03*
X17303Y-101750I-19750J0D01*
G01*
X258252Y-299500D02*
G03*
X256087Y-299750I0J-9500D01*
G01*
X258252Y-299500D02*
G03*
X256087Y-299750I0J-9500D01*
G01*
X418503Y-211000D02*
G03*
X409003Y-220500I0J-9500D01*
G01*
X418503Y-211000D02*
G03*
X409003Y-220500I0J-9500D01*
G01*
X702000Y250D02*
G03*
X702000Y250I-22250J0D01*
G01*
X-712Y-452239D02*
G03*
X22250Y-430000I712J22239D01*
G01*
X-2680Y-407912D02*
G03*
X-22239Y-430712I2680J-22088D01*
G01*
X14707Y-413303D02*
G03*
X26250Y-397750I-4707J15553D01*
G01*
X22250Y-430000D02*
G03*
X14707Y-413303I-22250J0D01*
G01*
X26250Y-397750D02*
G03*
X-2680Y-407912I-16250J0D01*
G01*
X83392Y-410642D02*
G03*
X108364Y-411085I12608J6642D01*
G01*
X83162Y-384684D02*
G03*
X83392Y-410642I-9662J-13066D01*
G01*
X89636Y-391250D02*
G03*
X88624Y-391807I6364J-12750D01*
G01*
X108364Y-411085D02*
G03*
X134250Y-398000I9636J13085D01*
G01*
D02*
G03*
X108912Y-384529I-16250J0D01*
G01*
X88624Y-391807D02*
G03*
X87903Y-390226I-15124J-5943D01*
G01*
D02*
G03*
X89636Y-391250I8097J11726D01*
G01*
X102364D02*
G03*
X103535Y-390595I-6364J12750D01*
G01*
X103535D02*
G03*
X103055Y-391619I14464J-7405D01*
G01*
X26250Y-353250D02*
G03*
X26250Y-353250I-16250J0D01*
G01*
X-26480Y-326748D02*
G03*
X-8500Y-325166I8730J3747D01*
G01*
X88653Y-366290D02*
G03*
X83162Y-384684I7347J-12210D01*
G01*
X110250Y-378500D02*
G03*
X103347Y-366290I-14250J0D01*
G01*
X85665Y-364024D02*
G03*
X88653Y-366290I10335J10524D01*
G01*
X103347D02*
G03*
X105943Y-364395I-7347J12790D01*
G01*
D02*
G03*
X134250Y-353500I12057J10895D01*
G01*
X108912Y-384529D02*
G03*
X110250Y-378500I-12912J6029D01*
G01*
X85901Y-342749D02*
G03*
X85665Y-364024I-12401J-10501D01*
G01*
X105943Y-342605D02*
G03*
X85901Y-342749I-9943J-10895D01*
G01*
X134250Y-353500D02*
G03*
X105943Y-342605I-16250J0D01*
G01*
X197750Y-398000D02*
G03*
X197750Y-398000I-16250J0D01*
G01*
X254250Y-379750D02*
G03*
X254250Y-379750I-13250J0D01*
G01*
X438997Y-398683D02*
G03*
X438997Y-436317I-5997J-18817D01*
G01*
X288500Y-370014D02*
G03*
X311250Y-379250I9500J-9237D01*
G01*
X365750Y-379000D02*
G03*
X365750Y-379000I-13250J0D01*
G01*
X197750Y-353500D02*
G03*
X197750Y-353500I-16250J0D01*
G01*
X287750Y-336000D02*
G03*
X287750Y-336000I-13250J0D01*
G01*
X311250Y-379250D02*
G03*
X307500Y-370014I-13250J0D01*
G01*
X311250Y-323500D02*
G03*
X288500Y-332737I-13250J0D01*
G01*
X307500D02*
G03*
X311250Y-323500I-9500J9237D01*
G01*
X351577Y-309250D02*
G03*
X373500Y-324137I10923J-7500D01*
G01*
X373500D02*
G03*
X397750Y-316750I11000J7387D01*
G01*
D02*
G03*
X395423Y-309250I-13250J0D01*
G01*
X415577D02*
G03*
X438997Y-321152I10923J-7500D01*
G01*
Y-312348D02*
G03*
X437423Y-309250I-12497J-4402D01*
G01*
X590253Y-288503D02*
Y-227503D01*
X567247Y-288503D02*
X590253D01*
X567247D02*
X569250Y-286500D01*
X298000Y-379250D02*
Y-323500D01*
X418500Y-456500D02*
Y-430909D01*
X422997Y-456500D02*
Y-434530D01*
X418500Y-435001D02*
X423847D01*
X426997Y-456500D02*
Y-436316D01*
X430997Y-456500D02*
Y-437148D01*
X434997Y-456500D02*
Y-437149D01*
X438997Y-456500D02*
Y-436317D01*
X442997Y-456500D02*
Y-434533D01*
X418997Y-456500D02*
Y-431428D01*
X418500Y-404091D02*
Y-309000D01*
Y-403001D02*
X419589D01*
X446997Y-456500D02*
Y-431433D01*
X450997Y-456500D02*
Y-425634D01*
X418997Y-403572D02*
Y-309000D01*
X450997Y-409366D02*
Y-309000D01*
X418500Y-456500D02*
X706500D01*
X418500Y-455001D02*
X706500D01*
X418500Y-451001D02*
X706500D01*
X418500Y-447001D02*
X706500D01*
X418500Y-443001D02*
X706500D01*
X418500Y-439001D02*
X706500D01*
X442153Y-435001D02*
X706500D01*
X447415Y-431001D02*
X706500D01*
X450314Y-427001D02*
X706500D01*
X449728Y-407001D02*
X706500D01*
X446411Y-403001D02*
X706500D01*
X451968Y-423001D02*
X706500D01*
X452693Y-419001D02*
X706500D01*
X452591Y-415001D02*
X706500D01*
X451650Y-411001D02*
X706500D01*
X418500Y-399001D02*
X426082D01*
X418500Y-395001D02*
X706500D01*
X418500Y-391001D02*
X706500D01*
X418500Y-387001D02*
X706500D01*
X439918Y-399001D02*
X706500D01*
X418500Y-383001D02*
X706500D01*
X418500Y-379001D02*
X706500D01*
X418500Y-375001D02*
X706500D01*
X422997Y-400470D02*
Y-309000D01*
X426997Y-398684D02*
Y-309000D01*
X430997Y-397852D02*
Y-309000D01*
X418500Y-371001D02*
X706500D01*
X442997Y-400467D02*
Y-309000D01*
X446997Y-403567D02*
Y-309000D01*
X434997Y-397851D02*
Y-309000D01*
X438997Y-398683D02*
Y-309000D01*
X418500Y-367001D02*
X706500D01*
X418500Y-363001D02*
X706500D01*
X418500Y-359001D02*
X706500D01*
X418500Y-355001D02*
X706500D01*
X418500Y-351001D02*
X706500D01*
X418500Y-347001D02*
X706500D01*
X418500Y-343001D02*
X706500D01*
X418500Y-339001D02*
X706500D01*
X418500Y-335001D02*
X706500D01*
X418500Y-331001D02*
X706500D01*
X418500Y-327001D02*
X706500D01*
X418500Y-323001D02*
X706500D01*
X418500Y-319001D02*
X706500D01*
X418500Y-315001D02*
X706500D01*
X418500Y-311001D02*
X706500D01*
X418503Y-309000D02*
X706500D01*
X454997Y-456500D02*
Y-309000D01*
X458997Y-456500D02*
Y-309000D01*
X462997Y-456500D02*
Y-309000D01*
X466997Y-456500D02*
Y-309000D01*
X470997Y-456500D02*
Y-309000D01*
X474997Y-456500D02*
Y-309000D01*
X478997Y-456500D02*
Y-309000D01*
X482997Y-456500D02*
Y-309000D01*
X486997Y-456500D02*
Y-309000D01*
X490997Y-456500D02*
Y-309000D01*
X494997Y-456500D02*
Y-309000D01*
X498997Y-456500D02*
Y-309000D01*
X502997Y-456500D02*
Y-309000D01*
X506997Y-456500D02*
Y-309000D01*
X510997Y-456500D02*
Y-309000D01*
X514997Y-456500D02*
Y-309000D01*
X518997Y-456500D02*
Y-309000D01*
X522997Y-456500D02*
Y-309000D01*
X526997Y-456500D02*
Y-309000D01*
X530997Y-456500D02*
Y-309000D01*
X534997Y-456500D02*
Y-309000D01*
X538997Y-456500D02*
Y-309000D01*
X542997Y-456500D02*
Y-309000D01*
X546997Y-456500D02*
Y-309000D01*
X550997Y-456500D02*
Y-309000D01*
X554997Y-456500D02*
Y-309000D01*
X558997Y-456500D02*
Y-309000D01*
X562997Y-456500D02*
Y-309000D01*
X566997Y-456500D02*
Y-309000D01*
X570997Y-456500D02*
Y-309000D01*
X574997Y-456500D02*
Y-309000D01*
X578997Y-456500D02*
Y-309000D01*
X582997Y-456500D02*
Y-309000D01*
X586997Y-456500D02*
Y-309000D01*
X590997Y-456500D02*
Y-309000D01*
X594997Y-456500D02*
Y-309000D01*
X598997Y-456500D02*
Y-309000D01*
X602997Y-456500D02*
Y-309000D01*
X606997Y-456500D02*
Y-309000D01*
X610997Y-456500D02*
Y-309000D01*
X614997Y-456500D02*
Y-309000D01*
X618997Y-456500D02*
Y-309000D01*
X622997Y-456500D02*
Y-309000D01*
X626997Y-456500D02*
Y-309000D01*
X630997Y-456500D02*
Y-309000D01*
X634997Y-456500D02*
Y-309000D01*
X638997Y-456500D02*
Y-309000D01*
X642997Y-456500D02*
Y-309000D01*
X646997Y-456500D02*
Y-309000D01*
X650997Y-456500D02*
Y-309000D01*
X654997Y-456500D02*
Y-309000D01*
X658997Y-456500D02*
Y-309000D01*
X662997Y-456500D02*
Y-309000D01*
X666997Y-456500D02*
Y-309000D01*
X670997Y-456500D02*
Y-309000D01*
X674997Y-456500D02*
Y-309000D01*
X678997Y-456500D02*
Y-309000D01*
X682997Y-456500D02*
Y-309000D01*
X686997Y-456500D02*
Y-309000D01*
X690997Y-456500D02*
Y-309000D01*
X694997Y-456500D02*
Y-309000D01*
X698997Y-456500D02*
Y-309000D01*
X702997Y-456500D02*
Y-309000D01*
X706500Y-456500D02*
Y-309000D01*
X418503Y-299500D02*
Y-220500D01*
X418997Y-299500D02*
Y-220500D01*
X422997Y-299500D02*
Y-220500D01*
X426997Y-299500D02*
Y-220500D01*
X430997Y-299500D02*
Y-220500D01*
X434997Y-299500D02*
Y-220500D01*
X438997Y-299500D02*
Y-220500D01*
X442997Y-299500D02*
Y-220500D01*
X446997Y-299500D02*
Y-220500D01*
X450997Y-299500D02*
Y-220500D01*
X454997Y-299500D02*
Y-220500D01*
X458997Y-299500D02*
Y-220500D01*
X418503Y-299500D02*
X706500D01*
X462997D02*
Y-220500D01*
X418503Y-299001D02*
X706500D01*
X466997Y-299500D02*
Y-220500D01*
X470997Y-299500D02*
Y-220500D01*
X474997Y-299500D02*
Y-220500D01*
X478997Y-299500D02*
Y-220500D01*
X482997Y-299500D02*
Y-220500D01*
X486997Y-299500D02*
Y-220500D01*
X490997Y-299500D02*
Y-220500D01*
X494997Y-299500D02*
Y-220500D01*
X498997Y-299500D02*
Y-220500D01*
X418503Y-295001D02*
X706500D01*
X418503Y-291001D02*
X706500D01*
X418503Y-287001D02*
X706500D01*
X418503Y-283001D02*
X706500D01*
X418503Y-279001D02*
X706500D01*
X418503Y-275001D02*
X706500D01*
X502997Y-299500D02*
Y-220500D01*
X418503Y-271001D02*
X706500D01*
X418503Y-267001D02*
X706500D01*
X506997Y-299500D02*
Y-220500D01*
X510997Y-299500D02*
Y-220500D01*
X514997Y-299500D02*
Y-220500D01*
X418503Y-263001D02*
X706500D01*
X418503Y-259002D02*
X706500D01*
X418503Y-255002D02*
X706500D01*
X418503Y-251001D02*
X706500D01*
X418503Y-247001D02*
X706500D01*
X418503Y-243001D02*
X706500D01*
X418503Y-239002D02*
X706500D01*
X418503Y-235002D02*
X706500D01*
X418503Y-231001D02*
X706500D01*
X418503Y-227001D02*
X706500D01*
X418503Y-223001D02*
X706500D01*
X418503Y-220500D02*
X706500D01*
X518997Y-299500D02*
Y-220500D01*
X522997Y-299500D02*
Y-220500D01*
X526997Y-299500D02*
Y-220500D01*
X530997Y-299500D02*
Y-220500D01*
X534997Y-299500D02*
Y-220500D01*
X538997Y-299500D02*
Y-220500D01*
X542997Y-299500D02*
Y-220500D01*
X546997Y-299500D02*
Y-220500D01*
X550997Y-299500D02*
Y-220500D01*
X554997Y-299500D02*
Y-220500D01*
X558997Y-299500D02*
Y-220500D01*
X562997Y-299500D02*
Y-220500D01*
X566997Y-299500D02*
Y-220500D01*
X570997Y-299500D02*
Y-220500D01*
X574997Y-299500D02*
Y-220500D01*
X578997Y-299500D02*
Y-220500D01*
X582997Y-299500D02*
Y-220500D01*
X586997Y-299500D02*
Y-220500D01*
X590997Y-299500D02*
Y-220500D01*
X594997Y-299500D02*
Y-220500D01*
X598997Y-299500D02*
Y-220500D01*
X602997Y-299500D02*
Y-220500D01*
X606997Y-299500D02*
Y-220500D01*
X610997Y-299500D02*
Y-220500D01*
X614997Y-299500D02*
Y-220500D01*
X618997Y-299500D02*
Y-220500D01*
X622997Y-299500D02*
Y-220500D01*
X626997Y-299500D02*
Y-220500D01*
X630997Y-299500D02*
Y-220500D01*
X634997Y-299500D02*
Y-220500D01*
X638997Y-299500D02*
Y-220500D01*
X642997Y-299500D02*
Y-220500D01*
X646997Y-299500D02*
Y-220500D01*
X650997Y-299500D02*
Y-220500D01*
X654997Y-299500D02*
Y-220500D01*
X658997Y-299500D02*
Y-220500D01*
X662997Y-299500D02*
Y-220500D01*
X666997Y-299500D02*
Y-220500D01*
X670997Y-299500D02*
Y-220500D01*
X674997Y-299500D02*
Y-220500D01*
X678997Y-299500D02*
Y-220500D01*
X682997Y-299500D02*
Y-220500D01*
X686997Y-299500D02*
Y-220500D01*
X690997Y-299500D02*
Y-220500D01*
X694997Y-299500D02*
Y-220500D01*
X698997Y-299500D02*
Y-220500D01*
X702997Y-299500D02*
Y-220500D01*
X706500Y-299500D02*
Y-220500D01*
X258252Y-364999D02*
X288500D01*
X258252D02*
Y-309000D01*
X258998Y-364999D02*
Y-309000D01*
X262998Y-364999D02*
Y-309000D01*
X286998Y-364999D02*
Y-330883D01*
X266998Y-364999D02*
Y-309000D01*
X270998Y-364999D02*
Y-309000D01*
X274998Y-364999D02*
Y-309000D01*
X278998Y-364999D02*
Y-309000D01*
X282998Y-364999D02*
Y-309000D01*
X258252Y-363001D02*
X288500D01*
X258252Y-359001D02*
X288500D01*
X307500Y-363001D02*
X438997D01*
X258252Y-355001D02*
X288500D01*
X307500Y-359001D02*
X438997D01*
X288500Y-364999D02*
Y-332737D01*
X258252Y-351001D02*
X288500D01*
X258252Y-347001D02*
X288500D01*
X307500Y-355001D02*
X438997D01*
X307500Y-351001D02*
X438997D01*
X307500Y-347001D02*
X438997D01*
X258252Y-343001D02*
X288500D01*
X258252Y-339001D02*
X288500D01*
X258252Y-335001D02*
X288500D01*
X258252Y-327001D02*
X285221D01*
X258252Y-331001D02*
X287078D01*
X258252Y-323001D02*
X284759D01*
X258252Y-319001D02*
X285537D01*
X286998Y-316117D02*
Y-309000D01*
X258252Y-315001D02*
X287835D01*
X290998Y-312251D02*
Y-309000D01*
X258252Y-311001D02*
X293601D01*
X302398D02*
X438997D01*
X307500Y-343001D02*
X438997D01*
X307500Y-339001D02*
X438997D01*
X307500Y-335001D02*
X438997D01*
X294998Y-310595D02*
Y-309000D01*
X258252D02*
X438997D01*
X306998Y-313773D02*
Y-309000D01*
X298998Y-310288D02*
Y-309000D01*
X302998Y-311229D02*
Y-309000D01*
X307500Y-364999D02*
Y-332737D01*
X310998Y-364999D02*
Y-326074D01*
X314998Y-364999D02*
Y-309000D01*
X318998Y-364999D02*
Y-309000D01*
X322998Y-364999D02*
Y-309000D01*
X326998Y-364999D02*
Y-309000D01*
X330998Y-364999D02*
Y-309000D01*
X334998Y-364999D02*
Y-309000D01*
X338997Y-364999D02*
Y-309000D01*
X342998Y-364999D02*
Y-309000D01*
X307500Y-364999D02*
X438997D01*
X346997D02*
Y-309000D01*
X350998Y-364999D02*
Y-309000D01*
X354997Y-364999D02*
Y-309000D01*
X358997Y-364999D02*
Y-309000D01*
X362998Y-364999D02*
Y-309000D01*
X366997Y-364999D02*
Y-309000D01*
X370998Y-364999D02*
Y-309000D01*
X374997Y-364999D02*
Y-309000D01*
X378997Y-364999D02*
Y-309000D01*
X382998Y-364999D02*
Y-309000D01*
X310998Y-320926D02*
Y-309000D01*
X386997Y-364999D02*
Y-309000D01*
X390997Y-364999D02*
Y-309000D01*
X394997Y-364999D02*
Y-309000D01*
X398997Y-364999D02*
Y-309000D01*
X402997Y-364999D02*
Y-309000D01*
X406997Y-364999D02*
Y-309000D01*
X410997Y-364999D02*
Y-309000D01*
X414997Y-364999D02*
Y-309000D01*
X308922Y-331001D02*
X438997D01*
X308165Y-315001D02*
X438997D01*
X310779Y-327001D02*
X438997D01*
X311241Y-323001D02*
X438997D01*
X310463Y-319001D02*
X438997D01*
X418997Y-364999D02*
Y-309000D01*
X422997Y-364999D02*
Y-309000D01*
X426997Y-364999D02*
Y-309000D01*
X430997Y-364999D02*
Y-309000D01*
X434997Y-364999D02*
Y-309000D01*
X438997Y-364999D02*
Y-309000D01*
X-17750Y-323001D02*
Y-117750D01*
X-26480Y-355001D02*
X-6155D01*
X-26480Y-331001D02*
X-8500D01*
X-26480Y-359001D02*
X-5198D01*
X-26480Y-351001D02*
X-6094D01*
X-26480Y-327001D02*
X-8500D01*
X-26480Y-323001D02*
X-8500D01*
X-26480Y-319001D02*
X-8500D01*
X-26480Y-315001D02*
X-8500D01*
X-26480Y-311001D02*
X-8500D01*
Y-334750D02*
Y-307250D01*
X-26480Y-295001D02*
X-8491D01*
X-26480Y-303001D02*
X-6273D01*
X-26480Y-299001D02*
X-8047D01*
X-26480Y-291001D02*
X-7743D01*
X-26480Y-275001D02*
X-7742D01*
X-26480Y-271001D02*
X-8491D01*
X-26480Y-287001D02*
X-5559D01*
X-26480Y-279001D02*
X-5557D01*
X-26480Y-267001D02*
X-8048D01*
X-26480Y-247001D02*
X-8354D01*
X-26480Y-243001D02*
X-8354D01*
X-26480Y-263001D02*
X-6275D01*
X-26480Y-251001D02*
X-7121D01*
X-26480Y-239002D02*
X-7123D01*
X-26480Y-223001D02*
X-8047D01*
X-26480Y-219002D02*
X-8491D01*
X-26480Y-227001D02*
X-6273D01*
X-26480Y-215002D02*
X-7743D01*
X-26480Y-203002D02*
X-6408D01*
X-25002Y-379750D02*
Y-96040D01*
X-26480Y-379750D02*
Y-93965D01*
X-13002Y-379750D02*
Y-101748D01*
X-21002Y-379750D02*
Y-99458D01*
X-17002Y-379750D02*
Y-101175D01*
X-26480Y-191002D02*
X-12591D01*
X-26480Y-187002D02*
X-12693D01*
X-9002Y-379750D02*
Y-200076D01*
X-26480Y-199002D02*
X-9727D01*
X-26480Y-195002D02*
X-11649D01*
X-26480Y-379750D02*
X30251D01*
X-26480Y-379001D02*
X30251D01*
X-26480Y-375001D02*
X30251D01*
X-26480Y-371001D02*
X30251D01*
X-26480Y-363001D02*
X-2999D01*
X-26480Y-347001D02*
X-5001D01*
X-26480Y-367001D02*
X1342D01*
X-26480Y-343001D02*
X-2611D01*
X-26480Y-339001D02*
X2187D01*
X-5002Y-379750D02*
Y-359496D01*
Y-347004D02*
Y-334750D01*
X2998Y-379750D02*
Y-367914D01*
X-1002Y-379750D02*
Y-365209D01*
Y-341291D02*
Y-334750D01*
X-26480Y-307001D02*
X-2285D01*
X2998Y-338586D02*
Y-334750D01*
X-26480Y-335001D02*
X30251D01*
X-8500Y-334750D02*
X19000D01*
X-8500Y-307250D02*
X-1892D01*
X-26480Y-255002D02*
X-4186D01*
X-26480Y-283001D02*
X-481D01*
X-26480Y-259002D02*
X-2290D01*
X-26480Y-235002D02*
X-4189D01*
X-26480Y-211002D02*
X-5559D01*
X-26480Y-231001D02*
X-2285D01*
X-26480Y-207002D02*
X-482D01*
X-5002Y-307250D02*
Y-304663D01*
Y-286337D02*
Y-279663D01*
Y-261337D02*
Y-254163D01*
X-1002Y-258253D02*
Y-257247D01*
X-5002Y-235837D02*
Y-228663D01*
Y-210337D02*
Y-204185D01*
X-1002Y-232753D02*
Y-231747D01*
X-26480Y-183002D02*
X-11969D01*
X-26480Y-159002D02*
X-11968D01*
X-26480Y-179002D02*
X-10316D01*
X-26480Y-163002D02*
X-10314D01*
X-26480Y-155002D02*
X-12693D01*
X-26480Y-151002D02*
X-12591D01*
X-26480Y-147002D02*
X-11650D01*
X-26480Y-143002D02*
X-9729D01*
X-26480Y-127002D02*
X-10694D01*
X-26480Y-123002D02*
X-12037D01*
X-26480Y-119002D02*
X-12498D01*
X-9002Y-176924D02*
Y-165076D01*
X-26480Y-115002D02*
X-12141D01*
X-9002Y-141924D02*
Y-129972D01*
X-26480Y-99002D02*
X-21716D01*
X-26480Y-75002D02*
X-24602D01*
X-26480Y-111002D02*
X-10917D01*
X-26480Y-107002D02*
X-8626D01*
X-9002Y-107528D02*
Y-101305D01*
X-26480Y-71002D02*
X-18954D01*
X-26480Y-51002D02*
X-12230D01*
X-26480Y-59002D02*
X-8981D01*
X-26480Y-55002D02*
X-11120D01*
X-26480Y-47002D02*
X-12486D01*
X-26480Y-15002D02*
X-16432D01*
X-26480Y-11002D02*
X-19340D01*
X-26480Y-43002D02*
X-11921D01*
X-26480Y-39002D02*
X-10457D01*
X-26480Y-19002D02*
X-11575D01*
X-26480Y-77535D02*
Y-3529D01*
X-25002Y-75459D02*
Y-2051D01*
X-9002Y-70195D02*
Y-58972D01*
X-21002Y-72042D02*
Y-7348D01*
X-17002Y-70325D02*
Y-14353D01*
X-25953Y-3002D02*
X-22046D01*
X-26480Y-3529D02*
X-22239Y712D01*
X-9002Y-36528D02*
Y-20348D01*
X-26480Y-7002D02*
X-21119D01*
X-13002Y-69752D02*
Y-18056D01*
X-26480Y-175002D02*
X-7417D01*
X-26480Y-167002D02*
X-7414D01*
X-26480Y-171002D02*
X-2158D01*
X-26480Y-139002D02*
X-6411D01*
X-26480Y-131002D02*
X-8241D01*
X-26480Y-103002D02*
X-4669D01*
X-26480Y-135002D02*
X-3972D01*
X-5002Y-172815D02*
Y-169185D01*
Y-137815D02*
Y-134241D01*
Y-103259D02*
Y-99749D01*
X-3250Y-101750D02*
Y-98624D01*
Y-72876D02*
Y-69750D01*
X-6546Y-71002D02*
X-3250D01*
Y-69750D02*
X28750D01*
X2998D02*
Y-67037D01*
X-26480Y-63002D02*
X-5298D01*
X-26480Y-35002D02*
X-7835D01*
X-26480Y-67002D02*
X2842D01*
X-5002Y-71751D02*
Y-63240D01*
X-26480Y-31002D02*
X-3217D01*
X-5002Y-32259D02*
Y-21681D01*
X-26480Y-27002D02*
X30251D01*
X-26480Y-23002D02*
X30251D01*
X-1002Y-69750D02*
Y-65693D01*
Y-29806D02*
Y-22227D01*
X2998Y-28463D02*
Y-22047D01*
X7358Y20998D02*
X30251D01*
X2998Y22047D02*
Y25949D01*
X-712Y22239D02*
X3549Y26500D01*
X2047Y24998D02*
X30251D01*
X3549Y26500D02*
X30251D01*
X6998Y21121D02*
Y26500D01*
Y-379750D02*
Y-369220D01*
Y-337280D02*
Y-334750D01*
X10998Y-379750D02*
Y-369469D01*
X14998Y-379750D02*
Y-368712D01*
X10998Y-337031D02*
Y-334750D01*
X14998Y-337788D02*
Y-334750D01*
X12392Y-307250D02*
X19000D01*
X14998D02*
Y-305197D01*
X18998Y-379750D02*
Y-366781D01*
X22998Y-379750D02*
Y-363002D01*
X18658Y-367001D02*
X30251D01*
X22999Y-363001D02*
X30251D01*
X25198Y-359001D02*
X30251D01*
X18998Y-339719D02*
Y-334750D01*
X19000D02*
Y-307250D01*
X26155Y-355001D02*
X30251D01*
X18998Y-307250D02*
Y-295724D01*
X26094Y-351001D02*
X30251D01*
X14998Y-285803D02*
Y-280197D01*
Y-260803D02*
Y-254697D01*
X18998Y-295276D02*
Y-270724D01*
Y-270276D02*
Y-245224D01*
X22998Y-343498D02*
Y-200081D01*
X26998Y-379750D02*
Y-119019D01*
X30251Y-379750D02*
Y26500D01*
X14998Y-235303D02*
Y-229197D01*
Y-209803D02*
Y-206558D01*
X18998Y-244776D02*
Y-219724D01*
Y-219276D02*
Y-204188D01*
X17813Y-339001D02*
X30251D01*
X12785Y-307001D02*
X30251D01*
X16774Y-303001D02*
X30251D01*
X18547Y-299001D02*
X30251D01*
X18243Y-291001D02*
X30251D01*
X16059Y-287001D02*
X30251D01*
X10981Y-283001D02*
X30251D01*
X16057Y-279001D02*
X30251D01*
X18242Y-275001D02*
X30251D01*
X25001Y-347001D02*
X30251D01*
X22611Y-343001D02*
X30251D01*
X19000Y-331001D02*
X30251D01*
X19000Y-327001D02*
X30251D01*
X19000Y-323001D02*
X30251D01*
X19000Y-319001D02*
X30251D01*
X19000Y-315001D02*
X30251D01*
X19000Y-311001D02*
X30251D01*
X18991Y-295001D02*
X30251D01*
X18991Y-271001D02*
X30251D01*
X16775Y-263001D02*
X30251D01*
X12790Y-259002D02*
X30251D01*
X14686Y-255002D02*
X30251D01*
X17621Y-251001D02*
X30251D01*
X17623Y-239002D02*
X30251D01*
X14689Y-235002D02*
X30251D01*
X12785Y-231001D02*
X30251D01*
X16773Y-227001D02*
X30251D01*
X13910Y-207002D02*
X30251D01*
X16059Y-211002D02*
X30251D01*
X18548Y-267001D02*
X30251D01*
X18854Y-247001D02*
X30251D01*
X18854Y-243001D02*
X30251D01*
X18547Y-223001D02*
X30251D01*
X18991Y-219002D02*
X30251D01*
X18243Y-215002D02*
X30251D01*
X20408Y-203002D02*
X30251D01*
X23727Y-199002D02*
X30251D01*
X25649Y-195002D02*
X30251D01*
X26591Y-191002D02*
X30251D01*
X18998Y-172812D02*
Y-169188D01*
X21417Y-175002D02*
X30251D01*
X16158Y-171002D02*
X30251D01*
X18998Y-137812D02*
Y-134626D01*
Y-102874D02*
Y-101750D01*
X21414Y-167002D02*
X30251D01*
X26693Y-187002D02*
X30251D01*
X22998Y-176919D02*
Y-165081D01*
X25969Y-183002D02*
X30251D01*
X24316Y-179002D02*
X30251D01*
X24314Y-163002D02*
X30251D01*
X25968Y-159002D02*
X30251D01*
X22998Y-141919D02*
Y-130669D01*
X26693Y-155002D02*
X30251D01*
X25650Y-147002D02*
X30251D01*
X26591Y-151002D02*
X30251D01*
X6998Y-69750D02*
Y-67498D01*
X10998Y-69750D02*
Y-67141D01*
X14998Y-69750D02*
Y-65917D01*
X17303Y-101750D02*
X28750D01*
X6998Y-28002D02*
Y-21121D01*
X10998Y-28359D02*
Y-19342D01*
X14998Y-29583D02*
Y-16435D01*
X10998Y19342D02*
Y26500D01*
X14998Y16435D02*
Y26500D01*
X22998Y-106831D02*
Y-101750D01*
X18998Y-69750D02*
Y-63626D01*
X26998Y-118481D02*
Y-101750D01*
X22998Y-69750D02*
Y-59669D01*
X28750Y-101750D02*
Y-69750D01*
X18998Y-31874D02*
Y-11581D01*
Y11581D02*
Y26500D01*
X26998Y-69750D02*
Y-48019D01*
X22998Y-35831D02*
Y26500D01*
X26998Y-47481D02*
Y26500D01*
X23729Y-143002D02*
X30251D01*
X20411Y-139002D02*
X30251D01*
X18472Y-135002D02*
X30251D01*
X22741Y-131002D02*
X30251D01*
X25194Y-127002D02*
X30251D01*
X26537Y-123002D02*
X30251D01*
X25417Y-111002D02*
X30251D01*
X19169Y-103002D02*
X30251D01*
X23126Y-107002D02*
X30251D01*
X26998Y-119002D02*
X30251D01*
X26641Y-115002D02*
X30251D01*
X28750Y-99002D02*
X30251D01*
X28750Y-95002D02*
X30251D01*
X28750Y-91002D02*
X30251D01*
X28750Y-87002D02*
X30251D01*
X28750Y-83002D02*
X30251D01*
X28750Y-79002D02*
X30251D01*
X28750Y-75002D02*
X30251D01*
X28750Y-71002D02*
X30251D01*
X11658Y-67002D02*
X30251D01*
X19798Y-63002D02*
X30251D01*
X17717Y-31002D02*
X30251D01*
X11575Y-19002D02*
X30251D01*
X16432Y-15002D02*
X30251D01*
X19340Y-11002D02*
X30251D01*
X21119Y-7002D02*
X30251D01*
X20349Y8998D02*
X30251D01*
X14357Y16998D02*
X30251D01*
X18059Y12998D02*
X30251D01*
X23481Y-59002D02*
X30251D01*
X25620Y-55002D02*
X30251D01*
X26730Y-51002D02*
X30251D01*
X26421Y-43002D02*
X30251D01*
X26986Y-47002D02*
X30251D01*
X24957Y-39002D02*
X30251D01*
X22335Y-35002D02*
X30251D01*
X22046Y-3002D02*
X30251D01*
X21681Y4998D02*
X30251D01*
X22228Y998D02*
X30251D01*
X170250Y-230000D02*
Y-135500D01*
Y-230000D02*
X405250D01*
X186500Y-115000D02*
X432000Y-114750D01*
X310250Y-215500D02*
X402500D01*
X39751Y-299750D02*
Y26500D01*
X42998Y-299750D02*
Y26500D01*
X46998Y-299750D02*
Y26500D01*
X50998Y-299750D02*
Y26500D01*
X54998Y-299750D02*
Y26500D01*
X58998Y-299750D02*
Y26500D01*
X62998Y-299750D02*
Y26500D01*
X66998Y-299750D02*
Y26500D01*
X70998Y-299750D02*
Y26500D01*
X74998Y-299750D02*
Y26500D01*
X78998Y-299750D02*
Y26500D01*
X82998Y-299750D02*
Y26500D01*
X86998Y-299750D02*
Y26500D01*
X90998Y-299750D02*
Y26500D01*
X94998Y-299750D02*
Y26500D01*
X98998Y-299750D02*
Y26500D01*
X102998Y-299750D02*
Y26500D01*
X106998Y-299750D02*
Y26500D01*
X110998Y-299750D02*
Y26500D01*
X114998Y-299750D02*
Y26500D01*
X118998Y-299750D02*
Y26500D01*
X122998Y-299750D02*
Y26500D01*
X126998Y-299750D02*
Y26500D01*
X130998Y-299750D02*
Y26500D01*
X134998Y-299750D02*
Y26500D01*
X138998Y-299750D02*
Y26500D01*
X142998Y-299750D02*
Y26500D01*
X146998Y-299750D02*
Y26500D01*
X150998Y-299750D02*
Y26500D01*
X154998Y-299750D02*
Y26500D01*
X158998Y-299750D02*
Y26500D01*
X162998Y-299750D02*
Y26500D01*
X166998Y-299750D02*
Y26500D01*
X170998Y-299750D02*
Y26500D01*
X174998Y-299750D02*
Y26500D01*
X39751Y-299750D02*
X256087D01*
X39751Y-299001D02*
X409003D01*
X39751Y-295001D02*
X409003D01*
X39751Y-291001D02*
X409003D01*
X39751Y-287001D02*
X409003D01*
X39751Y-283001D02*
X409003D01*
X39751Y-279001D02*
X409003D01*
X39751Y-275001D02*
X409003D01*
X178998Y-299750D02*
Y26500D01*
X182998Y-299750D02*
Y26500D01*
X39751Y-271001D02*
X409003D01*
X39751Y-267001D02*
X409003D01*
X39751Y-263001D02*
X409003D01*
X39751Y-259002D02*
X409003D01*
X39751Y-255002D02*
X409003D01*
X186998Y-299750D02*
Y26500D01*
X190998Y-299750D02*
Y26500D01*
X194998Y-299750D02*
Y26500D01*
X198998Y-299750D02*
Y26500D01*
X202998Y-299750D02*
Y26500D01*
X206998Y-299750D02*
Y26500D01*
X210998Y-299750D02*
Y26500D01*
X214998Y-299750D02*
Y26500D01*
X218998Y-299750D02*
Y26500D01*
X222998Y-299750D02*
Y26500D01*
X226998Y-299750D02*
Y26500D01*
X230998Y-299750D02*
Y26500D01*
X234998Y-299750D02*
Y26500D01*
X238998Y-299750D02*
Y26500D01*
X242998Y-299750D02*
Y26500D01*
X246998Y-299750D02*
Y26500D01*
X250998Y-299750D02*
Y26500D01*
X254998Y-299750D02*
Y26500D01*
X39751Y-251001D02*
X409003D01*
X39751Y-247001D02*
X409003D01*
X39751Y-243001D02*
X409003D01*
X39751Y-239002D02*
X409003D01*
X39751Y-235002D02*
X409003D01*
X39751Y-231001D02*
X409003D01*
X39751Y-227001D02*
X409003D01*
X39751Y-223001D02*
X409003D01*
X39751Y-219002D02*
X409122D01*
X39751Y-215002D02*
X410756D01*
X39751Y-211002D02*
X418331D01*
X39751Y-207002D02*
X706500D01*
X39751Y-203002D02*
X706500D01*
X39751Y-199002D02*
X706500D01*
X39751Y-195002D02*
X706500D01*
X39751Y-191002D02*
X706500D01*
X39751Y-187002D02*
X706500D01*
X39751Y-183002D02*
X706500D01*
X39751Y-179002D02*
X706500D01*
X39751Y-175002D02*
X706500D01*
X39751Y-171002D02*
X706500D01*
X39751Y-19002D02*
X668595D01*
X39751Y-15002D02*
X663550D01*
X39751Y-167002D02*
X706500D01*
X39751Y-163002D02*
X706500D01*
X39751Y-159002D02*
X706500D01*
X39751Y-3002D02*
X657739D01*
X39751Y998D02*
X657513D01*
X39751Y-11002D02*
X660555D01*
X39751Y-7002D02*
X658715D01*
X39751Y4998D02*
X658012D01*
X39751Y8998D02*
X659292D01*
X39751Y12998D02*
X661514D01*
X39751Y16998D02*
X665102D01*
X39751Y20998D02*
X671714D01*
X39751Y-155002D02*
X706500D01*
X39751Y-151002D02*
X706500D01*
X39751Y-147002D02*
X706500D01*
X39751Y-143002D02*
X706500D01*
X39751Y-139002D02*
X706500D01*
X39751Y-135002D02*
X706500D01*
X39751Y-131002D02*
X706500D01*
X39751Y-127002D02*
X706500D01*
X39751Y-123002D02*
X706500D01*
X39751Y-119002D02*
X706500D01*
X39751Y-115002D02*
X706500D01*
X39751Y-111002D02*
X706500D01*
X39751Y-107002D02*
X706500D01*
X39751Y-103002D02*
X706500D01*
X39751Y-99002D02*
X706500D01*
X39751Y-95002D02*
X706500D01*
X39751Y-91002D02*
X706500D01*
X39751Y-87002D02*
X706500D01*
X39751Y-83002D02*
X706500D01*
X39751Y-79002D02*
X706500D01*
X39751Y-75002D02*
X706500D01*
X39751Y-71002D02*
X706500D01*
X39751Y-67002D02*
X706500D01*
X39751Y-63002D02*
X706500D01*
X39751Y-59002D02*
X706500D01*
X39751Y-55002D02*
X706500D01*
X39751Y-51002D02*
X706500D01*
X39751Y-47002D02*
X706500D01*
X39751Y-43002D02*
X706500D01*
X39751Y-39002D02*
X706500D01*
X39751Y-35002D02*
X706500D01*
X39751Y-31002D02*
X706500D01*
X39751Y-27002D02*
X706500D01*
X39751Y-23002D02*
X706500D01*
X39751Y24998D02*
X706500D01*
X39751Y26500D02*
X706500D01*
X258998Y-299500D02*
Y26500D01*
X262998Y-299500D02*
Y26500D01*
X266998Y-299500D02*
Y26500D01*
X270998Y-299500D02*
Y26500D01*
X274998Y-299500D02*
Y26500D01*
X278998Y-299500D02*
Y26500D01*
X282998Y-299500D02*
Y26500D01*
X286998Y-299500D02*
Y26500D01*
X290998Y-299500D02*
Y26500D01*
X294998Y-299500D02*
Y26500D01*
X298998Y-299500D02*
Y26500D01*
X302998Y-299500D02*
Y26500D01*
X306998Y-299500D02*
Y26500D01*
X310998Y-299500D02*
Y26500D01*
X314998Y-299500D02*
Y26500D01*
X318998Y-299500D02*
Y26500D01*
X322998Y-299500D02*
Y26500D01*
X326998Y-299500D02*
Y26500D01*
X330998Y-299500D02*
Y26500D01*
X334998Y-299500D02*
Y26500D01*
X338997Y-299500D02*
Y26500D01*
X342998Y-299500D02*
Y26500D01*
X346997Y-299500D02*
Y26500D01*
X350998Y-299500D02*
Y26500D01*
X354997Y-299500D02*
Y26500D01*
X358997Y-299500D02*
Y26500D01*
X362998Y-299500D02*
Y26500D01*
X366997Y-299500D02*
Y26500D01*
X370998Y-299500D02*
Y26500D01*
X374997Y-299500D02*
Y26500D01*
X378997Y-299500D02*
Y26500D01*
X382998Y-299500D02*
Y26500D01*
X386997Y-299500D02*
Y26500D01*
X390997Y-299500D02*
Y26500D01*
X394997Y-299500D02*
Y26500D01*
X398997Y-299500D02*
Y26500D01*
X402997Y-299500D02*
Y26500D01*
X258252Y-299500D02*
X409003D01*
X406997D02*
Y26500D01*
X409003Y-299500D02*
Y-220500D01*
X410997Y-214676D02*
Y26500D01*
X414997Y-211670D02*
Y26500D01*
X418997Y-211000D02*
Y26500D01*
X418503Y-211000D02*
X706500D01*
X422997D02*
Y26500D01*
X426997Y-211000D02*
Y26500D01*
X430997Y-211000D02*
Y26500D01*
X434997Y-211000D02*
Y26500D01*
X438997Y-211000D02*
Y26500D01*
X442997Y-211000D02*
Y26500D01*
X446997Y-211000D02*
Y26500D01*
X450997Y-211000D02*
Y26500D01*
X454997Y-211000D02*
Y26500D01*
X458997Y-211000D02*
Y26500D01*
X462997Y-211000D02*
Y26500D01*
X466997Y-211000D02*
Y26500D01*
X470997Y-211000D02*
Y26500D01*
X474997Y-211000D02*
Y26500D01*
X478997Y-211000D02*
Y26500D01*
X482997Y-211000D02*
Y26500D01*
X486997Y-211000D02*
Y26500D01*
X490997Y-211000D02*
Y26500D01*
X494997Y-211000D02*
Y26500D01*
X498997Y-211000D02*
Y26500D01*
X502997Y-211000D02*
Y26500D01*
X506997Y-211000D02*
Y26500D01*
X510997Y-211000D02*
Y26500D01*
X514997Y-211000D02*
Y26500D01*
X518997Y-211000D02*
Y26500D01*
X522997Y-211000D02*
Y26500D01*
X526997Y-211000D02*
Y26500D01*
X530997Y-211000D02*
Y26500D01*
X534997Y-211000D02*
Y26500D01*
X538997Y-211000D02*
Y26500D01*
X542997Y-211000D02*
Y26500D01*
X546997Y-211000D02*
Y26500D01*
X550997Y-211000D02*
Y26500D01*
X554997Y-211000D02*
Y26500D01*
X558997Y-211000D02*
Y26500D01*
X562997Y-211000D02*
Y26500D01*
X566997Y-211000D02*
Y26500D01*
X570997Y-211000D02*
Y26500D01*
X574997Y-211000D02*
Y26500D01*
X578997Y-211000D02*
Y26500D01*
X582997Y-211000D02*
Y26500D01*
X586997Y-211000D02*
Y26500D01*
X590997Y-211000D02*
Y26500D01*
X594997Y-211000D02*
Y26500D01*
X598997Y-211000D02*
Y26500D01*
X602997Y-211000D02*
Y26500D01*
X606997Y-211000D02*
Y26500D01*
X610997Y-211000D02*
Y26500D01*
X614997Y-211000D02*
Y26500D01*
X618997Y-211000D02*
Y26500D01*
X622997Y-211000D02*
Y26500D01*
X626997Y-211000D02*
Y26500D01*
X630997Y-211000D02*
Y26500D01*
X634997Y-211000D02*
Y26500D01*
X638997Y-211000D02*
Y26500D01*
X642997Y-211000D02*
Y26500D01*
X646997Y-211000D02*
Y26500D01*
X650997Y-211000D02*
Y26500D01*
X654997Y-211000D02*
Y26500D01*
X662997Y-211000D02*
Y-14392D01*
X658997Y-211000D02*
Y-7773D01*
X670997Y-211000D02*
Y-20206D01*
X666997Y-211000D02*
Y-17982D01*
X674997Y-211000D02*
Y-21486D01*
X678997Y-211000D02*
Y-21987D01*
X682997Y-211000D02*
Y-21762D01*
X686997Y-211000D02*
Y-20787D01*
X690997Y-211000D02*
Y-18948D01*
X694997Y-211000D02*
Y-15955D01*
X698997Y-211000D02*
Y-10913D01*
X690905Y-19002D02*
X706500D01*
X695950Y-15002D02*
X706500D01*
X698945Y-11002D02*
X706500D01*
X700785Y-7002D02*
X706500D01*
X701761Y-3002D02*
X706500D01*
X701488Y4998D02*
X706500D01*
X701987Y998D02*
X706500D01*
X658997Y8273D02*
Y26500D01*
X662997Y14892D02*
Y26500D01*
X666997Y18482D02*
Y26500D01*
X670997Y20706D02*
Y26500D01*
X674997Y21986D02*
Y26500D01*
X687786Y20998D02*
X706500D01*
X678997Y22487D02*
Y26500D01*
X682997Y22262D02*
Y26500D01*
X698997Y11413D02*
Y26500D01*
X702997Y-211000D02*
Y26500D01*
X700208Y8998D02*
X706500D01*
Y-211000D02*
Y26500D01*
X686997Y21287D02*
Y26500D01*
X690997Y19448D02*
Y26500D01*
X697986Y12998D02*
X706500D01*
X694398Y16998D02*
X706500D01*
X694997Y16455D02*
Y26500D01*
X-29002Y-465750D02*
Y-448047D01*
X-35250Y-465750D02*
Y-441799D01*
X-33002Y-465750D02*
Y-444047D01*
X-35250Y-465750D02*
X-11299D01*
X-35250Y-441799D02*
X-11299Y-465750D01*
X-35250Y-463001D02*
X-14048D01*
X-35250Y-451001D02*
X-26048D01*
X-35250Y-443001D02*
X-34048D01*
X-35250Y-447001D02*
X-30048D01*
X-35250Y-455001D02*
X-22048D01*
X-35250Y-459001D02*
X-18048D01*
X-26480Y-423001D02*
X-21121D01*
X-26480Y-426471D02*
X-22239Y-430712D01*
X-17002Y-465750D02*
Y-460047D01*
X-25002Y-465750D02*
Y-452047D01*
X-21002Y-465750D02*
Y-456047D01*
X-13002Y-465750D02*
Y-464047D01*
X10998Y-456500D02*
Y-449342D01*
X14998Y-456500D02*
Y-446435D01*
X18998Y-456500D02*
Y-441581D01*
X-25950Y-427001D02*
X-22047D01*
X-26480Y-415001D02*
X-16435D01*
X-26480Y-419001D02*
X-19341D01*
X-712Y-452239D02*
X3549Y-456500D01*
X2998Y-455949D02*
Y-452047D01*
X6998Y-456500D02*
Y-451121D01*
X-21002Y-422652D02*
Y-331927D01*
X-26480Y-426471D02*
Y-326748D01*
X-25002Y-427949D02*
Y-329138D01*
X-17002Y-415647D02*
Y-332472D01*
X-13002Y-411944D02*
Y-331230D01*
X-26480Y-411001D02*
X-11580D01*
X-26480Y-399001D02*
X-6202D01*
X-9002Y-409652D02*
Y-326705D01*
X-26480Y-403001D02*
X-5378D01*
X-26480Y-407001D02*
X-3360D01*
X-26480Y-391001D02*
X-4782D01*
X-26480Y-395001D02*
X-6016D01*
X22998Y-456500D02*
Y-407503D01*
X26998Y-456500D02*
Y-309250D01*
X30998Y-456500D02*
Y-309250D01*
X42998Y-456500D02*
Y-309250D01*
X46998Y-456500D02*
Y-309250D01*
X34998Y-456500D02*
Y-309250D01*
X38998Y-456500D02*
Y-309250D01*
X18998Y-418419D02*
Y-411281D01*
X-5002Y-391504D02*
Y-359496D01*
Y-408320D02*
Y-403996D01*
X22998Y-387998D02*
Y-363002D01*
X3549Y-456500D02*
X438997D01*
X2050Y-455001D02*
X438997D01*
X66998Y-456500D02*
Y-412643D01*
X7350Y-451001D02*
X438997D01*
X14354Y-447001D02*
X438997D01*
X18056Y-443001D02*
X438997D01*
X21121Y-423001D02*
X414032D01*
X16435Y-415001D02*
X86943D01*
X19341Y-419001D02*
X413307D01*
X20348Y-439001D02*
X438997D01*
X21681Y-435001D02*
X423847D01*
X22047Y-427001D02*
X415686D01*
X22227Y-431001D02*
X418585D01*
X74998Y-456500D02*
Y-413931D01*
X70998Y-456500D02*
Y-413806D01*
X78998Y-456500D02*
Y-413042D01*
X94998Y-456500D02*
Y-418215D01*
X98998Y-456500D02*
Y-417931D01*
X86998Y-456500D02*
Y-415047D01*
X90998Y-456500D02*
Y-417343D01*
X102998Y-456500D02*
Y-416413D01*
X106998Y-456500D02*
Y-413061D01*
X110998Y-456500D02*
Y-412664D01*
X105057Y-415001D02*
X413409D01*
X118998Y-456500D02*
Y-414219D01*
X114998Y-456500D02*
Y-413970D01*
X122998Y-456500D02*
Y-413462D01*
X58998Y-456500D02*
Y-405082D01*
X50998Y-456500D02*
Y-309250D01*
X54998Y-456500D02*
Y-309250D01*
X82998Y-456500D02*
Y-410935D01*
X62998Y-456500D02*
Y-410150D01*
X25378Y-403001D02*
X58122D01*
X26016Y-395001D02*
X57484D01*
X26202Y-399001D02*
X57298D01*
X19406Y-411001D02*
X64094D01*
X23360Y-407001D02*
X60140D01*
X24782Y-391001D02*
X58718D01*
X58998Y-390418D02*
Y-360582D01*
X126998Y-456500D02*
Y-411531D01*
X130998Y-456500D02*
Y-407753D01*
X127748Y-411001D02*
X171751D01*
X131529Y-407001D02*
X167971D01*
X88282Y-391001D02*
X89160D01*
X132666D02*
X166834D01*
X130998Y-388247D02*
Y-363253D01*
X-26480Y-387001D02*
X-2187D01*
X-1002Y-385791D02*
Y-365209D01*
X2998Y-383086D02*
Y-367914D01*
X-26480Y-383001D02*
X3178D01*
X6998Y-381780D02*
Y-369220D01*
X10998Y-381531D02*
Y-369469D01*
X-26480Y-359001D02*
X-5198D01*
X-26480Y-351001D02*
X-6094D01*
X-26480Y-355001D02*
X-6155D01*
X-26480Y-375001D02*
X82186D01*
X-26480Y-379001D02*
X81759D01*
X-26480Y-363001D02*
X-2999D01*
X-26480Y-367001D02*
X1342D01*
X22187Y-387001D02*
X61313D01*
X14998Y-382288D02*
Y-368712D01*
X18998Y-384219D02*
Y-366781D01*
X16822Y-383001D02*
X66678D01*
X78998Y-382458D02*
Y-368542D01*
X62998Y-385350D02*
Y-365650D01*
X66998Y-382858D02*
Y-368143D01*
X25198Y-359001D02*
X58302D01*
X26094Y-351001D02*
X57406D01*
X26155Y-355001D02*
X57345D01*
X70998Y-381694D02*
Y-369306D01*
X74998Y-381569D02*
Y-369431D01*
X18658Y-367001D02*
X64842D01*
X22999Y-363001D02*
X60501D01*
X-26480Y-347001D02*
X-5001D01*
X-26480Y-343001D02*
X-2611D01*
X-5002Y-347004D02*
Y-334750D01*
X-26480Y-339001D02*
X2187D01*
X-1002Y-341291D02*
Y-334750D01*
X-26480Y-331001D02*
X-22873D01*
X-8500Y-334750D02*
Y-325166D01*
Y-334750D02*
X19000D01*
X6998Y-337280D02*
Y-334750D01*
X-12627Y-331001D02*
X-8500D01*
X2998Y-338586D02*
Y-334750D01*
X25001Y-347001D02*
X58499D01*
X18998Y-339719D02*
Y-334750D01*
X22998Y-343498D02*
Y-309250D01*
X17813Y-339001D02*
X65687D01*
X22611Y-343001D02*
X60889D01*
X58998Y-345918D02*
Y-309250D01*
X62998Y-340849D02*
Y-309250D01*
X10998Y-337031D02*
Y-334750D01*
X14998Y-337788D02*
Y-334750D01*
X19000D02*
Y-309250D01*
X74998Y-337069D02*
Y-309250D01*
X78998Y-337958D02*
Y-309250D01*
X66998Y-338358D02*
Y-309250D01*
X70998Y-337194D02*
Y-309250D01*
X80322Y-383001D02*
X82480D01*
X-26480Y-371001D02*
X83883D01*
X82998Y-372668D02*
Y-366435D01*
X108117Y-371001D02*
X231049D01*
X82158Y-367001D02*
X87583D01*
X86998Y-367453D02*
Y-365185D01*
X104417Y-367001D02*
X108957D01*
X106998Y-369439D02*
Y-365459D01*
X109521Y-383001D02*
X111747D01*
X110998Y-383336D02*
Y-368164D01*
X124253Y-383001D02*
X175247D01*
X129962Y-387001D02*
X169538D01*
X122998Y-382538D02*
Y-368962D01*
X126998Y-384469D02*
Y-367031D01*
X118998Y-381781D02*
Y-369719D01*
X114998Y-382030D02*
Y-369470D01*
X132894Y-347001D02*
X166606D01*
X109814Y-375001D02*
X228630D01*
X110241Y-379001D02*
X227771D01*
X127043Y-367001D02*
X172457D01*
X131183Y-363001D02*
X168317D01*
X82998Y-340065D02*
Y-309250D01*
X86998Y-341815D02*
Y-309250D01*
X81313Y-339001D02*
X93289D01*
X-26480Y-335001D02*
X261288D01*
X90998Y-339624D02*
Y-309250D01*
X19000Y-331001D02*
X262229D01*
X19000Y-323001D02*
X271931D01*
X19000Y-327001D02*
X264774D01*
X19000Y-315001D02*
X287835D01*
X19000Y-319001D02*
X285537D01*
X19000Y-309250D02*
X351577D01*
X19000Y-311001D02*
X293601D01*
X106998Y-341541D02*
Y-309250D01*
X98998Y-339058D02*
Y-309250D01*
X102998Y-340516D02*
Y-309250D01*
X130403Y-343001D02*
X169097D01*
X126998Y-339969D02*
Y-309250D01*
X130998Y-343747D02*
Y-309250D01*
X98711Y-339001D02*
X110662D01*
X94998Y-338784D02*
Y-309250D01*
X110998Y-338836D02*
Y-309250D01*
X122998Y-338038D02*
Y-309250D01*
X125338Y-339001D02*
X174162D01*
X114998Y-337530D02*
Y-309250D01*
X118998Y-337281D02*
Y-309250D01*
X174998Y-456500D02*
Y-412892D01*
X166998Y-456500D02*
Y-405332D01*
X170998Y-456500D02*
Y-410400D01*
X182998Y-456500D02*
Y-414181D01*
X178998Y-456500D02*
Y-414056D01*
X190998Y-456500D02*
Y-411185D01*
X133461Y-403001D02*
X166039D01*
X133971Y-395001D02*
X165529D01*
X134219Y-399001D02*
X165281D01*
X186998Y-456500D02*
Y-413292D01*
X193462Y-387001D02*
X229910D01*
X190998Y-384815D02*
Y-366685D01*
X194998Y-456500D02*
Y-407048D01*
X230998Y-456500D02*
Y-388440D01*
X234998Y-456500D02*
Y-391562D01*
X238998Y-456500D02*
Y-392848D01*
X242998Y-456500D02*
Y-392849D01*
X246998Y-456500D02*
Y-391565D01*
X286998Y-456500D02*
Y-386633D01*
X196166Y-391001D02*
X234002D01*
X250998Y-456500D02*
Y-388445D01*
X247998Y-391001D02*
X291879D01*
X294998Y-456500D02*
Y-392155D01*
X252090Y-387001D02*
X287254D01*
X290998Y-456500D02*
Y-390499D01*
X142998Y-456500D02*
Y-309250D01*
X134998Y-456500D02*
Y-309250D01*
X138998Y-456500D02*
Y-309250D01*
X154998Y-456500D02*
Y-309250D01*
X146998Y-456500D02*
Y-309250D01*
X150998Y-456500D02*
Y-309250D01*
X166998Y-390668D02*
Y-360832D01*
X158998Y-456500D02*
Y-309250D01*
X162998Y-456500D02*
Y-309250D01*
X170998Y-385600D02*
Y-365900D01*
X194998Y-388952D02*
Y-362548D01*
X198998Y-456500D02*
Y-309250D01*
X202998Y-456500D02*
Y-309250D01*
X266998Y-456500D02*
Y-346922D01*
X258998Y-456500D02*
Y-309250D01*
X262998Y-456500D02*
Y-342577D01*
X270998Y-456500D02*
Y-348779D01*
X274998Y-456500D02*
Y-349241D01*
X278998Y-456500D02*
Y-348463D01*
X282998Y-456500D02*
Y-346166D01*
X214998Y-456500D02*
Y-309250D01*
X206998Y-456500D02*
Y-309250D01*
X210998Y-456500D02*
Y-309250D01*
X226998Y-456500D02*
Y-309250D01*
X254998Y-456500D02*
Y-309250D01*
X218998Y-456500D02*
Y-309250D01*
X222998Y-456500D02*
Y-309250D01*
X298998Y-456500D02*
Y-392462D01*
X302998Y-456500D02*
Y-391521D01*
X306998Y-456500D02*
Y-388977D01*
X346997Y-456500D02*
Y-391053D01*
X310998Y-456500D02*
Y-381824D01*
X342998Y-456500D02*
Y-388234D01*
X191248Y-411001D02*
X414350D01*
X304121Y-391001D02*
X346884D01*
X308746Y-387001D02*
X341939D01*
X195029Y-407001D02*
X416272D01*
X196961Y-403001D02*
X419589D01*
X197471Y-395001D02*
X438997D01*
X197719Y-399001D02*
X426082D01*
X350998Y-456500D02*
Y-392164D01*
X354997Y-456500D02*
Y-392012D01*
X358997Y-456500D02*
Y-390547D01*
X418997Y-456500D02*
Y-431428D01*
X430997Y-456500D02*
Y-437148D01*
X362998Y-456500D02*
Y-387085D01*
X414997Y-456500D02*
Y-425622D01*
X434997Y-456500D02*
Y-437149D01*
X422997Y-456500D02*
Y-434530D01*
X426997Y-456500D02*
Y-436316D01*
X438997Y-456500D02*
Y-436317D01*
X358116Y-391001D02*
X438997D01*
X363061Y-387001D02*
X438997D01*
X322998Y-456500D02*
Y-309250D01*
X314998Y-456500D02*
Y-309250D01*
X318998Y-456500D02*
Y-309250D01*
X334998Y-456500D02*
Y-309250D01*
X338997Y-456500D02*
Y-309250D01*
X326998Y-456500D02*
Y-309250D01*
X330998Y-456500D02*
Y-309250D01*
X366997Y-456500D02*
Y-329213D01*
X378997Y-456500D02*
Y-328803D01*
X382998Y-456500D02*
Y-329915D01*
X370998Y-456500D02*
Y-326916D01*
X374997Y-456500D02*
Y-325984D01*
X386997Y-456500D02*
Y-329762D01*
X390997Y-456500D02*
Y-328298D01*
X394997Y-456500D02*
Y-324835D01*
X406997Y-456500D02*
Y-309250D01*
X410997Y-456500D02*
Y-309250D01*
X398997Y-456500D02*
Y-309250D01*
X402997Y-456500D02*
Y-309250D01*
X422997Y-400470D02*
Y-329529D01*
X414997Y-409378D02*
Y-323327D01*
X418997Y-403572D02*
Y-327671D01*
X426997Y-398684D02*
Y-329991D01*
X430997Y-397852D02*
Y-329213D01*
X434997Y-397851D02*
Y-326917D01*
X438997Y-398683D02*
Y-321152D01*
X182998Y-381819D02*
Y-369681D01*
X174998Y-383108D02*
Y-368392D01*
X178998Y-381944D02*
Y-369556D01*
X187753Y-383001D02*
X228155D01*
X186998Y-382708D02*
Y-368792D01*
X133291Y-359001D02*
X166210D01*
X134057Y-351001D02*
X165443D01*
X134180Y-355001D02*
X165319D01*
X190543Y-367001D02*
X237390D01*
X194683Y-363001D02*
X288500D01*
X188838Y-339001D02*
X261594D01*
X193903Y-343001D02*
X263251D01*
X253845Y-383001D02*
X285292D01*
X253370Y-375001D02*
X285450D01*
X254229Y-379001D02*
X284752D01*
X244610Y-367001D02*
X288500D01*
X250951Y-371001D02*
X287631D01*
X286998Y-371867D02*
Y-340401D01*
X288500Y-370014D02*
Y-332737D01*
X197680Y-355001D02*
X288500D01*
X196394Y-347001D02*
X267115D01*
X197557Y-351001D02*
X288500D01*
X196791Y-359001D02*
X288500D01*
X281885Y-347001D02*
X288500D01*
X285749Y-343001D02*
X288500D01*
X287406Y-339001D02*
X288500D01*
X234998Y-367938D02*
Y-309250D01*
X166998Y-346169D02*
Y-309250D01*
X230998Y-371060D02*
Y-309250D01*
X246998Y-367935D02*
Y-309250D01*
X250998Y-371055D02*
Y-309250D01*
X238998Y-366652D02*
Y-309250D01*
X242998Y-366651D02*
Y-309250D01*
X178998Y-337444D02*
Y-309250D01*
X170998Y-341100D02*
Y-309250D01*
X174998Y-338608D02*
Y-309250D01*
X190998Y-340315D02*
Y-309250D01*
X194998Y-344452D02*
Y-309250D01*
X182998Y-337319D02*
Y-309250D01*
X186998Y-338208D02*
Y-309250D01*
X270998Y-323221D02*
Y-309250D01*
X262998Y-329423D02*
Y-309250D01*
X266998Y-325079D02*
Y-309250D01*
X284226Y-327001D02*
X285221D01*
X278998Y-323537D02*
Y-309250D01*
X282998Y-325834D02*
Y-309250D01*
X277069Y-323001D02*
X284759D01*
X274998Y-322759D02*
Y-309250D01*
X286998Y-316117D02*
Y-309250D01*
X298998Y-310288D02*
Y-309250D01*
X302998Y-311229D02*
Y-309250D01*
X290998Y-312251D02*
Y-309250D01*
X294998Y-310595D02*
Y-309250D01*
X308369Y-371001D02*
X341937D01*
X307500Y-370014D02*
Y-332737D01*
Y-367001D02*
X346879D01*
X307500Y-359001D02*
X438997D01*
X307500Y-363001D02*
X438997D01*
X307500Y-339001D02*
X438997D01*
X307500Y-335001D02*
X438997D01*
X308922Y-331001D02*
X438997D01*
X307500Y-351001D02*
X438997D01*
X307500Y-355001D02*
X438997D01*
X307500Y-343001D02*
X438997D01*
X307500Y-347001D02*
X438997D01*
X310708Y-383001D02*
X339869D01*
X310550Y-375001D02*
X339868D01*
X311248Y-379001D02*
X339250D01*
X365131Y-383001D02*
X438997D01*
X365750Y-379001D02*
X438997D01*
X363063Y-371001D02*
X438997D01*
X365132Y-375001D02*
X438997D01*
X358997Y-367453D02*
Y-329529D01*
X310779Y-327001D02*
X354105D01*
X354997Y-365988D02*
Y-327671D01*
X358121Y-367001D02*
X438997D01*
X362998Y-370915D02*
Y-329991D01*
X370895Y-327001D02*
X376105D01*
X392895D02*
X418105D01*
X310998Y-376676D02*
Y-326074D01*
X342998Y-369766D02*
Y-309250D01*
X350998Y-365835D02*
Y-323327D01*
X346997Y-366947D02*
Y-309250D01*
X308165Y-315001D02*
X349366D01*
X306998Y-313773D02*
Y-309250D01*
X310998Y-320926D02*
Y-309250D01*
X310463Y-319001D02*
X349443D01*
X311241Y-323001D02*
X350817D01*
X302398Y-311001D02*
X350562D01*
X350998Y-310173D02*
Y-309250D01*
X397557Y-319001D02*
X413443D01*
X396183Y-323001D02*
X414817D01*
X434895Y-327001D02*
X438997D01*
X438183Y-323001D02*
X438997D01*
X397634Y-315001D02*
X413366D01*
X396438Y-311001D02*
X414562D01*
X414997Y-310173D02*
Y-309250D01*
X395423D02*
X415577D01*
X437423D02*
X438997D01*
Y-312348D02*
Y-309250D01*
D35*
X12750Y-85750D02*
D03*
D36*
X-12750D02*
D03*
D37*
X96000Y-378500D02*
D03*
Y-404000D02*
D03*
D38*
Y-353500D02*
D03*
X680000Y-430000D02*
D03*
X679750Y250D02*
D03*
X0Y-430000D02*
D03*
Y0D02*
D03*
D39*
X118000Y-353500D02*
D03*
Y-398000D02*
D03*
X181500Y-353500D02*
D03*
Y-398000D02*
D03*
X73500Y-397750D02*
D03*
Y-353250D02*
D03*
X10000Y-397750D02*
D03*
Y-353250D02*
D03*
D40*
X7250Y-118750D02*
D03*
X433000Y-417500D02*
D03*
X7250Y-47750D02*
D03*
X7000Y-153500D02*
D03*
Y-188500D02*
D03*
D41*
X573500Y-82000D02*
D03*
D42*
X585000Y-350500D02*
D03*
D43*
X5250Y-321000D02*
D03*
D44*
Y-295500D02*
D03*
Y-270500D02*
D03*
Y-245000D02*
D03*
Y-219500D02*
D03*
D45*
X590250Y-270000D02*
D03*
X570253Y-290002D02*
D03*
X570253Y-270001D02*
D03*
X571000Y-250000D02*
D03*
X590253Y-290002D02*
D03*
Y-250002D02*
D03*
X630250Y-269250D02*
D03*
X610253Y-289251D02*
D03*
Y-269251D02*
D03*
X611000Y-249250D02*
D03*
X630253Y-289251D02*
D03*
Y-249251D02*
D03*
X630250Y-195500D02*
D03*
X70250Y-17500D02*
D03*
Y2500D02*
D03*
X90250Y-17500D02*
D03*
Y2500D02*
D03*
X110250Y-17500D02*
D03*
Y2500D02*
D03*
X130250Y-17500D02*
D03*
Y2500D02*
D03*
X150250Y-17500D02*
D03*
Y2500D02*
D03*
X170250Y-17500D02*
D03*
Y2500D02*
D03*
X190250Y-195500D02*
D03*
Y-175500D02*
D03*
Y-155500D02*
D03*
Y-97500D02*
D03*
Y-77500D02*
D03*
Y-57500D02*
D03*
Y-37500D02*
D03*
Y-17500D02*
D03*
Y2500D02*
D03*
X210250Y-215500D02*
D03*
Y-195500D02*
D03*
Y-175500D02*
D03*
Y-155500D02*
D03*
Y-135500D02*
D03*
Y-97500D02*
D03*
Y-77500D02*
D03*
Y-57500D02*
D03*
Y-37500D02*
D03*
Y-17500D02*
D03*
Y2500D02*
D03*
X230250Y-215500D02*
D03*
Y-195500D02*
D03*
Y-175500D02*
D03*
Y-155500D02*
D03*
Y-135500D02*
D03*
Y-97500D02*
D03*
Y-77500D02*
D03*
Y-57500D02*
D03*
Y-37500D02*
D03*
Y-17500D02*
D03*
Y2500D02*
D03*
X250250Y-215500D02*
D03*
Y-195500D02*
D03*
Y-175500D02*
D03*
Y-155500D02*
D03*
Y-135500D02*
D03*
Y-97500D02*
D03*
Y-77500D02*
D03*
Y-57500D02*
D03*
Y-37500D02*
D03*
Y-17500D02*
D03*
Y2500D02*
D03*
X270250Y-215500D02*
D03*
Y-195500D02*
D03*
Y-175500D02*
D03*
Y-155500D02*
D03*
Y-135500D02*
D03*
Y-97500D02*
D03*
Y-77500D02*
D03*
Y-57500D02*
D03*
Y-37500D02*
D03*
Y-17500D02*
D03*
Y2500D02*
D03*
X290250Y-215500D02*
D03*
Y-195500D02*
D03*
Y-175500D02*
D03*
Y-155500D02*
D03*
Y-135500D02*
D03*
Y-97500D02*
D03*
Y-77500D02*
D03*
Y-57500D02*
D03*
Y-37500D02*
D03*
Y-17500D02*
D03*
Y2500D02*
D03*
X310250Y-215500D02*
D03*
Y-195500D02*
D03*
Y-175500D02*
D03*
Y-155500D02*
D03*
Y-135500D02*
D03*
Y-97500D02*
D03*
Y-77500D02*
D03*
Y-57500D02*
D03*
Y-37500D02*
D03*
Y-17500D02*
D03*
Y2500D02*
D03*
X330250Y-195500D02*
D03*
Y-175500D02*
D03*
Y-155500D02*
D03*
Y-135500D02*
D03*
Y-97500D02*
D03*
Y-77500D02*
D03*
Y-57500D02*
D03*
Y-37500D02*
D03*
Y-17500D02*
D03*
Y2500D02*
D03*
X350250Y-195500D02*
D03*
Y-175500D02*
D03*
Y-155500D02*
D03*
Y-135500D02*
D03*
Y-97500D02*
D03*
Y-77500D02*
D03*
Y-57500D02*
D03*
Y-37500D02*
D03*
Y-17500D02*
D03*
Y2500D02*
D03*
X370250Y-195500D02*
D03*
Y-175500D02*
D03*
Y-155500D02*
D03*
Y-135500D02*
D03*
Y-97500D02*
D03*
Y-77500D02*
D03*
Y-57500D02*
D03*
Y-37500D02*
D03*
Y-17500D02*
D03*
Y2500D02*
D03*
X390250Y-195500D02*
D03*
Y-175500D02*
D03*
Y-155500D02*
D03*
Y-135500D02*
D03*
Y-97500D02*
D03*
Y-77500D02*
D03*
Y-57500D02*
D03*
Y-37500D02*
D03*
Y-17500D02*
D03*
Y2500D02*
D03*
X410250Y-195500D02*
D03*
Y-175500D02*
D03*
Y-155500D02*
D03*
Y-135500D02*
D03*
Y-97500D02*
D03*
Y-77500D02*
D03*
Y-57500D02*
D03*
Y-37500D02*
D03*
Y-17500D02*
D03*
Y2500D02*
D03*
X430250Y-195500D02*
D03*
Y-175500D02*
D03*
Y-155500D02*
D03*
Y-135500D02*
D03*
Y-97500D02*
D03*
Y-77500D02*
D03*
Y-57500D02*
D03*
Y-37500D02*
D03*
Y-17500D02*
D03*
Y2500D02*
D03*
X450250Y-195500D02*
D03*
Y-175500D02*
D03*
Y-155500D02*
D03*
Y-135500D02*
D03*
X450250Y-115500D02*
D03*
X450250Y-97500D02*
D03*
Y-77500D02*
D03*
Y-57500D02*
D03*
Y-37500D02*
D03*
Y-17500D02*
D03*
Y2500D02*
D03*
X470250Y-195500D02*
D03*
Y-175500D02*
D03*
Y-155500D02*
D03*
Y-135500D02*
D03*
Y-115500D02*
D03*
X470250Y-97500D02*
D03*
X470250Y-77500D02*
D03*
Y-57500D02*
D03*
Y-37500D02*
D03*
Y-17500D02*
D03*
Y2500D02*
D03*
X490250Y-175500D02*
D03*
Y-155500D02*
D03*
Y-135500D02*
D03*
Y-115500D02*
D03*
Y-97500D02*
D03*
Y-77500D02*
D03*
Y-57500D02*
D03*
Y-37500D02*
D03*
Y-17500D02*
D03*
Y2500D02*
D03*
X510250Y-195500D02*
D03*
Y-175500D02*
D03*
Y-155500D02*
D03*
Y-135500D02*
D03*
X510250Y-115500D02*
D03*
Y-97500D02*
D03*
Y-77500D02*
D03*
Y-57500D02*
D03*
Y-37500D02*
D03*
Y-17500D02*
D03*
Y2500D02*
D03*
X530250Y-195500D02*
D03*
Y-175500D02*
D03*
Y-155500D02*
D03*
Y-135500D02*
D03*
Y-115500D02*
D03*
Y-97500D02*
D03*
Y-77500D02*
D03*
Y-57500D02*
D03*
Y-37500D02*
D03*
Y-17500D02*
D03*
Y2500D02*
D03*
X550250Y-195500D02*
D03*
Y-175500D02*
D03*
Y-155500D02*
D03*
Y-135500D02*
D03*
X550250Y-115500D02*
D03*
Y-97500D02*
D03*
Y-77500D02*
D03*
Y-57500D02*
D03*
Y-37500D02*
D03*
Y-17500D02*
D03*
Y2500D02*
D03*
X570250Y-195500D02*
D03*
Y-175500D02*
D03*
Y-155500D02*
D03*
Y-135500D02*
D03*
Y-115500D02*
D03*
X570250Y-97500D02*
D03*
Y-57500D02*
D03*
Y-37500D02*
D03*
Y-17500D02*
D03*
Y2500D02*
D03*
X590250Y-195500D02*
D03*
Y-175500D02*
D03*
Y-155500D02*
D03*
Y-135500D02*
D03*
Y-115500D02*
D03*
Y-97500D02*
D03*
Y-77500D02*
D03*
Y-57500D02*
D03*
Y-37500D02*
D03*
Y-17500D02*
D03*
Y2500D02*
D03*
X610250Y-195500D02*
D03*
Y-175500D02*
D03*
Y-155500D02*
D03*
Y-135500D02*
D03*
Y-115500D02*
D03*
X610250Y-97500D02*
D03*
Y-77500D02*
D03*
Y-57500D02*
D03*
Y-37500D02*
D03*
Y-17500D02*
D03*
Y2500D02*
D03*
X630250Y-175500D02*
D03*
Y-155500D02*
D03*
Y-135500D02*
D03*
Y-115500D02*
D03*
Y-97500D02*
D03*
Y-77500D02*
D03*
Y-57500D02*
D03*
Y-37500D02*
D03*
Y-17500D02*
D03*
Y2500D02*
D03*
X650250Y-195500D02*
D03*
Y-175500D02*
D03*
Y-155500D02*
D03*
Y-135500D02*
D03*
Y-115500D02*
D03*
Y-97500D02*
D03*
Y-77500D02*
D03*
Y-57500D02*
D03*
Y-37500D02*
D03*
Y-17500D02*
D03*
Y2500D02*
D03*
X670250Y-195500D02*
D03*
Y-175500D02*
D03*
Y-155500D02*
D03*
Y-135500D02*
D03*
Y-115500D02*
D03*
Y-97500D02*
D03*
Y-77500D02*
D03*
Y-57500D02*
D03*
Y-37500D02*
D03*
X690250Y-195500D02*
D03*
Y-175500D02*
D03*
Y-155500D02*
D03*
Y-135500D02*
D03*
Y-115500D02*
D03*
Y-97500D02*
D03*
Y-77500D02*
D03*
Y-57500D02*
D03*
Y-37500D02*
D03*
X484250Y-435500D02*
D03*
Y-415500D02*
D03*
Y-395500D02*
D03*
Y-375500D02*
D03*
Y-357500D02*
D03*
Y-337500D02*
D03*
Y-317500D02*
D03*
X504250Y-435500D02*
D03*
Y-415500D02*
D03*
Y-395500D02*
D03*
Y-375500D02*
D03*
Y-357500D02*
D03*
Y-337500D02*
D03*
Y-317500D02*
D03*
X524250Y-435500D02*
D03*
Y-415500D02*
D03*
Y-395500D02*
D03*
Y-375500D02*
D03*
Y-357500D02*
D03*
Y-337500D02*
D03*
Y-317500D02*
D03*
X544250Y-435500D02*
D03*
Y-415500D02*
D03*
Y-395500D02*
D03*
Y-375500D02*
D03*
Y-357500D02*
D03*
Y-337500D02*
D03*
Y-317500D02*
D03*
X564250Y-435500D02*
D03*
Y-415500D02*
D03*
Y-395500D02*
D03*
Y-375500D02*
D03*
Y-357500D02*
D03*
Y-337500D02*
D03*
Y-317500D02*
D03*
X490250Y-250250D02*
D03*
X490253Y-227503D02*
D03*
X584250Y-435500D02*
D03*
Y-415500D02*
D03*
Y-395500D02*
D03*
Y-375500D02*
D03*
Y-337500D02*
D03*
Y-317500D02*
D03*
X510253Y-227503D02*
D03*
X604250Y-435500D02*
D03*
Y-415500D02*
D03*
Y-395500D02*
D03*
Y-375500D02*
D03*
Y-357500D02*
D03*
Y-337500D02*
D03*
Y-317500D02*
D03*
X530253Y-227503D02*
D03*
X624250Y-435500D02*
D03*
Y-415500D02*
D03*
Y-395500D02*
D03*
Y-375500D02*
D03*
Y-357500D02*
D03*
Y-337500D02*
D03*
Y-317500D02*
D03*
X550253Y-227503D02*
D03*
X644250Y-435500D02*
D03*
Y-415500D02*
D03*
Y-395500D02*
D03*
Y-375500D02*
D03*
Y-357500D02*
D03*
Y-337500D02*
D03*
Y-317500D02*
D03*
X570253Y-227503D02*
D03*
X664250Y-395500D02*
D03*
Y-375500D02*
D03*
Y-357500D02*
D03*
Y-337500D02*
D03*
Y-317500D02*
D03*
X590253Y-227503D02*
D03*
X684250Y-395500D02*
D03*
Y-375500D02*
D03*
Y-357500D02*
D03*
Y-337500D02*
D03*
Y-317500D02*
D03*
X610253Y-227503D02*
D03*
X630253Y-227502D02*
D03*
X650253Y-289251D02*
D03*
Y-269251D02*
D03*
Y-249251D02*
D03*
X650253Y-227503D02*
D03*
X670253Y-289251D02*
D03*
Y-269251D02*
D03*
Y-249251D02*
D03*
X670253Y-227503D02*
D03*
X690253Y-289251D02*
D03*
Y-269251D02*
D03*
Y-249251D02*
D03*
X690253Y-227503D02*
D03*
X510250Y-270000D02*
D03*
Y-250250D02*
D03*
X530250Y-270250D02*
D03*
Y-250000D02*
D03*
X550250Y-270000D02*
D03*
Y-250000D02*
D03*
X490250Y-270000D02*
D03*
Y-289750D02*
D03*
X510250D02*
D03*
X530250D02*
D03*
X550250Y-290000D02*
D03*
X190000Y-114750D02*
D03*
X210000D02*
D03*
X230000D02*
D03*
X250000D02*
D03*
X270000D02*
D03*
X290000D02*
D03*
X310000D02*
D03*
X330000D02*
D03*
X350000D02*
D03*
X370000D02*
D03*
X390000D02*
D03*
X410000D02*
D03*
X430000D02*
D03*
X189750Y-135500D02*
D03*
X490250Y-195750D02*
D03*
X330250Y-215500D02*
D03*
X350250D02*
D03*
X370250D02*
D03*
X390250D02*
D03*
X426500Y-316750D02*
D03*
X274500Y-336000D02*
D03*
X298000Y-379250D02*
D03*
Y-323500D02*
D03*
X384500Y-316750D02*
D03*
X362500D02*
D03*
X352500Y-379000D02*
D03*
X241000Y-379750D02*
D03*
M02*
