%FSLAX44Y44*%
%MOMM*%
G71*
G01*
G75*
G04 Layer_Color=8421504*
%ADD10C,0.4500*%
%ADD11R,0.9000X0.9500*%
%ADD12R,0.9500X0.9000*%
%ADD13R,1.5000X1.2500*%
%ADD14R,1.2500X1.5000*%
%ADD15R,6.3500X1.5240*%
%ADD16R,3.2000X1.0000*%
%ADD17R,0.9144X0.9144*%
%ADD18R,1.2700X0.9144*%
%ADD19R,0.9144X0.9144*%
%ADD20R,0.9144X1.2700*%
%ADD21R,0.9500X0.8000*%
%ADD22R,0.8000X0.9500*%
%ADD23O,0.5000X2.0000*%
%ADD24R,0.5000X2.0000*%
%ADD25R,0.9000X3.2000*%
%ADD26R,11.5000X9.0000*%
%ADD27R,0.9000X0.9000*%
%ADD28R,0.9000X1.2500*%
%ADD29R,2.0000X2.0000*%
%ADD30R,8.0000X4.0000*%
%ADD31O,2.0000X0.6000*%
%ADD32O,2.0000X1.0000*%
%ADD33C,0.5000*%
%ADD34C,0.3000*%
%ADD35R,1.7500X1.7500*%
%ADD36C,1.7500*%
%ADD37C,1.4000*%
%ADD38C,1.5000*%
%ADD39C,1.8000*%
%ADD40C,2.5000*%
%ADD41R,25.0000X8.0000*%
%ADD42R,22.0000X8.0000*%
%ADD43R,1.3000X1.3000*%
%ADD44C,1.3000*%
%ADD45C,1.2000*%
%ADD46C,0.2540*%
%ADD47C,0.2000*%
%ADD48C,0.3048*%
%ADD49C,0.2500*%
%ADD50C,0.1800*%
%ADD51C,0.1000*%
D10*
X510500Y-197750D02*
X610500D01*
X510500Y-195002D02*
X610500D01*
X510500Y-191002D02*
X610500D01*
X510500Y-197750D02*
Y-122000D01*
X510997Y-197750D02*
Y-122000D01*
X514997Y-197750D02*
Y-122000D01*
X510500Y-187002D02*
X610500D01*
X510500Y-183002D02*
X610500D01*
X510500Y-179002D02*
X610500D01*
X510500Y-175002D02*
X610500D01*
X510500Y-171002D02*
X610500D01*
X510500Y-167002D02*
X610500D01*
X510500Y-163002D02*
X610500D01*
X510500Y-159002D02*
X610500D01*
X510500Y-155002D02*
X610500D01*
X510500Y-151002D02*
X610500D01*
X510500Y-147002D02*
X610500D01*
X510500Y-143002D02*
X610500D01*
X510500Y-139002D02*
X610500D01*
X510500Y-135002D02*
X610500D01*
X510500Y-131002D02*
X610500D01*
X510500Y-127002D02*
X610500D01*
X510500Y-123002D02*
X610500D01*
X510500Y-122000D02*
X610500D01*
X518997Y-197750D02*
Y-122000D01*
X522997Y-197750D02*
Y-122000D01*
X526997Y-197750D02*
Y-122000D01*
X530997Y-197750D02*
Y-122000D01*
X534997Y-197750D02*
Y-122000D01*
X538997Y-197750D02*
Y-122000D01*
X542997Y-197750D02*
Y-122000D01*
X546997Y-197750D02*
Y-122000D01*
X550997Y-197750D02*
Y-122000D01*
X554997Y-197750D02*
Y-122000D01*
X558997Y-197750D02*
Y-122000D01*
X562997Y-197750D02*
Y-122000D01*
X566997Y-197750D02*
Y-122000D01*
X570997Y-197750D02*
Y-122000D01*
X574997Y-197750D02*
Y-122000D01*
X578997Y-197750D02*
Y-122000D01*
X582997Y-197750D02*
Y-122000D01*
X586997Y-197750D02*
Y-122000D01*
X590997Y-197750D02*
Y-122000D01*
X594997Y-197750D02*
Y-122000D01*
X598997Y-197750D02*
Y-122000D01*
X602997Y-197750D02*
Y-122000D01*
X606997Y-197750D02*
Y-122000D01*
X610500Y-197750D02*
Y-122000D01*
D11*
X227500Y-307750D02*
D03*
X243500D02*
D03*
X120000Y-69250D02*
D03*
X136000D02*
D03*
X118500Y-204500D02*
D03*
X134500D02*
D03*
X84000Y-110250D02*
D03*
X68000D02*
D03*
X199750Y-352250D02*
D03*
X215750D02*
D03*
X120000Y-87500D02*
D03*
X136000D02*
D03*
D12*
X326250Y-323500D02*
D03*
Y-339500D02*
D03*
X35750Y-188500D02*
D03*
Y-204500D02*
D03*
X231500Y-336250D02*
D03*
Y-352250D02*
D03*
D13*
X317000Y-379250D02*
D03*
X340000D02*
D03*
X256000D02*
D03*
X279000D02*
D03*
X226250Y-379500D02*
D03*
X203250D02*
D03*
X111250Y-47750D02*
D03*
X134250D02*
D03*
X73750D02*
D03*
X50750D02*
D03*
D14*
X367750Y-401000D02*
D03*
Y-378000D02*
D03*
X362500Y-269750D02*
D03*
Y-292750D02*
D03*
D15*
X507750Y-318750D02*
D03*
Y-291500D02*
D03*
D16*
X490500Y-346250D02*
D03*
Y-284250D02*
D03*
D17*
X405000Y-283450D02*
D03*
Y-302500D02*
D03*
X258250Y-307750D02*
D03*
Y-326800D02*
D03*
X127500Y-159250D02*
D03*
Y-178300D02*
D03*
X95750Y-161500D02*
D03*
Y-142450D02*
D03*
D18*
X384680Y-292848D02*
D03*
X278570Y-317402D02*
D03*
X147820Y-168902D02*
D03*
X75430Y-151848D02*
D03*
D19*
X386000Y-269500D02*
D03*
X405050D02*
D03*
X442500Y-374750D02*
D03*
X423450D02*
D03*
X54800Y-175250D02*
D03*
X35750D02*
D03*
D20*
X395652Y-249180D02*
D03*
X432848Y-395070D02*
D03*
X45402Y-154930D02*
D03*
D21*
X210500Y-291750D02*
D03*
Y-307750D02*
D03*
X426500Y-302000D02*
D03*
Y-286000D02*
D03*
X54750Y-188500D02*
D03*
Y-204500D02*
D03*
D22*
X51500Y-118750D02*
D03*
X35500D02*
D03*
X84000Y-127250D02*
D03*
X68000D02*
D03*
X55250Y-85750D02*
D03*
X39250D02*
D03*
X472500Y-293250D02*
D03*
X456500D02*
D03*
X427000Y-269500D02*
D03*
X443000D02*
D03*
X29000Y-138000D02*
D03*
X45000D02*
D03*
X472000Y-317500D02*
D03*
X456000D02*
D03*
X472000Y-346250D02*
D03*
X456000D02*
D03*
D23*
X88750Y-232000D02*
D03*
X50250Y-328500D02*
D03*
X63250D02*
D03*
X75750D02*
D03*
X101250D02*
D03*
X113750D02*
D03*
X126750D02*
D03*
X139250D02*
D03*
X152250D02*
D03*
Y-232000D02*
D03*
X139250D02*
D03*
X126750D02*
D03*
X113750D02*
D03*
X101250D02*
D03*
X75750D02*
D03*
X63250D02*
D03*
X50250D02*
D03*
X37750D02*
D03*
X88750Y-328500D02*
D03*
D24*
X37750D02*
D03*
D25*
X475500Y-269500D02*
D03*
X462750D02*
D03*
X488250D02*
D03*
X513750D02*
D03*
X526500D02*
D03*
X539250D02*
D03*
D26*
X501000Y-152750D02*
D03*
D27*
X387750Y-404250D02*
D03*
X406750D02*
D03*
D28*
X397250Y-383750D02*
D03*
D29*
Y-414750D02*
D03*
Y-374750D02*
D03*
D30*
X510997Y-270500D02*
D03*
D31*
X284000Y-439000D02*
D03*
X340000Y-401000D02*
D03*
Y-413500D02*
D03*
Y-426500D02*
D03*
Y-439000D02*
D03*
X284000Y-426500D02*
D03*
Y-413500D02*
D03*
Y-401000D02*
D03*
X203250Y-400750D02*
D03*
Y-413250D02*
D03*
Y-426250D02*
D03*
X259250Y-438750D02*
D03*
Y-426250D02*
D03*
Y-413250D02*
D03*
Y-400750D02*
D03*
X203250Y-438750D02*
D03*
D32*
X231250Y-400750D02*
D03*
X312000Y-401000D02*
D03*
M02*
