%FSLAX44Y44*%
%MOMM*%
G71*
G01*
G75*
G04 Layer_Physical_Order=1*
G04 Layer_Color=128*
%ADD10C,0.4500*%
%ADD11R,0.9000X0.9500*%
%ADD12R,0.9500X0.9000*%
%ADD13R,1.5000X1.2500*%
%ADD14R,1.2500X1.5000*%
%ADD15R,6.3500X1.5240*%
%ADD16R,3.2000X1.0000*%
%ADD17R,0.9144X0.9144*%
%ADD18R,1.2700X0.9144*%
%ADD19R,0.9144X0.9144*%
%ADD20R,0.9144X1.2700*%
%ADD21R,0.9500X0.8000*%
%ADD22R,0.8000X0.9500*%
%ADD23O,0.5000X2.0000*%
%ADD24R,0.5000X2.0000*%
%ADD25R,0.9000X3.2000*%
%ADD26R,11.5000X9.0000*%
%ADD27R,0.9000X0.9000*%
%ADD28R,0.9000X1.2500*%
%ADD29R,2.0000X2.0000*%
%ADD30R,8.0000X4.0000*%
%ADD31O,2.0000X0.6000*%
%ADD32O,2.0000X1.0000*%
%ADD33C,0.5000*%
%ADD34C,0.3000*%
%ADD35R,1.7500X1.7500*%
%ADD36C,1.7500*%
%ADD37C,1.4000*%
%ADD38C,1.5000*%
%ADD39C,1.8000*%
%ADD40C,2.5000*%
%ADD41R,25.0000X8.0000*%
%ADD42R,22.0000X8.0000*%
%ADD43R,1.3000X1.3000*%
%ADD44C,1.3000*%
%ADD45C,1.2000*%
D10*
X-6654Y-449126D02*
G03*
X20250Y-430000I6654J19126D01*
G01*
D02*
G03*
X9237Y-411980I-20250J0D01*
G01*
X2578Y-409915D02*
G03*
X-19126Y-436654I-2578J-20085D01*
G01*
X9237Y-411980D02*
G03*
X24250Y-397750I763J14230D01*
G01*
X84173Y-407192D02*
G03*
X107648Y-407793I11827J3192D01*
G01*
X70798Y-383759D02*
G03*
X84173Y-407192I2702J-13992D01*
G01*
X107648Y-407793D02*
G03*
X132250Y-398000I10352J9793D01*
G01*
X190865Y-432500D02*
G03*
X196250Y-447000I5385J-6250D01*
G01*
X191169Y-419750D02*
G03*
X190865Y-432500I5081J-6500D01*
G01*
X210250Y-447000D02*
G03*
X218500Y-438750I0J8250D01*
G01*
D02*
G03*
X215635Y-432500I-8250J0D01*
G01*
D02*
G03*
X218500Y-426250I-5385J6250D01*
G01*
D02*
G03*
X215331Y-419750I-8250J0D01*
G01*
X172146Y-387250D02*
G03*
X188504Y-410410I9354J-10750D01*
G01*
X215331Y-419750D02*
G03*
X218500Y-413250I-5081J6500D01*
G01*
X188504Y-410410D02*
G03*
X191169Y-419750I7746J-2840D01*
G01*
X218500Y-413250D02*
G03*
X215635Y-407000I-8250J0D01*
G01*
X217094Y-405357D02*
G03*
X226250Y-411000I9156J4607D01*
G01*
X236250D02*
G03*
X244961Y-406152I0J10250D01*
G01*
X24250Y-397750D02*
G03*
X2578Y-409915I-14250J0D01*
G01*
X132250Y-398000D02*
G03*
X127354Y-387250I-14250J0D01*
G01*
X-1230Y-378230D02*
G03*
X4250Y-380500I5480J5480D01*
G01*
X-1229Y-378232D02*
G03*
X4250Y-380500I5479J5481D01*
G01*
X107751Y-375039D02*
G03*
X96018Y-366250I-11751J-3461D01*
G01*
X-16050Y-361749D02*
G03*
X-13981Y-365479I7550J1749D01*
G01*
X-16050Y-361749D02*
G03*
X-13980Y-365480I7550J1749D01*
G01*
X94637Y-366177D02*
G03*
X95982Y-366250I1363J12677D01*
G01*
D02*
G03*
X94772Y-366312I18J-12250D01*
G01*
X96018Y-366250D02*
G03*
X105722Y-361749I-18J12750D01*
G01*
X114250Y-371750D02*
G03*
X108770Y-374020I0J-7750D01*
G01*
X114250Y-371750D02*
G03*
X108771Y-374019I0J-7750D01*
G01*
X106380Y-361749D02*
G03*
X129620Y-361749I11620J8249D01*
G01*
X217094Y-396143D02*
G03*
X211000Y-392534I-6844J-4607D01*
G01*
X215635Y-407000D02*
G03*
X217094Y-405357I-5385J6250D01*
G01*
X223088Y-391000D02*
G03*
X217094Y-396143I3162J-9750D01*
G01*
X245142Y-395651D02*
G03*
X239000Y-390876I-8892J-5099D01*
G01*
D02*
G03*
X236250Y-390500I-2750J-9874D01*
G01*
X169880Y-361749D02*
G03*
X192747Y-362250I11620J8249D01*
G01*
X266250Y-447000D02*
G03*
X271479Y-445131I0J8250D01*
G01*
D02*
G03*
X277000Y-447250I5520J6131D01*
G01*
X327615Y-432750D02*
G03*
X333000Y-447250I5385J-6250D01*
G01*
X291000D02*
G03*
X299250Y-439000I0J8250D01*
G01*
D02*
G03*
X296385Y-432750I-8250J0D01*
G01*
X246865Y-432500D02*
G03*
X252250Y-447000I5385J-6250D01*
G01*
X247169Y-419750D02*
G03*
X246865Y-432500I5081J-6500D01*
G01*
X296385Y-432750D02*
G03*
X299250Y-426500I-5385J6250D01*
G01*
D02*
G03*
X296081Y-420000I-8250J0D01*
G01*
Y-420000D02*
G03*
X299250Y-413500I-5081J6500D01*
G01*
X246411Y-407422D02*
G03*
X247169Y-419750I5839J-5828D01*
G01*
X299250Y-413500D02*
G03*
X296385Y-407250I-8250J0D01*
G01*
X297844Y-405607D02*
G03*
X307000Y-411250I9156J4607D01*
G01*
X327919Y-420000D02*
G03*
X327615Y-432750I5081J-6500D01*
G01*
X317000Y-411250D02*
G03*
X326156Y-405607I0J10250D01*
G01*
X327615Y-407250D02*
G03*
X327919Y-420000I5385J-6250D01*
G01*
X347000Y-447250D02*
G03*
X355250Y-439000I0J8250D01*
G01*
D02*
G03*
X352385Y-432750I-8250J0D01*
G01*
D02*
G03*
X355250Y-426500I-5385J6250D01*
G01*
D02*
G03*
X352081Y-420000I-8250J0D01*
G01*
Y-420000D02*
G03*
X355250Y-413500I-5081J6500D01*
G01*
D02*
G03*
X353745Y-408750I-8250J0D01*
G01*
X417031Y-425250D02*
G03*
X450750Y-417500I15969J7750D01*
G01*
D02*
G03*
X442670Y-402615I-17750J0D01*
G01*
X244961Y-406152D02*
G03*
X246411Y-407422I5789J5152D01*
G01*
X247669Y-393889D02*
G03*
X245142Y-395651I3081J-7111D01*
G01*
X252250Y-392500D02*
G03*
X247669Y-393889I0J-8250D01*
G01*
X269687Y-393250D02*
G03*
X266250Y-392500I-3437J-7500D01*
G01*
X296385Y-407250D02*
G03*
X297844Y-405607I-5385J6250D01*
G01*
Y-396393D02*
G03*
X291000Y-392750I-6844J-4607D01*
G01*
X291750Y-388604D02*
G03*
X304250Y-388604I6250J9354D01*
G01*
X251020Y-364230D02*
G03*
X256500Y-366500I5480J5480D01*
G01*
X251021Y-364231D02*
G03*
X256500Y-366500I5479J5481D01*
G01*
X304250Y-369896D02*
G03*
X291750Y-369896I-6250J-9354D01*
G01*
X307000Y-390750D02*
G03*
X297844Y-396393I0J-10250D01*
G01*
X326156D02*
G03*
X317000Y-390750I-9156J-4607D01*
G01*
X326156Y-405607D02*
G03*
X327615Y-407250I6844J4607D01*
G01*
X332250Y-392784D02*
G03*
X326156Y-396393I750J-8216D01*
G01*
X356250Y-368393D02*
G03*
X352750Y-367753I-3750J-10607D01*
G01*
X448179Y-364928D02*
G03*
X448979Y-364231I-4679J6178D01*
G01*
X448179Y-364928D02*
G03*
X448980Y-364230I-4679J6178D01*
G01*
X117751Y-275000D02*
G03*
X113169Y-276500I0J-7750D01*
G01*
X117751Y-275000D02*
G03*
X113169Y-276500I0J-7750D01*
G01*
X-16250Y-373250D02*
G03*
X-13980Y-378730I7750J0D01*
G01*
X-16250Y-373250D02*
G03*
X-13981Y-378729I7750J0D01*
G01*
X-13980Y-303770D02*
G03*
X-16250Y-309250I5480J-5480D01*
G01*
X-13981Y-303771D02*
G03*
X-16250Y-309250I5481J-5479D01*
G01*
X14082Y-287750D02*
G03*
X-6475Y-296265I-8832J-7750D01*
G01*
X-6497Y-270250D02*
G03*
X17000Y-270500I11747J-250D01*
G01*
X117751Y-275000D02*
G03*
X112273Y-277269I0J-7750D01*
G01*
X117751Y-275000D02*
G03*
X112271Y-277270I0J-7750D01*
G01*
X700000Y250D02*
G03*
X700000Y250I-20250J0D01*
G01*
X3498Y-136099D02*
G03*
X-9613Y-147250I3502J-17401D01*
G01*
X-1250Y-77766D02*
G03*
X-1250Y-93734I-11500J-7984D01*
G01*
X23219Y-111000D02*
G03*
X3498Y-136099I-15969J-7750D01*
G01*
X23219Y-40000D02*
G03*
X23219Y-55500I-15969J-7750D01*
G01*
X-19126Y6654D02*
G03*
X20250Y0I19126J-6654D01*
G01*
D02*
G03*
X-6654Y19126I-20250J0D01*
G01*
X-15250Y-305442D02*
G03*
X-16250Y-309250I6750J-3808D01*
G01*
X-15250Y-305442D02*
G03*
X-16250Y-309250I6750J-3808D01*
G01*
X-1250Y-77766D02*
G03*
X-1250Y-93734I-11500J-7984D01*
G01*
X3498Y-136099D02*
G03*
X-8895Y-161399I3502J-17401D01*
G01*
X23219Y-111000D02*
G03*
X3498Y-136099I-15969J-7750D01*
G01*
X1371Y-31002D02*
G03*
X23219Y-55500I5879J-16748D01*
G01*
X94250Y-117000D02*
G03*
X96520Y-122480I7750J0D01*
G01*
X94250Y-117000D02*
G03*
X96519Y-122479I7750J0D01*
G01*
X122020Y-127270D02*
G03*
X119750Y-132750I5480J-5480D01*
G01*
X122019Y-127271D02*
G03*
X119750Y-132750I5481J-5479D01*
G01*
X116250Y-123500D02*
G03*
X113982Y-118021I-7750J0D01*
G01*
X116250Y-123500D02*
G03*
X113980Y-118020I-7750J0D01*
G01*
X109750Y-91502D02*
G03*
X107481Y-86023I-7750J0D01*
G01*
X109750Y-91502D02*
G03*
X107480Y-86022I-7750J0D01*
G01*
X101728Y-80270D02*
G03*
X96248Y-78000I-5480J-5480D01*
G01*
X101727Y-80268D02*
G03*
X96248Y-78000I-5479J-5481D01*
G01*
X-5002Y-450778D02*
Y-449623D01*
X-1002Y-454778D02*
Y-450225D01*
X-28480Y-427299D02*
X-19126Y-436654D01*
X-6654Y-449126D02*
X2721Y-458500D01*
X2998D02*
Y-450027D01*
X6998Y-458500D02*
Y-449002D01*
X-24778Y-431001D02*
X-20225D01*
X-20778Y-435001D02*
X-19623D01*
X-28480Y-423001D02*
X-19002D01*
X-28480Y-427001D02*
X-20027D01*
X-28480Y-419001D02*
X-17003D01*
X-28480Y-415001D02*
X-13605D01*
X10998Y-458500D02*
Y-447003D01*
X14998Y-458500D02*
Y-443606D01*
X18998Y-458500D02*
Y-437009D01*
X70998Y-458500D02*
Y-411779D01*
X86998Y-458500D02*
Y-412308D01*
X90998Y-458500D02*
Y-415182D01*
X74998Y-458500D02*
Y-411921D01*
X118998Y-458500D02*
Y-412215D01*
X114998Y-458500D02*
Y-411930D01*
X13605Y-415001D02*
X90611D01*
X10998Y-412997D02*
Y-411965D01*
X14998Y-416394D02*
Y-411095D01*
X94998Y-458500D02*
Y-416209D01*
X98998Y-458500D02*
Y-415877D01*
X102998Y-458500D02*
Y-414054D01*
X122998Y-458500D02*
Y-411345D01*
X106052Y-411001D02*
X112166D01*
X22998Y-458500D02*
Y-403590D01*
X-25002Y-430778D02*
Y-361749D01*
X-21002Y-434778D02*
Y-361749D01*
X38998Y-458500D02*
Y-380500D01*
X42998Y-458500D02*
Y-380500D01*
X26998Y-458500D02*
Y-380500D01*
X34998Y-458500D02*
Y-380500D01*
X30998Y-458500D02*
Y-380500D01*
X-13002Y-414475D02*
Y-366458D01*
X-9002Y-411861D02*
Y-370458D01*
X-28480Y-427299D02*
Y-361749D01*
X-17002Y-419000D02*
Y-361749D01*
X-28480Y-411001D02*
X-7008D01*
X15241D02*
X68259D01*
X-5002Y-410377D02*
Y-374458D01*
X18998Y-422991D02*
Y-408800D01*
X54998Y-458500D02*
Y-380500D01*
X58998Y-458500D02*
Y-380500D01*
X46998Y-458500D02*
Y-380500D01*
X50998Y-458500D02*
Y-380500D01*
X66998Y-458500D02*
Y-410430D01*
X78998Y-458500D02*
Y-410897D01*
X62998Y-458500D02*
Y-407382D01*
X106998Y-458500D02*
Y-409395D01*
X82998Y-458500D02*
Y-408373D01*
X78741Y-411001D02*
X85948D01*
X110998Y-458500D02*
Y-410411D01*
X126998Y-458500D02*
Y-409050D01*
X130998Y-458500D02*
Y-403841D01*
X194998Y-458500D02*
Y-446904D01*
X196250Y-447000D02*
X210250D01*
X190998Y-458500D02*
Y-445112D01*
X-778Y-455001D02*
X464750D01*
X2721Y-458500D02*
X464750D01*
X-4778Y-451001D02*
X464750D01*
X11001Y-447001D02*
X274989D01*
X18139Y-439001D02*
X188004D01*
X19623Y-435001D02*
X188901D01*
X19002Y-423001D02*
X188667D01*
X20027Y-427001D02*
X188034D01*
X15525Y-443001D02*
X189180D01*
X20225Y-431001D02*
X189505D01*
X198998Y-458500D02*
Y-447000D01*
X202998Y-458500D02*
Y-447000D01*
X206998Y-458500D02*
Y-447000D01*
X210998Y-458500D02*
Y-446966D01*
X214998Y-458500D02*
Y-445497D01*
X217320Y-443001D02*
X245180D01*
X218496Y-439001D02*
X244004D01*
X216995Y-431001D02*
X245505D01*
X217599Y-435001D02*
X244901D01*
X218466Y-427001D02*
X244034D01*
X217833Y-423001D02*
X244667D01*
X142998Y-458500D02*
Y-387250D01*
X146998Y-458500D02*
Y-387250D01*
X134998Y-458500D02*
Y-387250D01*
X138998Y-458500D02*
Y-387250D01*
X162998Y-458500D02*
Y-387250D01*
X178998Y-458500D02*
Y-412029D01*
X150998Y-458500D02*
Y-387250D01*
X158998Y-458500D02*
Y-387250D01*
X154998Y-458500D02*
Y-387250D01*
X123834Y-411001D02*
X175666D01*
X174998Y-458500D02*
Y-410680D01*
X166998Y-458500D02*
Y-387250D01*
X170998Y-458500D02*
Y-407632D01*
X17003Y-419001D02*
X190335D01*
X101389Y-415001D02*
X188188D01*
X186998Y-458500D02*
Y-411147D01*
X182998Y-458500D02*
Y-412171D01*
X222998Y-458500D02*
Y-410470D01*
X218998Y-458500D02*
Y-407994D01*
X216165Y-419001D02*
X246335D01*
X230998Y-458500D02*
Y-411000D01*
X226998Y-458500D02*
Y-411000D01*
X238998Y-458500D02*
Y-410625D01*
X234998Y-458500D02*
Y-411000D01*
X187334Y-411001D02*
X188312D01*
X218188D02*
X244312D01*
X218312Y-415001D02*
X244188D01*
X226250Y-411000D02*
X236250D01*
X-28480Y-407001D02*
X-839D01*
X-1002Y-409775D02*
Y-406807D01*
X-28480Y-399001D02*
X-4195D01*
X-28480Y-403001D02*
X-3247D01*
X-28480Y-391001D02*
X-2551D01*
X-28480Y-395001D02*
X-3982D01*
X-28480Y-387001D02*
X645D01*
X6998Y-383820D02*
Y-380500D01*
X-28480Y-383001D02*
X70041D01*
X4250Y-380500D02*
X67540D01*
X14998Y-384405D02*
Y-380500D01*
X10998Y-383535D02*
Y-380500D01*
X20839Y-407001D02*
X62661D01*
X23247Y-403001D02*
X60253D01*
X24195Y-399001D02*
X59305D01*
X22551Y-391001D02*
X60950D01*
X23982Y-395001D02*
X59518D01*
X18998Y-386700D02*
Y-380500D01*
X22998Y-391910D02*
Y-380500D01*
X19355Y-387001D02*
X64145D01*
X130998Y-392159D02*
Y-387250D01*
X62998Y-388118D02*
Y-380500D01*
X66998Y-385070D02*
Y-380500D01*
X67540D02*
X70798Y-383759D01*
X-28480Y-375001D02*
X-4459D01*
X-1002Y-388693D02*
Y-378449D01*
X-28480Y-371001D02*
X-8459D01*
X-13979Y-365481D02*
X-1231Y-378229D01*
X-28480Y-379001D02*
X-331D01*
X2998Y-385339D02*
Y-380398D01*
X-28480Y-361749D02*
X-16050D01*
X-28480Y-363001D02*
X-15645D01*
X-28480Y-367001D02*
X-12459D01*
X100224D02*
X113441D01*
X107751Y-375039D02*
X108769Y-374021D01*
X106998Y-373105D02*
Y-362556D01*
X110998Y-372465D02*
Y-365911D01*
X118998Y-371750D02*
Y-367715D01*
X114998Y-371750D02*
Y-367430D01*
X142998Y-371750D02*
Y-361749D01*
X122998Y-371750D02*
Y-366845D01*
X102998Y-368446D02*
Y-364158D01*
X126998Y-371750D02*
Y-364550D01*
X104502Y-363001D02*
X107380D01*
X146998Y-371750D02*
Y-361749D01*
X150998Y-371750D02*
Y-361749D01*
X130998Y-371750D02*
Y-361749D01*
X138998Y-371750D02*
Y-361749D01*
X134998Y-371750D02*
Y-361749D01*
X129047Y-407001D02*
X170453D01*
X131344Y-403001D02*
X168156D01*
X131931Y-395001D02*
X167569D01*
X132215Y-399001D02*
X167285D01*
X211000Y-392534D02*
Y-391000D01*
Y-391001D02*
X223084D01*
X130413D02*
X169087D01*
X170998Y-388368D02*
Y-387250D01*
X105687Y-371001D02*
X190500D01*
X127354Y-387250D02*
X172146D01*
X211000Y-391000D02*
X213500D01*
X216000D01*
X114250Y-371750D02*
X190500D01*
X213500Y-391000D02*
X216000D01*
X190500Y-368000D02*
X213500D01*
X215637Y-407001D02*
X218127D01*
X214998Y-394003D02*
Y-391000D01*
X216167Y-395001D02*
X217764D01*
X216000Y-391000D02*
X223088D01*
X218998Y-393507D02*
Y-391000D01*
X213500Y-368000D02*
X216000D01*
X213500D02*
X216000D01*
X239000D01*
Y-379001D02*
X243250D01*
X239000Y-371001D02*
X243250D01*
X162998Y-371750D02*
Y-361749D01*
X166998Y-371750D02*
Y-361749D01*
X154998Y-371750D02*
Y-361749D01*
X158998Y-371750D02*
Y-361749D01*
X178998Y-371750D02*
Y-367529D01*
X190500Y-371750D02*
Y-368000D01*
X170998Y-371750D02*
Y-363132D01*
X186998Y-371750D02*
Y-366647D01*
X174998Y-371750D02*
Y-366180D01*
X122558Y-367001D02*
X176942D01*
X182998Y-371750D02*
Y-367671D01*
X128620Y-363001D02*
X170880D01*
X129620Y-361749D02*
X169880D01*
X186059Y-367001D02*
X356250D01*
X190998Y-368000D02*
Y-364123D01*
X192120Y-363001D02*
X249791D01*
X192747Y-362250D02*
X206000D01*
X202998Y-368000D02*
Y-362250D01*
X206998Y-368000D02*
Y-362250D01*
X194998Y-368000D02*
Y-362250D01*
X198998Y-368000D02*
Y-362250D01*
X210998Y-368000D02*
Y-362250D01*
X214998Y-368000D02*
Y-362250D01*
X218998Y-368000D02*
Y-362250D01*
X234998Y-368000D02*
Y-362000D01*
X222998Y-368000D02*
Y-362250D01*
X206000D02*
X209500D01*
X206000D02*
X209500D01*
X225500D01*
X226998Y-368000D02*
Y-362000D01*
X230998Y-368000D02*
Y-362000D01*
X225500D02*
X241500D01*
X238998Y-368000D02*
Y-362000D01*
X254998Y-458500D02*
Y-447000D01*
X262998Y-458500D02*
Y-447000D01*
X246998Y-458500D02*
Y-445112D01*
X250998Y-458500D02*
Y-446904D01*
X278998Y-458500D02*
Y-447250D01*
X282998Y-458500D02*
Y-447250D01*
X266998Y-458500D02*
Y-446966D01*
X270998Y-458500D02*
Y-445497D01*
X252250Y-447000D02*
X266250D01*
X258998Y-458500D02*
Y-447000D01*
X274998Y-458500D02*
Y-447003D01*
X277000Y-447250D02*
X291000D01*
X286998Y-458500D02*
Y-447250D01*
X290998Y-458500D02*
Y-447250D01*
X294998Y-458500D02*
Y-446217D01*
X298998Y-458500D02*
Y-441025D01*
X334998Y-458500D02*
Y-447250D01*
X338997Y-458500D02*
Y-447250D01*
X330998Y-458500D02*
Y-447003D01*
X326998Y-458500D02*
Y-444660D01*
X299250Y-439001D02*
X324750D01*
X293011Y-447001D02*
X330989D01*
X298215Y-443001D02*
X325785D01*
X298216Y-435001D02*
X325784D01*
X242998Y-458500D02*
Y-408466D01*
X297914Y-431001D02*
X326086D01*
X298998Y-424475D02*
Y-415525D01*
X297148Y-419001D02*
X326852D01*
X298471Y-423001D02*
X325529D01*
X298862Y-411001D02*
X304755D01*
X298998Y-436975D02*
Y-428525D01*
X306998Y-458500D02*
Y-411250D01*
X302998Y-458500D02*
Y-410436D01*
X310998Y-458500D02*
Y-411250D01*
X326998Y-433340D02*
Y-432160D01*
X314998Y-458500D02*
Y-411250D01*
X322998Y-458500D02*
Y-409312D01*
X318998Y-458500D02*
Y-411054D01*
X299112Y-415001D02*
X324888D01*
X299235Y-427001D02*
X324765D01*
X298998Y-411475D02*
Y-407405D01*
X307000Y-411250D02*
X317000D01*
X326998Y-420840D02*
Y-419160D01*
X342998Y-458500D02*
Y-447250D01*
X346997Y-458500D02*
Y-447250D01*
X333000D02*
X347000D01*
X350998Y-458500D02*
Y-446217D01*
X349011Y-447001D02*
X464750D01*
X354997Y-458500D02*
Y-441026D01*
X386997Y-458500D02*
Y-430000D01*
X382998Y-458500D02*
Y-430000D01*
X354997Y-436974D02*
Y-428526D01*
X355235Y-427001D02*
X382000D01*
X354215Y-443001D02*
X464750D01*
X355250Y-439001D02*
X464750D01*
X353914Y-431001D02*
X421477D01*
X354216Y-435001D02*
X430038D01*
X382000Y-430000D02*
X412500D01*
X398997Y-458500D02*
Y-430000D01*
X402997Y-458500D02*
Y-430000D01*
X390997Y-458500D02*
Y-430000D01*
X394997Y-458500D02*
Y-430000D01*
X422997Y-458500D02*
Y-432163D01*
X426997Y-458500D02*
Y-434204D01*
X406997Y-458500D02*
Y-430000D01*
X418997Y-458500D02*
Y-428408D01*
X410997Y-458500D02*
Y-430000D01*
X430997Y-458500D02*
Y-435137D01*
X434997Y-458500D02*
Y-435137D01*
X412500Y-427001D02*
X418007D01*
X438997Y-458500D02*
Y-434206D01*
X435962Y-435001D02*
X464750D01*
X442997Y-458500D02*
Y-432167D01*
X444523Y-431001D02*
X464750D01*
X446997Y-458500D02*
Y-428415D01*
X447993Y-427001D02*
X464750D01*
X354997Y-424474D02*
Y-415526D01*
X370998Y-458500D02*
Y-413750D01*
X374997Y-458500D02*
Y-413750D01*
X358997Y-458500D02*
Y-413750D01*
X366997Y-458500D02*
Y-413750D01*
X362998Y-458500D02*
Y-413750D01*
X354997Y-411474D02*
Y-408750D01*
X353148Y-419001D02*
X382000D01*
X354471Y-423001D02*
X382000D01*
X355112Y-415001D02*
X382000D01*
X356250Y-413750D02*
Y-408750D01*
Y-413750D02*
X378000D01*
X414997Y-458500D02*
Y-425250D01*
X378997Y-458500D02*
Y-414000D01*
X382000Y-430000D02*
Y-414000D01*
X450997Y-458500D02*
Y-384572D01*
X454997Y-458500D02*
Y-361749D01*
X458997Y-458500D02*
Y-361749D01*
X464750Y-458500D02*
Y-361749D01*
X462997Y-458500D02*
Y-361749D01*
X412500Y-430000D02*
Y-425250D01*
X417031D01*
X378000Y-413750D02*
X379250D01*
X378000Y-414000D02*
X382000D01*
X449876Y-423001D02*
X464750D01*
X450686Y-419001D02*
X464750D01*
X450573Y-415001D02*
X464750D01*
X449518Y-411001D02*
X464750D01*
X244373Y-407001D02*
X245846D01*
X244736Y-395001D02*
X245843D01*
X246998Y-394219D02*
Y-390750D01*
X250998Y-392596D02*
Y-390750D01*
X243250D02*
X266250D01*
X262998Y-392500D02*
Y-390750D01*
X254998Y-392500D02*
Y-390750D01*
X258998Y-392500D02*
Y-390750D01*
X239416Y-391001D02*
X271250D01*
X252250Y-392500D02*
X266250D01*
X266250Y-390750D02*
X268750D01*
X266998Y-392534D02*
Y-390750D01*
X266250D02*
X268750D01*
X269687Y-393250D02*
X271250D01*
X270998D02*
Y-390750D01*
X271250Y-393250D02*
Y-390750D01*
X294998Y-393783D02*
Y-390092D01*
X296661Y-407001D02*
X298690D01*
X296664Y-395001D02*
X298689D01*
X298998Y-394595D02*
Y-390456D01*
X286998Y-392750D02*
Y-390750D01*
X290998Y-392750D02*
Y-390750D01*
X268750D02*
X271250D01*
X286750Y-392750D02*
Y-390750D01*
X291750D01*
X286750Y-392750D02*
X291000D01*
X302998Y-391564D02*
Y-389329D01*
X304250Y-390750D02*
Y-388604D01*
X239000Y-390876D02*
Y-368000D01*
Y-387001D02*
X243250D01*
X242998Y-393034D02*
Y-361749D01*
X243250Y-390750D02*
Y-367750D01*
X239000Y-383001D02*
X243250D01*
X239000Y-375001D02*
X243250D01*
X246998Y-367750D02*
Y-361749D01*
X250998Y-367750D02*
Y-364208D01*
X241500Y-361749D02*
X248539D01*
X251019Y-364229D01*
X243250Y-367750D02*
X266250D01*
X258998D02*
Y-366500D01*
X254998Y-367750D02*
Y-366353D01*
X291750Y-369896D02*
Y-367750D01*
Y-390750D02*
Y-388604D01*
X266998Y-367750D02*
Y-366500D01*
X268750Y-367750D02*
X291750D01*
X304250Y-369896D02*
Y-367750D01*
X294998Y-368408D02*
Y-366500D01*
X302998Y-369171D02*
Y-366500D01*
X298998Y-368044D02*
Y-366500D01*
X266250Y-367750D02*
X268750D01*
X266250D02*
X268750D01*
X262998D02*
Y-366500D01*
X270998Y-367750D02*
Y-366500D01*
X286998Y-367750D02*
Y-366500D01*
X290998Y-367750D02*
Y-366500D01*
X274998Y-367750D02*
Y-366500D01*
X282998Y-367750D02*
Y-366500D01*
X278998Y-367750D02*
Y-366500D01*
X319245Y-411001D02*
X325138D01*
X325310Y-407001D02*
X327339D01*
X326998Y-407840D02*
Y-406660D01*
X286750Y-391001D02*
X304745D01*
X304250Y-390750D02*
X307000D01*
X317000D01*
X307000D02*
X317000D01*
X319255Y-391001D02*
X332250D01*
X325311Y-395001D02*
X327336D01*
X317000Y-390750D02*
X327250D01*
X326998Y-395340D02*
Y-390750D01*
X322998Y-392688D02*
Y-390750D01*
X353745Y-408750D02*
X356250D01*
X354863Y-411001D02*
X356250D01*
X442670Y-402615D02*
Y-384572D01*
X442997Y-402833D02*
Y-384572D01*
X443239Y-403001D02*
X464750D01*
X447312Y-407001D02*
X464750D01*
X442670Y-399001D02*
X464750D01*
X446997Y-406585D02*
Y-384572D01*
X442670Y-395001D02*
X464750D01*
X330998Y-392997D02*
Y-390750D01*
X332250Y-392784D02*
Y-390750D01*
X327250D02*
X329750D01*
X327250D02*
X329750D01*
X332250D01*
X442670Y-391001D02*
X464750D01*
X442670Y-387001D02*
X464750D01*
X442670Y-384572D02*
X452322D01*
Y-383001D02*
X464750D01*
X314998Y-367750D02*
Y-366500D01*
X306998Y-367750D02*
Y-366500D01*
X310998Y-367750D02*
Y-366500D01*
X304250Y-367750D02*
X327250D01*
X318998D02*
Y-366500D01*
X326998Y-367750D02*
Y-366500D01*
X322998Y-367750D02*
Y-366500D01*
X327250Y-367750D02*
X329750D01*
X327250D02*
X329750D01*
X330998D02*
Y-366500D01*
X334998Y-367750D02*
Y-366500D01*
X329750Y-367750D02*
X352500D01*
X342998D02*
Y-366500D01*
X256500D02*
X356250D01*
X346997Y-367750D02*
Y-366500D01*
X338997Y-367750D02*
Y-366500D01*
X354997Y-368031D02*
Y-366500D01*
X356250Y-368393D02*
Y-366500D01*
X452322Y-375001D02*
X464750D01*
X452322Y-379001D02*
X464750D01*
X452322Y-384572D02*
Y-364928D01*
Y-371001D02*
X464750D01*
X350998Y-367750D02*
Y-366500D01*
X450997Y-364928D02*
Y-362213D01*
X448179Y-364928D02*
X452322D01*
Y-367001D02*
X464750D01*
X448982Y-364229D02*
X451461Y-361749D01*
X450209Y-363001D02*
X464750D01*
X451461Y-361749D02*
X464750D01*
X464000Y-415001D02*
X485250D01*
X35000Y-276500D02*
Y-249750D01*
X38998Y-276500D02*
Y-249750D01*
X42998Y-276500D02*
Y-249750D01*
X46998Y-276500D02*
Y-249750D01*
X50998Y-276500D02*
Y-249750D01*
X35000Y-276500D02*
X113169D01*
X54998D02*
Y-249750D01*
X58998Y-276500D02*
Y-249750D01*
X62998Y-276500D02*
Y-249750D01*
X66998Y-276500D02*
Y-249750D01*
X70998Y-276500D02*
Y-249750D01*
X35000Y-275001D02*
X117603D01*
X35000Y-271001D02*
X155250D01*
X74998Y-276500D02*
Y-249750D01*
X78998Y-276500D02*
Y-249750D01*
X82998Y-276500D02*
Y-249750D01*
X35000Y-267001D02*
X155250D01*
X35000Y-263001D02*
X155250D01*
X35000Y-259002D02*
X155250D01*
X35000Y-255002D02*
X155250D01*
X35000Y-251001D02*
X155250D01*
X35000Y-249750D02*
X155250D01*
X86998Y-276500D02*
Y-249750D01*
X90998Y-276500D02*
Y-249750D01*
X94998Y-276500D02*
Y-249750D01*
X98998Y-276500D02*
Y-249750D01*
X102998Y-276500D02*
Y-249750D01*
X117751Y-275000D02*
X155250D01*
X106998Y-276500D02*
Y-249750D01*
X110998Y-276500D02*
Y-249750D01*
X114998Y-275506D02*
Y-249750D01*
X118998Y-275000D02*
Y-249750D01*
X122998Y-275000D02*
Y-249750D01*
X126998Y-275000D02*
Y-249750D01*
X130998Y-275000D02*
Y-249750D01*
X134998Y-275000D02*
Y-249750D01*
X138998Y-275000D02*
Y-249750D01*
X142998Y-275000D02*
Y-249750D01*
X146998Y-275000D02*
Y-249750D01*
X150998Y-275000D02*
Y-249750D01*
X154998Y-275000D02*
Y-249750D01*
X155250Y-275000D02*
Y-249750D01*
X-28480Y-375001D02*
X-16049D01*
X-28480Y-371001D02*
X-16250D01*
X-28480Y-367001D02*
X-16250D01*
X-28480Y-363001D02*
X-16250D01*
X-28480Y-359001D02*
X-16250D01*
X-28480Y-355001D02*
X-16250D01*
X-28480Y-385750D02*
Y-270250D01*
Y-351001D02*
X-16250D01*
X-28480Y-347001D02*
X-16250D01*
X-25002Y-385750D02*
Y-270250D01*
X-21002Y-385750D02*
Y-270250D01*
X-17002Y-385750D02*
Y-270250D01*
X-16250Y-373250D02*
Y-337250D01*
X-28480Y-385750D02*
X-6960D01*
X-28480Y-379001D02*
X-13709D01*
X-28480Y-383001D02*
X-9709D01*
X-13979Y-378731D02*
X-6960Y-385750D01*
X-13002D02*
Y-379708D01*
X-9002Y-385750D02*
Y-383708D01*
X-28480Y-343001D02*
X-16250D01*
X-28480Y-339001D02*
X-16250D01*
X-28480Y-335001D02*
X-16250D01*
Y-337250D02*
Y-309250D01*
X-28480Y-331001D02*
X-16250D01*
X-28480Y-327001D02*
X-16250D01*
X-28480Y-323001D02*
X-16250D01*
X-28480Y-319001D02*
X-16250D01*
X-28480Y-315001D02*
X-16250D01*
X-28480Y-311001D02*
X-16250D01*
X-28480Y-307001D02*
X-15917D01*
X-28480Y-303001D02*
X-13211D01*
X-28480Y-299001D02*
X-9212D01*
X-13979Y-303769D02*
X-6475Y-296265D01*
X-13002Y-302792D02*
Y-270250D01*
X-9002Y-298792D02*
Y-270250D01*
X-28480Y-295001D02*
X-6489D01*
X-28480Y-291001D02*
X-5605D01*
X-28480Y-287001D02*
X-2864D01*
X-1002Y-285551D02*
Y-280449D01*
X-28480Y-283001D02*
X106540D01*
X-28480Y-279001D02*
X-2861D01*
X-28480Y-271001D02*
X-6489D01*
X-28480Y-275001D02*
X-5604D01*
X-5002Y-289759D02*
Y-276241D01*
X-28480Y-270250D02*
X-6497D01*
X14998Y-287750D02*
Y-277060D01*
X18998Y-287750D02*
Y-270250D01*
X22998Y-287750D02*
Y-270250D01*
X26998Y-287750D02*
Y-270250D01*
X30998Y-287750D02*
Y-270250D01*
X34998Y-287750D02*
Y-270250D01*
X38998Y-287750D02*
Y-270250D01*
X42998Y-287750D02*
Y-270250D01*
X46998Y-287750D02*
Y-270250D01*
X50998Y-287750D02*
Y-270250D01*
X54998Y-287750D02*
Y-270250D01*
X58998Y-287750D02*
Y-270250D01*
X62998Y-287750D02*
Y-270250D01*
X14082Y-287750D02*
X101791D01*
X66998D02*
Y-270250D01*
X13364Y-287001D02*
X102540D01*
X70998Y-287750D02*
Y-270250D01*
X74998Y-287750D02*
Y-270250D01*
X101791Y-287750D02*
X112270Y-277271D01*
X78998Y-287750D02*
Y-270250D01*
X82998Y-287750D02*
Y-270250D01*
X86998Y-287750D02*
Y-270250D01*
X90998Y-287750D02*
Y-270250D01*
X94998Y-287750D02*
Y-270250D01*
X98998Y-287750D02*
Y-270250D01*
X102998Y-286543D02*
Y-270250D01*
X10998Y-285252D02*
Y-280748D01*
X2998Y-283968D02*
Y-282032D01*
X6998Y-283881D02*
Y-282119D01*
X13361Y-279001D02*
X110540D01*
X16104Y-275001D02*
X117603D01*
X106998Y-282543D02*
Y-270250D01*
X110998Y-278543D02*
Y-270250D01*
X114998Y-275506D02*
Y-270250D01*
X118998Y-275000D02*
Y-270250D01*
X117751Y-275000D02*
X155250D01*
X122998D02*
Y-270250D01*
X16989Y-271001D02*
X155250D01*
X126998Y-275000D02*
Y-270250D01*
X130998Y-275000D02*
Y-270250D01*
X134998Y-275000D02*
Y-270250D01*
X138998Y-275000D02*
Y-270250D01*
X142998Y-275000D02*
Y-270250D01*
X16997D02*
X155250D01*
X146998Y-275000D02*
Y-270250D01*
X150998Y-275000D02*
Y-270250D01*
X154998Y-275000D02*
Y-270250D01*
X155250Y-275000D02*
Y-270250D01*
X9258Y-412000D02*
X12259Y-415001D01*
X-12502Y-412000D02*
X9258D01*
X12259Y-415001D02*
X16500D01*
X474750Y-458500D02*
X708500D01*
X474750D02*
Y-307750D01*
X474997Y-458500D02*
Y-307750D01*
X478997Y-458500D02*
Y-307750D01*
X482997Y-458500D02*
Y-307750D01*
X486997Y-458500D02*
Y-307750D01*
X490997Y-458500D02*
Y-307750D01*
X494997Y-458500D02*
Y-307750D01*
X498997Y-458500D02*
Y-307750D01*
X502997Y-458500D02*
Y-307750D01*
X506997Y-458500D02*
Y-307750D01*
X510997Y-458500D02*
Y-307750D01*
X474750Y-455001D02*
X708500D01*
X474750Y-451001D02*
X708500D01*
X474750Y-447001D02*
X708500D01*
X474750Y-443001D02*
X708500D01*
X474750Y-439001D02*
X708500D01*
X474750Y-435001D02*
X708500D01*
X474750Y-431001D02*
X708500D01*
X474750Y-427001D02*
X708500D01*
X474750Y-423001D02*
X708500D01*
X474750Y-419001D02*
X708500D01*
X474750Y-415001D02*
X708500D01*
X474750Y-411001D02*
X708500D01*
X474750Y-407001D02*
X708500D01*
X474750Y-403001D02*
X708500D01*
X474750Y-399001D02*
X708500D01*
X474750Y-395001D02*
X708500D01*
X474750Y-391001D02*
X708500D01*
X474750Y-387001D02*
X708500D01*
X474750Y-383001D02*
X708500D01*
X474750Y-379001D02*
X708500D01*
X474750Y-375001D02*
X708500D01*
X474750Y-371001D02*
X708500D01*
X474750Y-367001D02*
X708500D01*
X474750Y-363001D02*
X708500D01*
X474750Y-359001D02*
X708500D01*
X474750Y-355001D02*
X708500D01*
X474750Y-351001D02*
X708500D01*
X474750Y-347001D02*
X708500D01*
X474750Y-343001D02*
X708500D01*
X474750Y-339001D02*
X708500D01*
X474750Y-335001D02*
X708500D01*
X474750Y-331001D02*
X708500D01*
X474750Y-327001D02*
X708500D01*
X474750Y-323001D02*
X708500D01*
X474750Y-319001D02*
X708500D01*
X474750Y-315001D02*
X708500D01*
X474750Y-311001D02*
X708500D01*
X474750Y-307750D02*
X708500D01*
X514997Y-458500D02*
Y-307750D01*
X518997Y-458500D02*
Y-307750D01*
X522997Y-458500D02*
Y-307750D01*
X526997Y-458500D02*
Y-307750D01*
X530997Y-458500D02*
Y-307750D01*
X534997Y-458500D02*
Y-307750D01*
X538997Y-458500D02*
Y-307750D01*
X542997Y-458500D02*
Y-307750D01*
X546997Y-458500D02*
Y-307750D01*
X550997Y-458500D02*
Y-307750D01*
X554997Y-458500D02*
Y-307750D01*
X558997Y-458500D02*
Y-307750D01*
X562997Y-458500D02*
Y-307750D01*
X566997Y-458500D02*
Y-307750D01*
X570997Y-458500D02*
Y-307750D01*
X574997Y-458500D02*
Y-307750D01*
X578997Y-458500D02*
Y-307750D01*
X582997Y-458500D02*
Y-307750D01*
X586997Y-458500D02*
Y-307750D01*
X590997Y-458500D02*
Y-307750D01*
X594997Y-458500D02*
Y-307750D01*
X598997Y-458500D02*
Y-307750D01*
X602997Y-458500D02*
Y-307750D01*
X606997Y-458500D02*
Y-307750D01*
X610997Y-458500D02*
Y-307750D01*
X614997Y-458500D02*
Y-307750D01*
X618997Y-458500D02*
Y-307750D01*
X622997Y-458500D02*
Y-307750D01*
X626997Y-458500D02*
Y-307750D01*
X630997Y-458500D02*
Y-307750D01*
X634997Y-458500D02*
Y-307750D01*
X638997Y-458500D02*
Y-307750D01*
X642997Y-458500D02*
Y-307750D01*
X646997Y-458500D02*
Y-307750D01*
X650997Y-458500D02*
Y-307750D01*
X654997Y-458500D02*
Y-307750D01*
X658997Y-458500D02*
Y-307750D01*
X662997Y-458500D02*
Y-307750D01*
X666997Y-458500D02*
Y-307750D01*
X670997Y-458500D02*
Y-307750D01*
X674997Y-458500D02*
Y-307750D01*
X678997Y-458500D02*
Y-307750D01*
X682997Y-458500D02*
Y-307750D01*
X686997Y-458500D02*
Y-307750D01*
X690997Y-458500D02*
Y-307750D01*
X694997Y-458500D02*
Y-307750D01*
X698997Y-458500D02*
Y-307750D01*
X702997Y-458500D02*
Y-307750D01*
X706997Y-458500D02*
Y-307750D01*
X708500Y-458500D02*
Y-307750D01*
X-19126Y-436654D02*
X-3529Y-452250D01*
X-1002D01*
X-20781Y4998D02*
X-6654Y19126D01*
X362500Y-316750D02*
Y-292750D01*
X384500Y-316750D02*
Y-293028D01*
X39750Y-29000D02*
Y28500D01*
X42998Y-29000D02*
Y28500D01*
X46998Y-29000D02*
Y28500D01*
X50998Y-29000D02*
Y28500D01*
X54998Y-29000D02*
Y28500D01*
X58998Y-29000D02*
Y28500D01*
X39750Y-29000D02*
X190998D01*
X62998D02*
Y28500D01*
X39750Y-27002D02*
X190998D01*
X66998Y-29000D02*
Y28500D01*
X70998Y-29000D02*
Y28500D01*
X74998Y-29000D02*
Y28500D01*
X78998Y-29000D02*
Y28500D01*
X39750Y-23002D02*
X190998D01*
X39750Y-19002D02*
X190998D01*
X39750Y-15002D02*
X190998D01*
X39750Y-11002D02*
X190998D01*
X39750Y-7002D02*
X190998D01*
X39750Y-3002D02*
X190998D01*
X39750Y998D02*
X190998D01*
X39750Y4998D02*
X190998D01*
X39750Y8998D02*
X190998D01*
X39750Y12998D02*
X190998D01*
X39750Y16998D02*
X190998D01*
X39750Y20998D02*
X190998D01*
X39750Y24998D02*
X190998D01*
X39750Y28500D02*
X190998D01*
X82998Y-29000D02*
Y28500D01*
X86998Y-29000D02*
Y28500D01*
X90998Y-29000D02*
Y28500D01*
X94998Y-29000D02*
Y28500D01*
X98998Y-29000D02*
Y28500D01*
X102998Y-29000D02*
Y28500D01*
X106998Y-29000D02*
Y28500D01*
X110998Y-29000D02*
Y28500D01*
X114998Y-29000D02*
Y28500D01*
X118998Y-29000D02*
Y28500D01*
X122998Y-29000D02*
Y28500D01*
X126998Y-29000D02*
Y28500D01*
X130998Y-29000D02*
Y28500D01*
X134998Y-29000D02*
Y28500D01*
X138998Y-29000D02*
Y28500D01*
X142998Y-29000D02*
Y28500D01*
X146998Y-29000D02*
Y28500D01*
X150998Y-29000D02*
Y28500D01*
X154998Y-29000D02*
Y28500D01*
X158998Y-29000D02*
Y28500D01*
X162998Y-29000D02*
Y28500D01*
X166998Y-29000D02*
Y28500D01*
X170998Y-29000D02*
Y28500D01*
X174998Y-29000D02*
Y28500D01*
X178998Y-29000D02*
Y28500D01*
X182998Y-29000D02*
Y28500D01*
X186998Y-29000D02*
Y28500D01*
X190998Y-29000D02*
Y28500D01*
X177250Y-211000D02*
Y28500D01*
X178998Y-211000D02*
Y28500D01*
X182998Y-211000D02*
Y28500D01*
X186998Y-211000D02*
Y28500D01*
X190998Y-211000D02*
Y28500D01*
X194998Y-211000D02*
Y28500D01*
X198998Y-211000D02*
Y28500D01*
X202998Y-211000D02*
Y28500D01*
X206998Y-211000D02*
Y28500D01*
X210998Y-211000D02*
Y28500D01*
X214998Y-211000D02*
Y28500D01*
X218998Y-211000D02*
Y28500D01*
X222998Y-211000D02*
Y28500D01*
X226998Y-211000D02*
Y28500D01*
X230998Y-211000D02*
Y28500D01*
X234998Y-211000D02*
Y28500D01*
X238998Y-211000D02*
Y28500D01*
X242998Y-211000D02*
Y28500D01*
X246998Y-211000D02*
Y28500D01*
X250998Y-211000D02*
Y28500D01*
X254998Y-211000D02*
Y28500D01*
X258998Y-211000D02*
Y28500D01*
X262998Y-211000D02*
Y28500D01*
X266998Y-211000D02*
Y28500D01*
X270998Y-211000D02*
Y28500D01*
X274998Y-211000D02*
Y28500D01*
X278998Y-211000D02*
Y28500D01*
X177250Y-211000D02*
X708500D01*
X177250Y-207002D02*
X708500D01*
X177250Y-203002D02*
X708500D01*
X177250Y-199002D02*
X708500D01*
X177250Y-195002D02*
X708500D01*
X177250Y-191002D02*
X708500D01*
X282998Y-211000D02*
Y28500D01*
X286998Y-211000D02*
Y28500D01*
X290998Y-211000D02*
Y28500D01*
X294998Y-211000D02*
Y28500D01*
X298998Y-211000D02*
Y28500D01*
X177250Y-187002D02*
X708500D01*
X302998Y-211000D02*
Y28500D01*
X306998Y-211000D02*
Y28500D01*
X310998Y-211000D02*
Y28500D01*
X314998Y-211000D02*
Y28500D01*
X318998Y-211000D02*
Y28500D01*
X322998Y-211000D02*
Y28500D01*
X326998Y-211000D02*
Y28500D01*
X330998Y-211000D02*
Y28500D01*
X334998Y-211000D02*
Y28500D01*
X338997Y-211000D02*
Y28500D01*
X342998Y-211000D02*
Y28500D01*
X346997Y-211000D02*
Y28500D01*
X350998Y-211000D02*
Y28500D01*
X354997Y-211000D02*
Y28500D01*
X358997Y-211000D02*
Y28500D01*
X177250Y-183002D02*
X708500D01*
X177250Y-179002D02*
X708500D01*
X177250Y-175002D02*
X708500D01*
X177250Y-171002D02*
X708500D01*
X177250Y-167002D02*
X708500D01*
X177250Y-163002D02*
X708500D01*
X177250Y-159002D02*
X708500D01*
X177250Y-155002D02*
X708500D01*
X177250Y-151002D02*
X708500D01*
X177250Y-147002D02*
X708500D01*
X177250Y-143002D02*
X708500D01*
X177250Y-139002D02*
X708500D01*
X177250Y-135002D02*
X708500D01*
X177250Y-131002D02*
X708500D01*
X177250Y-127002D02*
X708500D01*
X177250Y-123002D02*
X708500D01*
X177250Y-15002D02*
X666429D01*
X177250Y-11002D02*
X662914D01*
X177250Y-119002D02*
X708500D01*
X177250Y-19002D02*
X673471D01*
X177250Y-3002D02*
X659763D01*
X177250Y-7002D02*
X660843D01*
X177250Y998D02*
X659514D01*
X177250Y4998D02*
X660064D01*
X177250Y8998D02*
X661487D01*
X177250Y12998D02*
X664016D01*
X177250Y16998D02*
X668367D01*
X177250Y-115002D02*
X708500D01*
X177250Y-111002D02*
X708500D01*
X177250Y-107002D02*
X708500D01*
X177250Y-103002D02*
X708500D01*
X177250Y-99002D02*
X708500D01*
X177250Y-95002D02*
X708500D01*
X177250Y-91002D02*
X708500D01*
X177250Y-87002D02*
X708500D01*
X177250Y-83002D02*
X708500D01*
X177250Y-79002D02*
X708500D01*
X177250Y-75002D02*
X708500D01*
X177250Y-71002D02*
X708500D01*
X177250Y-67002D02*
X708500D01*
X177250Y-63002D02*
X708500D01*
X177250Y-59002D02*
X708500D01*
X177250Y-55002D02*
X708500D01*
X177250Y-51002D02*
X708500D01*
X177250Y-47002D02*
X708500D01*
X177250Y-43002D02*
X708500D01*
X177250Y-39002D02*
X708500D01*
X177250Y-35002D02*
X708500D01*
X177250Y-31002D02*
X708500D01*
X177250Y-27002D02*
X708500D01*
X177250Y-23002D02*
X708500D01*
X177250Y20998D02*
X708500D01*
X177250Y24998D02*
X708500D01*
X177250Y28500D02*
X708500D01*
X362998Y-211000D02*
Y28500D01*
X366997Y-211000D02*
Y28500D01*
X370998Y-211000D02*
Y28500D01*
X374997Y-211000D02*
Y28500D01*
X378997Y-211000D02*
Y28500D01*
X382998Y-211000D02*
Y28500D01*
X386997Y-211000D02*
Y28500D01*
X390997Y-211000D02*
Y28500D01*
X394997Y-211000D02*
Y28500D01*
X398997Y-211000D02*
Y28500D01*
X402997Y-211000D02*
Y28500D01*
X406997Y-211000D02*
Y28500D01*
X410997Y-211000D02*
Y28500D01*
X414997Y-211000D02*
Y28500D01*
X418997Y-211000D02*
Y28500D01*
X422997Y-211000D02*
Y28500D01*
X426997Y-211000D02*
Y28500D01*
X430997Y-211000D02*
Y28500D01*
X434997Y-211000D02*
Y28500D01*
X438997Y-211000D02*
Y28500D01*
X442997Y-211000D02*
Y28500D01*
X446997Y-211000D02*
Y28500D01*
X450997Y-211000D02*
Y28500D01*
X454997Y-211000D02*
Y28500D01*
X458997Y-211000D02*
Y28500D01*
X462997Y-211000D02*
Y28500D01*
X466997Y-211000D02*
Y28500D01*
X470997Y-211000D02*
Y28500D01*
X474997Y-211000D02*
Y28500D01*
X478997Y-211000D02*
Y28500D01*
X482997Y-211000D02*
Y28500D01*
X486997Y-211000D02*
Y28500D01*
X490997Y-211000D02*
Y28500D01*
X494997Y-211000D02*
Y28500D01*
X498997Y-211000D02*
Y28500D01*
X502997Y-211000D02*
Y28500D01*
X506997Y-211000D02*
Y28500D01*
X510997Y-211000D02*
Y28500D01*
X514997Y-211000D02*
Y28500D01*
X518997Y-211000D02*
Y28500D01*
X522997Y-211000D02*
Y28500D01*
X526997Y-211000D02*
Y28500D01*
X530997Y-211000D02*
Y28500D01*
X534997Y-211000D02*
Y28500D01*
X538997Y-211000D02*
Y28500D01*
X542997Y-211000D02*
Y28500D01*
X546997Y-211000D02*
Y28500D01*
X550997Y-211000D02*
Y28500D01*
X554997Y-211000D02*
Y28500D01*
X558997Y-211000D02*
Y28500D01*
X562997Y-211000D02*
Y28500D01*
X566997Y-211000D02*
Y28500D01*
X570997Y-211000D02*
Y28500D01*
X574997Y-211000D02*
Y28500D01*
X578997Y-211000D02*
Y28500D01*
X582997Y-211000D02*
Y28500D01*
X586997Y-211000D02*
Y28500D01*
X590997Y-211000D02*
Y28500D01*
X594997Y-211000D02*
Y28500D01*
X598997Y-211000D02*
Y28500D01*
X602997Y-211000D02*
Y28500D01*
X606997Y-211000D02*
Y28500D01*
X610997Y-211000D02*
Y28500D01*
X662997Y-211000D02*
Y-11125D01*
X614997Y-211000D02*
Y28500D01*
X670997Y-211000D02*
Y-18010D01*
X666997Y-211000D02*
Y-15480D01*
X618997Y-211000D02*
Y28500D01*
X622997Y-211000D02*
Y28500D01*
X626997Y-211000D02*
Y28500D01*
X630997Y-211000D02*
Y28500D01*
X634997Y-211000D02*
Y28500D01*
X638997Y-211000D02*
Y28500D01*
X642997Y-211000D02*
Y28500D01*
X646997Y-211000D02*
Y28500D01*
X650997Y-211000D02*
Y28500D01*
X654997Y-211000D02*
Y28500D01*
X658997Y-211000D02*
Y28500D01*
X662997Y11625D02*
Y28500D01*
X666997Y15980D02*
Y28500D01*
X670997Y18511D02*
Y28500D01*
X674997Y-211000D02*
Y-19434D01*
X678997Y-211000D02*
Y-19986D01*
X682997Y-211000D02*
Y-19738D01*
X686997Y-211000D02*
Y-18659D01*
X690997Y-211000D02*
Y-16590D01*
X686029Y-19002D02*
X708500D01*
X693071Y-15002D02*
X708500D01*
X694997Y-211000D02*
Y-13077D01*
X696586Y-11002D02*
X708500D01*
X698997Y-211000D02*
Y-6045D01*
X698657Y-7002D02*
X708500D01*
X699737Y-3002D02*
X708500D01*
X699986Y998D02*
X708500D01*
X699436Y4998D02*
X708500D01*
X690997Y17090D02*
Y28500D01*
X691133Y16998D02*
X708500D01*
X674997Y19934D02*
Y28500D01*
X678997Y20486D02*
Y28500D01*
X682997Y20238D02*
Y28500D01*
X686997Y19159D02*
Y28500D01*
X702997Y-211000D02*
Y28500D01*
X706997Y-211000D02*
Y28500D01*
X708500Y-211000D02*
Y28500D01*
X694997Y13577D02*
Y28500D01*
X698997Y6545D02*
Y28500D01*
X698013Y8998D02*
X708500D01*
X695484Y12998D02*
X708500D01*
X154250Y-145750D02*
X193500D01*
X154250Y-95002D02*
X193500D01*
X154250Y-91002D02*
X193500D01*
X154250Y-145750D02*
Y-17500D01*
Y-87002D02*
X193500D01*
X154250Y-83002D02*
X193500D01*
X154250Y-79002D02*
X193500D01*
X154250Y-75002D02*
X193500D01*
X154250Y-71002D02*
X193500D01*
X154250Y-67002D02*
X193500D01*
X154250Y-63002D02*
X193500D01*
X154250Y-59002D02*
X193500D01*
X154250Y-55002D02*
X193500D01*
X154250Y-51002D02*
X193500D01*
X154250Y-47002D02*
X193500D01*
X154250Y-43002D02*
X193500D01*
X154250Y-39002D02*
X193500D01*
X154250Y-35002D02*
X193500D01*
X154250Y-31002D02*
X193500D01*
X154250Y-27002D02*
X193500D01*
X154250Y-23002D02*
X193500D01*
X154250Y-19002D02*
X193500D01*
X154250Y-17500D02*
X193500D01*
X154998Y-145750D02*
Y-17500D01*
X158998Y-145750D02*
Y-17500D01*
X162998Y-145750D02*
Y-17500D01*
X166998Y-145750D02*
Y-17500D01*
X170998Y-145750D02*
Y-17500D01*
X174998Y-145750D02*
Y-17500D01*
X178998Y-145750D02*
Y-17500D01*
X182998Y-145750D02*
Y-17500D01*
X186998Y-145750D02*
Y-17500D01*
X190998Y-145750D02*
Y-17500D01*
X193500Y-145750D02*
Y-17500D01*
X154250Y-143002D02*
X193500D01*
X154250Y-139002D02*
X193500D01*
X154250Y-135002D02*
X193500D01*
X154250Y-131002D02*
X193500D01*
X154250Y-127002D02*
X193500D01*
X154250Y-123002D02*
X193500D01*
X154250Y-119002D02*
X193500D01*
X154250Y-115002D02*
X193500D01*
X154250Y-111002D02*
X193500D01*
X154250Y-107002D02*
X193500D01*
X154250Y-103002D02*
X193500D01*
X154250Y-99002D02*
X193500D01*
X177250Y-271750D02*
Y-203002D01*
X178998Y-271750D02*
Y-203002D01*
X182998Y-271750D02*
Y-203002D01*
X186998Y-271750D02*
Y-203002D01*
X190998Y-271750D02*
Y-203002D01*
X194998Y-271750D02*
Y-203002D01*
X198998Y-271750D02*
Y-203002D01*
X177250Y-271750D02*
X333500D01*
X177250Y-271001D02*
X333500D01*
X177250Y-267001D02*
X333500D01*
X177250Y-263001D02*
X333500D01*
X202998Y-271750D02*
Y-203002D01*
X206998Y-271750D02*
Y-203002D01*
X210998Y-271750D02*
Y-203002D01*
X214998Y-271750D02*
Y-203002D01*
X177250Y-259002D02*
X333500D01*
X177250Y-255002D02*
X333500D01*
X177250Y-251001D02*
X333500D01*
X177250Y-247001D02*
X333500D01*
X177250Y-243001D02*
X333500D01*
X177250Y-239002D02*
X333500D01*
X177250Y-235002D02*
X333500D01*
X177250Y-231001D02*
X333500D01*
X177250Y-227001D02*
X333500D01*
X177250Y-223001D02*
X333500D01*
X177250Y-219002D02*
X333500D01*
X177250Y-215002D02*
X333500D01*
X177250Y-211002D02*
X333500D01*
X177250Y-207002D02*
X333500D01*
X177250Y-203002D02*
X333500D01*
X218998Y-271750D02*
Y-203002D01*
X222998Y-271750D02*
Y-203002D01*
X226998Y-271750D02*
Y-203002D01*
X230998Y-271750D02*
Y-203002D01*
X234998Y-271750D02*
Y-203002D01*
X238998Y-271750D02*
Y-203002D01*
X242998Y-271750D02*
Y-203002D01*
X246998Y-271750D02*
Y-203002D01*
X250998Y-271750D02*
Y-203002D01*
X254998Y-271750D02*
Y-203002D01*
X258998Y-271750D02*
Y-203002D01*
X262998Y-271750D02*
Y-203002D01*
X266998Y-271750D02*
Y-203002D01*
X270998Y-271750D02*
Y-203002D01*
X274998Y-271750D02*
Y-203002D01*
X278998Y-271750D02*
Y-203002D01*
X282998Y-271750D02*
Y-203002D01*
X286998Y-271750D02*
Y-203002D01*
X290998Y-271750D02*
Y-203002D01*
X294998Y-271750D02*
Y-203002D01*
X298998Y-271750D02*
Y-203002D01*
X302998Y-271750D02*
Y-203002D01*
X306998Y-271750D02*
Y-203002D01*
X310998Y-271750D02*
Y-203002D01*
X314998Y-271750D02*
Y-203002D01*
X318998Y-271750D02*
Y-203002D01*
X322998Y-271750D02*
Y-203002D01*
X326998Y-271750D02*
Y-203002D01*
X330998Y-271750D02*
Y-203002D01*
X333500Y-271750D02*
Y-203002D01*
X312500Y-232500D02*
Y-192750D01*
X314998Y-232500D02*
Y-192750D01*
X318998Y-232500D02*
Y-192750D01*
X322998Y-232500D02*
Y-192750D01*
X312500Y-232500D02*
X408750D01*
X312500Y-231001D02*
X408750D01*
X326998Y-232500D02*
Y-192750D01*
X330998Y-232500D02*
Y-192750D01*
X334998Y-232500D02*
Y-192750D01*
X312500Y-227001D02*
X408750D01*
X312500Y-223001D02*
X408750D01*
X312500Y-219002D02*
X408750D01*
X312500Y-215002D02*
X408750D01*
X312500Y-211002D02*
X408750D01*
X312500Y-207002D02*
X408750D01*
X312500Y-203002D02*
X408750D01*
X312500Y-199002D02*
X408750D01*
X312500Y-195002D02*
X408750D01*
X312500Y-192750D02*
X408750D01*
X338997Y-232500D02*
Y-192750D01*
X342998Y-232500D02*
Y-192750D01*
X346997Y-232500D02*
Y-192750D01*
X350998Y-232500D02*
Y-192750D01*
X354997Y-232500D02*
Y-192750D01*
X358997Y-232500D02*
Y-192750D01*
X362998Y-232500D02*
Y-192750D01*
X366997Y-232500D02*
Y-192750D01*
X370998Y-232500D02*
Y-192750D01*
X374997Y-232500D02*
Y-192750D01*
X378997Y-232500D02*
Y-192750D01*
X382998Y-232500D02*
Y-192750D01*
X386997Y-232500D02*
Y-192750D01*
X390997Y-232500D02*
Y-192750D01*
X394997Y-232500D02*
Y-192750D01*
X398997Y-232500D02*
Y-192750D01*
X402997Y-232500D02*
Y-192750D01*
X406997Y-232500D02*
Y-192750D01*
X408750Y-232500D02*
Y-192750D01*
X-28480Y-119002D02*
X-10498D01*
X-28480Y-147250D02*
X-9613D01*
X-28480Y-99002D02*
X-17265D01*
X-28480Y-115002D02*
X-10100D01*
X-25002Y-147250D02*
Y-92525D01*
X-21002Y-147250D02*
Y-97060D01*
X-28480Y-95002D02*
X-23257D01*
X-13002Y-147250D02*
Y-99748D01*
X-17002Y-147250D02*
Y-99089D01*
X-28480Y-87002D02*
X-26694D01*
X-28480Y-91002D02*
X-25728D01*
X-28480Y-83002D02*
X-26478D01*
X-28480Y-79002D02*
X-25016D01*
X-28480Y-147250D02*
Y-2701D01*
X-25002Y-78975D02*
Y778D01*
X-28480Y-147002D02*
X-9518D01*
X-28480Y-143002D02*
X-7312D01*
X-28480Y-139002D02*
X-3240D01*
X-28480Y-135002D02*
X112D01*
X-9002Y-145819D02*
Y-125887D01*
X-28480Y-127002D02*
X-8465D01*
X-5002Y-140422D02*
Y-131594D01*
X-28480Y-131002D02*
X-5594D01*
X-28480Y-123002D02*
X-9983D01*
X-28480Y-111002D02*
X-8720D01*
X-28480Y-107002D02*
X-6056D01*
X-28480Y-103002D02*
X-939D01*
X-9002Y-111613D02*
Y-99239D01*
X-5002Y-105906D02*
Y-97410D01*
X-8235Y-99002D02*
X-1250D01*
X-2243Y-95002D02*
X-1250D01*
X-28480Y-75002D02*
X-21721D01*
X-28480Y-55002D02*
X-8951D01*
X-28480Y-51002D02*
X-10200D01*
X-28480Y-47002D02*
X-10484D01*
X-28480Y-43002D02*
X-9853D01*
X-9002Y-72261D02*
Y-54887D01*
Y-40613D02*
Y-18139D01*
X-28480Y-39002D02*
X-8195D01*
X-28480Y-19002D02*
X-6999D01*
X-28480Y-11002D02*
X-17001D01*
X-28480Y-15002D02*
X-13602D01*
X-28480Y-3002D02*
X-20026D01*
X-28480Y-7002D02*
X-19001D01*
X-28480Y-2701D02*
X-19126Y6654D01*
X-21002Y-74440D02*
Y4778D01*
X-17002Y-72411D02*
Y-11000D01*
X-24781Y998D02*
X-20225D01*
X-13002Y-71752D02*
Y-15525D01*
X-20781Y4998D02*
X-19624D01*
X-28480Y-71002D02*
X30750D01*
X-28480Y-67002D02*
X30750D01*
X-28480Y-59002D02*
X-6478D01*
X-28480Y-63002D02*
X-1830D01*
X-5002Y-74090D02*
Y-60594D01*
X-3779Y-75002D02*
X-1250D01*
X-28480Y-35002D02*
X-5101D01*
X-28480Y-31002D02*
X1371D01*
X-28480Y-27002D02*
X30750D01*
X-28480Y-23002D02*
X30750D01*
X-5002Y-34906D02*
Y-19623D01*
X-6654Y19126D02*
X2721Y28500D01*
X-5002Y19623D02*
Y20778D01*
X-4781Y20998D02*
X30750D01*
X-781Y24998D02*
X30750D01*
X-1002Y-137656D02*
Y-134465D01*
Y-103035D02*
Y-99750D01*
X2998Y-101517D02*
Y-99750D01*
X6998Y-101002D02*
Y-99750D01*
X23219Y-111000D02*
X26250D01*
Y-108750D01*
X10998Y-101400D02*
Y-99750D01*
X14998Y-102780D02*
Y-99750D01*
X18998Y-105444D02*
Y-99750D01*
X-1250D02*
Y-93734D01*
Y-77766D02*
Y-71750D01*
X-1002D02*
Y-63465D01*
X2998Y-71750D02*
Y-64983D01*
X22998Y-110561D02*
Y-99750D01*
X26998Y-108750D02*
Y-93500D01*
X6998Y-71750D02*
Y-65498D01*
X10998Y-71750D02*
Y-65100D01*
X14998Y-71750D02*
Y-63720D01*
X26250Y-108750D02*
X30750D01*
X20556Y-107002D02*
X30750D01*
X-1250Y-99750D02*
X26750D01*
X15439Y-103002D02*
X30750D01*
X26750Y-99750D02*
Y-93500D01*
X30750Y-108750D02*
Y-95750D01*
X26750Y-99002D02*
X30750D01*
X26750Y-95002D02*
X30000D01*
Y-95750D02*
Y-93500D01*
X26750D02*
X30000D01*
X26750Y-78000D02*
X30000D01*
X26750D02*
Y-71750D01*
Y-75002D02*
X30750D01*
X-1250Y-71750D02*
X26750D01*
X26998Y-78000D02*
Y-55500D01*
X30750Y-95750D02*
Y-93500D01*
X30000Y-78000D02*
Y-75750D01*
X30750Y-78000D02*
Y-75750D01*
Y-55500D01*
X-1002Y-32035D02*
Y-20225D01*
X2998Y-30517D02*
Y-20027D01*
X6998Y-30002D02*
Y-19002D01*
X18998Y-71750D02*
Y-61056D01*
X22998Y-71750D02*
Y-55939D01*
X10998Y-30400D02*
Y-17003D01*
X14998Y-31780D02*
Y-13606D01*
X18998Y-34444D02*
Y-7009D01*
X-1002Y20225D02*
Y24778D01*
X2998Y20027D02*
Y28500D01*
X6998Y19002D02*
Y28500D01*
X22998Y-39561D02*
Y28500D01*
X26998Y-40000D02*
Y28500D01*
X10998Y17003D02*
Y28500D01*
X14998Y13606D02*
Y28500D01*
X18998Y7009D02*
Y28500D01*
X16330Y-63002D02*
X30750D01*
X13129Y-31002D02*
X30750D01*
X6999Y-19002D02*
X30750D01*
X13602Y-15002D02*
X30750D01*
X20978Y-59002D02*
X30750D01*
X23219Y-55500D02*
X30750D01*
X23219Y-40000D02*
X30750D01*
X22694Y-39002D02*
X30750D01*
X19601Y-35002D02*
X30750D01*
X17001Y-11002D02*
X30750D01*
X18141Y8998D02*
X30750D01*
X15528Y12998D02*
X30750D01*
X11006Y16998D02*
X30750D01*
X2721Y28500D02*
X30750D01*
Y-40000D02*
Y28500D01*
X19001Y-7002D02*
X30750D01*
X20026Y-3002D02*
X30750D01*
X20225Y998D02*
X30750D01*
X19624Y4998D02*
X30750D01*
X-28480Y-341250D02*
X-16250D01*
X-28480Y-259002D02*
X-15250D01*
X-28480Y-255002D02*
X-15250D01*
X-28480Y-251001D02*
X-15250D01*
X-28480Y-247001D02*
X-15250D01*
X-28480Y-341250D02*
Y-160250D01*
Y-243001D02*
X-15250D01*
X-28480Y-239002D02*
X-15250D01*
X-28480Y-235002D02*
X-15250D01*
X-28480Y-231001D02*
X-15250D01*
X-28480Y-227001D02*
X-15250D01*
X-28480Y-223001D02*
X-15250D01*
X-28480Y-219002D02*
X-15250D01*
X-28480Y-215002D02*
X-15250D01*
X-28480Y-211002D02*
X-15250D01*
X-28480Y-207002D02*
X-15250D01*
X-28480Y-203002D02*
X-15250D01*
X-28480Y-199002D02*
X-15250D01*
X-28480Y-195002D02*
X-15250D01*
X-28480Y-191002D02*
X-15250D01*
X-28480Y-187002D02*
X-15250D01*
X-28480Y-183002D02*
X-15250D01*
X-28480Y-179002D02*
X-15250D01*
X-28480Y-175002D02*
X-15250D01*
X-28480Y-171002D02*
X-15250D01*
X-28480Y-167002D02*
X-15250D01*
X-28480Y-163002D02*
X-15250D01*
X-28480Y-160250D02*
X-15250D01*
X-28480Y-339001D02*
X-16250D01*
Y-341250D02*
Y-337250D01*
X-28480Y-335001D02*
X-16250D01*
X-25002Y-341250D02*
Y-160250D01*
X-21002Y-341250D02*
Y-160250D01*
X-17002Y-341250D02*
Y-160250D01*
X-16250Y-337250D02*
Y-309250D01*
X-28480Y-331001D02*
X-16250D01*
X-28480Y-327001D02*
X-16250D01*
X-28480Y-323001D02*
X-16250D01*
X-28480Y-319001D02*
X-16250D01*
X-28480Y-315001D02*
X-16250D01*
X-28480Y-311001D02*
X-16250D01*
X-28480Y-307001D02*
X-15917D01*
X-28480Y-303001D02*
X-15250D01*
X-28480Y-299001D02*
X-15250D01*
X-28480Y-295001D02*
X-15250D01*
Y-305442D02*
Y-160250D01*
X-28480Y-291001D02*
X-15250D01*
X-28480Y-287001D02*
X-15250D01*
X-28480Y-283001D02*
X-15250D01*
X-28480Y-279001D02*
X-15250D01*
X-28480Y-275001D02*
X-15250D01*
X-28480Y-271001D02*
X-15250D01*
X-28480Y-267001D02*
X-15250D01*
X-28480Y-263001D02*
X-15250D01*
X-28480Y-155002D02*
X-10686D01*
X-28480Y-161399D02*
X-8895D01*
X-28480Y-159002D02*
X-9876D01*
X-28480Y-151002D02*
X-10573D01*
X-28480Y-147002D02*
X-9518D01*
X-28480Y-143002D02*
X-7312D01*
X-28480Y-139002D02*
X-3240D01*
X-28480Y-131002D02*
X-5594D01*
X-9002Y-145819D02*
Y-125887D01*
X-1002Y-137656D02*
Y-134465D01*
X-5002Y-140422D02*
Y-131594D01*
X-28480Y-119002D02*
X-10498D01*
X-28480Y-115002D02*
X-10100D01*
X-28480Y-127002D02*
X-8465D01*
X-28480Y-123002D02*
X-9983D01*
X-25002Y-161399D02*
Y-92525D01*
X-28480Y-161399D02*
Y-31002D01*
Y-111002D02*
X-8720D01*
X-21002Y-161399D02*
Y-97060D01*
X-28480Y-107002D02*
X-6056D01*
X-28480Y-99002D02*
X-17265D01*
X-28480Y-103002D02*
X-939D01*
X-13002Y-161399D02*
Y-99748D01*
X-17002Y-161399D02*
Y-99089D01*
X-9002Y-111613D02*
Y-99239D01*
X-5002Y-105906D02*
Y-97410D01*
X-1002Y-103035D02*
Y-99750D01*
X-8235Y-99002D02*
X-1250D01*
Y-99750D02*
Y-93734D01*
X-28480Y-135002D02*
X112D01*
X14998Y-102780D02*
Y-99750D01*
X2998Y-101517D02*
Y-99750D01*
X6998Y-101002D02*
Y-99750D01*
X15439Y-103002D02*
X58250D01*
X10998Y-101400D02*
Y-99750D01*
X23219Y-111000D02*
X26250D01*
Y-108750D01*
X42250D01*
X44750D01*
X42250D02*
X44750D01*
X18998Y-105444D02*
Y-99750D01*
X44750Y-108750D02*
X58250D01*
X20556Y-107002D02*
X58250D01*
X22998Y-110561D02*
Y-99750D01*
X26998Y-108750D02*
Y-93500D01*
X-1250Y-99750D02*
X26750D01*
X30998Y-108750D02*
Y-95750D01*
X26750Y-99750D02*
Y-93500D01*
X30000Y-95750D02*
Y-93500D01*
X26750Y-99002D02*
X94250D01*
X30000Y-95750D02*
X46000D01*
X34998Y-108750D02*
Y-95750D01*
X38998Y-108750D02*
Y-95750D01*
X42998Y-108750D02*
Y-95750D01*
X46998Y-108750D02*
Y-95750D01*
X46000D02*
X48500D01*
X46000D02*
X48500D01*
X50998Y-108750D02*
Y-95750D01*
X48500D02*
X64500D01*
X-28480Y-87002D02*
X-26694D01*
X-28480Y-95002D02*
X-23257D01*
X-28480Y-91002D02*
X-25728D01*
X-28480Y-83002D02*
X-26478D01*
X-28480Y-79002D02*
X-25016D01*
X-28480Y-75002D02*
X-21721D01*
X-28480Y-63002D02*
X-1830D01*
X-2243Y-95002D02*
X-1250D01*
Y-77766D02*
Y-71750D01*
X-3779Y-75002D02*
X-1250D01*
X-5002Y-74090D02*
Y-60594D01*
X2998Y-71750D02*
Y-64983D01*
X-1002Y-71750D02*
Y-63465D01*
X-28480Y-51002D02*
X-10200D01*
X-28480Y-47002D02*
X-10484D01*
X-28480Y-59002D02*
X-6478D01*
X-28480Y-55002D02*
X-8951D01*
X-28480Y-43002D02*
X-9853D01*
X-28480Y-39002D02*
X-8195D01*
X-28480Y-35002D02*
X-5101D01*
X-28480Y-31002D02*
X1371D01*
X-25002Y-78975D02*
Y-31002D01*
X-21002Y-74440D02*
Y-31002D01*
X-17002Y-72411D02*
Y-31002D01*
X-13002Y-71752D02*
Y-31002D01*
X-9002Y-72261D02*
Y-54887D01*
Y-40613D02*
Y-31002D01*
X-5002Y-34906D02*
Y-31002D01*
X-1002Y-32035D02*
Y-31002D01*
X-1250Y-71750D02*
X26750D01*
X6998D02*
Y-65498D01*
X26750Y-95002D02*
X30000D01*
X26750Y-93500D02*
X30000D01*
X10998Y-71750D02*
Y-65100D01*
X14998Y-71750D02*
Y-63720D01*
X-28480Y-71002D02*
X110250D01*
X-28480Y-67002D02*
X110250D01*
X26750Y-78000D02*
X30000D01*
X26750D02*
Y-71750D01*
X30000Y-78000D02*
Y-75750D01*
X46000D01*
X48500D01*
X46000D02*
X48500D01*
X64500D01*
X26750Y-75002D02*
X110250D01*
X18998Y-71750D02*
Y-61056D01*
X22998Y-71750D02*
Y-55939D01*
X26998Y-78000D02*
Y-55500D01*
X30998Y-75750D02*
Y-55500D01*
X20978Y-59002D02*
X38000D01*
X16330Y-63002D02*
X110250D01*
X23219Y-55500D02*
X38000D01*
X38998Y-75750D02*
Y-59250D01*
X34998Y-75750D02*
Y-55500D01*
X42998Y-75750D02*
Y-59250D01*
X46998Y-75750D02*
Y-59250D01*
X50998Y-75750D02*
Y-59250D01*
X38000D02*
Y-55500D01*
X54998Y-75750D02*
Y-59250D01*
X38000D02*
X61000D01*
X75750Y-141208D02*
Y-137250D01*
X76568Y-142026D02*
X85928D01*
X75750Y-141208D02*
X76568Y-142026D01*
X75750Y-137250D02*
X77250D01*
X75750D02*
X77250D01*
X75750Y-139002D02*
X85928D01*
X77250Y-137250D02*
X85928D01*
X78998Y-142026D02*
Y-137250D01*
X82998Y-142026D02*
Y-137250D01*
X85928Y-142026D02*
Y-137250D01*
X93250Y-132628D02*
X100750D01*
X93250Y-131002D02*
X100750D01*
X93250Y-132628D02*
Y-120250D01*
Y-127002D02*
X100750D01*
X93250Y-123002D02*
X97042D01*
X58250Y-108750D02*
Y-100250D01*
X54998Y-108750D02*
Y-95750D01*
X94998Y-132628D02*
Y-120322D01*
X100750Y-132628D02*
Y-126710D01*
X98998Y-132628D02*
Y-124958D01*
X93250Y-120250D02*
Y-117250D01*
X93750Y-120250D02*
Y-100250D01*
X94250Y-117000D02*
Y-94712D01*
X116250Y-161399D02*
X117678D01*
X116250Y-159002D02*
X117678D01*
X116250Y-155002D02*
X117678D01*
X116250Y-151002D02*
X117678D01*
X116250Y-147002D02*
X119750D01*
X116250Y-143002D02*
X119750D01*
X116250Y-139002D02*
X119750D01*
X116250Y-135002D02*
X119750D01*
X117678Y-161399D02*
Y-149428D01*
X116250Y-161399D02*
Y-123500D01*
X117678Y-149428D02*
X119750D01*
Y-132750D01*
X116250Y-131002D02*
X119950D01*
X116250Y-127002D02*
X122288D01*
X96521Y-122481D02*
X100750Y-126710D01*
X109750Y-113790D02*
X113979Y-118019D01*
X110962Y-115002D02*
X126500D01*
X110998Y-115038D02*
Y-97500D01*
X109750Y-113790D02*
Y-91502D01*
Y-111002D02*
X126500D01*
X109750Y-107002D02*
X126500D01*
X118998Y-149428D02*
Y-97500D01*
X122021Y-127269D02*
X126500Y-122790D01*
X122998Y-126292D02*
Y-97500D01*
X116234Y-123002D02*
X126288D01*
X114998Y-119276D02*
Y-97500D01*
X114811Y-119002D02*
X126500D01*
Y-122790D02*
Y-97500D01*
X58998Y-100250D02*
Y-95750D01*
X58250Y-100250D02*
X74250D01*
X62998D02*
Y-95750D01*
X64500D02*
Y-93500D01*
X66998Y-100250D02*
Y-93500D01*
X64500Y-95002D02*
X94250D01*
X70998Y-100250D02*
Y-93500D01*
X74250Y-100250D02*
X77750D01*
X74998D02*
Y-93500D01*
X74250Y-100250D02*
X77750D01*
X93750D01*
X78998D02*
Y-93500D01*
X82998Y-100250D02*
Y-93500D01*
X86998Y-100250D02*
Y-93500D01*
X90998Y-100250D02*
Y-93500D01*
X64500Y-78000D02*
Y-75750D01*
X58998D02*
Y-59250D01*
X64500Y-93500D02*
X93038D01*
X66998Y-78000D02*
Y-59250D01*
X62998Y-75750D02*
Y-59250D01*
X61000D02*
X63500D01*
X61000D02*
X63500D01*
X86500D01*
X70998Y-78000D02*
Y-59250D01*
X74998Y-78000D02*
Y-59250D01*
X93038Y-93500D02*
X94250Y-94712D01*
X78998Y-78000D02*
Y-59250D01*
X82998Y-78000D02*
Y-59250D01*
X86500D02*
Y-55500D01*
X86998Y-78000D02*
Y-55500D01*
X90998Y-78000D02*
Y-55500D01*
X101730Y-80271D02*
X107479Y-86020D01*
X104460Y-83002D02*
X110250D01*
X64500Y-78000D02*
X96248D01*
X100059Y-79002D02*
X110250D01*
X109750Y-103002D02*
X126500D01*
X110250Y-97500D02*
Y-79250D01*
X109750Y-99002D02*
X126500D01*
X110250Y-97500D02*
X126250D01*
X108310Y-87002D02*
X110250D01*
Y-79250D02*
Y-77500D01*
X98998Y-78504D02*
Y-59250D01*
X94998Y-78000D02*
Y-55500D01*
X102998Y-81540D02*
Y-59250D01*
X106998Y-85540D02*
Y-59250D01*
X86500Y-59002D02*
X98500D01*
Y-59250D02*
Y-55500D01*
Y-59250D02*
X121500D01*
X86500Y-55500D02*
X98500D01*
X110250Y-79250D02*
Y-77500D01*
Y-59250D01*
X121500Y-59250D02*
X124000D01*
X121500D02*
X124000D01*
X110250Y-59250D02*
X126250D01*
X124000Y-59250D02*
X126500D01*
X116250Y-202250D02*
Y-144000D01*
Y-202250D02*
X118500Y-204500D01*
X418500Y-255250D02*
X465000D01*
X418500D02*
Y-220500D01*
Y-255002D02*
X465000D01*
X418500Y-251001D02*
X465000D01*
X418500Y-243001D02*
X465000D01*
X418500Y-247001D02*
X465000D01*
X418500Y-227001D02*
X465000D01*
X418500Y-220500D02*
X465000D01*
X418500Y-223001D02*
X465000D01*
X418500Y-239002D02*
X465000D01*
X418500Y-231001D02*
X465000D01*
X418500Y-235002D02*
X465000D01*
X454997Y-255250D02*
Y-220500D01*
X446997Y-255250D02*
Y-220500D01*
X450997Y-255250D02*
Y-220500D01*
X465000Y-255250D02*
Y-220500D01*
X458997Y-255250D02*
Y-220500D01*
X462997Y-255250D02*
Y-220500D01*
X426997Y-255250D02*
Y-220500D01*
X418997Y-255250D02*
Y-220500D01*
X422997Y-255250D02*
Y-220500D01*
X438997Y-255250D02*
Y-220500D01*
X442997Y-255250D02*
Y-220500D01*
X430997Y-255250D02*
Y-220500D01*
X434997Y-255250D02*
Y-220500D01*
X494997Y-299500D02*
Y-220500D01*
X490997Y-299500D02*
Y-220500D01*
X506997Y-299500D02*
Y-220500D01*
X498997Y-299500D02*
Y-220500D01*
X502997Y-299500D02*
Y-220500D01*
X474997Y-299500D02*
Y-220500D01*
X473250Y-299500D02*
Y-220500D01*
X486997Y-299500D02*
Y-220500D01*
X478997Y-299500D02*
Y-220500D01*
X482997Y-299500D02*
Y-220500D01*
X530997Y-299500D02*
Y-220500D01*
X473250Y-299500D02*
X708500D01*
X542997D02*
Y-220500D01*
X534997Y-299500D02*
Y-220500D01*
X538997Y-299500D02*
Y-220500D01*
X514997Y-299500D02*
Y-220500D01*
X510997Y-299500D02*
Y-220500D01*
X526997Y-299500D02*
Y-220500D01*
X518997Y-299500D02*
Y-220500D01*
X522997Y-299500D02*
Y-220500D01*
X473250Y-243001D02*
X708500D01*
X473250Y-239002D02*
X708500D01*
X473250Y-255002D02*
X708500D01*
X473250Y-247001D02*
X708500D01*
X473250Y-251001D02*
X708500D01*
X473250Y-223001D02*
X708500D01*
X473250Y-220500D02*
X708500D01*
X473250Y-235002D02*
X708500D01*
X473250Y-227001D02*
X708500D01*
X473250Y-231001D02*
X708500D01*
X473250Y-287001D02*
X708500D01*
X473250Y-283001D02*
X708500D01*
X473250Y-299001D02*
X708500D01*
X473250Y-291001D02*
X708500D01*
X473250Y-295001D02*
X708500D01*
X473250Y-267001D02*
X708500D01*
X473250Y-259002D02*
X708500D01*
X473250Y-263001D02*
X708500D01*
X473250Y-279001D02*
X708500D01*
X473250Y-271001D02*
X708500D01*
X473250Y-275001D02*
X708500D01*
X654997Y-299500D02*
Y-220500D01*
X650997Y-299500D02*
Y-220500D01*
X666997Y-299500D02*
Y-220500D01*
X658997Y-299500D02*
Y-220500D01*
X662997Y-299500D02*
Y-220500D01*
X634997Y-299500D02*
Y-220500D01*
X630997Y-299500D02*
Y-220500D01*
X646997Y-299500D02*
Y-220500D01*
X638997Y-299500D02*
Y-220500D01*
X642997Y-299500D02*
Y-220500D01*
X698997Y-299500D02*
Y-220500D01*
X694997Y-299500D02*
Y-220500D01*
X708500Y-299500D02*
Y-220500D01*
X702997Y-299500D02*
Y-220500D01*
X706997Y-299500D02*
Y-220500D01*
X678997Y-299500D02*
Y-220500D01*
X670997Y-299500D02*
Y-220500D01*
X674997Y-299500D02*
Y-220500D01*
X690997Y-299500D02*
Y-220500D01*
X682997Y-299500D02*
Y-220500D01*
X686997Y-299500D02*
Y-220500D01*
X570997Y-299500D02*
Y-220500D01*
X566997Y-299500D02*
Y-220500D01*
X582997Y-299500D02*
Y-220500D01*
X574997Y-299500D02*
Y-220500D01*
X578997Y-299500D02*
Y-220500D01*
X550997Y-299500D02*
Y-220500D01*
X546997Y-299500D02*
Y-220500D01*
X562997Y-299500D02*
Y-220500D01*
X554997Y-299500D02*
Y-220500D01*
X558997Y-299500D02*
Y-220500D01*
X614997Y-299500D02*
Y-220500D01*
X610997Y-299500D02*
Y-220500D01*
X626997Y-299500D02*
Y-220500D01*
X618997Y-299500D02*
Y-220500D01*
X622997Y-299500D02*
Y-220500D01*
X594997Y-299500D02*
Y-220500D01*
X586997Y-299500D02*
Y-220500D01*
X590997Y-299500D02*
Y-220500D01*
X606997Y-299500D02*
Y-220500D01*
X598997Y-299500D02*
Y-220500D01*
X602997Y-299500D02*
Y-220500D01*
D11*
X227500Y-307750D02*
D03*
X243500D02*
D03*
X120000Y-69250D02*
D03*
X136000D02*
D03*
X118500Y-204500D02*
D03*
X134500D02*
D03*
X84000Y-110250D02*
D03*
X68000D02*
D03*
X199750Y-352250D02*
D03*
X215750D02*
D03*
X120000Y-87500D02*
D03*
X136000D02*
D03*
D12*
X326250Y-323500D02*
D03*
Y-339500D02*
D03*
X35750Y-188500D02*
D03*
Y-204500D02*
D03*
X231500Y-336250D02*
D03*
Y-352250D02*
D03*
D13*
X317000Y-379250D02*
D03*
X340000D02*
D03*
X256000D02*
D03*
X279000D02*
D03*
X226250Y-379500D02*
D03*
X203250D02*
D03*
X111250Y-47750D02*
D03*
X134250D02*
D03*
X73750D02*
D03*
X50750D02*
D03*
D14*
X367750Y-401000D02*
D03*
Y-378000D02*
D03*
X362500Y-269750D02*
D03*
Y-292750D02*
D03*
D15*
X507750Y-318750D02*
D03*
Y-291500D02*
D03*
D16*
X490500Y-346250D02*
D03*
Y-284250D02*
D03*
D17*
X405000Y-283450D02*
D03*
Y-302500D02*
D03*
X258250Y-307750D02*
D03*
Y-326800D02*
D03*
X127500Y-159250D02*
D03*
Y-178300D02*
D03*
X95750Y-161500D02*
D03*
Y-142450D02*
D03*
D18*
X384680Y-292848D02*
D03*
X278570Y-317402D02*
D03*
X147820Y-168902D02*
D03*
X75430Y-151848D02*
D03*
D19*
X386000Y-269500D02*
D03*
X405050D02*
D03*
X442500Y-374750D02*
D03*
X423450D02*
D03*
X54800Y-175250D02*
D03*
X35750D02*
D03*
D20*
X395652Y-249180D02*
D03*
X432848Y-395070D02*
D03*
X45402Y-154930D02*
D03*
D21*
X210500Y-291750D02*
D03*
Y-307750D02*
D03*
X426500Y-302000D02*
D03*
Y-286000D02*
D03*
X54750Y-188500D02*
D03*
Y-204500D02*
D03*
D22*
X51500Y-118750D02*
D03*
X35500D02*
D03*
X84000Y-127250D02*
D03*
X68000D02*
D03*
X55250Y-85750D02*
D03*
X39250D02*
D03*
X472500Y-293250D02*
D03*
X456500D02*
D03*
X427000Y-269500D02*
D03*
X443000D02*
D03*
X29000Y-138000D02*
D03*
X45000D02*
D03*
X472000Y-317500D02*
D03*
X456000D02*
D03*
X472000Y-346250D02*
D03*
X456000D02*
D03*
D23*
X88750Y-232000D02*
D03*
X50250Y-328500D02*
D03*
X63250D02*
D03*
X75750D02*
D03*
X101250D02*
D03*
X113750D02*
D03*
X126750D02*
D03*
X139250D02*
D03*
X152250D02*
D03*
Y-232000D02*
D03*
X139250D02*
D03*
X126750D02*
D03*
X113750D02*
D03*
X101250D02*
D03*
X75750D02*
D03*
X63250D02*
D03*
X50250D02*
D03*
X37750D02*
D03*
X88750Y-328500D02*
D03*
D24*
X37750D02*
D03*
D25*
X475500Y-269500D02*
D03*
X462750D02*
D03*
X488250D02*
D03*
X513750D02*
D03*
X526500D02*
D03*
X539250D02*
D03*
D26*
X501000Y-152750D02*
D03*
D27*
X387750Y-404250D02*
D03*
X406750D02*
D03*
D28*
X397250Y-383750D02*
D03*
D29*
Y-414750D02*
D03*
Y-374750D02*
D03*
D30*
X510997Y-270500D02*
D03*
D31*
X284000Y-439000D02*
D03*
X340000Y-401000D02*
D03*
Y-413500D02*
D03*
Y-426500D02*
D03*
Y-439000D02*
D03*
X284000Y-426500D02*
D03*
Y-413500D02*
D03*
Y-401000D02*
D03*
X203250Y-400750D02*
D03*
Y-413250D02*
D03*
Y-426250D02*
D03*
X259250Y-438750D02*
D03*
Y-426250D02*
D03*
Y-413250D02*
D03*
Y-400750D02*
D03*
X203250Y-438750D02*
D03*
D32*
X231250Y-400750D02*
D03*
X312000Y-401000D02*
D03*
D33*
X0Y-448000D02*
Y-430000D01*
X-18000D02*
X0D01*
X18000D01*
X0D02*
Y-412000D01*
X96000Y-414000D02*
Y-404000D01*
X118000Y-410000D02*
Y-398000D01*
X190250Y-438750D02*
X203250D01*
X190250Y-426250D02*
X203250D01*
Y-444750D02*
Y-438750D01*
X216250D01*
X203250Y-426250D02*
X216250D01*
X190250Y-413250D02*
X203250D01*
X216250D01*
X-2000Y-397750D02*
X10000D01*
Y-409750D02*
Y-397750D01*
X22000D01*
X10000D02*
Y-385750D01*
X61500Y-397750D02*
X73500D01*
X86000Y-404000D02*
X96000D01*
X106000D01*
X73500Y-409750D02*
Y-397750D01*
X118000Y-398000D02*
X130000D01*
X169500D02*
X181500D01*
Y-410000D02*
Y-398000D01*
X231250Y-408750D02*
Y-400750D01*
X226250Y-379500D02*
Y-370250D01*
Y-388750D02*
Y-379500D01*
X236750D01*
X215750Y-360000D02*
Y-352250D01*
X231500Y-359750D02*
Y-352250D01*
X246250Y-438750D02*
X259250D01*
Y-444750D02*
Y-438750D01*
X284000Y-445000D02*
Y-439000D01*
X297000D01*
X340000Y-445000D02*
Y-439000D01*
X327000D02*
X340000D01*
X246250Y-426250D02*
X259250D01*
X284000Y-426500D02*
X297000D01*
X284000Y-413500D02*
X297000D01*
X246250Y-413250D02*
X259250D01*
X327000Y-426500D02*
X340000D01*
X327000Y-413500D02*
X340000D01*
Y-439000D02*
X353000D01*
X340000Y-426500D02*
X353000D01*
X340000Y-413500D02*
X353000D01*
X245500Y-379250D02*
X256000D01*
Y-388500D02*
Y-379250D01*
Y-370000D01*
X312000Y-409000D02*
Y-401000D01*
Y-393000D01*
X317000Y-379250D02*
Y-370000D01*
Y-388500D02*
Y-379250D01*
X442500Y-382322D02*
Y-374750D01*
X450072D01*
X340000Y-401000D02*
X340000Y-401000D01*
X12750Y-85750D02*
X39250D01*
X456000Y-335000D02*
Y-317500D01*
X456000Y-346250D02*
Y-335000D01*
X441500Y-298250D02*
X446500Y-293250D01*
X441500Y-335000D02*
Y-298250D01*
X392750Y-341250D02*
X405000Y-329000D01*
X278570Y-322070D02*
X297750Y-341250D01*
X278570Y-322070D02*
Y-317402D01*
X405000Y-329000D02*
Y-302500D01*
X297750Y-341250D02*
X392750D01*
X346000Y-312500D02*
Y-286250D01*
X335000Y-323500D02*
X346000Y-312500D01*
X243500Y-307750D02*
X258250D01*
Y-326800D02*
X267450Y-336000D01*
X274500D01*
X426500Y-286000D02*
X438750D01*
X443000Y-281750D02*
Y-269500D01*
X462750D01*
X438750Y-286000D02*
X443000Y-281750D01*
X426500Y-316750D02*
Y-302000D01*
X405000Y-269550D02*
X405050Y-269500D01*
X405000Y-283450D02*
Y-269550D01*
X405050Y-269500D02*
X427000D01*
X279000Y-400750D02*
Y-379250D01*
X250750Y-401000D02*
X284000D01*
X340000Y-401000D02*
X340000Y-401000D01*
X340000Y-401000D02*
Y-379250D01*
X340000Y-401000D02*
X367750D01*
X426500Y-350000D02*
X441500Y-335000D01*
X367750Y-378000D02*
X371000Y-374750D01*
X423450D01*
X397250Y-414750D02*
X400000Y-417500D01*
X433000D01*
Y-395222D01*
X432848Y-395070D02*
X433000Y-395222D01*
X262250Y-350000D02*
X426500D01*
X234000Y-336250D02*
X256500Y-358750D01*
X443500D01*
X242250Y-321250D02*
X247750Y-326750D01*
Y-335500D02*
Y-326750D01*
Y-335500D02*
X262250Y-350000D01*
X184750Y-290750D02*
X201750Y-307750D01*
X443500Y-358750D02*
X456000Y-346250D01*
X215750Y-352250D02*
X231500D01*
X181250Y-299000D02*
X203500Y-321250D01*
X242250D01*
X203250Y-400750D02*
Y-379500D01*
X7000Y-188500D02*
X35750D01*
X7000Y-153500D02*
X22500Y-138000D01*
X29000D01*
X35750Y-188500D02*
Y-175250D01*
Y-188500D02*
X54750Y-188500D01*
X35750Y-175250D02*
X54800D01*
X54750Y-188500D02*
X54800Y-175250D01*
X-21750Y-150750D02*
X-12750Y-141750D01*
X-21750Y-258250D02*
Y-150750D01*
Y-258250D02*
X-8500Y-271500D01*
X-7500Y-270500D01*
X54930Y-154930D02*
X67750Y-167750D01*
X45402Y-154930D02*
Y-138402D01*
X7250Y-118750D02*
X35500D01*
X68000Y-144418D02*
Y-127250D01*
Y-144418D02*
X75430Y-151848D01*
Y-160930D02*
X81500Y-167000D01*
X51500Y-118750D02*
X68000D01*
Y-127250D02*
Y-110250D01*
X95750Y-142450D02*
Y-131000D01*
X92000Y-127250D02*
X95750Y-131000D01*
X84000Y-127250D02*
X92000D01*
X84000Y-127250D02*
X84000Y-127250D01*
X84000Y-127250D02*
Y-110250D01*
X81000Y-99000D02*
X84000Y-102000D01*
X26752Y-99000D02*
X81000D01*
X22750Y-103002D02*
X26752Y-99000D01*
X84000Y-110250D02*
Y-102000D01*
X95750Y-161500D02*
Y-142450D01*
X73750Y-47750D02*
X111250D01*
X127500Y-132750D02*
X134250Y-126000D01*
X127500Y-159250D02*
Y-132750D01*
X134250Y-126000D02*
Y-47750D01*
X127500Y-187000D02*
X134500Y-194000D01*
X14998Y-66750D02*
X78250D01*
X7250Y-47750D02*
X50750D01*
X279000Y-379250D02*
X298000D01*
Y-323500D02*
X326250Y-323500D01*
X335000D01*
X383070Y-249180D02*
X395652D01*
X346000Y-286250D02*
X383070Y-249180D01*
X-7500Y-270500D02*
X37500D01*
X-12750Y-141750D02*
Y-50000D01*
X23000Y-337000D02*
X31500Y-328500D01*
X-8250Y-337000D02*
X23000D01*
X70500Y-308500D02*
X75750Y-313750D01*
X113750Y-303250D02*
X126250Y-290750D01*
X113750Y-328500D02*
Y-303250D01*
X126250Y-290750D02*
X184750D01*
X201750Y-307750D02*
X227500D01*
X126750Y-305750D02*
X133500Y-299000D01*
X181250D01*
X139250Y-312250D02*
X143750Y-307750D01*
X139250Y-328500D02*
Y-312250D01*
X143750Y-307750D02*
X175750D01*
X204250Y-336250D01*
X234000D01*
X105001Y-295500D02*
X117751Y-282750D01*
X47250Y-215250D02*
X50250Y-218250D01*
X5250Y-321000D02*
X17750Y-308500D01*
X75750Y-328500D02*
Y-313750D01*
X17750Y-308500D02*
X70500D01*
X-6750Y-253250D02*
X-2250Y-257750D01*
X-6750Y-253250D02*
Y-202250D01*
X15750Y-234500D02*
Y-227000D01*
X27500Y-215250D01*
X5250Y-245000D02*
X15750Y-234500D01*
X50250Y-232000D02*
Y-218250D01*
X27500Y-215250D02*
X47250D01*
X24750Y-248000D02*
Y-235250D01*
X28000Y-232000D01*
X15000Y-257750D02*
X24750Y-248000D01*
X-2250Y-257750D02*
X15000D01*
X-6750Y-202250D02*
X7000Y-188500D01*
X37750Y-258501D02*
Y-232000D01*
X28000D02*
X37750D01*
X63250Y-214500D02*
X67750Y-210000D01*
X5250Y-219500D02*
X20250Y-204500D01*
X45402Y-154930D02*
X54930D01*
X63250Y-232000D02*
Y-214500D01*
X20250Y-204500D02*
X67750D01*
Y-210000D02*
Y-167750D01*
X75750Y-214750D02*
X81500Y-209000D01*
X75750Y-232000D02*
Y-214750D01*
X75430Y-160930D02*
Y-151848D01*
X81500Y-209000D02*
Y-167000D01*
X88750Y-215750D02*
X92750Y-211750D01*
Y-189250D01*
X103302Y-178698D01*
X108500Y-173500D01*
X127500Y-187000D02*
Y-178300D01*
X134500Y-204500D02*
Y-194000D01*
X152250Y-232000D02*
Y-211000D01*
X134500Y-204500D02*
X145750D01*
X152250Y-211000D01*
X147820Y-192070D02*
X163000Y-207250D01*
X5250Y-295500D02*
X105001D01*
X147820Y-192070D02*
Y-168902D01*
X201500Y-282750D02*
X210500Y-291750D01*
X163000Y-282750D02*
Y-207250D01*
X117751Y-282750D02*
X201500D01*
X-4250Y-270500D02*
X5250D01*
Y-280000D02*
Y-270500D01*
X14750D01*
X88750Y-338000D02*
Y-328500D01*
X101250Y-336750D02*
Y-328500D01*
Y-336750D02*
X118000Y-353500D01*
X96000D02*
X181500D01*
X133000Y-345000D02*
X160500D01*
X169250Y-336250D02*
X190250D01*
X199750Y-345750D01*
X126750Y-338750D02*
X133000Y-345000D01*
X160500D02*
X169250Y-336250D01*
X199750Y-352250D02*
Y-345750D01*
X446500Y-293250D02*
X456500D01*
X126750Y-338750D02*
Y-305750D01*
X73500Y-353250D02*
X84386Y-364136D01*
X10000Y-353250D02*
X73500D01*
X84386Y-366886D02*
X96000Y-378500D01*
X84386Y-366886D02*
Y-364136D01*
X73500Y-353250D02*
X88750Y-338000D01*
X89250Y-391250D02*
X102500D01*
X114250Y-379500D01*
X4250Y-372750D02*
X70750D01*
X-8500Y-360000D02*
X4250Y-372750D01*
X-8500Y-337250D02*
X-8250Y-337000D01*
X-8500Y-309250D02*
X5250Y-295500D01*
X31500Y-328500D02*
X37750D01*
X114250Y-379500D02*
X203250D01*
X-8500Y-360000D02*
Y-309250D01*
X70750Y-372750D02*
X89250Y-391250D01*
X362500Y-292750D02*
X384582D01*
X96248Y-85750D02*
X102000Y-91502D01*
X88750Y-232000D02*
Y-215750D01*
X55250Y-85750D02*
X96248D01*
X108500Y-173500D02*
Y-123500D01*
X102000Y-117000D02*
Y-91502D01*
Y-117000D02*
X108500Y-123500D01*
X-12750Y-97500D02*
Y-85750D01*
X-24500D02*
X-12750D01*
Y-74000D01*
X-18000Y0D02*
X0D01*
Y-18000D02*
Y0D01*
Y18000D01*
Y0D02*
X18000D01*
X-12750Y-97500D02*
Y-85750D01*
X-24500D02*
X-12750D01*
Y-74000D01*
X88178Y-142450D02*
X95750D01*
Y-134878D01*
X84000Y-135000D02*
Y-127250D01*
X91000D01*
X84000Y-110250D02*
X91500D01*
X84000D02*
Y-102500D01*
X120000Y-95250D02*
Y-87500D01*
X112500D02*
X120000D01*
X112500Y-69250D02*
X120000D01*
Y-61500D01*
X226250Y-395750D02*
Y-379500D01*
Y-395750D02*
X231250Y-400750D01*
X241000Y-391000D01*
Y-379750D01*
D34*
X231500Y-361498D02*
Y-352250D01*
X230250Y-362748D02*
X231500Y-361498D01*
X226250Y-362748D02*
X230250D01*
X226250Y-379500D02*
Y-362748D01*
X395750Y-293250D02*
Y-279250D01*
X386000Y-269500D02*
X395750Y-279250D01*
Y-293250D02*
X405000Y-302500D01*
D35*
X12750Y-85750D02*
D03*
D36*
X-12750D02*
D03*
D37*
X96000Y-378500D02*
D03*
Y-404000D02*
D03*
D38*
Y-353500D02*
D03*
X680000Y-430000D02*
D03*
X679750Y250D02*
D03*
X0Y-430000D02*
D03*
Y0D02*
D03*
D39*
X118000Y-353500D02*
D03*
Y-398000D02*
D03*
X181500Y-353500D02*
D03*
Y-398000D02*
D03*
X73500Y-397750D02*
D03*
Y-353250D02*
D03*
X10000Y-397750D02*
D03*
Y-353250D02*
D03*
D40*
X7250Y-118750D02*
D03*
X433000Y-417500D02*
D03*
X7250Y-47750D02*
D03*
X7000Y-153500D02*
D03*
Y-188500D02*
D03*
D41*
X573500Y-82000D02*
D03*
D42*
X585000Y-350500D02*
D03*
D43*
X5250Y-321000D02*
D03*
D44*
Y-295500D02*
D03*
Y-270500D02*
D03*
Y-245000D02*
D03*
Y-219500D02*
D03*
D45*
X590250Y-270000D02*
D03*
X570253Y-290002D02*
D03*
X570253Y-270001D02*
D03*
X571000Y-250000D02*
D03*
X590253Y-290002D02*
D03*
Y-250002D02*
D03*
X630250Y-269250D02*
D03*
X610253Y-289251D02*
D03*
Y-269251D02*
D03*
X611000Y-249250D02*
D03*
X630253Y-289251D02*
D03*
Y-249251D02*
D03*
X630250Y-195500D02*
D03*
X70250Y-17500D02*
D03*
Y2500D02*
D03*
X90250Y-17500D02*
D03*
Y2500D02*
D03*
X110250Y-17500D02*
D03*
Y2500D02*
D03*
X130250Y-17500D02*
D03*
Y2500D02*
D03*
X150250Y-17500D02*
D03*
Y2500D02*
D03*
X170250Y-17500D02*
D03*
Y2500D02*
D03*
X190250Y-195500D02*
D03*
Y-175500D02*
D03*
Y-155500D02*
D03*
Y-97500D02*
D03*
Y-77500D02*
D03*
Y-57500D02*
D03*
Y-37500D02*
D03*
Y-17500D02*
D03*
Y2500D02*
D03*
X210250Y-215500D02*
D03*
Y-195500D02*
D03*
Y-175500D02*
D03*
Y-155500D02*
D03*
Y-135500D02*
D03*
Y-97500D02*
D03*
Y-77500D02*
D03*
Y-57500D02*
D03*
Y-37500D02*
D03*
Y-17500D02*
D03*
Y2500D02*
D03*
X230250Y-215500D02*
D03*
Y-195500D02*
D03*
Y-175500D02*
D03*
Y-155500D02*
D03*
Y-135500D02*
D03*
Y-97500D02*
D03*
Y-77500D02*
D03*
Y-57500D02*
D03*
Y-37500D02*
D03*
Y-17500D02*
D03*
Y2500D02*
D03*
X250250Y-215500D02*
D03*
Y-195500D02*
D03*
Y-175500D02*
D03*
Y-155500D02*
D03*
Y-135500D02*
D03*
Y-97500D02*
D03*
Y-77500D02*
D03*
Y-57500D02*
D03*
Y-37500D02*
D03*
Y-17500D02*
D03*
Y2500D02*
D03*
X270250Y-215500D02*
D03*
Y-195500D02*
D03*
Y-175500D02*
D03*
Y-155500D02*
D03*
Y-135500D02*
D03*
Y-97500D02*
D03*
Y-77500D02*
D03*
Y-57500D02*
D03*
Y-37500D02*
D03*
Y-17500D02*
D03*
Y2500D02*
D03*
X290250Y-215500D02*
D03*
Y-195500D02*
D03*
Y-175500D02*
D03*
Y-155500D02*
D03*
Y-135500D02*
D03*
Y-97500D02*
D03*
Y-77500D02*
D03*
Y-57500D02*
D03*
Y-37500D02*
D03*
Y-17500D02*
D03*
Y2500D02*
D03*
X310250Y-215500D02*
D03*
Y-195500D02*
D03*
Y-175500D02*
D03*
Y-155500D02*
D03*
Y-135500D02*
D03*
Y-97500D02*
D03*
Y-77500D02*
D03*
Y-57500D02*
D03*
Y-37500D02*
D03*
Y-17500D02*
D03*
Y2500D02*
D03*
X330250Y-195500D02*
D03*
Y-175500D02*
D03*
Y-155500D02*
D03*
Y-135500D02*
D03*
Y-97500D02*
D03*
Y-77500D02*
D03*
Y-57500D02*
D03*
Y-37500D02*
D03*
Y-17500D02*
D03*
Y2500D02*
D03*
X350250Y-195500D02*
D03*
Y-175500D02*
D03*
Y-155500D02*
D03*
Y-135500D02*
D03*
Y-97500D02*
D03*
Y-77500D02*
D03*
Y-57500D02*
D03*
Y-37500D02*
D03*
Y-17500D02*
D03*
Y2500D02*
D03*
X370250Y-195500D02*
D03*
Y-175500D02*
D03*
Y-155500D02*
D03*
Y-135500D02*
D03*
Y-97500D02*
D03*
Y-77500D02*
D03*
Y-57500D02*
D03*
Y-37500D02*
D03*
Y-17500D02*
D03*
Y2500D02*
D03*
X390250Y-195500D02*
D03*
Y-175500D02*
D03*
Y-155500D02*
D03*
Y-135500D02*
D03*
Y-97500D02*
D03*
Y-77500D02*
D03*
Y-57500D02*
D03*
Y-37500D02*
D03*
Y-17500D02*
D03*
Y2500D02*
D03*
X410250Y-195500D02*
D03*
Y-175500D02*
D03*
Y-155500D02*
D03*
Y-135500D02*
D03*
Y-97500D02*
D03*
Y-77500D02*
D03*
Y-57500D02*
D03*
Y-37500D02*
D03*
Y-17500D02*
D03*
Y2500D02*
D03*
X430250Y-195500D02*
D03*
Y-175500D02*
D03*
Y-155500D02*
D03*
Y-135500D02*
D03*
Y-97500D02*
D03*
Y-77500D02*
D03*
Y-57500D02*
D03*
Y-37500D02*
D03*
Y-17500D02*
D03*
Y2500D02*
D03*
X450250Y-195500D02*
D03*
Y-175500D02*
D03*
Y-155500D02*
D03*
Y-135500D02*
D03*
X450250Y-115500D02*
D03*
X450250Y-97500D02*
D03*
Y-77500D02*
D03*
Y-57500D02*
D03*
Y-37500D02*
D03*
Y-17500D02*
D03*
Y2500D02*
D03*
X470250Y-195500D02*
D03*
Y-175500D02*
D03*
Y-155500D02*
D03*
Y-135500D02*
D03*
Y-115500D02*
D03*
X470250Y-97500D02*
D03*
X470250Y-77500D02*
D03*
Y-57500D02*
D03*
Y-37500D02*
D03*
Y-17500D02*
D03*
Y2500D02*
D03*
X490250Y-175500D02*
D03*
Y-155500D02*
D03*
Y-135500D02*
D03*
Y-115500D02*
D03*
Y-97500D02*
D03*
Y-77500D02*
D03*
Y-57500D02*
D03*
Y-37500D02*
D03*
Y-17500D02*
D03*
Y2500D02*
D03*
X510250Y-195500D02*
D03*
Y-175500D02*
D03*
Y-155500D02*
D03*
Y-135500D02*
D03*
X510250Y-115500D02*
D03*
Y-97500D02*
D03*
Y-77500D02*
D03*
Y-57500D02*
D03*
Y-37500D02*
D03*
Y-17500D02*
D03*
Y2500D02*
D03*
X530250Y-195500D02*
D03*
Y-175500D02*
D03*
Y-155500D02*
D03*
Y-135500D02*
D03*
Y-115500D02*
D03*
Y-97500D02*
D03*
Y-77500D02*
D03*
Y-57500D02*
D03*
Y-37500D02*
D03*
Y-17500D02*
D03*
Y2500D02*
D03*
X550250Y-195500D02*
D03*
Y-175500D02*
D03*
Y-155500D02*
D03*
Y-135500D02*
D03*
X550250Y-115500D02*
D03*
Y-97500D02*
D03*
Y-77500D02*
D03*
Y-57500D02*
D03*
Y-37500D02*
D03*
Y-17500D02*
D03*
Y2500D02*
D03*
X570250Y-195500D02*
D03*
Y-175500D02*
D03*
Y-155500D02*
D03*
Y-135500D02*
D03*
Y-115500D02*
D03*
X570250Y-97500D02*
D03*
Y-57500D02*
D03*
Y-37500D02*
D03*
Y-17500D02*
D03*
Y2500D02*
D03*
X590250Y-195500D02*
D03*
Y-175500D02*
D03*
Y-155500D02*
D03*
Y-135500D02*
D03*
Y-115500D02*
D03*
Y-97500D02*
D03*
Y-77500D02*
D03*
Y-57500D02*
D03*
Y-37500D02*
D03*
Y-17500D02*
D03*
Y2500D02*
D03*
X610250Y-195500D02*
D03*
Y-175500D02*
D03*
Y-155500D02*
D03*
Y-135500D02*
D03*
Y-115500D02*
D03*
X610250Y-97500D02*
D03*
Y-77500D02*
D03*
Y-57500D02*
D03*
Y-37500D02*
D03*
Y-17500D02*
D03*
Y2500D02*
D03*
X630250Y-175500D02*
D03*
Y-155500D02*
D03*
Y-135500D02*
D03*
Y-115500D02*
D03*
Y-97500D02*
D03*
Y-77500D02*
D03*
Y-57500D02*
D03*
Y-37500D02*
D03*
Y-17500D02*
D03*
Y2500D02*
D03*
X650250Y-195500D02*
D03*
Y-175500D02*
D03*
Y-155500D02*
D03*
Y-135500D02*
D03*
Y-115500D02*
D03*
Y-97500D02*
D03*
Y-77500D02*
D03*
Y-57500D02*
D03*
Y-37500D02*
D03*
Y-17500D02*
D03*
Y2500D02*
D03*
X670250Y-195500D02*
D03*
Y-175500D02*
D03*
Y-155500D02*
D03*
Y-135500D02*
D03*
Y-115500D02*
D03*
Y-97500D02*
D03*
Y-77500D02*
D03*
Y-57500D02*
D03*
Y-37500D02*
D03*
X690250Y-195500D02*
D03*
Y-175500D02*
D03*
Y-155500D02*
D03*
Y-135500D02*
D03*
Y-115500D02*
D03*
Y-97500D02*
D03*
Y-77500D02*
D03*
Y-57500D02*
D03*
Y-37500D02*
D03*
X484250Y-435500D02*
D03*
Y-415500D02*
D03*
Y-395500D02*
D03*
Y-375500D02*
D03*
Y-357500D02*
D03*
Y-337500D02*
D03*
Y-317500D02*
D03*
X504250Y-435500D02*
D03*
Y-415500D02*
D03*
Y-395500D02*
D03*
Y-375500D02*
D03*
Y-357500D02*
D03*
Y-337500D02*
D03*
Y-317500D02*
D03*
X524250Y-435500D02*
D03*
Y-415500D02*
D03*
Y-395500D02*
D03*
Y-375500D02*
D03*
Y-357500D02*
D03*
Y-337500D02*
D03*
Y-317500D02*
D03*
X544250Y-435500D02*
D03*
Y-415500D02*
D03*
Y-395500D02*
D03*
Y-375500D02*
D03*
Y-357500D02*
D03*
Y-337500D02*
D03*
Y-317500D02*
D03*
X564250Y-435500D02*
D03*
Y-415500D02*
D03*
Y-395500D02*
D03*
Y-375500D02*
D03*
Y-357500D02*
D03*
Y-337500D02*
D03*
Y-317500D02*
D03*
X490250Y-250250D02*
D03*
X490253Y-227503D02*
D03*
X584250Y-435500D02*
D03*
Y-415500D02*
D03*
Y-395500D02*
D03*
Y-375500D02*
D03*
Y-337500D02*
D03*
Y-317500D02*
D03*
X510253Y-227503D02*
D03*
X604250Y-435500D02*
D03*
Y-415500D02*
D03*
Y-395500D02*
D03*
Y-375500D02*
D03*
Y-357500D02*
D03*
Y-337500D02*
D03*
Y-317500D02*
D03*
X530253Y-227503D02*
D03*
X624250Y-435500D02*
D03*
Y-415500D02*
D03*
Y-395500D02*
D03*
Y-375500D02*
D03*
Y-357500D02*
D03*
Y-337500D02*
D03*
Y-317500D02*
D03*
X550253Y-227503D02*
D03*
X644250Y-435500D02*
D03*
Y-415500D02*
D03*
Y-395500D02*
D03*
Y-375500D02*
D03*
Y-357500D02*
D03*
Y-337500D02*
D03*
Y-317500D02*
D03*
X570253Y-227503D02*
D03*
X664250Y-395500D02*
D03*
Y-375500D02*
D03*
Y-357500D02*
D03*
Y-337500D02*
D03*
Y-317500D02*
D03*
X590253Y-227503D02*
D03*
X684250Y-395500D02*
D03*
Y-375500D02*
D03*
Y-357500D02*
D03*
Y-337500D02*
D03*
Y-317500D02*
D03*
X610253Y-227503D02*
D03*
X630253Y-227502D02*
D03*
X650253Y-289251D02*
D03*
Y-269251D02*
D03*
Y-249251D02*
D03*
X650253Y-227503D02*
D03*
X670253Y-289251D02*
D03*
Y-269251D02*
D03*
Y-249251D02*
D03*
X670253Y-227503D02*
D03*
X690253Y-289251D02*
D03*
Y-269251D02*
D03*
Y-249251D02*
D03*
X690253Y-227503D02*
D03*
X510250Y-270000D02*
D03*
Y-250250D02*
D03*
X530250Y-270250D02*
D03*
Y-250000D02*
D03*
X550250Y-270000D02*
D03*
Y-250000D02*
D03*
X490250Y-270000D02*
D03*
Y-289750D02*
D03*
X510250D02*
D03*
X530250D02*
D03*
X550250Y-290000D02*
D03*
X190000Y-114750D02*
D03*
X210000D02*
D03*
X230000D02*
D03*
X250000D02*
D03*
X270000D02*
D03*
X290000D02*
D03*
X310000D02*
D03*
X330000D02*
D03*
X350000D02*
D03*
X370000D02*
D03*
X390000D02*
D03*
X410000D02*
D03*
X430000D02*
D03*
X189750Y-135500D02*
D03*
X490250Y-195750D02*
D03*
X330250Y-215500D02*
D03*
X350250D02*
D03*
X370250D02*
D03*
X390250D02*
D03*
X426500Y-316750D02*
D03*
X274500Y-336000D02*
D03*
X298000Y-379250D02*
D03*
Y-323500D02*
D03*
X384500Y-316750D02*
D03*
X362500D02*
D03*
X352500Y-379000D02*
D03*
X241000Y-379750D02*
D03*
M02*
