%FSLAX44Y44*%
%MOMM*%
G71*
G01*
G75*
G04 Layer_Color=16777215*
%ADD10C,0.4500*%
%ADD11R,0.9000X0.9500*%
%ADD12R,0.9500X0.9000*%
%ADD13R,1.5000X1.2500*%
%ADD14R,1.2500X1.5000*%
%ADD15R,6.3500X1.5240*%
%ADD16R,3.2000X1.0000*%
%ADD17R,0.9144X0.9144*%
%ADD18R,1.2700X0.9144*%
%ADD19R,0.9144X0.9144*%
%ADD20R,0.9144X1.2700*%
%ADD21R,0.9500X0.8000*%
%ADD22R,0.8000X0.9500*%
%ADD23O,0.5000X2.0000*%
%ADD24R,0.5000X2.0000*%
%ADD25R,0.9000X3.2000*%
%ADD26R,11.5000X9.0000*%
%ADD27R,0.9000X0.9000*%
%ADD28R,0.9000X1.2500*%
%ADD29R,2.0000X2.0000*%
%ADD30R,8.0000X4.0000*%
%ADD31O,2.0000X0.6000*%
%ADD32O,2.0000X1.0000*%
%ADD33C,0.5000*%
%ADD34C,0.3000*%
%ADD35R,1.7500X1.7500*%
%ADD36C,1.7500*%
%ADD37C,1.4000*%
%ADD38C,1.5000*%
%ADD39C,1.8000*%
%ADD40C,2.5000*%
%ADD41R,25.0000X8.0000*%
%ADD42R,22.0000X8.0000*%
%ADD43R,1.3000X1.3000*%
%ADD44C,1.3000*%
%ADD45C,1.2000*%
%ADD46C,0.2540*%
%ADD47C,0.2000*%
%ADD48C,0.3048*%
%ADD49C,0.2500*%
%ADD50C,0.1800*%
%ADD51C,0.1000*%
D34*
X382750Y-382750D02*
X387750D01*
X396750Y-404750D02*
X397750D01*
X406750Y-382750D02*
X411750D01*
X382750Y-394250D02*
Y-382750D01*
X411750Y-394250D02*
Y-382750D01*
D46*
X165500Y-374000D02*
G03*
X165500Y-374000I-16064J0D01*
G01*
X57500Y-373750D02*
G03*
X57500Y-373750I-16064J0D01*
G01*
X305590Y-394650D02*
G03*
X318290Y-394650I6350J0D01*
G01*
X224840Y-394400D02*
G03*
X237540Y-394400I6350J0D01*
G01*
X174000Y-389520D02*
Y-356500D01*
X130900Y-405000D02*
X169000D01*
X125500Y-389940D02*
Y-362000D01*
X130900Y-344000D02*
X169000D01*
X22900Y-343750D02*
X61000D01*
X17500Y-389690D02*
Y-361750D01*
X22900Y-404750D02*
X61000D01*
X66000Y-389270D02*
Y-356250D01*
X299240Y-445450D02*
Y-394650D01*
Y-445450D02*
X324640D01*
Y-394650D01*
X318290D02*
X324640D01*
X299240D02*
X305590D01*
X218490Y-394400D02*
X224840D01*
X237540D02*
X243890D01*
Y-445200D02*
Y-394400D01*
X218490Y-445200D02*
X243890D01*
X218490D02*
Y-394400D01*
D47*
X31250Y-286500D02*
G03*
X31250Y-273900I0J6300D01*
G01*
X220500Y-300250D02*
X233000D01*
X220500Y-315250D02*
X233000D01*
X238000D02*
X250500D01*
X238000Y-300250D02*
X250500D01*
X220500Y-315250D02*
Y-300250D01*
X250500Y-315250D02*
Y-300250D01*
X333750Y-329000D02*
Y-316500D01*
X318750Y-329000D02*
Y-316500D01*
Y-346500D02*
Y-334000D01*
X333750Y-346500D02*
Y-334000D01*
X318750Y-316500D02*
X333750D01*
X318750Y-346500D02*
X333750D01*
X113000Y-76750D02*
Y-61750D01*
X143000Y-76750D02*
Y-61750D01*
X113000Y-76750D02*
X125500D01*
X113000Y-61750D02*
X125500D01*
X130500D02*
X143000D01*
X130500Y-76750D02*
X143000D01*
X111500Y-212000D02*
Y-197000D01*
X141500Y-212000D02*
Y-197000D01*
X111500Y-212000D02*
X124000D01*
X111500Y-197000D02*
X124000D01*
X129000D02*
X141500D01*
X129000Y-212000D02*
X141500D01*
X303500Y-391250D02*
Y-367250D01*
X353500Y-391250D02*
Y-367250D01*
X303500Y-391250D02*
X323500D01*
X303500Y-367250D02*
X323500D01*
X333500D02*
X353500D01*
X333500Y-391250D02*
X353500D01*
X355750Y-414500D02*
X379750D01*
X355750Y-364500D02*
X379750D01*
Y-414500D02*
Y-394500D01*
X355750Y-414500D02*
Y-394500D01*
Y-384500D02*
Y-364500D01*
X379750Y-384500D02*
Y-364500D01*
X242500Y-391250D02*
Y-367250D01*
X292500Y-391250D02*
Y-367250D01*
X242500Y-391250D02*
X262500D01*
X242500Y-367250D02*
X262500D01*
X272500D02*
X292500D01*
X272500Y-391250D02*
X292500D01*
X239750Y-391500D02*
Y-367500D01*
X189750Y-391500D02*
Y-367500D01*
X219750D02*
X239750D01*
X219750Y-391500D02*
X239750D01*
X189750D02*
X209750D01*
X189750Y-367500D02*
X209750D01*
X350500Y-256250D02*
X374500D01*
X350500Y-306250D02*
X374500D01*
X350500Y-276250D02*
Y-256250D01*
X374500Y-276250D02*
Y-256250D01*
Y-306250D02*
Y-286250D01*
X350500Y-306250D02*
Y-286250D01*
X97750Y-59750D02*
Y-35750D01*
X147750Y-59750D02*
Y-35750D01*
X97750Y-59750D02*
X117750D01*
X97750Y-35750D02*
X117750D01*
X127750D02*
X147750D01*
X127750Y-59750D02*
X147750D01*
X67250D02*
X87250D01*
X67250Y-35750D02*
X87250D01*
X37250D02*
X57250D01*
X37250Y-59750D02*
X57250D01*
X87250D02*
Y-35750D01*
X37250Y-59750D02*
Y-35750D01*
X91000Y-117750D02*
Y-102750D01*
X61000Y-117750D02*
Y-102750D01*
X78500D02*
X91000D01*
X78500Y-117750D02*
X91000D01*
X61000D02*
X73500D01*
X61000Y-102750D02*
X73500D01*
X28250Y-181500D02*
X43250D01*
X28250Y-211500D02*
X43250D01*
X28250Y-194000D02*
Y-181500D01*
X43250Y-194000D02*
Y-181500D01*
Y-211500D02*
Y-199000D01*
X28250Y-211500D02*
Y-199000D01*
X192750Y-344750D02*
X205250D01*
X192750Y-359750D02*
X205250D01*
X210250D02*
X222750D01*
X210250Y-344750D02*
X222750D01*
X192750Y-359750D02*
Y-344750D01*
X222750Y-359750D02*
Y-344750D01*
X239000Y-341750D02*
Y-329250D01*
X224000Y-341750D02*
Y-329250D01*
Y-359250D02*
Y-346750D01*
X239000Y-359250D02*
Y-346750D01*
X224000Y-329250D02*
X239000D01*
X224000Y-359250D02*
X239000D01*
X113000Y-95000D02*
Y-80000D01*
X143000Y-95000D02*
Y-80000D01*
X113000Y-95000D02*
X125500D01*
X113000Y-80000D02*
X125500D01*
X130500D02*
X143000D01*
X130500Y-95000D02*
X143000D01*
X203000Y-285250D02*
X218000D01*
X203000Y-314250D02*
X218000D01*
X203000Y-297250D02*
Y-285250D01*
X218000Y-297250D02*
Y-285250D01*
Y-314250D02*
Y-302250D01*
X203000Y-314250D02*
Y-302250D01*
X46000Y-126250D02*
X58000D01*
X46000Y-111250D02*
X58000D01*
X29000D02*
X41000D01*
X29000Y-126250D02*
X41000D01*
X58000D02*
Y-111250D01*
X29000Y-126250D02*
Y-111250D01*
X78500Y-134750D02*
X90500D01*
X78500Y-119750D02*
X90500D01*
X61500D02*
X73500D01*
X61500Y-134750D02*
X73500D01*
X90500D02*
Y-119750D01*
X61500Y-134750D02*
Y-119750D01*
X49750Y-93250D02*
X61750D01*
X49750Y-78250D02*
X61750D01*
X32750D02*
X44750D01*
X32750Y-93250D02*
X44750D01*
X61750D02*
Y-78250D01*
X32750Y-93250D02*
Y-78250D01*
X479000Y-300750D02*
Y-285750D01*
X450000Y-300750D02*
Y-285750D01*
X467000D02*
X479000D01*
X467000Y-300750D02*
X479000D01*
X450000D02*
X462000D01*
X450000Y-285750D02*
X462000D01*
X419000Y-279500D02*
X434000D01*
X419000Y-308500D02*
X434000D01*
X419000Y-291500D02*
Y-279500D01*
X434000Y-291500D02*
Y-279500D01*
Y-308500D02*
Y-296500D01*
X419000Y-308500D02*
Y-296500D01*
X420500Y-262000D02*
X432500D01*
X420500Y-277000D02*
X432500D01*
X437500D02*
X449500D01*
X437500Y-262000D02*
X449500D01*
X420500Y-277000D02*
Y-262000D01*
X449500Y-277000D02*
Y-262000D01*
X22500Y-145500D02*
Y-130500D01*
X51500Y-145500D02*
Y-130500D01*
X22500Y-145500D02*
X34500D01*
X22500Y-130500D02*
X34500D01*
X39500D02*
X51500D01*
X39500Y-145500D02*
X51500D01*
X62250Y-194000D02*
Y-182000D01*
X47250Y-194000D02*
Y-182000D01*
Y-211000D02*
Y-199000D01*
X62250Y-211000D02*
Y-199000D01*
X47250Y-182000D02*
X62250D01*
X47250Y-211000D02*
X62250D01*
X478500Y-325000D02*
Y-310000D01*
X449500Y-325000D02*
Y-310000D01*
X466500D02*
X478500D01*
X466500Y-325000D02*
X478500D01*
X449500D02*
X461500D01*
X449500Y-310000D02*
X461500D01*
X478500Y-353750D02*
Y-338750D01*
X449500Y-353750D02*
Y-338750D01*
X466500D02*
X478500D01*
X466500Y-353750D02*
X478500D01*
X449500D02*
X461500D01*
X449500Y-338750D02*
X461500D01*
X31250Y-313170D02*
Y-286500D01*
Y-274000D02*
Y-247330D01*
X31400Y-247220D02*
X158400D01*
Y-313260D02*
Y-247220D01*
X31400Y-313260D02*
X158400D01*
X382250Y-380750D02*
X385750D01*
X408750D02*
X412250D01*
X382250Y-371750D02*
X385750D01*
X382250Y-417750D02*
X385750D01*
X408750D02*
X412250D01*
X408750Y-371750D02*
X412250D01*
X382250Y-417750D02*
Y-371750D01*
X412250Y-417750D02*
Y-371750D01*
D48*
X470920Y-331450D02*
X544580D01*
X470920Y-278800D02*
X544580D01*
Y-331450D02*
Y-312400D01*
X470920Y-331450D02*
Y-312400D01*
Y-297850D02*
Y-278800D01*
X544580Y-297850D02*
Y-278800D01*
X470500Y-355750D02*
X510500D01*
Y-336700D01*
X470500Y-355750D02*
Y-336700D01*
Y-274250D02*
X510500D01*
X470500Y-293300D02*
Y-274250D01*
X510500Y-293300D02*
Y-274250D01*
X383410Y-278370D02*
X394840D01*
X383410Y-307580D02*
X394840D01*
X383410Y-283450D02*
Y-278370D01*
X406270Y-293610D02*
Y-292340D01*
X383410Y-307580D02*
Y-302500D01*
X268410Y-331880D02*
X279840D01*
X268410Y-302670D02*
X279840D01*
Y-331880D02*
Y-326800D01*
X256980Y-317910D02*
Y-316640D01*
X279840Y-307750D02*
Y-302670D01*
X380920Y-247910D02*
X386000D01*
X394890Y-270770D02*
X396160D01*
X405050Y-247910D02*
X410130D01*
X380920Y-259340D02*
Y-247910D01*
X410130Y-259340D02*
Y-247910D01*
X442500Y-396340D02*
X447580D01*
X432340Y-373480D02*
X433610D01*
X418370Y-396340D02*
X423450D01*
X447580D02*
Y-384910D01*
X418370Y-396340D02*
Y-384910D01*
X149090Y-159250D02*
Y-154170D01*
X126230Y-169410D02*
Y-168140D01*
X149090Y-183380D02*
Y-178300D01*
X137660Y-154170D02*
X149090D01*
X137660Y-183380D02*
X149090D01*
X59880Y-165090D02*
Y-153660D01*
X30670Y-165090D02*
Y-153660D01*
X54800D02*
X59880D01*
X44640Y-176520D02*
X45910D01*
X30670Y-153660D02*
X35750D01*
X74160Y-137370D02*
X85590D01*
X74160Y-166580D02*
X85590D01*
X74160Y-142450D02*
Y-137370D01*
X97020Y-152610D02*
Y-151340D01*
X74160Y-166580D02*
Y-161500D01*
D49*
X50Y-98450D02*
Y-73050D01*
X-25350D02*
X25450D01*
X-25350Y-98450D02*
Y-73050D01*
Y-98450D02*
X25450D01*
Y-73050D01*
X108700Y-416700D02*
Y-340500D01*
X83300D02*
X108700D01*
X83300Y-416700D02*
Y-340500D01*
Y-416700D02*
X108700D01*
X83300Y-391300D02*
X108700D01*
D50*
X-30250Y-102250D02*
X44750D01*
X-30250Y-135250D02*
X44750D01*
X-30250D02*
Y-102250D01*
X44750Y-135250D02*
Y-102250D01*
X416500Y-455000D02*
Y-380000D01*
X449500Y-455000D02*
Y-380000D01*
X416500Y-455000D02*
X449500D01*
X416500Y-380000D02*
X449500D01*
X-30250Y-64250D02*
X44750D01*
X-30250Y-31250D02*
X44750D01*
Y-64250D02*
Y-31250D01*
X-30250Y-64250D02*
Y-31250D01*
X-30500Y-170000D02*
Y-137000D01*
X44500Y-170000D02*
Y-137000D01*
X-30500D02*
X44500D01*
X-30500Y-170000D02*
X44500D01*
X-30500Y-205000D02*
Y-172000D01*
X44500Y-205000D02*
Y-172000D01*
X-30500D02*
X44500D01*
X-30500Y-205000D02*
X44500D01*
D51*
X50082Y-164252D02*
X46750D01*
Y-166751D01*
X48416Y-165918D01*
X49249D01*
X50082Y-166751D01*
Y-168417D01*
X49249Y-169250D01*
X47583D01*
X46750Y-168417D01*
X51748Y-164252D02*
Y-167584D01*
X53415Y-169250D01*
X55081Y-167584D01*
Y-164252D01*
X56747Y-169250D02*
X58413D01*
X57580D01*
Y-164252D01*
X56747Y-165085D01*
X4650Y-125176D02*
Y-130174D01*
X7149D01*
X7982Y-129341D01*
Y-126009D01*
X7149Y-125176D01*
X4650D01*
X12981Y-130174D02*
X9648D01*
X12981Y-126842D01*
Y-126009D01*
X12148Y-125176D01*
X10481D01*
X9648Y-126009D01*
X107332Y-149502D02*
X104000D01*
Y-152001D01*
X105666Y-151168D01*
X106499D01*
X107332Y-152001D01*
Y-153667D01*
X106499Y-154500D01*
X104833D01*
X104000Y-153667D01*
X108998Y-149502D02*
Y-152834D01*
X110665Y-154500D01*
X112331Y-152834D01*
Y-149502D01*
X113997Y-154500D02*
X115663D01*
X114830D01*
Y-149502D01*
X113997Y-150335D01*
X84000Y-148002D02*
Y-153000D01*
X86499D01*
X87332Y-152167D01*
Y-148835D01*
X86499Y-148002D01*
X84000D01*
X88998Y-148835D02*
X89831Y-148002D01*
X91498D01*
X92331Y-148835D01*
Y-149668D01*
X91498Y-150501D01*
X90665D01*
X91498D01*
X92331Y-151334D01*
Y-152167D01*
X91498Y-153000D01*
X89831D01*
X88998Y-152167D01*
X323750Y-374250D02*
X325416D01*
X324583D01*
Y-369252D01*
X323750Y-370085D01*
X327915Y-370918D02*
Y-373417D01*
X328748Y-374250D01*
X331248D01*
Y-370918D01*
X336246Y-369252D02*
X332914D01*
Y-371751D01*
X334580D01*
X332914D01*
Y-374250D01*
X328082Y-382585D02*
X327249Y-381752D01*
X325583D01*
X324750Y-382585D01*
Y-385917D01*
X325583Y-386750D01*
X327249D01*
X328082Y-385917D01*
X329748Y-382585D02*
X330581Y-381752D01*
X332248D01*
X333081Y-382585D01*
Y-383418D01*
X332248Y-384251D01*
X333081Y-385084D01*
Y-385917D01*
X332248Y-386750D01*
X330581D01*
X329748Y-385917D01*
Y-385084D01*
X330581Y-384251D01*
X329748Y-383418D01*
Y-382585D01*
X330581Y-384251D02*
X332248D01*
X658470Y-29995D02*
X656804D01*
X657637D01*
Y-34160D01*
X656804Y-34993D01*
X655971D01*
X655137Y-34160D01*
X660136D02*
X660969Y-34993D01*
X662635D01*
X663468Y-34160D01*
Y-30828D01*
X662635Y-29995D01*
X660969D01*
X660136Y-30828D01*
Y-31661D01*
X660969Y-32494D01*
X663468D01*
X-25148Y-162003D02*
X-26814D01*
X-25981D01*
Y-166169D01*
X-26814Y-167002D01*
X-27647D01*
X-28480Y-166169D01*
X-20149Y-162003D02*
X-23482D01*
Y-164503D01*
X-21816Y-163669D01*
X-20982D01*
X-20149Y-164503D01*
Y-166169D01*
X-20982Y-167002D01*
X-22649D01*
X-23482Y-166169D01*
X-23668Y-124002D02*
X-25334D01*
X-24501D01*
Y-128167D01*
X-25334Y-129000D01*
X-26167D01*
X-27000Y-128167D01*
X-18669Y-124002D02*
X-20336Y-124835D01*
X-22002Y-126501D01*
Y-128167D01*
X-21169Y-129000D01*
X-19503D01*
X-18669Y-128167D01*
Y-127334D01*
X-19503Y-126501D01*
X-22002D01*
X360750Y-392000D02*
X362416D01*
X361583D01*
Y-387002D01*
X360750Y-387835D01*
X364915D02*
X365748Y-387002D01*
X367415D01*
X368248Y-387835D01*
Y-391167D01*
X367415Y-392000D01*
X365748D01*
X364915Y-391167D01*
Y-387835D01*
X369914D02*
X370747Y-387002D01*
X372413D01*
X373246Y-387835D01*
Y-391167D01*
X372413Y-392000D01*
X370747D01*
X369914Y-391167D01*
Y-387835D01*
X362750Y-423250D02*
Y-418252D01*
X365249D01*
X366082Y-419085D01*
Y-420751D01*
X365249Y-421584D01*
X362750D01*
X364416D02*
X366082Y-423250D01*
X371081D02*
X367748D01*
X371081Y-419918D01*
Y-419085D01*
X370247Y-418252D01*
X368581D01*
X367748Y-419085D01*
X372747Y-423250D02*
X374413D01*
X373580D01*
Y-418252D01*
X372747Y-419085D01*
X262250Y-398500D02*
X263916D01*
X263083D01*
Y-393502D01*
X262250Y-394335D01*
X266415D02*
X267248Y-393502D01*
X268915D01*
X269748Y-394335D01*
Y-397667D01*
X268915Y-398500D01*
X267248D01*
X266415Y-397667D01*
Y-394335D01*
X271414Y-395168D02*
Y-397667D01*
X272247Y-398500D01*
X274746D01*
Y-395168D01*
X279744Y-393502D02*
X276412D01*
Y-396001D01*
X278078D01*
X276412D01*
Y-398500D01*
X265585Y-379918D02*
X264752Y-380751D01*
Y-382417D01*
X265585Y-383250D01*
X268917D01*
X269750Y-382417D01*
Y-380751D01*
X268917Y-379918D01*
X269750Y-375752D02*
X264752D01*
X267251Y-378252D01*
Y-374919D01*
X216750Y-384168D02*
Y-387500D01*
X213418Y-384168D01*
X212585D01*
X211752Y-385001D01*
Y-386667D01*
X212585Y-387500D01*
X216750Y-379169D02*
Y-382502D01*
X213418Y-379169D01*
X212585D01*
X211752Y-380003D01*
Y-381669D01*
X212585Y-382502D01*
X213418Y-377503D02*
X215917D01*
X216750Y-376670D01*
Y-374171D01*
X213418D01*
X211752Y-369173D02*
Y-372505D01*
X214251D01*
Y-370839D01*
Y-372505D01*
X216750D01*
X202082Y-395335D02*
X201249Y-394502D01*
X199583D01*
X198750Y-395335D01*
Y-398667D01*
X199583Y-399500D01*
X201249D01*
X202082Y-398667D01*
X203748Y-395335D02*
X204581Y-394502D01*
X206248D01*
X207081Y-395335D01*
Y-396168D01*
X206248Y-397001D01*
X205415D01*
X206248D01*
X207081Y-397834D01*
Y-398667D01*
X206248Y-399500D01*
X204581D01*
X203748Y-398667D01*
X45000Y-270252D02*
Y-274417D01*
X45833Y-275250D01*
X47499D01*
X48332Y-274417D01*
Y-270252D01*
X53331Y-275250D02*
X49998D01*
X53331Y-271918D01*
Y-271085D01*
X52498Y-270252D01*
X50831D01*
X49998Y-271085D01*
X203500Y-280750D02*
X205166D01*
X204333D01*
Y-275752D01*
X203500Y-276585D01*
X207665D02*
X208498Y-275752D01*
X210165D01*
X210998Y-276585D01*
Y-279917D01*
X210165Y-280750D01*
X208498D01*
X207665Y-279917D01*
Y-276585D01*
X212664D02*
X213497Y-275752D01*
X215163D01*
X215996Y-276585D01*
Y-279917D01*
X215163Y-280750D01*
X213497D01*
X212664Y-279917D01*
Y-276585D01*
X217662Y-280750D02*
Y-275752D01*
Y-279084D02*
X220161Y-277418D01*
X217662Y-279084D02*
X220161Y-280750D01*
X207250Y-302000D02*
Y-297002D01*
X209749D01*
X210582Y-297835D01*
Y-299501D01*
X209749Y-300334D01*
X207250D01*
X208916D02*
X210582Y-302000D01*
X212248Y-297835D02*
X213081Y-297002D01*
X214748D01*
X215581Y-297835D01*
Y-298668D01*
X214748Y-299501D01*
X215581Y-300334D01*
Y-301167D01*
X214748Y-302000D01*
X213081D01*
X212248Y-301167D01*
Y-300334D01*
X213081Y-299501D01*
X212248Y-298668D01*
Y-297835D01*
X213081Y-299501D02*
X214748D01*
X50330Y-108750D02*
X46998D01*
X50330Y-105418D01*
Y-104585D01*
X49497Y-103752D01*
X47831D01*
X46998Y-104585D01*
X55329Y-108750D02*
X51996D01*
X55329Y-105418D01*
Y-104585D01*
X54496Y-103752D01*
X52830D01*
X51996Y-104585D01*
X56995D02*
X57828Y-103752D01*
X59494D01*
X60327Y-104585D01*
Y-107917D01*
X59494Y-108750D01*
X57828D01*
X56995Y-107917D01*
Y-104585D01*
X61993Y-108750D02*
Y-103752D01*
Y-107084D02*
X64492Y-105418D01*
X61993Y-107084D02*
X64492Y-108750D01*
X45750Y-125000D02*
X40752D01*
Y-122501D01*
X41585Y-121668D01*
X43251D01*
X44084Y-122501D01*
Y-125000D01*
Y-123334D02*
X45750Y-121668D01*
Y-120002D02*
Y-118336D01*
Y-119169D01*
X40752D01*
X41585Y-120002D01*
X40752Y-112504D02*
X41585Y-114170D01*
X43251Y-115836D01*
X44917D01*
X45750Y-115003D01*
Y-113337D01*
X44917Y-112504D01*
X44084D01*
X43251Y-113337D01*
Y-115836D01*
X116250Y-131002D02*
X117916D01*
X117083D01*
Y-126003D01*
X116250Y-126836D01*
X120415D02*
X121248Y-126003D01*
X122914D01*
X123748Y-126836D01*
Y-130169D01*
X122914Y-131002D01*
X121248D01*
X120415Y-130169D01*
Y-126836D01*
X125414D02*
X126247Y-126003D01*
X127913D01*
X128746Y-126836D01*
Y-130169D01*
X127913Y-131002D01*
X126247D01*
X125414Y-130169D01*
Y-126836D01*
X130412Y-131002D02*
Y-126003D01*
Y-129336D02*
X132911Y-127669D01*
X130412Y-129336D02*
X132911Y-131002D01*
X95750Y-131000D02*
Y-126002D01*
X98249D01*
X99082Y-126835D01*
Y-128501D01*
X98249Y-129334D01*
X95750D01*
X97416D02*
X99082Y-131000D01*
X100748D02*
X102415D01*
X101581D01*
Y-126002D01*
X100748Y-126835D01*
X104914Y-126002D02*
X108246D01*
Y-126835D01*
X104914Y-130167D01*
Y-131000D01*
X54998Y-75750D02*
X56664D01*
X55831D01*
Y-70752D01*
X54998Y-71585D01*
X59163Y-75750D02*
Y-70752D01*
Y-74084D02*
X61663Y-72418D01*
X59163Y-74084D02*
X61663Y-75750D01*
X65750Y-88750D02*
Y-83752D01*
X68249D01*
X69082Y-84585D01*
Y-86251D01*
X68249Y-87084D01*
X65750D01*
X67416D02*
X69082Y-88750D01*
X70748D02*
X72414D01*
X71581D01*
Y-83752D01*
X70748Y-84585D01*
X74914Y-87917D02*
X75747Y-88750D01*
X77413D01*
X78246Y-87917D01*
Y-84585D01*
X77413Y-83752D01*
X75747D01*
X74914Y-84585D01*
Y-85418D01*
X75747Y-86251D01*
X78246D01*
X486168Y-285870D02*
Y-287536D01*
Y-286703D01*
X491166D01*
X490333Y-285870D01*
X486168Y-290036D02*
X491166D01*
X487834D02*
X489500Y-292535D01*
X487834Y-290036D02*
X486168Y-292535D01*
X462250Y-289000D02*
X467248D01*
Y-291499D01*
X466415Y-292332D01*
X464749D01*
X463916Y-291499D01*
Y-289000D01*
Y-290666D02*
X462250Y-292332D01*
X467248Y-297331D02*
X466415Y-295665D01*
X464749Y-293998D01*
X463083D01*
X462250Y-294831D01*
Y-296497D01*
X463083Y-297331D01*
X463916D01*
X464749Y-296497D01*
Y-293998D01*
X484250Y-339000D02*
Y-334002D01*
X486749D01*
X487582Y-334835D01*
Y-336501D01*
X486749Y-337334D01*
X484250D01*
X485916D02*
X487582Y-339000D01*
X489248D02*
X490914D01*
X490081D01*
Y-334002D01*
X489248Y-334835D01*
X496746Y-334002D02*
X493414D01*
Y-336501D01*
X495080Y-335668D01*
X495913D01*
X496746Y-336501D01*
Y-338167D01*
X495913Y-339000D01*
X494247D01*
X493414Y-338167D01*
X420500Y-330750D02*
X422166D01*
X421333D01*
Y-325752D01*
X420500Y-326585D01*
X424665D02*
X425498Y-325752D01*
X427164D01*
X427998Y-326585D01*
Y-329917D01*
X427164Y-330750D01*
X425498D01*
X424665Y-329917D01*
Y-326585D01*
X429664Y-330750D02*
Y-325752D01*
Y-329084D02*
X432163Y-327418D01*
X429664Y-329084D02*
X432163Y-330750D01*
X420250Y-296500D02*
Y-291502D01*
X422749D01*
X423582Y-292335D01*
Y-294001D01*
X422749Y-294834D01*
X420250D01*
X421916D02*
X423582Y-296500D01*
X425248D02*
X426914D01*
X426081D01*
Y-291502D01*
X425248Y-292335D01*
X432746Y-296500D02*
X429414D01*
X432746Y-293168D01*
Y-292335D01*
X431913Y-291502D01*
X430247D01*
X429414Y-292335D01*
X431000Y-258500D02*
X432666D01*
X431833D01*
Y-253502D01*
X431000Y-254335D01*
X435165D02*
X435998Y-253502D01*
X437664D01*
X438498Y-254335D01*
Y-257667D01*
X437664Y-258500D01*
X435998D01*
X435165Y-257667D01*
Y-254335D01*
X437750Y-274750D02*
X432752D01*
Y-272251D01*
X433585Y-271418D01*
X435251D01*
X436084Y-272251D01*
Y-274750D01*
Y-273084D02*
X437750Y-271418D01*
Y-269752D02*
Y-268085D01*
Y-268919D01*
X432752D01*
X433585Y-269752D01*
X437750Y-265586D02*
Y-263920D01*
Y-264753D01*
X432752D01*
X433585Y-265586D01*
X231000Y-297250D02*
X232666D01*
X231833D01*
Y-292252D01*
X231000Y-293085D01*
X235165D02*
X235998Y-292252D01*
X237665D01*
X238498Y-293085D01*
Y-296417D01*
X237665Y-297250D01*
X235998D01*
X235165Y-296417D01*
Y-293085D01*
X240164Y-297250D02*
Y-292252D01*
Y-295584D02*
X242663Y-293918D01*
X240164Y-295584D02*
X242663Y-297250D01*
X238500Y-314000D02*
X233502D01*
Y-311501D01*
X234335Y-310668D01*
X236001D01*
X236834Y-311501D01*
Y-314000D01*
Y-312334D02*
X238500Y-310668D01*
Y-309002D02*
Y-307335D01*
Y-308169D01*
X233502D01*
X234335Y-309002D01*
Y-304836D02*
X233502Y-304003D01*
Y-302337D01*
X234335Y-301504D01*
X237667D01*
X238500Y-302337D01*
Y-304003D01*
X237667Y-304836D01*
X234335D01*
X54500Y-142000D02*
X56166D01*
X55333D01*
Y-137002D01*
X54500Y-137835D01*
X58665Y-142000D02*
Y-137002D01*
Y-140334D02*
X61164Y-138668D01*
X58665Y-140334D02*
X61164Y-142000D01*
X39000D02*
X34002D01*
Y-139501D01*
X34835Y-138668D01*
X36501D01*
X37334Y-139501D01*
Y-142000D01*
Y-140334D02*
X39000Y-138668D01*
Y-134502D02*
X34002D01*
X36501Y-137002D01*
Y-133669D01*
X48500Y-220000D02*
X50166D01*
X49333D01*
Y-215002D01*
X48500Y-215835D01*
X52665D02*
X53498Y-215002D01*
X55164D01*
X55998Y-215835D01*
Y-219167D01*
X55164Y-220000D01*
X53498D01*
X52665Y-219167D01*
Y-215835D01*
X57664D02*
X58497Y-215002D01*
X60163D01*
X60996Y-215835D01*
Y-219167D01*
X60163Y-220000D01*
X58497D01*
X57664Y-219167D01*
Y-215835D01*
X62662Y-220000D02*
Y-215002D01*
Y-218334D02*
X65161Y-216668D01*
X62662Y-218334D02*
X65161Y-220000D01*
X50750Y-200000D02*
Y-195002D01*
X53249D01*
X54082Y-195835D01*
Y-197501D01*
X53249Y-198334D01*
X50750D01*
X52416D02*
X54082Y-200000D01*
X55748Y-195002D02*
X59081D01*
Y-195835D01*
X55748Y-199167D01*
Y-200000D01*
X336250Y-334250D02*
X337916D01*
X337083D01*
Y-329252D01*
X336250Y-330085D01*
X340415D02*
X341248Y-329252D01*
X342915D01*
X343748Y-330085D01*
Y-333417D01*
X342915Y-334250D01*
X341248D01*
X340415Y-333417D01*
Y-330085D01*
X345414Y-334250D02*
Y-329252D01*
Y-332584D02*
X347913Y-330918D01*
X345414Y-332584D02*
X347913Y-334250D01*
X321750Y-334000D02*
Y-329002D01*
X324249D01*
X325082Y-329835D01*
Y-331501D01*
X324249Y-332334D01*
X321750D01*
X323416D02*
X325082Y-334000D01*
X326748Y-333167D02*
X327581Y-334000D01*
X329248D01*
X330081Y-333167D01*
Y-329835D01*
X329248Y-329002D01*
X327581D01*
X326748Y-329835D01*
Y-330668D01*
X327581Y-331501D01*
X330081D01*
X461250Y-307750D02*
X462916D01*
X462083D01*
Y-302752D01*
X461250Y-303585D01*
X465415Y-307750D02*
Y-302752D01*
Y-306084D02*
X467915Y-304418D01*
X465415Y-306084D02*
X467915Y-307750D01*
X461750Y-312750D02*
X466748D01*
Y-315249D01*
X465915Y-316082D01*
X464249D01*
X463416Y-315249D01*
Y-312750D01*
Y-314416D02*
X461750Y-316082D01*
X466748Y-321081D02*
Y-317748D01*
X464249D01*
X465082Y-319415D01*
Y-320248D01*
X464249Y-321081D01*
X462583D01*
X461750Y-320248D01*
Y-318582D01*
X462583Y-317748D01*
X374750Y-328500D02*
Y-323502D01*
X377249D01*
X378082Y-324335D01*
Y-326001D01*
X377249Y-326834D01*
X374750D01*
X379748Y-328500D02*
Y-323502D01*
X383081Y-328500D01*
Y-323502D01*
X384747Y-328500D02*
Y-323502D01*
X387246D01*
X388079Y-324335D01*
Y-326001D01*
X387246Y-326834D01*
X384747D01*
X394743Y-323502D02*
Y-328500D01*
X397243D01*
X398076Y-327667D01*
Y-326834D01*
X397243Y-326001D01*
X394743D01*
X397243D01*
X398076Y-325168D01*
Y-324335D01*
X397243Y-323502D01*
X394743D01*
X403074Y-324335D02*
X402241Y-323502D01*
X400575D01*
X399742Y-324335D01*
Y-327667D01*
X400575Y-328500D01*
X402241D01*
X403074Y-327667D01*
X404740Y-324335D02*
X405573Y-323502D01*
X407239D01*
X408072Y-324335D01*
Y-325168D01*
X407239Y-326001D01*
X408072Y-326834D01*
Y-327667D01*
X407239Y-328500D01*
X405573D01*
X404740Y-327667D01*
Y-326834D01*
X405573Y-326001D01*
X404740Y-325168D01*
Y-324335D01*
X405573Y-326001D02*
X407239D01*
X409739Y-324335D02*
X410572Y-323502D01*
X412238D01*
X413071Y-324335D01*
Y-327667D01*
X412238Y-328500D01*
X410572D01*
X409739Y-327667D01*
Y-324335D01*
X414737Y-323502D02*
X418069D01*
Y-324335D01*
X414737Y-327667D01*
Y-328500D01*
X339447Y-145686D02*
X336115D01*
X335282Y-146519D01*
Y-148185D01*
X336115Y-149018D01*
X339447D01*
X340280Y-148185D01*
Y-146519D01*
X338614Y-147352D02*
X340280Y-145686D01*
Y-146519D02*
X339447Y-145686D01*
X336115Y-144020D02*
X335282Y-143187D01*
Y-141521D01*
X336115Y-140687D01*
X336948D01*
X337781Y-141521D01*
Y-142354D01*
Y-141521D01*
X338614Y-140687D01*
X339447D01*
X340280Y-141521D01*
Y-143187D01*
X339447Y-144020D01*
X248000Y-295750D02*
Y-290752D01*
X251332Y-295750D01*
Y-290752D01*
X252998Y-295750D02*
Y-290752D01*
X255498D01*
X256331Y-291585D01*
Y-293251D01*
X255498Y-294084D01*
X252998D01*
X257997Y-295750D02*
Y-290752D01*
X261329Y-295750D01*
Y-290752D01*
X267994D02*
Y-295750D01*
X270493D01*
X271326Y-294917D01*
Y-294084D01*
X270493Y-293251D01*
X267994D01*
X270493D01*
X271326Y-292418D01*
Y-291585D01*
X270493Y-290752D01*
X267994D01*
X276324Y-291585D02*
X275491Y-290752D01*
X273825D01*
X272992Y-291585D01*
Y-294917D01*
X273825Y-295750D01*
X275491D01*
X276324Y-294917D01*
X277990Y-291585D02*
X278823Y-290752D01*
X280489D01*
X281322Y-291585D01*
Y-292418D01*
X280489Y-293251D01*
X281322Y-294084D01*
Y-294917D01*
X280489Y-295750D01*
X278823D01*
X277990Y-294917D01*
Y-294084D01*
X278823Y-293251D01*
X277990Y-292418D01*
Y-291585D01*
X278823Y-293251D02*
X280489D01*
X282989Y-295750D02*
X284655D01*
X283822D01*
Y-290752D01*
X282989Y-291585D01*
X287154Y-290752D02*
X290486D01*
Y-291585D01*
X287154Y-294917D01*
Y-295750D01*
X269582Y-309417D02*
Y-306085D01*
X268749Y-305252D01*
X267083D01*
X266250Y-306085D01*
Y-309417D01*
X267083Y-310250D01*
X268749D01*
X267916Y-308584D02*
X269582Y-310250D01*
X268749D02*
X269582Y-309417D01*
X274581Y-310250D02*
X271248D01*
X274581Y-306918D01*
Y-306085D01*
X273748Y-305252D01*
X272081D01*
X271248Y-306085D01*
X33082Y-68002D02*
X31416D01*
X32249D01*
Y-72167D01*
X31416Y-73000D01*
X30583D01*
X29750Y-72167D01*
X34748Y-68835D02*
X35581Y-68002D01*
X37248D01*
X38081Y-68835D01*
Y-69668D01*
X37248Y-70501D01*
X36414D01*
X37248D01*
X38081Y-71334D01*
Y-72167D01*
X37248Y-73000D01*
X35581D01*
X34748Y-72167D01*
X539995Y-349832D02*
Y-348166D01*
Y-348999D01*
X535830D01*
X534997Y-348166D01*
Y-347333D01*
X535830Y-346500D01*
X534997Y-354831D02*
Y-351498D01*
X538329Y-354831D01*
X539162D01*
X539995Y-353997D01*
Y-352331D01*
X539162Y-351498D01*
X14331Y-280254D02*
X12664D01*
X13497D01*
Y-284419D01*
X12664Y-285252D01*
X11831D01*
X10998Y-284419D01*
X15997Y-285252D02*
X17663D01*
X16830D01*
Y-280254D01*
X15997Y-281087D01*
X115500Y-115000D02*
X117166D01*
X116333D01*
Y-110002D01*
X115500Y-110835D01*
X119665Y-115000D02*
Y-111668D01*
X122164D01*
X122998Y-112501D01*
Y-115000D01*
X127996Y-110002D02*
X124664D01*
Y-112501D01*
X126330D01*
X124664D01*
Y-115000D01*
X98332Y-110335D02*
X97499Y-109502D01*
X95833D01*
X95000Y-110335D01*
Y-113667D01*
X95833Y-114500D01*
X97499D01*
X98332Y-113667D01*
X99998Y-114500D02*
X101664D01*
X100831D01*
Y-109502D01*
X99998Y-110335D01*
X107496Y-114500D02*
X104164D01*
X107496Y-111168D01*
Y-110335D01*
X106663Y-109502D01*
X104997D01*
X104164Y-110335D01*
X29750Y-221000D02*
X31416D01*
X30583D01*
Y-216002D01*
X29750Y-216835D01*
X33915Y-221000D02*
Y-217668D01*
X36414D01*
X37248Y-218501D01*
Y-221000D01*
X42246Y-216002D02*
X38914D01*
Y-218501D01*
X40580D01*
X38914D01*
Y-221000D01*
X35082Y-194585D02*
X34249Y-193752D01*
X32583D01*
X31750Y-194585D01*
Y-197917D01*
X32583Y-198750D01*
X34249D01*
X35082Y-197917D01*
X36748D02*
X37581Y-198750D01*
X39248D01*
X40081Y-197917D01*
Y-194585D01*
X39248Y-193752D01*
X37581D01*
X36748Y-194585D01*
Y-195418D01*
X37581Y-196251D01*
X40081D01*
X199000Y-343000D02*
X200666D01*
X199833D01*
Y-338002D01*
X199000Y-338835D01*
X203165D02*
X203998Y-338002D01*
X205665D01*
X206498Y-338835D01*
Y-342167D01*
X205665Y-343000D01*
X203998D01*
X203165Y-342167D01*
Y-338835D01*
X208164D02*
X208997Y-338002D01*
X210663D01*
X211496Y-338835D01*
Y-342167D01*
X210663Y-343000D01*
X208997D01*
X208164Y-342167D01*
Y-338835D01*
X213162Y-343000D02*
Y-339668D01*
X215661D01*
X216494Y-340501D01*
Y-343000D01*
X221493Y-338002D02*
X218160D01*
Y-340501D01*
X219827D01*
X218160D01*
Y-343000D01*
X205585Y-353918D02*
X204752Y-354751D01*
Y-356417D01*
X205585Y-357250D01*
X208917D01*
X209750Y-356417D01*
Y-354751D01*
X208917Y-353918D01*
X209750Y-352252D02*
Y-350586D01*
Y-351419D01*
X204752D01*
X205585Y-352252D01*
X209750Y-348086D02*
Y-346420D01*
Y-347253D01*
X204752D01*
X205585Y-348086D01*
X358500Y-283500D02*
X360166D01*
X359333D01*
Y-278502D01*
X358500Y-279335D01*
X362665D02*
X363498Y-278502D01*
X365164D01*
X365998Y-279335D01*
Y-282667D01*
X365164Y-283500D01*
X363498D01*
X362665Y-282667D01*
Y-279335D01*
X367664Y-280168D02*
Y-282667D01*
X368497Y-283500D01*
X370996D01*
Y-280168D01*
X375994Y-278502D02*
X372662D01*
Y-281001D01*
X374328D01*
X372662D01*
Y-283500D01*
X361082Y-249835D02*
X360249Y-249002D01*
X358583D01*
X357750Y-249835D01*
Y-253167D01*
X358583Y-254000D01*
X360249D01*
X361082Y-253167D01*
X362748Y-254000D02*
X364414D01*
X363581D01*
Y-249002D01*
X362748Y-249835D01*
X369413Y-254000D02*
Y-249002D01*
X366914Y-251501D01*
X370246D01*
X242000Y-359750D02*
X243666D01*
X242833D01*
Y-354752D01*
X242000Y-355585D01*
X246165D02*
X246998Y-354752D01*
X248664D01*
X249498Y-355585D01*
Y-358917D01*
X248664Y-359750D01*
X246998D01*
X246165Y-358917D01*
Y-355585D01*
X251164D02*
X251997Y-354752D01*
X253663D01*
X254496Y-355585D01*
Y-358917D01*
X253663Y-359750D01*
X251997D01*
X251164Y-358917D01*
Y-355585D01*
X256162Y-359750D02*
Y-356418D01*
X258661D01*
X259494Y-357251D01*
Y-359750D01*
X264493Y-354752D02*
X261160D01*
Y-357251D01*
X262826D01*
X261160D01*
Y-359750D01*
X228582Y-341835D02*
X227749Y-341002D01*
X226083D01*
X225250Y-341835D01*
Y-345167D01*
X226083Y-346000D01*
X227749D01*
X228582Y-345167D01*
X230248Y-346000D02*
X231915D01*
X231081D01*
Y-341002D01*
X230248Y-341835D01*
X234414D02*
X235247Y-341002D01*
X236913D01*
X237746Y-341835D01*
Y-345167D01*
X236913Y-346000D01*
X235247D01*
X234414Y-345167D01*
Y-341835D01*
X435634Y-112828D02*
X432302D01*
X431469Y-113661D01*
Y-115327D01*
X432302Y-116160D01*
X435634D01*
X436467Y-115327D01*
Y-113661D01*
X434801Y-114494D02*
X436467Y-112828D01*
Y-113661D02*
X435634Y-112828D01*
X436467Y-108662D02*
X431469D01*
X433968Y-111162D01*
Y-107829D01*
X371250Y-241000D02*
Y-236002D01*
X374582Y-241000D01*
Y-236002D01*
X376248Y-241000D02*
Y-236002D01*
X378748D01*
X379581Y-236835D01*
Y-238501D01*
X378748Y-239334D01*
X376248D01*
X381247Y-241000D02*
Y-236002D01*
X384579Y-241000D01*
Y-236002D01*
X391244D02*
Y-241000D01*
X393743D01*
X394576Y-240167D01*
Y-239334D01*
X393743Y-238501D01*
X391244D01*
X393743D01*
X394576Y-237668D01*
Y-236835D01*
X393743Y-236002D01*
X391244D01*
X399574Y-236835D02*
X398741Y-236002D01*
X397075D01*
X396242Y-236835D01*
Y-240167D01*
X397075Y-241000D01*
X398741D01*
X399574Y-240167D01*
X401240Y-236835D02*
X402073Y-236002D01*
X403739D01*
X404572Y-236835D01*
Y-237668D01*
X403739Y-238501D01*
X404572Y-239334D01*
Y-240167D01*
X403739Y-241000D01*
X402073D01*
X401240Y-240167D01*
Y-239334D01*
X402073Y-238501D01*
X401240Y-237668D01*
Y-236835D01*
X402073Y-238501D02*
X403739D01*
X406239Y-241000D02*
X407905D01*
X407072D01*
Y-236002D01*
X406239Y-236835D01*
X410404Y-236002D02*
X413736D01*
Y-236835D01*
X410404Y-240167D01*
Y-241000D01*
X395082Y-263167D02*
Y-259835D01*
X394249Y-259002D01*
X392583D01*
X391750Y-259835D01*
Y-263167D01*
X392583Y-264000D01*
X394249D01*
X393416Y-262334D02*
X395082Y-264000D01*
X394249D02*
X395082Y-263167D01*
X396748Y-264000D02*
X398414D01*
X397581D01*
Y-259002D01*
X396748Y-259835D01*
X461500Y-340000D02*
X466498D01*
Y-342499D01*
X465665Y-343332D01*
X463999D01*
X463166Y-342499D01*
Y-340000D01*
Y-341666D02*
X461500Y-343332D01*
Y-344998D02*
Y-346665D01*
Y-345831D01*
X466498D01*
X465665Y-344998D01*
Y-349164D02*
X466498Y-349997D01*
Y-351663D01*
X465665Y-352496D01*
X464832D01*
X463999Y-351663D01*
X463166Y-352496D01*
X462333D01*
X461500Y-351663D01*
Y-349997D01*
X462333Y-349164D01*
X463166D01*
X463999Y-349997D01*
X464832Y-349164D01*
X465665D01*
X463999Y-349997D02*
Y-351663D01*
X187296Y-332460D02*
X186463Y-331627D01*
X184797D01*
X183964Y-332460D01*
Y-333293D01*
X184797Y-334126D01*
X186463D01*
X187296Y-334959D01*
Y-335792D01*
X186463Y-336625D01*
X184797D01*
X183964Y-335792D01*
X188962Y-336625D02*
X190629D01*
X189795D01*
Y-331627D01*
X188962Y-332460D01*
X77518Y-332210D02*
X76685Y-331377D01*
X75019D01*
X74186Y-332210D01*
Y-333043D01*
X75019Y-333876D01*
X76685D01*
X77518Y-334709D01*
Y-335542D01*
X76685Y-336375D01*
X75019D01*
X74186Y-335542D01*
X82517Y-336375D02*
X79184D01*
X82517Y-333043D01*
Y-332210D01*
X81684Y-331377D01*
X80017D01*
X79184Y-332210D01*
X213768Y-451153D02*
Y-456151D01*
X217101D01*
X218767D02*
Y-451153D01*
X220433Y-452819D01*
X222099Y-451153D01*
Y-456151D01*
X223765Y-451153D02*
X227097D01*
Y-451986D01*
X223765Y-455318D01*
Y-456151D01*
X228763Y-451986D02*
X229596Y-451153D01*
X231262D01*
X232096Y-451986D01*
Y-452819D01*
X231262Y-453652D01*
X232096Y-454485D01*
Y-455318D01*
X231262Y-456151D01*
X229596D01*
X228763Y-455318D01*
Y-454485D01*
X229596Y-453652D01*
X228763Y-452819D01*
Y-451986D01*
X229596Y-453652D02*
X231262D01*
X233762Y-451153D02*
Y-456151D01*
X237094D01*
X238760Y-451986D02*
X239593Y-451153D01*
X241259D01*
X242092Y-451986D01*
Y-455318D01*
X241259Y-456151D01*
X239593D01*
X238760Y-455318D01*
Y-451986D01*
X247091Y-451153D02*
X243758D01*
Y-453652D01*
X245425Y-452819D01*
X246258D01*
X247091Y-453652D01*
Y-455318D01*
X246258Y-456151D01*
X244592D01*
X243758Y-455318D01*
X230000Y-407752D02*
Y-411917D01*
X230833Y-412750D01*
X232499D01*
X233332Y-411917D01*
Y-407752D01*
X234998Y-412750D02*
X236665D01*
X235831D01*
Y-407752D01*
X234998Y-408585D01*
X293500Y-449752D02*
Y-454750D01*
X296832D01*
X298498D02*
Y-449752D01*
X300165Y-451418D01*
X301831Y-449752D01*
Y-454750D01*
X303497Y-449752D02*
X306829D01*
Y-450585D01*
X303497Y-453917D01*
Y-454750D01*
X308495Y-450585D02*
X309328Y-449752D01*
X310994D01*
X311827Y-450585D01*
Y-451418D01*
X310994Y-452251D01*
X311827Y-453084D01*
Y-453917D01*
X310994Y-454750D01*
X309328D01*
X308495Y-453917D01*
Y-453084D01*
X309328Y-452251D01*
X308495Y-451418D01*
Y-450585D01*
X309328Y-452251D02*
X310994D01*
X313493Y-449752D02*
Y-454750D01*
X316826D01*
X318492D02*
X320158D01*
X319325D01*
Y-449752D01*
X318492Y-450585D01*
X325989Y-454750D02*
X322657D01*
X325989Y-451418D01*
Y-450585D01*
X325156Y-449752D01*
X323490D01*
X322657Y-450585D01*
X309250Y-408752D02*
Y-412917D01*
X310083Y-413750D01*
X311749D01*
X312582Y-412917D01*
Y-408752D01*
X316748Y-413750D02*
Y-408752D01*
X314248Y-411251D01*
X317581D01*
X523000Y-305750D02*
Y-300752D01*
X525499D01*
X526332Y-301585D01*
Y-303251D01*
X525499Y-304084D01*
X523000D01*
X524666D02*
X526332Y-305750D01*
X531331D02*
X527998D01*
X531331Y-302418D01*
Y-301585D01*
X530498Y-300752D01*
X528831D01*
X527998Y-301585D01*
X532997D02*
X533830Y-300752D01*
X535496D01*
X536329Y-301585D01*
Y-304917D01*
X535496Y-305750D01*
X533830D01*
X532997Y-304917D01*
Y-301585D01*
X385750Y-392252D02*
Y-397250D01*
X388249D01*
X389082Y-396417D01*
Y-393085D01*
X388249Y-392252D01*
X385750D01*
X390748D02*
X392415D01*
X391581D01*
Y-397250D01*
X390748D01*
X392415D01*
X397413Y-392252D02*
X395747D01*
X394914Y-393085D01*
Y-396417D01*
X395747Y-397250D01*
X397413D01*
X398246Y-396417D01*
Y-393085D01*
X397413Y-392252D01*
X399912D02*
Y-397250D01*
X402411D01*
X403244Y-396417D01*
Y-393085D01*
X402411Y-392252D01*
X399912D01*
X408243D02*
X404910D01*
Y-397250D01*
X408243D01*
X404910Y-394751D02*
X406576D01*
X424204Y-416330D02*
X419205D01*
Y-418829D01*
X420038Y-419663D01*
X423371D01*
X424204Y-418829D01*
Y-416330D01*
X419205Y-423828D02*
X424204D01*
X421704Y-421329D01*
Y-424661D01*
X442582Y-373002D02*
X440916D01*
X441749D01*
Y-377167D01*
X440916Y-378000D01*
X440083D01*
X439250Y-377167D01*
X444248Y-373002D02*
X447581D01*
Y-373835D01*
X444248Y-377167D01*
Y-378000D01*
X422735Y-409285D02*
Y-412617D01*
X423568Y-413451D01*
X425234D01*
X426067Y-412617D01*
Y-409285D01*
X425234Y-408452D01*
X423568D01*
X424401Y-410118D02*
X422735Y-408452D01*
X423568D02*
X422735Y-409285D01*
X417737Y-413451D02*
X419403Y-412617D01*
X421069Y-410951D01*
Y-409285D01*
X420236Y-408452D01*
X418570D01*
X417737Y-409285D01*
Y-410118D01*
X418570Y-410951D01*
X421069D01*
X71078Y-345372D02*
Y-347038D01*
Y-346205D01*
X75244D01*
X76077Y-347038D01*
Y-347871D01*
X75244Y-348704D01*
X71911Y-343705D02*
X71078Y-342872D01*
Y-341206D01*
X71911Y-340373D01*
X72744D01*
X73578Y-341206D01*
X74411Y-340373D01*
X75244D01*
X76077Y-341206D01*
Y-342872D01*
X75244Y-343705D01*
X74411D01*
X73578Y-342872D01*
X72744Y-343705D01*
X71911D01*
X73578Y-342872D02*
Y-341206D01*
X137416Y-148000D02*
X135750Y-146334D01*
Y-144668D01*
X137416Y-143002D01*
X142415D02*
X140748D01*
X139915Y-143835D01*
Y-147167D01*
X140748Y-148000D01*
X142415D01*
X143248Y-147167D01*
Y-143835D01*
X142415Y-143002D01*
X144914Y-148000D02*
Y-143002D01*
X147413D01*
X148246Y-143835D01*
Y-145501D01*
X147413Y-146334D01*
X144914D01*
X149912Y-143002D02*
X153244D01*
X151578D01*
Y-148000D01*
X154910D02*
X156576Y-146334D01*
Y-144668D01*
X154910Y-143002D01*
X159076Y-148000D02*
Y-143002D01*
X162408Y-148000D01*
Y-143002D01*
X164074Y-148000D02*
Y-143002D01*
X166573D01*
X167406Y-143835D01*
Y-145501D01*
X166573Y-146334D01*
X164074D01*
X169072Y-148000D02*
Y-143002D01*
X172405Y-148000D01*
Y-143002D01*
X179069D02*
Y-148000D01*
X181568D01*
X182401Y-147167D01*
Y-146334D01*
X181568Y-145501D01*
X179069D01*
X181568D01*
X182401Y-144668D01*
Y-143835D01*
X181568Y-143002D01*
X179069D01*
X187400Y-143835D02*
X186567Y-143002D01*
X184901D01*
X184068Y-143835D01*
Y-147167D01*
X184901Y-148000D01*
X186567D01*
X187400Y-147167D01*
X189066Y-143835D02*
X189899Y-143002D01*
X191565D01*
X192398Y-143835D01*
Y-144668D01*
X191565Y-145501D01*
X192398Y-146334D01*
Y-147167D01*
X191565Y-148000D01*
X189899D01*
X189066Y-147167D01*
Y-146334D01*
X189899Y-145501D01*
X189066Y-144668D01*
Y-143835D01*
X189899Y-145501D02*
X191565D01*
X194064Y-148000D02*
X195730D01*
X194897D01*
Y-143002D01*
X194064Y-143835D01*
X198230Y-143002D02*
X201562D01*
Y-143835D01*
X198230Y-147167D01*
Y-148000D01*
X159082Y-161667D02*
Y-158335D01*
X158249Y-157502D01*
X156583D01*
X155750Y-158335D01*
Y-161667D01*
X156583Y-162500D01*
X158249D01*
X157416Y-160834D02*
X159082Y-162500D01*
X158249D02*
X159082Y-161667D01*
X164081Y-157502D02*
X160748D01*
Y-160001D01*
X162414Y-159168D01*
X163248D01*
X164081Y-160001D01*
Y-161667D01*
X163248Y-162500D01*
X161581D01*
X160748Y-161667D01*
X125666Y-32750D02*
X124000Y-31084D01*
Y-29418D01*
X125666Y-27752D01*
X130665D02*
X128998D01*
X128165Y-28585D01*
Y-31917D01*
X128998Y-32750D01*
X130665D01*
X131498Y-31917D01*
Y-28585D01*
X130665Y-27752D01*
X133164Y-32750D02*
Y-27752D01*
X135663D01*
X136496Y-28585D01*
Y-30251D01*
X135663Y-31084D01*
X133164D01*
X138162Y-27752D02*
X141494D01*
X139828D01*
Y-32750D01*
X143160D02*
X144826Y-31084D01*
Y-29418D01*
X143160Y-27752D01*
X149825Y-32750D02*
Y-27752D01*
X147326Y-30251D01*
X150658D01*
X152324Y-27752D02*
X155656D01*
Y-28585D01*
X152324Y-31917D01*
Y-32750D01*
X157323Y-28585D02*
X158155Y-27752D01*
X159822D01*
X160655Y-28585D01*
Y-31917D01*
X159822Y-32750D01*
X158155D01*
X157323Y-31917D01*
Y-28585D01*
X162321Y-32750D02*
Y-27752D01*
Y-31084D02*
X164820Y-29418D01*
X162321Y-31084D02*
X164820Y-32750D01*
X106000Y-32000D02*
Y-27002D01*
X108499D01*
X109332Y-27835D01*
Y-29501D01*
X108499Y-30334D01*
X106000D01*
X107666D02*
X109332Y-32000D01*
X110998D02*
X112664D01*
X111832D01*
Y-27002D01*
X110998Y-27835D01*
X149166Y-73500D02*
X147500Y-71834D01*
Y-70168D01*
X149166Y-68502D01*
X154164D02*
X152498D01*
X151665Y-69335D01*
Y-72667D01*
X152498Y-73500D01*
X154164D01*
X154998Y-72667D01*
Y-69335D01*
X154164Y-68502D01*
X156664Y-73500D02*
Y-68502D01*
X159163D01*
X159996Y-69335D01*
Y-71001D01*
X159163Y-71834D01*
X156664D01*
X161662Y-68502D02*
X164994D01*
X163328D01*
Y-73500D01*
X166660D02*
X168326Y-71834D01*
Y-70168D01*
X166660Y-68502D01*
X170826Y-73500D02*
X172492D01*
X171659D01*
Y-68502D01*
X170826Y-69335D01*
X174991D02*
X175824Y-68502D01*
X177490D01*
X178323Y-69335D01*
Y-72667D01*
X177490Y-73500D01*
X175824D01*
X174991Y-72667D01*
Y-69335D01*
X179989D02*
X180823Y-68502D01*
X182489D01*
X183322Y-69335D01*
Y-72667D01*
X182489Y-73500D01*
X180823D01*
X179989Y-72667D01*
Y-69335D01*
X184988Y-73500D02*
Y-68502D01*
Y-71834D02*
X187487Y-70168D01*
X184988Y-71834D02*
X187487Y-73500D01*
X100250Y-71750D02*
Y-66752D01*
X102749D01*
X103582Y-67585D01*
Y-69251D01*
X102749Y-70084D01*
X100250D01*
X101916D02*
X103582Y-71750D01*
X108581D02*
X105248D01*
X108581Y-68418D01*
Y-67585D01*
X107748Y-66752D01*
X106081D01*
X105248Y-67585D01*
X159916Y-208500D02*
X158250Y-206834D01*
Y-205168D01*
X159916Y-203502D01*
X164914D02*
X163248D01*
X162415Y-204335D01*
Y-207667D01*
X163248Y-208500D01*
X164914D01*
X165748Y-207667D01*
Y-204335D01*
X164914Y-203502D01*
X167414Y-208500D02*
Y-203502D01*
X169913D01*
X170746Y-204335D01*
Y-206001D01*
X169913Y-206834D01*
X167414D01*
X172412Y-203502D02*
X175744D01*
X174078D01*
Y-208500D01*
X177410D02*
X179076Y-206834D01*
Y-205168D01*
X177410Y-203502D01*
X184908Y-208500D02*
X181576D01*
X184908Y-205168D01*
Y-204335D01*
X184075Y-203502D01*
X182409D01*
X181576Y-204335D01*
X186574Y-208500D02*
Y-203502D01*
Y-206834D02*
X189073Y-205168D01*
X186574Y-206834D02*
X189073Y-208500D01*
X194905D02*
X191572D01*
X194905Y-205168D01*
Y-204335D01*
X194072Y-203502D01*
X192405D01*
X191572Y-204335D01*
X145500Y-208250D02*
Y-203252D01*
X147999D01*
X148832Y-204085D01*
Y-205751D01*
X147999Y-206584D01*
X145500D01*
X147166D02*
X148832Y-208250D01*
X150498Y-204085D02*
X151331Y-203252D01*
X152998D01*
X153831Y-204085D01*
Y-204918D01*
X152998Y-205751D01*
X152164D01*
X152998D01*
X153831Y-206584D01*
Y-207417D01*
X152998Y-208250D01*
X151331D01*
X150498Y-207417D01*
X-20668Y-35752D02*
X-22334D01*
X-21501D01*
Y-39917D01*
X-22334Y-40750D01*
X-23167D01*
X-24000Y-39917D01*
X-16502Y-40750D02*
Y-35752D01*
X-19002Y-38251D01*
X-15669D01*
X150666Y-91750D02*
X149000Y-90084D01*
Y-88418D01*
X150666Y-86752D01*
X155665D02*
X153998D01*
X153165Y-87585D01*
Y-90917D01*
X153998Y-91750D01*
X155665D01*
X156498Y-90917D01*
Y-87585D01*
X155665Y-86752D01*
X158164Y-91750D02*
Y-86752D01*
X160663D01*
X161496Y-87585D01*
Y-89251D01*
X160663Y-90084D01*
X158164D01*
X163162Y-86752D02*
X166494D01*
X164828D01*
Y-91750D01*
X168160D02*
X169827Y-90084D01*
Y-88418D01*
X168160Y-86752D01*
X172326Y-91750D02*
X173992D01*
X173159D01*
Y-86752D01*
X172326Y-87585D01*
X176491Y-91750D02*
Y-88418D01*
X178990D01*
X179823Y-89251D01*
Y-91750D01*
X184822Y-86752D02*
X181489D01*
Y-89251D01*
X183155D01*
X181489D01*
Y-91750D01*
X103082Y-86585D02*
X102249Y-85752D01*
X100583D01*
X99750Y-86585D01*
Y-89917D01*
X100583Y-90750D01*
X102249D01*
X103082Y-89917D01*
X108081Y-90750D02*
X104748D01*
X108081Y-87418D01*
Y-86585D01*
X107248Y-85752D01*
X105581D01*
X104748Y-86585D01*
X70916Y-32750D02*
X69250Y-31084D01*
Y-29418D01*
X70916Y-27752D01*
X75915D02*
X74248D01*
X73415Y-28585D01*
Y-31917D01*
X74248Y-32750D01*
X75915D01*
X76748Y-31917D01*
Y-28585D01*
X75915Y-27752D01*
X78414Y-32750D02*
Y-27752D01*
X80913D01*
X81746Y-28585D01*
Y-30251D01*
X80913Y-31084D01*
X78414D01*
X83412Y-27752D02*
X86744D01*
X85078D01*
Y-32750D01*
X88410D02*
X90077Y-31084D01*
Y-29418D01*
X88410Y-27752D01*
X95075Y-32750D02*
Y-27752D01*
X92576Y-30251D01*
X95908D01*
X97574Y-27752D02*
X100906D01*
Y-28585D01*
X97574Y-31917D01*
Y-32750D01*
X102572Y-28585D02*
X103406Y-27752D01*
X105072D01*
X105905Y-28585D01*
Y-31917D01*
X105072Y-32750D01*
X103406D01*
X102572Y-31917D01*
Y-28585D01*
X107571Y-32750D02*
Y-27752D01*
Y-31084D02*
X110070Y-29418D01*
X107571Y-31084D02*
X110070Y-32750D01*
X50500Y-33250D02*
Y-28252D01*
X52999D01*
X53832Y-29085D01*
Y-30751D01*
X52999Y-31584D01*
X50500D01*
X52166D02*
X53832Y-33250D01*
X55498D02*
X57165D01*
X56331D01*
Y-28252D01*
X55498Y-29085D01*
X59664D02*
X60497Y-28252D01*
X62163D01*
X62996Y-29085D01*
Y-29918D01*
X62163Y-30751D01*
X61330D01*
X62163D01*
X62996Y-31584D01*
Y-32417D01*
X62163Y-33250D01*
X60497D01*
X59664Y-32417D01*
M02*
