%FSLAX42Y42*%
%MOMM*%
G71*
G01*
G75*
G04 Layer_Physical_Order=2*
%ADD10C,0.45*%
%ADD11O,2.00X1.00*%
%ADD12R,1.50X1.25*%
%ADD13O,0.50X2.00*%
%ADD14R,0.80X0.95*%
%ADD15R,0.90X0.95*%
%ADD16R,0.91X0.91*%
%ADD17R,1.27X0.91*%
%ADD18R,0.91X1.27*%
%ADD19R,0.90X0.90*%
%ADD20R,0.90X1.25*%
%ADD21R,2.00X2.00*%
%ADD22R,0.90X3.20*%
%ADD23R,11.50X9.00*%
%ADD24R,6.35X1.52*%
%ADD25R,1.25X1.50*%
%ADD26R,0.95X0.80*%
%ADD27R,0.95X0.90*%
%ADD28O,2.00X0.60*%
%ADD29R,3.20X1.00*%
%ADD30R,0.50X2.00*%
%ADD31R,8.00X4.00*%
%ADD32C,0.50*%
%ADD33C,0.30*%
%ADD34C,1.20*%
%ADD35C,2.50*%
%ADD36C,1.40*%
%ADD37C,1.50*%
%ADD38C,1.80*%
%ADD39R,22.00X8.00*%
%ADD40R,1.75X1.75*%
%ADD41C,1.75*%
%ADD42R,25.00X8.00*%
%ADD43R,1.30X1.30*%
%ADD44C,1.30*%
D10*
X11870Y2152D02*
G03*
X11870Y2152I-222J0D01*
G01*
X9035Y40D02*
G03*
X8940Y-55I0J-95D01*
G01*
X9035Y40D02*
G03*
X8940Y-55I0J-95D01*
G01*
X7433Y-845D02*
G03*
X7411Y-848I0J-95D01*
G01*
X7433Y-845D02*
G03*
X7411Y-848I0J-95D01*
G01*
X5120Y962D02*
G03*
X5023Y1132I-198J0D01*
G01*
X5015Y788D02*
G03*
X5120Y962I-93J174D01*
G01*
X5117Y615D02*
G03*
X5015Y788I-198J0D01*
G01*
X5012Y440D02*
G03*
X5117Y615I-92J175D01*
G01*
Y265D02*
G03*
X5012Y440I-198J0D01*
G01*
X4971Y74D02*
G03*
X5117Y265I-51J191D01*
G01*
X5040Y-45D02*
G03*
X4971Y74I-138J0D01*
G01*
X4954Y-173D02*
G03*
X5040Y-45I-51J127D01*
G01*
Y-300D02*
G03*
X4954Y-173I-138J0D01*
G01*
Y-428D02*
G03*
X5040Y-300I-51J127D01*
G01*
Y-555D02*
G03*
X4954Y-428I-138J0D01*
G01*
X4960Y-680D02*
G03*
X5040Y-555I-57J125D01*
G01*
Y-805D02*
G03*
X4960Y-680I-138J0D01*
G01*
X4974Y-923D02*
G03*
X5040Y-805I-71J117D01*
G01*
X5072Y2150D02*
G03*
X4843Y2372I-222J0D01*
G01*
X4628Y2157D02*
G03*
X5072Y2150I222J-7D01*
G01*
X5120Y1673D02*
G03*
X5120Y1673I-198J0D01*
G01*
X4822Y1132D02*
G03*
X4827Y789I101J-170D01*
G01*
G03*
X4828Y440I93J-174D01*
G01*
X4817Y1421D02*
G03*
X4585Y1375I-95J-129D01*
G01*
Y1210D02*
G03*
X4817Y1164I137J82D01*
G01*
X4848Y81D02*
G03*
X4851Y-173I55J-126D01*
G01*
Y-173D02*
G03*
X4851Y-428I51J-127D01*
G01*
Y-428D02*
G03*
X4845Y-680I51J-127D01*
G01*
X4828Y440D02*
G03*
X4848Y81I92J-175D01*
G01*
X4845Y-680D02*
G03*
X4831Y-923I57J-125D01*
G01*
X5112Y-1382D02*
G03*
X5112Y-1382I-162J0D01*
G01*
X7925Y-1177D02*
G03*
X7962Y-1085I-95J92D01*
G01*
G03*
X7735Y-1177I-133J0D01*
G01*
X7962Y-1642D02*
G03*
X7925Y-1550I-133J0D01*
G01*
X7735D02*
G03*
X7962Y-1642I95J-92D01*
G01*
X6828Y-1385D02*
G03*
X6828Y-1385I-162J0D01*
G01*
X9240Y-1837D02*
G03*
X9240Y-2213I-60J-188D01*
G01*
X6828Y-1830D02*
G03*
X6828Y-1830I-162J0D01*
G01*
X6192Y-1385D02*
G03*
X5909Y-1276I-162J0D01*
G01*
X5709Y-1277D02*
G03*
X5707Y-1490I-124J-105D01*
G01*
X5909Y-1494D02*
G03*
X6192Y-1385I121J109D01*
G01*
X5883Y-1513D02*
G03*
X5909Y-1494I-73J128D01*
G01*
X5953Y-1635D02*
G03*
X5883Y-1513I-142J0D01*
G01*
X5909Y-1276D02*
G03*
X5709Y-1277I-99J-109D01*
G01*
X5707Y-1490D02*
G03*
X5737Y-1513I103J105D01*
G01*
X5112Y-1382D02*
G03*
X5112Y-1382I-162J0D01*
G01*
X5939Y-1695D02*
G03*
X5953Y-1635I-129J60D01*
G01*
X6192Y-1830D02*
G03*
X5939Y-1695I-162J0D01*
G01*
X5934Y-1961D02*
G03*
X6192Y-1830I96J131D01*
G01*
X5737Y-1513D02*
G03*
X5682Y-1697I73J-122D01*
G01*
X5684Y-1956D02*
G03*
X5934Y-1961I126J66D01*
G01*
X5682Y-1697D02*
G03*
X5684Y-1956I-97J-131D01*
G01*
X5112Y-1827D02*
G03*
X4823Y-1929I-162J0D01*
G01*
X4997Y-1983D02*
G03*
X5112Y-1827I-47J156D01*
G01*
X5072Y-2150D02*
G03*
X4997Y-1983I-222J0D01*
G01*
X4843Y-2372D02*
G03*
X5072Y-2150I7J222D01*
G01*
X4823Y-1929D02*
G03*
X4628Y-2157I27J-221D01*
G01*
X7925Y-1177D02*
G03*
X7962Y-1085I-95J92D01*
G01*
G03*
X7735Y-1177I-133J0D01*
G01*
X9378Y-2025D02*
G03*
X9035Y-1891I-198J0D01*
G01*
Y-2159D02*
G03*
X9378Y-2025I145J134D01*
G01*
X11800Y2315D02*
Y2415D01*
X11794Y2320D02*
X11915D01*
X11830Y2280D02*
X11915D01*
X11760Y2344D02*
Y2415D01*
X11720Y2363D02*
Y2415D01*
X11915Y40D02*
Y2415D01*
X11852Y2240D02*
X11915D01*
X11880Y40D02*
Y2415D01*
X11840Y2264D02*
Y2415D01*
X11680Y2373D02*
Y2415D01*
X11640Y2375D02*
Y2415D01*
X11728Y2360D02*
X11915D01*
X11600Y2370D02*
Y2415D01*
X11560Y2357D02*
Y2415D01*
X11520Y2335D02*
Y2415D01*
X11480Y2299D02*
Y2415D01*
X11440Y2233D02*
Y2415D01*
X11870Y2160D02*
X11915D01*
X11865Y2200D02*
X11915D01*
X11868Y2120D02*
X11915D01*
X11858Y2080D02*
X11915D01*
X11839Y2040D02*
X11915D01*
X11810Y2000D02*
X11915D01*
X11759Y1960D02*
X11915D01*
X11840Y40D02*
Y2041D01*
X11800Y40D02*
Y1990D01*
X11760Y40D02*
Y1961D01*
X11720Y40D02*
Y1942D01*
X11680Y40D02*
Y1932D01*
X11640Y40D02*
Y1930D01*
X11600Y40D02*
Y1935D01*
X11520Y40D02*
Y1970D01*
X11560Y40D02*
Y1948D01*
X11440Y40D02*
Y2072D01*
X11480Y40D02*
Y2006D01*
X11400Y40D02*
Y2415D01*
X11360Y40D02*
Y2415D01*
X11320Y40D02*
Y2415D01*
X11280Y40D02*
Y2415D01*
X11240Y40D02*
Y2415D01*
X11200Y40D02*
Y2415D01*
X11160Y40D02*
Y2415D01*
X11120Y40D02*
Y2415D01*
X11080Y40D02*
Y2415D01*
X11040Y40D02*
Y2415D01*
X11000Y40D02*
Y2415D01*
X10960Y40D02*
Y2415D01*
X10920Y40D02*
Y2415D01*
X10880Y40D02*
Y2415D01*
X10840Y40D02*
Y2415D01*
X10800Y40D02*
Y2415D01*
X10760Y40D02*
Y2415D01*
X10720Y40D02*
Y2415D01*
X10680Y40D02*
Y2415D01*
X10640Y40D02*
Y2415D01*
X10600Y40D02*
Y2415D01*
X10560Y40D02*
Y2415D01*
X10520Y40D02*
Y2415D01*
X10480Y40D02*
Y2415D01*
X10440Y40D02*
Y2415D01*
X10400Y40D02*
Y2415D01*
X10360Y40D02*
Y2415D01*
X10320Y40D02*
Y2415D01*
X10280Y40D02*
Y2415D01*
X10240Y40D02*
Y2415D01*
X10200Y40D02*
Y2415D01*
X10160Y40D02*
Y2415D01*
X10120Y40D02*
Y2415D01*
X10080Y40D02*
Y2415D01*
X10040Y40D02*
Y2415D01*
X10000Y40D02*
Y2415D01*
X9960Y40D02*
Y2415D01*
X9920Y40D02*
Y2415D01*
X9880Y40D02*
Y2415D01*
X9840Y40D02*
Y2415D01*
X9800Y40D02*
Y2415D01*
X9760Y40D02*
Y2415D01*
X9720Y40D02*
Y2415D01*
X9680Y40D02*
Y2415D01*
X9640Y40D02*
Y2415D01*
X9600Y40D02*
Y2415D01*
X9560Y40D02*
Y2415D01*
X9520Y40D02*
Y2415D01*
X9480Y40D02*
Y2415D01*
X9440Y40D02*
Y2415D01*
X9400Y40D02*
Y2415D01*
X9360Y40D02*
Y2415D01*
X9320Y40D02*
Y2415D01*
X9280Y40D02*
Y2415D01*
X9240Y40D02*
Y2415D01*
X9200Y40D02*
Y2415D01*
X9160Y40D02*
Y2415D01*
X9120Y40D02*
Y2415D01*
X9080Y40D02*
Y2415D01*
X9035Y40D02*
X11915D01*
X9040D02*
Y2415D01*
X9000Y33D02*
Y2415D01*
X8960Y3D02*
Y2415D01*
X8940Y-845D02*
Y-55D01*
X8920Y-845D02*
Y2415D01*
X7433Y-845D02*
X8940D01*
X8880D02*
Y2415D01*
X8840Y-845D02*
Y2415D01*
X8800Y-845D02*
Y2415D01*
X8760Y-845D02*
Y2415D01*
X8720Y-845D02*
Y2415D01*
X8680Y-845D02*
Y2415D01*
X8640Y-845D02*
Y2415D01*
X8600Y-845D02*
Y2415D01*
X8560Y-845D02*
Y2415D01*
X8520Y-845D02*
Y2415D01*
X8480Y-845D02*
Y2415D01*
X8440Y-845D02*
Y2415D01*
X8400Y-845D02*
Y2415D01*
X8360Y-845D02*
Y2415D01*
X8320Y-845D02*
Y2415D01*
X8280Y-845D02*
Y2415D01*
X8240Y-845D02*
Y2415D01*
X8200Y-845D02*
Y2415D01*
X8160Y-845D02*
Y2415D01*
X8120Y-845D02*
Y2415D01*
X8080Y-845D02*
Y2415D01*
X8040Y-845D02*
Y2415D01*
X8000Y-845D02*
Y2415D01*
X7960Y-845D02*
Y2415D01*
X7920Y-845D02*
Y2415D01*
X7880Y-845D02*
Y2415D01*
X7840Y-845D02*
Y2415D01*
X7800Y-845D02*
Y2415D01*
X7760Y-845D02*
Y2415D01*
X7720Y-845D02*
Y2415D01*
X7680Y-845D02*
Y2415D01*
X7640Y-845D02*
Y2415D01*
X7600Y-845D02*
Y2415D01*
X7560Y-845D02*
Y2415D01*
X7520Y-845D02*
Y2415D01*
X7480Y-845D02*
Y2415D01*
X7440Y-845D02*
Y2415D01*
X5248D02*
X11915D01*
X5248Y2400D02*
X11915D01*
X5248Y1920D02*
X11915D01*
X5248Y1880D02*
X11915D01*
X5248Y1840D02*
X11915D01*
X5248Y1800D02*
X11915D01*
X5248Y1760D02*
X11915D01*
X5248Y1720D02*
X11915D01*
X5248Y1680D02*
X11915D01*
X5248Y1640D02*
X11915D01*
X5248Y1600D02*
X11915D01*
X5248Y1560D02*
X11915D01*
X5248Y1520D02*
X11915D01*
X5248Y1480D02*
X11915D01*
X5248Y1440D02*
X11915D01*
X5248Y1400D02*
X11915D01*
X5248Y1360D02*
X11915D01*
X5248Y1320D02*
X11915D01*
X5248Y1280D02*
X11915D01*
X5248Y1240D02*
X11915D01*
X5248Y1200D02*
X11915D01*
X5248Y1160D02*
X11915D01*
X5248Y1120D02*
X11915D01*
X5248Y1080D02*
X11915D01*
X5248Y1040D02*
X11915D01*
X5248Y1000D02*
X11915D01*
X5248Y960D02*
X11915D01*
X5248Y920D02*
X11915D01*
X5248Y880D02*
X11915D01*
X5248Y840D02*
X11915D01*
X5248Y800D02*
X11915D01*
X5248Y760D02*
X11915D01*
X5248Y720D02*
X11915D01*
X5248Y680D02*
X11915D01*
X5248Y640D02*
X11915D01*
X5248Y600D02*
X11915D01*
X5248Y2360D02*
X11567D01*
X5248Y2320D02*
X11501D01*
X5248Y2280D02*
X11465D01*
X5248Y2240D02*
X11443D01*
X5248Y2200D02*
X11430D01*
X5248Y2080D02*
X11437D01*
X5248Y2040D02*
X11456D01*
X5248Y2160D02*
X11425D01*
X5248Y2120D02*
X11427D01*
X5248Y560D02*
X11915D01*
X5248Y520D02*
X11915D01*
X5248Y480D02*
X11915D01*
X5248Y2000D02*
X11486D01*
X5248Y1960D02*
X11536D01*
X5248Y440D02*
X11915D01*
X5248Y400D02*
X11915D01*
X5248Y360D02*
X11915D01*
X5248Y320D02*
X11915D01*
X5248Y280D02*
X11915D01*
X5248Y240D02*
X11915D01*
X5248Y200D02*
X11915D01*
X5248Y160D02*
X11915D01*
X5248Y120D02*
X11915D01*
X5248Y80D02*
X11915D01*
X5248Y40D02*
X9033D01*
X5248Y-0D02*
X8958D01*
X5248Y-40D02*
X8941D01*
X5248Y-80D02*
X8940D01*
X5248Y-120D02*
X8940D01*
X5248Y-160D02*
X8940D01*
X5248Y-200D02*
X8940D01*
X5248Y-240D02*
X8940D01*
X5248Y-280D02*
X8940D01*
X5248Y-320D02*
X8940D01*
X5248Y-360D02*
X8940D01*
X7400Y-848D02*
Y2415D01*
X7360Y-848D02*
Y2415D01*
X7320Y-848D02*
Y2415D01*
X7280Y-848D02*
Y2415D01*
X7240Y-848D02*
Y2415D01*
X7200Y-848D02*
Y2415D01*
X7160Y-848D02*
Y2415D01*
X7120Y-848D02*
Y2415D01*
X7080Y-848D02*
Y2415D01*
X7040Y-848D02*
Y2415D01*
X7000Y-848D02*
Y2415D01*
X6960Y-848D02*
Y2415D01*
X6920Y-848D02*
Y2415D01*
X6880Y-848D02*
Y2415D01*
X6840Y-848D02*
Y2415D01*
X6800Y-848D02*
Y2415D01*
X6760Y-848D02*
Y2415D01*
X6720Y-848D02*
Y2415D01*
X5248Y-400D02*
X8940D01*
X5248Y-440D02*
X8940D01*
X5248Y-480D02*
X8940D01*
X5248Y-520D02*
X8940D01*
X5248Y-560D02*
X8940D01*
X6680Y-848D02*
Y2415D01*
X6640Y-848D02*
Y2415D01*
X5248Y-600D02*
X8940D01*
X5248Y-640D02*
X8940D01*
X5248Y-680D02*
X8940D01*
X5248Y-720D02*
X8940D01*
X5248Y-760D02*
X8940D01*
X5248Y-800D02*
X8940D01*
X5248Y-840D02*
X8940D01*
X5248Y-848D02*
X7411D01*
X6600D02*
Y2415D01*
X6560Y-848D02*
Y2415D01*
X6520Y-848D02*
Y2415D01*
X6480Y-848D02*
Y2415D01*
X6440Y-848D02*
Y2415D01*
X6400Y-848D02*
Y2415D01*
X6360Y-848D02*
Y2415D01*
X6320Y-848D02*
Y2415D01*
X6280Y-848D02*
Y2415D01*
X6240Y-848D02*
Y2415D01*
X6200Y-848D02*
Y2415D01*
X6160Y-848D02*
Y2415D01*
X6120Y-848D02*
Y2415D01*
X6080Y-848D02*
Y2415D01*
X6040Y-848D02*
Y2415D01*
X6000Y-848D02*
Y2415D01*
X5960Y-848D02*
Y2415D01*
X5920Y-848D02*
Y2415D01*
X5880Y-848D02*
Y2415D01*
X5840Y-848D02*
Y2415D01*
X5800Y-848D02*
Y2415D01*
X5760Y-848D02*
Y2415D01*
X5720Y-848D02*
Y2415D01*
X5680Y-848D02*
Y2415D01*
X5640Y-848D02*
Y2415D01*
X5600Y-848D02*
Y2415D01*
X5560Y-848D02*
Y2415D01*
X5520Y-848D02*
Y2415D01*
X5480Y-848D02*
Y2415D01*
X5440Y-848D02*
Y2415D01*
X5400Y-848D02*
Y2415D01*
X5360Y-848D02*
Y2415D01*
X5320Y-848D02*
Y2415D01*
X5280Y-848D02*
Y2415D01*
X5248Y-848D02*
Y2415D01*
X7953Y-5D02*
X8875D01*
X6715Y1000D02*
X9170Y1002D01*
X6553Y-150D02*
X8903D01*
X6553D02*
Y795D01*
X5072Y2160D02*
X5153D01*
X5067Y2200D02*
X5153D01*
X5070Y2120D02*
X5153D01*
X5073Y1800D02*
X5153D01*
X5100Y1760D02*
X5153D01*
X5120Y1680D02*
X5153D01*
X5114Y1720D02*
X5153D01*
X5117Y1640D02*
X5153D01*
X5106Y1600D02*
X5153D01*
X5085Y1560D02*
X5153D01*
X5031Y2280D02*
X5153D01*
X4994Y2320D02*
X5153D01*
X5053Y2240D02*
X5153D01*
X5061Y2080D02*
X5153D01*
X5043Y2040D02*
X5153D01*
X5014Y2000D02*
X5153D01*
X4966Y1960D02*
X5153D01*
X5027Y1840D02*
X5153D01*
X5048Y1520D02*
X5153D01*
X4967Y1480D02*
X5153D01*
X5138Y1440D02*
X5153D01*
X5138Y1400D02*
X5153D01*
X5138Y1360D02*
X5153D01*
X5138Y1320D02*
X5153D01*
X5138Y1280D02*
X5153D01*
X5138Y1240D02*
X5153D01*
X5138Y1200D02*
X5153D01*
X5138Y1160D02*
X5153D01*
X5116Y1000D02*
X5153D01*
X5120Y960D02*
X5153D01*
X5081Y1080D02*
X5153D01*
X5042Y1120D02*
X5153D01*
X5104Y1040D02*
X5153D01*
X5115Y920D02*
X5153D01*
X5102Y880D02*
X5153D01*
X5077Y840D02*
X5153D01*
X5035Y800D02*
X5153D01*
X5054Y760D02*
X5153D01*
X5087Y720D02*
X5153D01*
X5120Y1675D02*
Y2415D01*
X5080Y1792D02*
Y2415D01*
X5120Y1452D02*
Y1670D01*
X5040Y2266D02*
Y2415D01*
Y1831D02*
Y2034D01*
X5138Y1132D02*
Y1452D01*
X5080D02*
Y1553D01*
X5120Y965D02*
Y1132D01*
X5040Y1452D02*
Y1514D01*
X5080Y1082D02*
Y1132D01*
X5000Y2314D02*
Y2415D01*
X4960Y2343D02*
Y2415D01*
X5000Y1854D02*
Y1986D01*
X4960Y1866D02*
Y1957D01*
X4920Y1870D02*
Y1939D01*
X5023Y1132D02*
X5138D01*
X5000Y1452D02*
Y1491D01*
X4960Y1452D02*
Y1479D01*
X4920Y1452D02*
Y1475D01*
X5116Y640D02*
X5153D01*
X5107Y680D02*
X5153D01*
X5117Y600D02*
X5153D01*
X5080Y731D02*
Y843D01*
X5110Y560D02*
X5153D01*
X5093Y520D02*
X5153D01*
X5093Y360D02*
X5153D01*
X5110Y320D02*
X5153D01*
X5080Y381D02*
Y499D01*
X5117Y280D02*
X5153D01*
X5064Y480D02*
X5153D01*
X5040Y1121D02*
Y1132D01*
Y772D02*
Y804D01*
X5012Y440D02*
X5153D01*
X5064Y400D02*
X5153D01*
X5040Y422D02*
Y458D01*
X5116Y240D02*
X5153D01*
X5106Y200D02*
X5153D01*
X5087Y160D02*
X5153D01*
X5054Y120D02*
X5153D01*
X5032Y-0D02*
X5153D01*
X5040Y-40D02*
X5153D01*
X5035Y-80D02*
X5153D01*
X5039Y-280D02*
X5153D01*
X5039Y-320D02*
X5153D01*
X5035Y-520D02*
X5153D01*
X5011Y40D02*
X5153D01*
X4989Y80D02*
X5153D01*
X5018Y-120D02*
X5153D01*
X4978Y-160D02*
X5153D01*
X4997Y-200D02*
X5153D01*
X5026Y-240D02*
X5153D01*
X5026Y-360D02*
X5153D01*
X4997Y-400D02*
X5153D01*
X4978Y-440D02*
X5153D01*
X5018Y-480D02*
X5153D01*
X5040Y-560D02*
X5153D01*
X5040Y-800D02*
X5153D01*
X5040Y-960D02*
X5153D01*
X5040Y-1000D02*
X5153D01*
X5040Y-1040D02*
X5153D01*
X5040Y-1080D02*
X5153D01*
X5040Y-1120D02*
X5153D01*
X5040Y-1160D02*
X5153D01*
X5076Y-1280D02*
X5153D01*
X5100Y-1320D02*
X5153D01*
X5032Y-600D02*
X5153D01*
X5011Y-640D02*
X5153D01*
X4960Y-680D02*
X5153D01*
X5011Y-720D02*
X5153D01*
X5032Y-760D02*
X5153D01*
X5035Y-840D02*
X5153D01*
X5018Y-880D02*
X5153D01*
X4978Y-920D02*
X5153D01*
X5028Y-1240D02*
X5153D01*
X5040Y-43D02*
Y108D01*
Y-298D02*
Y-47D01*
X5000Y52D02*
Y84D01*
Y-203D02*
Y-142D01*
X5153Y-1648D02*
Y2415D01*
X5120Y-1648D02*
Y960D01*
X5080Y-1285D02*
Y149D01*
X5040Y-553D02*
Y-302D01*
Y-803D02*
Y-557D01*
X5000Y-458D02*
Y-397D01*
Y-708D02*
Y-652D01*
X5111Y-1360D02*
X5153D01*
X5040Y-923D02*
Y-807D01*
X5112Y-1400D02*
X5153D01*
X5040Y-1198D02*
Y-923D01*
X5040Y-1247D02*
Y-1198D01*
X5102Y-1440D02*
X5153D01*
X5080Y-1480D02*
X5153D01*
X5037Y-1520D02*
X5153D01*
X5080Y-1648D02*
Y-1480D01*
X5040Y-1648D02*
Y-1518D01*
X5000Y-923D02*
Y-902D01*
X4974Y-923D02*
X5040D01*
X5000Y-1228D02*
Y-1198D01*
X4960Y-1220D02*
Y-1198D01*
X5000Y-1648D02*
Y-1537D01*
X4960Y-1648D02*
Y-1545D01*
X4920Y-1223D02*
Y-1198D01*
Y-1648D02*
Y-1542D01*
Y2361D02*
Y2415D01*
X4885D02*
X5153D01*
X4870Y2400D02*
X5153D01*
X4843Y2372D02*
X4885Y2415D01*
X4880Y2370D02*
Y2409D01*
X4924Y2360D02*
X5153D01*
X4880Y1865D02*
Y1930D01*
X4840Y1852D02*
Y1928D01*
Y1452D02*
Y1493D01*
X4585Y1920D02*
X5153D01*
X4585Y1880D02*
X5153D01*
X4800Y1827D02*
Y1933D01*
X4585Y1840D02*
X4818D01*
X4800Y1432D02*
Y1518D01*
X4585Y1480D02*
X4878D01*
X4585Y1800D02*
X4772D01*
X4585Y1520D02*
X4797D01*
X4880Y1452D02*
Y1480D01*
X4817Y1452D02*
X5138D01*
X4785Y1440D02*
X4817D01*
Y1421D02*
Y1452D01*
Y1132D02*
Y1164D01*
X4800Y1117D02*
Y1153D01*
Y772D02*
Y808D01*
Y422D02*
Y458D01*
X4585Y800D02*
X4810D01*
X4585Y1120D02*
X4803D01*
X4585Y840D02*
X4768D01*
X4585Y760D02*
X4786D01*
X4585Y440D02*
X4828D01*
X4585Y480D02*
X4776D01*
X4585Y400D02*
X4776D01*
X4720Y1452D02*
Y1969D01*
X4585Y2080D02*
X4639D01*
X4760Y1785D02*
Y1947D01*
X4585Y2115D02*
X4628Y2157D01*
X4590Y2120D02*
X4630D01*
X4680Y1447D02*
Y2006D01*
X4640Y1430D02*
Y2077D01*
X4760Y1448D02*
Y1560D01*
X4600Y1395D02*
Y2129D01*
X4585Y1375D02*
Y2115D01*
Y1960D02*
X4734D01*
X4585Y1760D02*
X4745D01*
X4585Y1720D02*
X4731D01*
X4585Y2040D02*
X4657D01*
X4585Y2000D02*
X4686D01*
X4585Y1680D02*
X4725D01*
X4585Y1600D02*
X4739D01*
X4585Y1560D02*
X4760D01*
X4585Y1640D02*
X4728D01*
X4585Y1440D02*
X4660D01*
X4760Y1075D02*
Y1137D01*
X4585Y1080D02*
X4764D01*
X4585Y1040D02*
X4741D01*
X4585Y1400D02*
X4604D01*
X4585Y1160D02*
X4633D01*
X4760Y731D02*
Y850D01*
X4585Y1000D02*
X4729D01*
X4760Y381D02*
Y499D01*
X4585Y960D02*
X4725D01*
X4585Y920D02*
X4730D01*
X4585Y880D02*
X4743D01*
X4585Y720D02*
X4753D01*
X4585Y680D02*
X4733D01*
X4585Y640D02*
X4724D01*
X4585Y600D02*
X4723D01*
X4585Y520D02*
X4747D01*
X4585Y360D02*
X4747D01*
X4585Y560D02*
X4730D01*
X4585Y320D02*
X4730D01*
X4840Y-178D02*
Y-167D01*
X4800Y47D02*
Y108D01*
Y-208D02*
Y-137D01*
X4840Y-433D02*
Y-422D01*
X4800Y-463D02*
Y-392D01*
Y-713D02*
Y-647D01*
Y-923D02*
Y-897D01*
X4585Y80D02*
X4845D01*
X4585Y-160D02*
X4827D01*
X4585Y40D02*
X4794D01*
X4585Y-200D02*
X4808D01*
X4585Y-440D02*
X4827D01*
X4585Y-680D02*
X4845D01*
X4585Y-400D02*
X4808D01*
X4765Y-923D02*
X4831D01*
X4765Y-1198D02*
X5040D01*
X4585Y-1200D02*
X5153D01*
X4880Y-1236D02*
Y-1198D01*
X4585Y-920D02*
X4827D01*
X4840Y-1263D02*
Y-1198D01*
Y-1648D02*
Y-1502D01*
X4880Y-1648D02*
Y-1529D01*
X4800Y-1320D02*
Y-1198D01*
Y-1648D02*
Y-1445D01*
X4585Y-1240D02*
X4872D01*
X4585Y-1280D02*
X4824D01*
X4585Y-1520D02*
X4863D01*
X4585Y-1320D02*
X4800D01*
X4585Y-1480D02*
X4820D01*
X4585Y-1560D02*
X5153D01*
X4585Y-1600D02*
X5153D01*
X4585Y-1640D02*
X5153D01*
X4585Y-1648D02*
X5153D01*
X4585Y200D02*
X4734D01*
X4585Y160D02*
X4753D01*
X4760Y-1648D02*
Y149D01*
X4585Y280D02*
X4723D01*
X4585Y240D02*
X4724D01*
X4680Y-1648D02*
Y1138D01*
X4640Y-1648D02*
Y1155D01*
X4720Y-1648D02*
Y1133D01*
X4585Y-1648D02*
Y1210D01*
X4600Y-1648D02*
Y1190D01*
X4585Y120D02*
X4786D01*
X4585Y-0D02*
X4773D01*
X4585Y-120D02*
X4787D01*
X4585Y-40D02*
X4765D01*
X4585Y-80D02*
X4770D01*
X4585Y-240D02*
X4779D01*
X4585Y-360D02*
X4779D01*
X4585Y-480D02*
X4787D01*
X4585Y-280D02*
X4766D01*
X4585Y-320D02*
X4766D01*
X4585Y-520D02*
X4770D01*
X4585Y-640D02*
X4794D01*
X4585Y-720D02*
X4794D01*
X4585Y-560D02*
X4765D01*
X4585Y-600D02*
X4773D01*
X4585Y-760D02*
X4773D01*
X4585Y-840D02*
X4770D01*
X4585Y-880D02*
X4787D01*
X4585Y-800D02*
X4765D01*
X4765Y-1198D02*
Y-923D01*
X4585Y-960D02*
X4765D01*
X4585Y-1000D02*
X4765D01*
X4585Y-1040D02*
X4765D01*
X4585Y-1080D02*
X4765D01*
X4585Y-1120D02*
X4765D01*
X4585Y-1360D02*
X4789D01*
X4585Y-1440D02*
X4798D01*
X4585Y-1160D02*
X4765D01*
X4585Y-1400D02*
X4788D01*
X4672Y-1080D02*
Y973D01*
X7962Y-1080D02*
X9240D01*
X7955Y-1040D02*
X9240D01*
X7958Y-1120D02*
X9240D01*
X7960Y-1059D02*
Y-943D01*
Y-1617D02*
Y-1111D01*
X7939Y-1160D02*
X9240D01*
Y-1837D02*
Y-943D01*
X9200Y-1829D02*
Y-943D01*
X9160Y-1829D02*
Y-943D01*
X9120Y-1837D02*
Y-943D01*
X9080Y-1855D02*
Y-943D01*
X9040Y-1886D02*
Y-943D01*
X7920Y-988D02*
Y-943D01*
X7880Y-962D02*
Y-943D01*
X7874Y-960D02*
X9240D01*
X7840Y-953D02*
Y-943D01*
X7800Y-956D02*
Y-943D01*
X7760Y-973D02*
Y-943D01*
X7932Y-1000D02*
X9240D01*
X7925Y-1200D02*
X9240D01*
X7925Y-1550D02*
Y-1177D01*
Y-1240D02*
X9240D01*
X7925Y-1280D02*
X9240D01*
X7925Y-1320D02*
X9240D01*
X7925Y-1360D02*
X9240D01*
X7925Y-1400D02*
X9240D01*
X7925Y-1440D02*
X9240D01*
X7934Y-1560D02*
X9240D01*
X7925Y-1480D02*
X9240D01*
X7956Y-1600D02*
X9240D01*
X7962Y-1640D02*
X9240D01*
X7957Y-1680D02*
X9240D01*
X7937Y-1720D02*
X9240D01*
X7925Y-1520D02*
X9240D01*
X6738Y-1240D02*
X7735D01*
X6814Y-1320D02*
X7735D01*
X6789Y-1280D02*
X7735D01*
X6826Y-1360D02*
X7735D01*
X7891Y-1760D02*
X9240D01*
X6825Y-1800D02*
X9240D01*
X6827Y-1840D02*
X9111D01*
X6812Y-1760D02*
X7769D01*
X7720Y-1011D02*
Y-943D01*
X6760Y-1253D02*
Y-943D01*
X6720Y-1232D02*
Y-943D01*
X6680Y-1223D02*
Y-943D01*
X6640Y-1224D02*
Y-943D01*
X6600Y-1236D02*
Y-943D01*
X7735Y-1550D02*
Y-1177D01*
X6827Y-1400D02*
X7735D01*
X6818Y-1440D02*
X7735D01*
X6800Y-1295D02*
Y-943D01*
X6560Y-1261D02*
Y-943D01*
X7720Y-1569D02*
Y-1159D01*
X6520Y-1312D02*
Y-943D01*
X6103Y-1240D02*
X6592D01*
X6154Y-1280D02*
X6541D01*
X6160Y-1287D02*
Y-943D01*
X6120Y-1250D02*
Y-943D01*
X6080Y-1230D02*
Y-943D01*
X6179Y-1320D02*
X6516D01*
X6183Y-1440D02*
X6512D01*
X6191Y-1360D02*
X6504D01*
X6192Y-1400D02*
X6503D01*
X6797Y-1480D02*
X7735D01*
X6755Y-1520D02*
X7735D01*
X6728Y-1680D02*
X7703D01*
X6720Y-1677D02*
Y-1538D01*
X6680Y-1668D02*
Y-1547D01*
X6640Y-1669D02*
Y-1546D01*
X6800Y-1740D02*
Y-1475D01*
X6760Y-1698D02*
Y-1517D01*
X6785Y-1720D02*
X7723D01*
X6560Y-1706D02*
Y-1509D01*
X6600Y-1681D02*
Y-1534D01*
X6120Y-1520D02*
X6575D01*
X6093Y-1680D02*
X6602D01*
X6150Y-1720D02*
X6545D01*
X6162Y-1480D02*
X6533D01*
X6120Y-1695D02*
Y-1520D01*
X6080Y-1675D02*
Y-1540D01*
X6520Y-1757D02*
Y-1458D01*
X6177Y-1760D02*
X6518D01*
X6190Y-1800D02*
X6505D01*
X6160Y-1732D02*
Y-1483D01*
X6192Y-1840D02*
X6503D01*
X9000Y-1944D02*
Y-943D01*
X8960Y-2415D02*
Y-943D01*
X8920Y-2415D02*
Y-943D01*
X8880Y-2415D02*
Y-943D01*
X8840Y-2415D02*
Y-943D01*
X8800Y-2415D02*
Y-943D01*
X8760Y-2415D02*
Y-943D01*
X8720Y-2415D02*
Y-943D01*
X8680Y-2415D02*
Y-943D01*
X8640Y-2415D02*
Y-943D01*
X8600Y-2415D02*
Y-943D01*
X8560Y-2415D02*
Y-943D01*
X8520Y-2415D02*
Y-943D01*
X8480Y-2415D02*
Y-943D01*
X8440Y-2415D02*
Y-943D01*
X8400Y-2415D02*
Y-943D01*
X8360Y-2415D02*
Y-943D01*
X8320Y-2415D02*
Y-943D01*
X8280Y-2415D02*
Y-943D01*
X8240Y-2415D02*
Y-943D01*
X8200Y-2415D02*
Y-943D01*
X8160Y-2415D02*
Y-943D01*
X8120Y-2415D02*
Y-943D01*
X9240Y-2415D02*
Y-2213D01*
X9200Y-2415D02*
Y-2221D01*
X9120Y-2415D02*
Y-2213D01*
X9080Y-2415D02*
Y-2195D01*
X9160Y-2415D02*
Y-2221D01*
X9000Y-2415D02*
Y-2106D01*
X8080Y-2415D02*
Y-943D01*
X9040Y-2415D02*
Y-2164D01*
X8040Y-2415D02*
Y-943D01*
X8000Y-2415D02*
Y-943D01*
X6820Y-1880D02*
X9046D01*
X6800Y-1920D02*
X9013D01*
X6762Y-1960D02*
X8993D01*
X7960Y-2415D02*
Y-1668D01*
X7920Y-2415D02*
Y-1740D01*
X7880Y-2415D02*
Y-1765D01*
X7840Y-2415D02*
Y-1775D01*
X7760Y-2415D02*
Y-1755D01*
X7800Y-2415D02*
Y-1772D01*
X7680Y-2415D02*
Y-943D01*
X7720Y-2415D02*
Y-1716D01*
X7640Y-2415D02*
Y-943D01*
X7600Y-2415D02*
Y-943D01*
X7560Y-2415D02*
Y-943D01*
X7520Y-2415D02*
Y-943D01*
X7480Y-2415D02*
Y-943D01*
X7440Y-2415D02*
Y-943D01*
X7400Y-2415D02*
Y-943D01*
X7360Y-2415D02*
Y-943D01*
X7320Y-2415D02*
Y-943D01*
X7280Y-2415D02*
Y-943D01*
X7240Y-2415D02*
Y-943D01*
X7200Y-2415D02*
Y-943D01*
X7160Y-2415D02*
Y-943D01*
X7120Y-2415D02*
Y-943D01*
X7080Y-2415D02*
Y-943D01*
X7040Y-2415D02*
Y-943D01*
X7000Y-2415D02*
Y-943D01*
X6960Y-2415D02*
Y-943D01*
X6920Y-2415D02*
Y-943D01*
X6880Y-2415D02*
Y-943D01*
X6840Y-2415D02*
Y-943D01*
X6480Y-2415D02*
Y-943D01*
X6440Y-2415D02*
Y-943D01*
X6800Y-2415D02*
Y-1920D01*
X6760Y-2415D02*
Y-1962D01*
X6720Y-2415D02*
Y-1983D01*
X6640Y-2415D02*
Y-1991D01*
X6680Y-2415D02*
Y-1992D01*
X6560Y-2415D02*
Y-1954D01*
X6520Y-2415D02*
Y-1903D01*
X6600Y-2415D02*
Y-1979D01*
X6400Y-2415D02*
Y-943D01*
X6360Y-2415D02*
Y-943D01*
X6185Y-1880D02*
X6510D01*
X6165Y-1920D02*
X6530D01*
X6127Y-1960D02*
X6568D01*
X6320Y-2415D02*
Y-943D01*
X6280Y-2415D02*
Y-943D01*
X6240Y-2415D02*
Y-943D01*
X6200Y-2415D02*
Y-943D01*
X6160Y-2415D02*
Y-1928D01*
X6120Y-2415D02*
Y-1965D01*
X6080Y-2415D02*
Y-1985D01*
X6040Y-2415D02*
Y-1992D01*
Y-1223D02*
Y-943D01*
X6000Y-1225D02*
Y-943D01*
X5960Y-1238D02*
Y-943D01*
X5840Y-1241D02*
Y-943D01*
X5800Y-1238D02*
Y-943D01*
X5837Y-1240D02*
X5957D01*
X5920Y-1265D02*
Y-943D01*
X5880Y-1255D02*
Y-943D01*
X5760Y-1246D02*
Y-943D01*
X5720Y-1268D02*
Y-943D01*
X5680Y-1251D02*
Y-943D01*
X5040D02*
X9240D01*
X5040Y-960D02*
X7786D01*
X5040Y-1000D02*
X7728D01*
X5040Y-1040D02*
X7705D01*
X5040Y-1080D02*
X7698D01*
X5040Y-1120D02*
X7702D01*
X5040Y-1160D02*
X7721D01*
X4585Y-1200D02*
X7735D01*
X5640Y-1230D02*
Y-943D01*
X5600Y-1221D02*
Y-943D01*
X5931Y-1560D02*
X7726D01*
X5948Y-1600D02*
X7704D01*
X5920Y-1544D02*
Y-1505D01*
X5894Y-1520D02*
X5940D01*
X6040Y-1668D02*
Y-1547D01*
X6000Y-1670D02*
Y-1545D01*
X5952Y-1640D02*
X7698D01*
X5960Y-1683D02*
Y-1532D01*
X5945Y-1680D02*
X5967D01*
X5663Y-1240D02*
X5783D01*
X5720Y-1525D02*
Y-1502D01*
X5672Y-1520D02*
X5726D01*
X4585Y-1560D02*
X5689D01*
X5680Y-1577D02*
Y-1514D01*
X4585Y-1600D02*
X5672D01*
X5653Y-1680D02*
X5675D01*
X5640Y-1675D02*
Y-1535D01*
X4585Y-1640D02*
X5668D01*
X5560Y-1222D02*
Y-943D01*
X5520Y-1234D02*
Y-943D01*
X5040Y-1198D02*
Y-943D01*
X5000Y-1228D02*
Y-1198D01*
X4960Y-1220D02*
Y-1198D01*
X4920Y-1223D02*
Y-1198D01*
X5480Y-1258D02*
Y-943D01*
X5440Y-1309D02*
Y-943D01*
X5080Y-1285D02*
Y-943D01*
X5040Y-1247D02*
Y-1198D01*
X4880Y-1236D02*
Y-1198D01*
X4840Y-1263D02*
Y-1198D01*
X4585Y-943D02*
X4765D01*
X4585Y-960D02*
X4765D01*
X4585Y-1000D02*
X4765D01*
X4585Y-1040D02*
X4765D01*
X4585Y-1080D02*
X4765D01*
X4585Y-1120D02*
X4765D01*
X4800Y-1320D02*
Y-1198D01*
X4765D02*
X5040D01*
X4765D02*
Y-943D01*
X4585Y-1160D02*
X4765D01*
X5076Y-1280D02*
X5459D01*
X5028Y-1240D02*
X5507D01*
X5100Y-1320D02*
X5435D01*
X5112Y-1400D02*
X5423D01*
X5111Y-1360D02*
X5424D01*
X5102Y-1440D02*
X5433D01*
X5600Y-1666D02*
Y-1544D01*
X5520Y-1679D02*
Y-1531D01*
X5560Y-1667D02*
Y-1543D01*
X5080Y-1480D02*
X5455D01*
X5037Y-1520D02*
X5498D01*
X4585Y-1240D02*
X4872D01*
X4585Y-1280D02*
X4824D01*
X4585Y-1320D02*
X4800D01*
X4585Y-1360D02*
X4789D01*
X4585Y-1400D02*
X4788D01*
X4585Y-1440D02*
X4798D01*
X5000Y-1673D02*
Y-1537D01*
X4960Y-1665D02*
Y-1545D01*
X4920Y-1668D02*
Y-1542D01*
X4585Y-1480D02*
X4820D01*
X4585Y-1520D02*
X4863D01*
X5480Y-1703D02*
Y-1507D01*
X5440Y-1754D02*
Y-1456D01*
X5960Y-2415D02*
Y-1977D01*
X5920Y-2415D02*
Y-1981D01*
X5680Y-2415D02*
Y-1959D01*
X5480Y-2415D02*
Y-1952D01*
X5640Y-2415D02*
Y-1980D01*
X5072Y-1720D02*
X5463D01*
X5018Y-1680D02*
X5517D01*
X5098Y-1760D02*
X5437D01*
X5112Y-1840D02*
X5423D01*
X5110Y-1800D02*
X5425D01*
X5104Y-1880D02*
X5431D01*
X5084Y-1920D02*
X5451D01*
X5044Y-1960D02*
X5491D01*
X5400Y-2415D02*
Y-943D01*
X5440Y-2415D02*
Y-1901D01*
X6000Y-2415D02*
Y-1990D01*
X5901Y-2000D02*
X8984D01*
X5070Y-2120D02*
X9007D01*
X5880Y-2415D02*
Y-2014D01*
X5840Y-2415D02*
Y-2029D01*
X5800Y-2415D02*
Y-2032D01*
X5720Y-2415D02*
Y-2000D01*
X5600Y-2415D02*
Y-1989D01*
X5760Y-2415D02*
Y-2023D01*
X5520Y-2415D02*
Y-1976D01*
X5560Y-2415D02*
Y-1988D01*
X5072Y-2160D02*
X9036D01*
X5067Y-2200D02*
X9088D01*
X5053Y-2240D02*
X9240D01*
X5043Y-2040D02*
X8983D01*
X5014Y-2000D02*
X5719D01*
X5061Y-2080D02*
X8990D01*
X5031Y-2280D02*
X9240D01*
X4994Y-2320D02*
X9240D01*
X4923Y-2360D02*
X9240D01*
X4871Y-2400D02*
X9240D01*
X4885Y-2415D02*
X9240D01*
X5360D02*
Y-943D01*
X5080Y-1730D02*
Y-1480D01*
X5040Y-1692D02*
Y-1518D01*
X4840Y-1708D02*
Y-1502D01*
X4800Y-1765D02*
Y-1445D01*
X4880Y-1681D02*
Y-1529D01*
X5320Y-2415D02*
Y-943D01*
X5280Y-2415D02*
Y-943D01*
X5240Y-2415D02*
Y-943D01*
X5200Y-2415D02*
Y-943D01*
X5160Y-2415D02*
Y-943D01*
X5120Y-2415D02*
Y-943D01*
X4585Y-1680D02*
X4882D01*
X4585Y-1720D02*
X4828D01*
X4760Y-1947D02*
Y-943D01*
X4585Y-1760D02*
X4802D01*
X4585Y-1800D02*
X4790D01*
X4720Y-1969D02*
Y-943D01*
X4680Y-2006D02*
Y-943D01*
X4640Y-2077D02*
Y-943D01*
X4600Y-2129D02*
Y-943D01*
X4585Y-2115D02*
Y-943D01*
X5080Y-2415D02*
Y-1925D01*
X5040Y-2034D02*
Y-1963D01*
X4880Y-2409D02*
Y-2370D01*
X5040Y-2415D02*
Y-2266D01*
X5000Y-2415D02*
Y-2314D01*
X4960Y-2415D02*
Y-2343D01*
X4920Y-2415D02*
Y-2361D01*
X4843Y-2372D02*
X4885Y-2415D01*
X4800Y-1933D02*
Y-1890D01*
X4585Y-1880D02*
X4796D01*
X4585Y-1920D02*
X4816D01*
X4585Y-1840D02*
X4788D01*
X4585Y-1960D02*
X4734D01*
X4585Y-2000D02*
X4686D01*
X4585Y-2040D02*
X4657D01*
X4585Y-2080D02*
X4639D01*
X4585Y-2115D02*
X4628Y-2157D01*
X4591Y-2120D02*
X4630D01*
X9240Y-1500D02*
Y-940D01*
X9200Y-1500D02*
Y-940D01*
X9160Y-1500D02*
Y-940D01*
X9120Y-1500D02*
Y-940D01*
X9080Y-1500D02*
Y-940D01*
X9040Y-1500D02*
Y-940D01*
X7955Y-1040D02*
X9240D01*
X7962Y-1080D02*
X9240D01*
X7958Y-1120D02*
X9240D01*
X7932Y-1000D02*
X9240D01*
X7939Y-1160D02*
X9240D01*
X9000Y-1500D02*
Y-940D01*
X8960Y-1500D02*
Y-940D01*
X8920Y-1500D02*
Y-940D01*
X8880Y-1500D02*
Y-940D01*
X8840Y-1500D02*
Y-940D01*
X8800Y-1500D02*
Y-940D01*
X8760Y-1500D02*
Y-940D01*
X8720Y-1500D02*
Y-940D01*
X7960Y-1059D02*
Y-940D01*
X8680Y-1500D02*
Y-940D01*
X8640Y-1500D02*
Y-940D01*
X8600Y-1500D02*
Y-940D01*
X8560Y-1500D02*
Y-940D01*
X8520Y-1500D02*
Y-940D01*
X8480Y-1500D02*
Y-940D01*
X8440Y-1500D02*
Y-940D01*
X8400Y-1500D02*
Y-940D01*
X8360Y-1500D02*
Y-940D01*
X8320Y-1500D02*
Y-940D01*
X7925Y-1500D02*
X9240D01*
X8280D02*
Y-940D01*
X8240Y-1500D02*
Y-940D01*
X8200Y-1500D02*
Y-940D01*
X8160Y-1500D02*
Y-940D01*
X8120Y-1500D02*
Y-940D01*
X8080Y-1500D02*
Y-940D01*
X8040Y-1500D02*
Y-940D01*
X8000Y-1500D02*
Y-940D01*
X7960Y-1500D02*
Y-1111D01*
X7925Y-1500D02*
Y-1177D01*
X7880Y-962D02*
Y-940D01*
X7840Y-953D02*
Y-940D01*
X7920Y-988D02*
Y-940D01*
X7433D02*
X9240D01*
X7800Y-956D02*
Y-940D01*
X7925Y-1200D02*
X9240D01*
X7925Y-1240D02*
X9240D01*
X7925Y-1280D02*
X9240D01*
X7874Y-960D02*
X9240D01*
X7433D02*
X7786D01*
X7760Y-973D02*
Y-940D01*
X7433Y-1000D02*
X7728D01*
X7720Y-1011D02*
Y-940D01*
X7433Y-1040D02*
X7705D01*
X7433Y-1080D02*
X7698D01*
X7433Y-1160D02*
X7721D01*
X7433Y-1120D02*
X7702D01*
X7433Y-1200D02*
X7735D01*
X7433Y-1240D02*
X7735D01*
X7433Y-1280D02*
X7735D01*
X7925Y-1320D02*
X9240D01*
X7925Y-1360D02*
X9240D01*
X7925Y-1400D02*
X9240D01*
X7433Y-1320D02*
X7735D01*
X7433Y-1360D02*
X7735D01*
Y-1500D02*
Y-1177D01*
X7925Y-1440D02*
X9240D01*
X7433Y-1400D02*
X7735D01*
X7925Y-1480D02*
X9240D01*
X7433Y-1440D02*
X7735D01*
X7433Y-1480D02*
X7735D01*
X7680Y-1500D02*
Y-940D01*
X7640Y-1500D02*
Y-940D01*
X7600Y-1500D02*
Y-940D01*
X7560Y-1500D02*
Y-940D01*
X7520Y-1500D02*
Y-940D01*
X7720Y-1500D02*
Y-1159D01*
X7480Y-1500D02*
Y-940D01*
X7440Y-1500D02*
Y-940D01*
X7433Y-1500D02*
Y-940D01*
Y-1500D02*
X7735D01*
X11915Y-845D02*
Y-55D01*
X11880Y-845D02*
Y-55D01*
X11840Y-845D02*
Y-55D01*
X11800Y-845D02*
Y-55D01*
X11760Y-845D02*
Y-55D01*
X11720Y-845D02*
Y-55D01*
X11680Y-845D02*
Y-55D01*
X11640Y-845D02*
Y-55D01*
X11600Y-845D02*
Y-55D01*
X11560Y-845D02*
Y-55D01*
X11520Y-845D02*
Y-55D01*
X11480Y-845D02*
Y-55D01*
X11440Y-845D02*
Y-55D01*
X11400Y-845D02*
Y-55D01*
X11360Y-845D02*
Y-55D01*
X11320Y-845D02*
Y-55D01*
X11280Y-845D02*
Y-55D01*
X11240Y-845D02*
Y-55D01*
X11200Y-845D02*
Y-55D01*
X11160Y-845D02*
Y-55D01*
X11120Y-845D02*
Y-55D01*
X11080Y-845D02*
Y-55D01*
X11040Y-845D02*
Y-55D01*
X11000Y-845D02*
Y-55D01*
X10960Y-845D02*
Y-55D01*
X10920Y-845D02*
Y-55D01*
X10880Y-845D02*
Y-55D01*
X10840Y-845D02*
Y-55D01*
X10800Y-845D02*
Y-55D01*
X10760Y-845D02*
Y-55D01*
X10720Y-845D02*
Y-55D01*
X10680Y-845D02*
Y-55D01*
X10640Y-845D02*
Y-55D01*
X10600Y-845D02*
Y-55D01*
X10560Y-845D02*
Y-55D01*
X10520Y-845D02*
Y-55D01*
X10480Y-845D02*
Y-55D01*
X10440Y-845D02*
Y-55D01*
X10400Y-845D02*
Y-55D01*
X10360Y-845D02*
Y-55D01*
X10320Y-845D02*
Y-55D01*
X10280Y-845D02*
Y-55D01*
X10240Y-845D02*
Y-55D01*
X10200Y-845D02*
Y-55D01*
X10160Y-845D02*
Y-55D01*
X10120Y-845D02*
Y-55D01*
X10080Y-845D02*
Y-55D01*
X10040Y-845D02*
Y-55D01*
X9035D02*
X11915D01*
X9035Y-80D02*
X11915D01*
X9035Y-120D02*
X11915D01*
X9035Y-160D02*
X11915D01*
X9035Y-200D02*
X11915D01*
X9035Y-240D02*
X11915D01*
X9035Y-280D02*
X11915D01*
X9035Y-320D02*
X11915D01*
X9035Y-360D02*
X11915D01*
X9035Y-400D02*
X11915D01*
X9035Y-440D02*
X11915D01*
X9035Y-480D02*
X11915D01*
X10000Y-845D02*
Y-55D01*
X9960Y-845D02*
Y-55D01*
X9920Y-845D02*
Y-55D01*
X9035Y-520D02*
X11915D01*
X9035Y-560D02*
X11915D01*
X9880Y-845D02*
Y-55D01*
X9035Y-600D02*
X11915D01*
X9035Y-640D02*
X11915D01*
X9035Y-680D02*
X11915D01*
X9035Y-720D02*
X11915D01*
X9035Y-760D02*
X11915D01*
X9035Y-800D02*
X11915D01*
X9840Y-845D02*
Y-55D01*
X9800Y-845D02*
Y-55D01*
X9760Y-845D02*
Y-55D01*
X9720Y-845D02*
Y-55D01*
X9680Y-845D02*
Y-55D01*
X9640Y-845D02*
Y-55D01*
X9600Y-845D02*
Y-55D01*
X9560Y-845D02*
Y-55D01*
X9520Y-845D02*
Y-55D01*
X9035Y-840D02*
X11915D01*
X9480Y-845D02*
Y-55D01*
X9035Y-845D02*
X11915D01*
X9440D02*
Y-55D01*
X9400Y-845D02*
Y-55D01*
X9360Y-845D02*
Y-55D01*
X9320Y-845D02*
Y-55D01*
X9280Y-845D02*
Y-55D01*
X9240Y-845D02*
Y-55D01*
X9200Y-845D02*
Y-55D01*
X9160Y-845D02*
Y-55D01*
X9120Y-845D02*
Y-55D01*
X9080Y-845D02*
Y-55D01*
X9040Y-845D02*
Y-55D01*
X9035Y-845D02*
Y-55D01*
X11915Y-2415D02*
Y-940D01*
X11880Y-2415D02*
Y-940D01*
X11840Y-2415D02*
Y-940D01*
X11800Y-2415D02*
Y-940D01*
X11760Y-2415D02*
Y-940D01*
X11720Y-2415D02*
Y-940D01*
X11680Y-2415D02*
Y-940D01*
X11640Y-2415D02*
Y-940D01*
X11600Y-2415D02*
Y-940D01*
X11560Y-2415D02*
Y-940D01*
X11520Y-2415D02*
Y-940D01*
X11480Y-2415D02*
Y-940D01*
X11440Y-2415D02*
Y-940D01*
X11400Y-2415D02*
Y-940D01*
X11360Y-2415D02*
Y-940D01*
X11320Y-2415D02*
Y-940D01*
X11280Y-2415D02*
Y-940D01*
X11240Y-2415D02*
Y-940D01*
X11200Y-2415D02*
Y-940D01*
X11160Y-2415D02*
Y-940D01*
X11120Y-2415D02*
Y-940D01*
X11080Y-2415D02*
Y-940D01*
X11040Y-2415D02*
Y-940D01*
X11000Y-2415D02*
Y-940D01*
X10960Y-2415D02*
Y-940D01*
X10920Y-2415D02*
Y-940D01*
X10880Y-2415D02*
Y-940D01*
X10840Y-2415D02*
Y-940D01*
X10800Y-2415D02*
Y-940D01*
X10760Y-2415D02*
Y-940D01*
X10720Y-2415D02*
Y-940D01*
X10680Y-2415D02*
Y-940D01*
X10640Y-2415D02*
Y-940D01*
X10600Y-2415D02*
Y-940D01*
X10560Y-2415D02*
Y-940D01*
X10520Y-2415D02*
Y-940D01*
X10480Y-2415D02*
Y-940D01*
X10440Y-2415D02*
Y-940D01*
X10400Y-2415D02*
Y-940D01*
X10360Y-2415D02*
Y-940D01*
X10320Y-2415D02*
Y-940D01*
X10280Y-2415D02*
Y-940D01*
X10240Y-2415D02*
Y-940D01*
X10200Y-2415D02*
Y-940D01*
X10160Y-2415D02*
Y-940D01*
X10120Y-2415D02*
Y-940D01*
X10080Y-2415D02*
Y-940D01*
X10040Y-2415D02*
Y-940D01*
X10000Y-2415D02*
Y-940D01*
X9960Y-2415D02*
Y-940D01*
X9920Y-2415D02*
Y-940D01*
X9880Y-2415D02*
Y-940D01*
X9840Y-2415D02*
Y-940D01*
X9800Y-2415D02*
Y-940D01*
X9760Y-2415D02*
Y-940D01*
X9720Y-2415D02*
Y-940D01*
X9680Y-2415D02*
Y-940D01*
X9640Y-2415D02*
Y-940D01*
X9600Y-2415D02*
Y-940D01*
X9560Y-2415D02*
Y-940D01*
X9520Y-2415D02*
Y-940D01*
X9480Y-2415D02*
Y-940D01*
X9440Y-2415D02*
Y-940D01*
X9400Y-2415D02*
Y-940D01*
X9035D02*
X11915D01*
X9035Y-960D02*
X11915D01*
X9035Y-1000D02*
X11915D01*
X9035Y-1040D02*
X11915D01*
X9035Y-1080D02*
X11915D01*
X9035Y-1120D02*
X11915D01*
X9035Y-1160D02*
X11915D01*
X9035Y-1200D02*
X11915D01*
X9035Y-1240D02*
X11915D01*
X9035Y-1280D02*
X11915D01*
X9035Y-1320D02*
X11915D01*
X9035Y-1360D02*
X11915D01*
X9035Y-1400D02*
X11915D01*
X9035Y-1440D02*
X11915D01*
X9035Y-1480D02*
X11915D01*
X9035Y-1520D02*
X11915D01*
X9240Y-1837D02*
Y-940D01*
X9200Y-1829D02*
Y-940D01*
X9320Y-1886D02*
Y-940D01*
X9280Y-1855D02*
Y-940D01*
X9035Y-1560D02*
X11915D01*
X9160Y-1829D02*
Y-940D01*
X9120Y-1837D02*
Y-940D01*
X9080Y-1855D02*
Y-940D01*
X9035Y-1600D02*
X11915D01*
X9035Y-1640D02*
X11915D01*
X9035Y-1680D02*
X11915D01*
X9249Y-1840D02*
X11915D01*
X9035Y-1720D02*
X11915D01*
X9035Y-1760D02*
X11915D01*
X9035Y-1800D02*
X11915D01*
X9035Y-1840D02*
X9111D01*
X9367Y-1960D02*
X11915D01*
X9376Y-2000D02*
X11915D01*
X9377Y-2040D02*
X11915D01*
X9370Y-2080D02*
X11915D01*
X9314Y-1880D02*
X11915D01*
X9347Y-1920D02*
X11915D01*
X9353Y-2120D02*
X11915D01*
X9324Y-2160D02*
X11915D01*
X9272Y-2200D02*
X11915D01*
X9035Y-2240D02*
X11915D01*
X9035Y-2280D02*
X11915D01*
X9035Y-2320D02*
X11915D01*
X9035Y-2360D02*
X11915D01*
X9035Y-2400D02*
X11915D01*
X9035Y-2415D02*
X11915D01*
X9360Y-1944D02*
Y-940D01*
X9040Y-1886D02*
Y-940D01*
X9360Y-2415D02*
Y-2106D01*
X9320Y-2415D02*
Y-2164D01*
X9035Y-1880D02*
X9046D01*
X9035Y-1891D02*
Y-940D01*
X9040Y-2415D02*
Y-2164D01*
X9280Y-2415D02*
Y-2195D01*
X9240Y-2415D02*
Y-2213D01*
X9200Y-2415D02*
Y-2221D01*
X9160Y-2415D02*
Y-2221D01*
X9120Y-2415D02*
Y-2213D01*
X9035Y-2200D02*
X9088D01*
X9080Y-2415D02*
Y-2195D01*
X9035Y-2415D02*
Y-2159D01*
X7830Y-1642D02*
Y-1085D01*
X10522Y-735D02*
X10543Y-715D01*
X10522Y-735D02*
X10753D01*
Y-125D01*
D34*
X8753Y-5D02*
D03*
X8553D02*
D03*
X8353D02*
D03*
X8153D02*
D03*
X9753Y192D02*
D03*
X6747Y795D02*
D03*
X9150Y1002D02*
D03*
X8950D02*
D03*
X8750D02*
D03*
X8550D02*
D03*
X8350D02*
D03*
X8150D02*
D03*
X7950D02*
D03*
X7750D02*
D03*
X7550D02*
D03*
X7350D02*
D03*
X7150D02*
D03*
X6950D02*
D03*
X6750D02*
D03*
X10353Y-750D02*
D03*
X10153Y-747D02*
D03*
X9953D02*
D03*
X9753D02*
D03*
Y-550D02*
D03*
X10353Y-350D02*
D03*
Y-550D02*
D03*
X10153Y-350D02*
D03*
Y-553D02*
D03*
X9953Y-353D02*
D03*
Y-550D02*
D03*
X11753Y-125D02*
D03*
X11753Y-343D02*
D03*
Y-543D02*
D03*
Y-743D02*
D03*
X11553Y-125D02*
D03*
X11553Y-343D02*
D03*
Y-543D02*
D03*
Y-743D02*
D03*
X11353Y-125D02*
D03*
X11353Y-343D02*
D03*
Y-543D02*
D03*
Y-743D02*
D03*
X11153Y-125D02*
D03*
X10953Y-125D02*
D03*
X11693Y-1025D02*
D03*
Y-1225D02*
D03*
Y-1425D02*
D03*
Y-1605D02*
D03*
Y-1805D02*
D03*
X10753Y-125D02*
D03*
X11493Y-1025D02*
D03*
Y-1225D02*
D03*
Y-1425D02*
D03*
Y-1605D02*
D03*
Y-1805D02*
D03*
X10553Y-125D02*
D03*
X11293Y-1025D02*
D03*
Y-1225D02*
D03*
Y-1425D02*
D03*
Y-1605D02*
D03*
Y-1805D02*
D03*
Y-2005D02*
D03*
Y-2205D02*
D03*
X10353Y-125D02*
D03*
X11093Y-1025D02*
D03*
Y-1225D02*
D03*
Y-1425D02*
D03*
Y-1605D02*
D03*
Y-1805D02*
D03*
Y-2005D02*
D03*
Y-2205D02*
D03*
X10153Y-125D02*
D03*
X10893Y-1025D02*
D03*
Y-1225D02*
D03*
Y-1425D02*
D03*
Y-1605D02*
D03*
Y-1805D02*
D03*
Y-2005D02*
D03*
Y-2205D02*
D03*
X9953Y-125D02*
D03*
X10693Y-1025D02*
D03*
Y-1225D02*
D03*
Y-1605D02*
D03*
Y-1805D02*
D03*
Y-2005D02*
D03*
Y-2205D02*
D03*
X9753Y-125D02*
D03*
X9753Y-353D02*
D03*
X10493Y-1025D02*
D03*
Y-1225D02*
D03*
Y-1425D02*
D03*
Y-1605D02*
D03*
Y-1805D02*
D03*
Y-2005D02*
D03*
Y-2205D02*
D03*
X10293Y-1025D02*
D03*
Y-1225D02*
D03*
Y-1425D02*
D03*
Y-1605D02*
D03*
Y-1805D02*
D03*
Y-2005D02*
D03*
Y-2205D02*
D03*
X10093Y-1025D02*
D03*
Y-1225D02*
D03*
Y-1425D02*
D03*
Y-1605D02*
D03*
Y-1805D02*
D03*
Y-2005D02*
D03*
Y-2205D02*
D03*
X9893Y-1025D02*
D03*
Y-1225D02*
D03*
Y-1425D02*
D03*
Y-1605D02*
D03*
Y-1805D02*
D03*
Y-2005D02*
D03*
Y-2205D02*
D03*
X9693Y-1025D02*
D03*
Y-1225D02*
D03*
Y-1425D02*
D03*
Y-1605D02*
D03*
Y-1805D02*
D03*
Y-2005D02*
D03*
Y-2205D02*
D03*
X11753Y1775D02*
D03*
Y1575D02*
D03*
Y1375D02*
D03*
Y1175D02*
D03*
Y995D02*
D03*
Y795D02*
D03*
Y595D02*
D03*
Y395D02*
D03*
Y195D02*
D03*
X11553Y1775D02*
D03*
Y1575D02*
D03*
Y1375D02*
D03*
Y1175D02*
D03*
Y995D02*
D03*
Y795D02*
D03*
Y595D02*
D03*
Y395D02*
D03*
Y195D02*
D03*
X11353Y2175D02*
D03*
Y1975D02*
D03*
Y1775D02*
D03*
Y1575D02*
D03*
Y1375D02*
D03*
Y1175D02*
D03*
Y995D02*
D03*
Y795D02*
D03*
Y595D02*
D03*
Y395D02*
D03*
Y195D02*
D03*
X11153Y2175D02*
D03*
Y1975D02*
D03*
Y1775D02*
D03*
Y1575D02*
D03*
Y1375D02*
D03*
Y1175D02*
D03*
Y995D02*
D03*
Y795D02*
D03*
Y595D02*
D03*
Y395D02*
D03*
X10953Y2175D02*
D03*
Y1975D02*
D03*
Y1775D02*
D03*
Y1575D02*
D03*
Y1375D02*
D03*
Y1175D02*
D03*
X10953Y995D02*
D03*
Y795D02*
D03*
Y595D02*
D03*
Y395D02*
D03*
Y195D02*
D03*
X10753Y2175D02*
D03*
Y1975D02*
D03*
Y1775D02*
D03*
Y1575D02*
D03*
Y1375D02*
D03*
Y1175D02*
D03*
Y995D02*
D03*
Y795D02*
D03*
Y595D02*
D03*
Y395D02*
D03*
Y195D02*
D03*
X10553Y2175D02*
D03*
Y1975D02*
D03*
Y1775D02*
D03*
Y1575D02*
D03*
Y1175D02*
D03*
X10553Y995D02*
D03*
Y795D02*
D03*
Y595D02*
D03*
Y395D02*
D03*
Y195D02*
D03*
X10353Y2175D02*
D03*
Y1975D02*
D03*
Y1775D02*
D03*
Y1575D02*
D03*
Y1375D02*
D03*
Y1175D02*
D03*
Y995D02*
D03*
X10353Y795D02*
D03*
Y595D02*
D03*
Y395D02*
D03*
Y195D02*
D03*
X10153Y2175D02*
D03*
Y1975D02*
D03*
Y1775D02*
D03*
Y1575D02*
D03*
Y1375D02*
D03*
Y1175D02*
D03*
Y995D02*
D03*
Y795D02*
D03*
Y595D02*
D03*
Y395D02*
D03*
Y195D02*
D03*
X9953Y2175D02*
D03*
Y1975D02*
D03*
Y1775D02*
D03*
Y1575D02*
D03*
Y1375D02*
D03*
Y1175D02*
D03*
Y995D02*
D03*
X9953Y795D02*
D03*
Y595D02*
D03*
Y395D02*
D03*
Y195D02*
D03*
X9753Y2175D02*
D03*
Y1975D02*
D03*
Y1775D02*
D03*
Y1575D02*
D03*
Y1375D02*
D03*
Y1175D02*
D03*
Y995D02*
D03*
Y795D02*
D03*
Y595D02*
D03*
Y395D02*
D03*
X9553Y2175D02*
D03*
Y1975D02*
D03*
Y1775D02*
D03*
Y1575D02*
D03*
Y1375D02*
D03*
X9553Y1175D02*
D03*
X9553Y995D02*
D03*
Y795D02*
D03*
Y595D02*
D03*
Y395D02*
D03*
Y195D02*
D03*
X9353Y2175D02*
D03*
Y1975D02*
D03*
Y1775D02*
D03*
Y1575D02*
D03*
Y1375D02*
D03*
Y1175D02*
D03*
X9353Y995D02*
D03*
X9353Y795D02*
D03*
Y595D02*
D03*
Y395D02*
D03*
Y195D02*
D03*
X9153Y2175D02*
D03*
Y1975D02*
D03*
Y1775D02*
D03*
Y1575D02*
D03*
Y1375D02*
D03*
Y1175D02*
D03*
Y795D02*
D03*
Y595D02*
D03*
Y395D02*
D03*
Y195D02*
D03*
X8953Y2175D02*
D03*
Y1975D02*
D03*
Y1775D02*
D03*
Y1575D02*
D03*
Y1375D02*
D03*
Y1175D02*
D03*
Y795D02*
D03*
Y595D02*
D03*
Y395D02*
D03*
Y195D02*
D03*
X8753Y2175D02*
D03*
Y1975D02*
D03*
Y1775D02*
D03*
Y1575D02*
D03*
Y1375D02*
D03*
Y1175D02*
D03*
Y795D02*
D03*
Y595D02*
D03*
Y395D02*
D03*
Y195D02*
D03*
X8553Y2175D02*
D03*
Y1975D02*
D03*
Y1775D02*
D03*
Y1575D02*
D03*
Y1375D02*
D03*
Y1175D02*
D03*
Y795D02*
D03*
Y595D02*
D03*
Y395D02*
D03*
Y195D02*
D03*
X8353Y2175D02*
D03*
Y1975D02*
D03*
Y1775D02*
D03*
Y1575D02*
D03*
Y1375D02*
D03*
Y1175D02*
D03*
Y795D02*
D03*
Y595D02*
D03*
Y395D02*
D03*
Y195D02*
D03*
X8153Y2175D02*
D03*
Y1975D02*
D03*
Y1775D02*
D03*
Y1575D02*
D03*
Y1375D02*
D03*
Y1175D02*
D03*
Y795D02*
D03*
Y595D02*
D03*
Y395D02*
D03*
Y195D02*
D03*
X7953Y2175D02*
D03*
Y1975D02*
D03*
Y1775D02*
D03*
Y1575D02*
D03*
Y1375D02*
D03*
Y1175D02*
D03*
Y795D02*
D03*
Y595D02*
D03*
Y395D02*
D03*
Y195D02*
D03*
Y-5D02*
D03*
X7753Y2175D02*
D03*
Y1975D02*
D03*
Y1775D02*
D03*
Y1575D02*
D03*
Y1375D02*
D03*
Y1175D02*
D03*
Y795D02*
D03*
Y595D02*
D03*
Y395D02*
D03*
Y195D02*
D03*
Y-5D02*
D03*
X7553Y2175D02*
D03*
Y1975D02*
D03*
Y1775D02*
D03*
Y1575D02*
D03*
Y1375D02*
D03*
Y1175D02*
D03*
Y795D02*
D03*
Y595D02*
D03*
Y395D02*
D03*
Y195D02*
D03*
Y-5D02*
D03*
X7353Y2175D02*
D03*
Y1975D02*
D03*
Y1775D02*
D03*
Y1575D02*
D03*
Y1375D02*
D03*
Y1175D02*
D03*
Y795D02*
D03*
Y595D02*
D03*
Y395D02*
D03*
Y195D02*
D03*
Y-5D02*
D03*
X7153Y2175D02*
D03*
Y1975D02*
D03*
Y1775D02*
D03*
Y1575D02*
D03*
Y1375D02*
D03*
Y1175D02*
D03*
Y795D02*
D03*
Y595D02*
D03*
Y395D02*
D03*
Y195D02*
D03*
Y-5D02*
D03*
X6953Y2175D02*
D03*
Y1975D02*
D03*
Y1775D02*
D03*
Y1575D02*
D03*
Y1375D02*
D03*
Y1175D02*
D03*
Y795D02*
D03*
Y595D02*
D03*
Y395D02*
D03*
Y195D02*
D03*
Y-5D02*
D03*
X6753Y2175D02*
D03*
Y1975D02*
D03*
Y1775D02*
D03*
Y1575D02*
D03*
Y1375D02*
D03*
Y1175D02*
D03*
Y595D02*
D03*
Y395D02*
D03*
Y195D02*
D03*
X6553Y2175D02*
D03*
Y1975D02*
D03*
X6353Y2175D02*
D03*
Y1975D02*
D03*
X6153Y2175D02*
D03*
Y1975D02*
D03*
X5953Y2175D02*
D03*
Y1975D02*
D03*
X5753Y2175D02*
D03*
Y1975D02*
D03*
X5553Y2175D02*
D03*
Y1975D02*
D03*
X11153Y195D02*
D03*
X11153Y-343D02*
D03*
Y-743D02*
D03*
X10960Y-342D02*
D03*
X10953Y-543D02*
D03*
Y-743D02*
D03*
X11153Y-543D02*
D03*
X10753Y-350D02*
D03*
Y-750D02*
D03*
X10560Y-350D02*
D03*
X10553Y-550D02*
D03*
X10553Y-750D02*
D03*
X10753Y-550D02*
D03*
X8475Y-1018D02*
D03*
X8695D02*
D03*
X7830Y-1085D02*
D03*
Y-1642D02*
D03*
X7595Y-1210D02*
D03*
X9115Y-1018D02*
D03*
D35*
X4922Y1673D02*
D03*
X9180Y-2025D02*
D03*
X4920Y615D02*
D03*
Y265D02*
D03*
X4922Y962D02*
D03*
D36*
X5810Y-1635D02*
D03*
Y-1890D02*
D03*
D37*
Y-1385D02*
D03*
X4850Y2150D02*
D03*
Y-2150D02*
D03*
X11647Y2152D02*
D03*
X11650Y-2150D02*
D03*
D38*
X6030Y-1385D02*
D03*
Y-1830D02*
D03*
X6665Y-1385D02*
D03*
Y-1830D02*
D03*
X5585Y-1827D02*
D03*
Y-1382D02*
D03*
X4950Y-1827D02*
D03*
Y-1382D02*
D03*
D39*
X10700Y-1355D02*
D03*
D40*
X4978Y1293D02*
D03*
D41*
X4722D02*
D03*
D42*
X10585Y1330D02*
D03*
D43*
X4903Y-1060D02*
D03*
D44*
Y-805D02*
D03*
Y-555D02*
D03*
Y-300D02*
D03*
Y-45D02*
D03*
M02*
