%FSLAX42Y42*%
%MOMM*%
G71*
G01*
G75*
%ADD10C,0.45*%
%ADD11O,2.00X1.00*%
%ADD12R,1.50X1.25*%
%ADD13O,0.50X2.00*%
%ADD14R,0.80X0.95*%
%ADD15R,0.90X0.95*%
%ADD16R,0.91X0.91*%
%ADD17R,1.27X0.91*%
%ADD18R,0.91X1.27*%
%ADD19R,0.90X0.90*%
%ADD20R,0.90X1.25*%
%ADD21R,2.00X2.00*%
%ADD22R,0.90X3.20*%
%ADD23R,11.50X9.00*%
%ADD24R,6.35X1.52*%
%ADD25R,1.25X1.50*%
%ADD26R,0.95X0.80*%
%ADD27R,0.95X0.90*%
%ADD28O,2.00X0.60*%
%ADD29R,3.20X1.00*%
%ADD30R,0.50X2.00*%
%ADD31R,8.00X4.00*%
%ADD32C,0.50*%
%ADD33C,0.30*%
%ADD34C,1.20*%
%ADD35C,2.50*%
%ADD36C,1.40*%
%ADD37C,1.50*%
%ADD38C,1.80*%
%ADD39R,22.00X8.00*%
%ADD40R,1.75X1.75*%
%ADD41C,1.75*%
%ADD42R,25.00X8.00*%
%ADD43R,1.30X1.30*%
%ADD44C,1.30*%
%ADD45O,2.20X1.20*%
%ADD46R,1.70X1.45*%
%ADD47O,0.70X2.20*%
%ADD48R,1.00X1.15*%
%ADD49R,1.10X1.15*%
%ADD50R,1.12X1.12*%
%ADD51R,1.47X1.12*%
%ADD52R,1.12X1.47*%
%ADD53R,1.10X1.10*%
%ADD54R,1.10X1.45*%
%ADD55R,2.20X2.20*%
%ADD56R,1.10X3.40*%
%ADD57R,11.70X9.20*%
%ADD58R,6.55X1.73*%
%ADD59R,1.45X1.70*%
%ADD60R,1.15X1.00*%
%ADD61R,1.15X1.10*%
%ADD62O,2.20X0.80*%
%ADD63R,3.40X1.20*%
%ADD64R,0.70X2.20*%
%ADD65R,8.20X4.20*%
%ADD66C,1.40*%
%ADD67C,2.70*%
%ADD68C,1.60*%
%ADD69C,1.70*%
%ADD70C,2.00*%
%ADD71R,22.20X8.20*%
%ADD72R,1.95X1.95*%
%ADD73C,1.95*%
%ADD74R,25.20X8.20*%
%ADD75R,1.50X1.50*%
%ADD76C,1.50*%
D10*
X11432Y-2292D02*
Y-1915D01*
X11400Y-2292D02*
Y-1915D01*
X11360Y-2292D02*
Y-1915D01*
X11320Y-2292D02*
Y-1915D01*
X11280Y-2292D02*
Y-1915D01*
X11240Y-2292D02*
Y-1915D01*
X11200Y-2292D02*
Y-1915D01*
X11160Y-2292D02*
Y-1915D01*
X11120Y-2292D02*
Y-1915D01*
X11080Y-2292D02*
Y-1915D01*
X11040Y-2292D02*
Y-1915D01*
X11000Y-2292D02*
Y-1915D01*
X10960Y-2292D02*
Y-1915D01*
X10920Y-2292D02*
Y-1915D01*
X10880Y-2292D02*
Y-1915D01*
X10840Y-2292D02*
Y-1915D01*
X10800Y-2292D02*
Y-1915D01*
X10760Y-2292D02*
Y-1915D01*
X10720Y-2292D02*
Y-1915D01*
X10680Y-2292D02*
Y-1915D01*
X10640Y-2292D02*
Y-1915D01*
X10600Y-2292D02*
Y-1915D01*
X10560Y-2292D02*
Y-1915D01*
X10520Y-2292D02*
Y-1915D01*
X10480Y-2292D02*
Y-1915D01*
X10440Y-2292D02*
Y-1915D01*
X10400Y-2292D02*
Y-1915D01*
X9825D02*
X11432D01*
X9825Y-1920D02*
X11432D01*
X9825Y-1960D02*
X11432D01*
X9825Y-2000D02*
X11432D01*
X9825Y-2040D02*
X11432D01*
X9825Y-2080D02*
X11432D01*
X9825Y-2120D02*
X11432D01*
X10360Y-2292D02*
Y-1915D01*
X10320Y-2292D02*
Y-1915D01*
X9825Y-2160D02*
X11432D01*
X10280Y-2292D02*
Y-1915D01*
X9825Y-2200D02*
X11432D01*
X9825Y-2240D02*
X11432D01*
X9825Y-2280D02*
X11432D01*
X10240Y-2292D02*
Y-1915D01*
X10200Y-2292D02*
Y-1915D01*
X10160Y-2292D02*
Y-1915D01*
X10120Y-2292D02*
Y-1915D01*
X10080Y-2292D02*
Y-1915D01*
X10040Y-2292D02*
Y-1915D01*
X9825Y-2292D02*
X11432D01*
X10000D02*
Y-1915D01*
X9960Y-2292D02*
Y-1915D01*
X9920Y-2292D02*
Y-1915D01*
X9880Y-2292D02*
Y-1915D01*
X9840Y-2292D02*
Y-1915D01*
X9825Y-2292D02*
Y-1915D01*
X8120Y-500D02*
Y-68D01*
X8080Y-500D02*
Y-68D01*
X8040Y-500D02*
Y-68D01*
X8000Y-500D02*
Y-68D01*
X7960Y-500D02*
Y-68D01*
X7920Y-500D02*
Y-68D01*
X7880Y-500D02*
Y-68D01*
X7840Y-500D02*
Y-68D01*
X7800Y-500D02*
Y-68D01*
X7760Y-500D02*
Y-68D01*
X7720Y-500D02*
Y-68D01*
X7680Y-500D02*
Y-68D01*
X7640Y-500D02*
Y-68D01*
X7600Y-500D02*
Y-68D01*
X7560Y-500D02*
Y-68D01*
X7520Y-500D02*
Y-68D01*
X7480Y-500D02*
Y-68D01*
X7440Y-500D02*
Y-68D01*
X7400Y-500D02*
Y-68D01*
X7360Y-500D02*
Y-68D01*
X7320Y-500D02*
Y-68D01*
X7280Y-500D02*
Y-68D01*
X7240Y-500D02*
Y-68D01*
X7200Y-500D02*
Y-68D01*
X7160Y-500D02*
Y-68D01*
X6690D02*
X8120D01*
X6690Y-80D02*
X8120D01*
X6690Y-120D02*
X8120D01*
X6690Y-160D02*
X8120D01*
X6690Y-200D02*
X8120D01*
X6690Y-240D02*
X8120D01*
X6690Y-280D02*
X8120D01*
X6690Y-320D02*
X8120D01*
X7120Y-500D02*
Y-68D01*
X6690Y-360D02*
X8120D01*
X6690Y-400D02*
X8120D01*
X6690Y-440D02*
X8120D01*
X6690Y-480D02*
X8120D01*
X7080Y-500D02*
Y-68D01*
X7040Y-500D02*
Y-68D01*
X7000Y-500D02*
Y-68D01*
X6960Y-500D02*
Y-68D01*
X6920Y-500D02*
Y-68D01*
X6690Y-500D02*
X8120D01*
X6880D02*
Y-68D01*
X6840Y-500D02*
Y-68D01*
X6800Y-500D02*
Y-68D01*
X6760Y-500D02*
Y-68D01*
X6720Y-500D02*
Y-68D01*
X6690Y-500D02*
Y-68D01*
X8720Y1920D02*
X9038D01*
X8720Y1880D02*
X9038D01*
X8720Y1840D02*
X9038D01*
X8720Y1800D02*
X9038D01*
X8720Y1760D02*
X9038D01*
X8720Y1720D02*
X9038D01*
X8720Y1680D02*
X9038D01*
X8720Y1640D02*
X9038D01*
X8720Y1600D02*
X9038D01*
X8720Y1560D02*
X9038D01*
X8720Y1520D02*
X9038D01*
X8720Y1480D02*
X9038D01*
X8720Y1440D02*
X9038D01*
X8720Y1400D02*
X9038D01*
X8720Y1360D02*
X9038D01*
Y102D02*
Y1920D01*
X9000Y102D02*
Y1920D01*
X8720Y1320D02*
X9038D01*
X8720Y1280D02*
X9038D01*
X8720Y1240D02*
X9038D01*
X8720Y1200D02*
X9038D01*
X8720Y102D02*
X9038D01*
X8960D02*
Y1920D01*
X8920Y102D02*
Y1920D01*
X8880Y102D02*
Y1920D01*
X8840Y102D02*
Y1920D01*
X8800Y102D02*
Y1920D01*
X8760Y102D02*
Y1920D01*
X8720Y102D02*
Y1920D01*
Y1160D02*
X9038D01*
X8720Y1120D02*
X9038D01*
X8720Y1080D02*
X9038D01*
X8720Y1040D02*
X9038D01*
X8720Y1000D02*
X9038D01*
X8720Y960D02*
X9038D01*
X8720Y920D02*
X9038D01*
X8720Y880D02*
X9038D01*
X8720Y840D02*
X9038D01*
X8720Y800D02*
X9038D01*
X8720Y760D02*
X9038D01*
X8720Y720D02*
X9038D01*
X8720Y680D02*
X9038D01*
X8720Y640D02*
X9038D01*
X8720Y600D02*
X9038D01*
X8720Y560D02*
X9038D01*
X8720Y520D02*
X9038D01*
X8720Y480D02*
X9038D01*
X8720Y440D02*
X9038D01*
X8720Y400D02*
X9038D01*
X8720Y360D02*
X9038D01*
X8720Y320D02*
X9038D01*
X8720Y102D02*
Y1920D01*
Y280D02*
X9038D01*
X8720Y240D02*
X9038D01*
X8720Y200D02*
X9038D01*
X8720Y160D02*
X9038D01*
X8720Y120D02*
X9038D01*
X11428Y1880D02*
Y2252D01*
X11400Y1880D02*
Y2252D01*
X11360Y1880D02*
Y2252D01*
X11320Y1880D02*
Y2252D01*
X11280Y1880D02*
Y2252D01*
X11240Y1880D02*
Y2252D01*
X11200Y1880D02*
Y2252D01*
X11160Y1880D02*
Y2252D01*
X11120Y1880D02*
Y2252D01*
X11080Y1880D02*
Y2252D01*
X11040Y1880D02*
Y2252D01*
X11000Y1880D02*
Y2252D01*
X10960Y1880D02*
Y2252D01*
X10920Y1880D02*
Y2252D01*
X10880Y1880D02*
Y2252D01*
X10840Y1880D02*
Y2252D01*
X10800Y1880D02*
Y2252D01*
X10760Y1880D02*
Y2252D01*
X10720Y1880D02*
Y2252D01*
X10680Y1880D02*
Y2252D01*
X10640Y1880D02*
Y2252D01*
X10600Y1880D02*
Y2252D01*
X10560Y1880D02*
Y2252D01*
X10520Y1880D02*
Y2252D01*
X10480Y1880D02*
Y2252D01*
X10440Y1880D02*
Y2252D01*
X10400Y1880D02*
Y2252D01*
X10360Y1880D02*
Y2252D01*
X10320Y1880D02*
Y2252D01*
X10280Y1880D02*
Y2252D01*
X10240Y1880D02*
Y2252D01*
X10200Y1880D02*
Y2252D01*
X10160Y1880D02*
Y2252D01*
X10120Y1880D02*
Y2252D01*
X10080Y1880D02*
Y2252D01*
X10040Y1880D02*
Y2252D01*
X10000Y1880D02*
Y2252D01*
X9960Y1880D02*
Y2252D01*
X9920Y1880D02*
Y2252D01*
X9880Y1880D02*
Y2252D01*
X9840Y1880D02*
Y2252D01*
X9800Y1880D02*
Y2252D01*
X8635D02*
X11428D01*
X8635Y2240D02*
X11428D01*
X9760Y1880D02*
Y2252D01*
X8635Y2200D02*
X11428D01*
X8635Y2160D02*
X11428D01*
X8635Y2120D02*
X11428D01*
X8635Y2080D02*
X11428D01*
X8635Y2040D02*
X11428D01*
X8635Y2000D02*
X11428D01*
X8635Y1960D02*
X11428D01*
X8635Y1920D02*
X11428D01*
X9720Y1880D02*
Y2252D01*
X9680Y1880D02*
Y2252D01*
X9640Y1880D02*
Y2252D01*
X9600Y1880D02*
Y2252D01*
X9560Y1880D02*
Y2252D01*
X9520Y1880D02*
Y2252D01*
X9480Y1880D02*
Y2252D01*
X9440Y1880D02*
Y2252D01*
X9400Y1880D02*
Y2252D01*
X9360Y1880D02*
Y2252D01*
X9320Y1880D02*
Y2252D01*
X9280Y1880D02*
Y2252D01*
X9240Y1880D02*
Y2252D01*
X9200Y1880D02*
Y2252D01*
X9160Y1880D02*
Y2252D01*
X9120Y1880D02*
Y2252D01*
X9080Y1880D02*
Y2252D01*
X9040Y1880D02*
Y2252D01*
X9000Y1880D02*
Y2252D01*
X8635Y1880D02*
X11428D01*
X8960D02*
Y2252D01*
X8920Y1880D02*
Y2252D01*
X8880Y1880D02*
Y2252D01*
X8840Y1880D02*
Y2252D01*
X8800Y1880D02*
Y2252D01*
X8760Y1880D02*
Y2252D01*
X8720Y1880D02*
Y2252D01*
X8680Y1880D02*
Y2252D01*
X8640Y1880D02*
Y2252D01*
X8635Y1880D02*
Y2252D01*
X8820Y-100D02*
Y2252D01*
X8800Y-100D02*
Y2252D01*
X8760Y-100D02*
Y2252D01*
X8720Y-100D02*
Y2252D01*
X6690D02*
X8820D01*
X8680Y-100D02*
Y2252D01*
X8640Y-100D02*
Y2252D01*
X8600Y-100D02*
Y2252D01*
X8560Y-100D02*
Y2252D01*
X8520Y-100D02*
Y2252D01*
X8480Y-100D02*
Y2252D01*
X8440Y-100D02*
Y2252D01*
X6690Y2240D02*
X8820D01*
X8400Y-100D02*
Y2252D01*
X8360Y-100D02*
Y2252D01*
X8320Y-100D02*
Y2252D01*
X8280Y-100D02*
Y2252D01*
X8240Y-100D02*
Y2252D01*
X8200Y-100D02*
Y2252D01*
X8160Y-100D02*
Y2252D01*
X8120Y-100D02*
Y2252D01*
X8080Y-100D02*
Y2252D01*
X8040Y-100D02*
Y2252D01*
X8000Y-100D02*
Y2252D01*
X7960Y-100D02*
Y2252D01*
X7920Y-100D02*
Y2252D01*
X7880Y-100D02*
Y2252D01*
X7840Y-100D02*
Y2252D01*
X7800Y-100D02*
Y2252D01*
X7760Y-100D02*
Y2252D01*
X7720Y-100D02*
Y2252D01*
X7680Y-100D02*
Y2252D01*
X7640Y-100D02*
Y2252D01*
X7600Y-100D02*
Y2252D01*
X7560Y-100D02*
Y2252D01*
X7520Y-100D02*
Y2252D01*
X7480Y-100D02*
Y2252D01*
X7440Y-100D02*
Y2252D01*
X7400Y-100D02*
Y2252D01*
X7360Y-100D02*
Y2252D01*
X7320Y-100D02*
Y2252D01*
X7280Y-100D02*
Y2252D01*
X7240Y-100D02*
Y2252D01*
X6690Y-100D02*
X8820D01*
X7200D02*
Y2252D01*
X7160Y-100D02*
Y2252D01*
X7120Y-100D02*
Y2252D01*
X7080Y-100D02*
Y2252D01*
X7040Y-100D02*
Y2252D01*
X7000Y-100D02*
Y2252D01*
X6960Y-100D02*
Y2252D01*
X6920Y-100D02*
Y2252D01*
X6880Y-100D02*
Y2252D01*
X6840Y-100D02*
Y2252D01*
X6800Y-100D02*
Y2252D01*
X6760Y-100D02*
Y2252D01*
X6720Y-100D02*
Y2252D01*
X6690Y-100D02*
Y2252D01*
Y2200D02*
X8820D01*
X6690Y2160D02*
X8820D01*
X6690Y2120D02*
X8820D01*
X6690Y2080D02*
X8820D01*
X6690Y2040D02*
X8820D01*
X6690Y2000D02*
X8820D01*
X6690Y1960D02*
X8820D01*
X6690Y1920D02*
X8820D01*
X6690Y1880D02*
X8820D01*
X6690Y1840D02*
X8820D01*
X6690Y1800D02*
X8820D01*
X6690Y1760D02*
X8820D01*
X6690Y1720D02*
X8820D01*
X6690Y1680D02*
X8820D01*
X6690Y1640D02*
X8820D01*
X6690Y1600D02*
X8820D01*
X6690Y1560D02*
X8820D01*
X6690Y1520D02*
X8820D01*
X6690Y1480D02*
X8820D01*
X6690Y1440D02*
X8820D01*
X6690Y1400D02*
X8820D01*
X6690Y1360D02*
X8820D01*
X6690Y1320D02*
X8820D01*
X6690Y1280D02*
X8820D01*
X6690Y1240D02*
X8820D01*
X6690Y1200D02*
X8820D01*
X6690Y1160D02*
X8820D01*
X6690Y1120D02*
X8820D01*
X6690Y1080D02*
X8820D01*
X6690Y1040D02*
X8820D01*
X6690Y1000D02*
X8820D01*
X6690Y960D02*
X8820D01*
X6690Y920D02*
X8820D01*
X6690Y880D02*
X8820D01*
X6690Y840D02*
X8820D01*
X6690Y800D02*
X8820D01*
X6690Y760D02*
X8820D01*
X6690Y720D02*
X8820D01*
X6690Y680D02*
X8820D01*
X6690Y640D02*
X8820D01*
X6690Y600D02*
X8820D01*
X6690Y560D02*
X8820D01*
X6690Y520D02*
X8820D01*
X6690Y480D02*
X8820D01*
X6690Y440D02*
X8820D01*
X6690Y400D02*
X8820D01*
X6690Y360D02*
X8820D01*
X6690Y320D02*
X8820D01*
X6690Y280D02*
X8820D01*
X6690Y240D02*
X8820D01*
X6690Y200D02*
X8820D01*
X6690Y160D02*
X8820D01*
X6690Y120D02*
X8820D01*
X6690Y80D02*
X8820D01*
X6690Y40D02*
X8820D01*
X6690Y-0D02*
X8820D01*
X6690Y-40D02*
X8820D01*
X6690Y-80D02*
X8820D01*
D45*
X7970Y-1860D02*
D03*
X7162Y-1858D02*
D03*
D46*
X5962Y1673D02*
D03*
X6192D02*
D03*
X5588D02*
D03*
X5358D02*
D03*
X7112Y-1645D02*
D03*
X6882D02*
D03*
X7410Y-1642D02*
D03*
X7640D02*
D03*
X8020D02*
D03*
X8250D02*
D03*
D47*
X5738Y-170D02*
D03*
X5353Y-1135D02*
D03*
X5483D02*
D03*
X5608D02*
D03*
X5862D02*
D03*
X5988D02*
D03*
X6117D02*
D03*
X6242D02*
D03*
X6372D02*
D03*
Y-170D02*
D03*
X6242D02*
D03*
X6117D02*
D03*
X5988D02*
D03*
X5862D02*
D03*
X5608D02*
D03*
X5483D02*
D03*
X5353D02*
D03*
X5228D02*
D03*
X5738Y-1135D02*
D03*
D48*
X5403Y1293D02*
D03*
X9120Y-545D02*
D03*
X9280D02*
D03*
X5242Y1293D02*
D03*
X5690Y877D02*
D03*
X5530D02*
D03*
X5365Y962D02*
D03*
X5205D02*
D03*
X5140Y770D02*
D03*
X5300D02*
D03*
X9570Y-1312D02*
D03*
X9570Y-1025D02*
D03*
X9410Y-1312D02*
D03*
X9575Y-782D02*
D03*
X9415D02*
D03*
X9410Y-1025D02*
D03*
D49*
X6050Y1275D02*
D03*
X6210D02*
D03*
X6050Y1457D02*
D03*
X6210D02*
D03*
X6035Y105D02*
D03*
X6195D02*
D03*
X5690Y1048D02*
D03*
X5530D02*
D03*
X6847Y-1373D02*
D03*
X7007D02*
D03*
X7125Y-927D02*
D03*
X7285D02*
D03*
D50*
X6125Y557D02*
D03*
Y367D02*
D03*
X9275Y-1598D02*
D03*
X9085D02*
D03*
X5808Y535D02*
D03*
X7432Y-927D02*
D03*
Y-1118D02*
D03*
X8900Y-684D02*
D03*
Y-875D02*
D03*
X8710Y-545D02*
D03*
X8900D02*
D03*
X5808Y726D02*
D03*
X5398Y397D02*
D03*
X5208D02*
D03*
D51*
X6328Y461D02*
D03*
X5604Y632D02*
D03*
X7636Y-1024D02*
D03*
X8697Y-778D02*
D03*
D52*
X9178Y-1801D02*
D03*
X8807Y-342D02*
D03*
X5304Y601D02*
D03*
D53*
X8728Y-1892D02*
D03*
X8918D02*
D03*
D54*
X8822Y-1688D02*
D03*
D55*
Y-1998D02*
D03*
Y-1598D02*
D03*
D56*
X9605Y-545D02*
D03*
X9478D02*
D03*
X9732D02*
D03*
X9988D02*
D03*
X10115D02*
D03*
X10243D02*
D03*
D57*
X9860Y622D02*
D03*
D58*
X9928Y-1038D02*
D03*
Y-765D02*
D03*
D59*
X8528Y-1860D02*
D03*
Y-1630D02*
D03*
X8475Y-547D02*
D03*
Y-778D02*
D03*
D60*
X6955Y-768D02*
D03*
X5397Y265D02*
D03*
Y105D02*
D03*
X9115Y-870D02*
D03*
Y-710D02*
D03*
X6955Y-927D02*
D03*
D61*
X5208Y265D02*
D03*
Y105D02*
D03*
X7165Y-1212D02*
D03*
Y-1373D02*
D03*
X8112Y-1085D02*
D03*
Y-1245D02*
D03*
D62*
X6882Y-2238D02*
D03*
X7443Y-1858D02*
D03*
Y-1983D02*
D03*
Y-2112D02*
D03*
Y-2238D02*
D03*
X6882Y-2112D02*
D03*
Y-1983D02*
D03*
Y-1858D02*
D03*
X7690Y-1860D02*
D03*
Y-1985D02*
D03*
Y-2115D02*
D03*
X8250Y-2240D02*
D03*
Y-2115D02*
D03*
Y-1985D02*
D03*
Y-1860D02*
D03*
X7690Y-2240D02*
D03*
D63*
X9755Y-1312D02*
D03*
Y-693D02*
D03*
D64*
X5228Y-1135D02*
D03*
D65*
X9960Y-555D02*
D03*
D66*
X8753Y-5D02*
D03*
X8553D02*
D03*
X8353D02*
D03*
X8153D02*
D03*
X9753Y192D02*
D03*
X6747Y795D02*
D03*
X9150Y1002D02*
D03*
X8950D02*
D03*
X8750D02*
D03*
X8550D02*
D03*
X8350D02*
D03*
X8150D02*
D03*
X7950D02*
D03*
X7750D02*
D03*
X7550D02*
D03*
X7350D02*
D03*
X7150D02*
D03*
X6950D02*
D03*
X6750D02*
D03*
X10353Y-750D02*
D03*
X10153Y-747D02*
D03*
X9953D02*
D03*
X9753D02*
D03*
Y-550D02*
D03*
X10353Y-350D02*
D03*
Y-550D02*
D03*
X10153Y-350D02*
D03*
Y-553D02*
D03*
X9953Y-353D02*
D03*
Y-550D02*
D03*
X11753Y-125D02*
D03*
X11753Y-343D02*
D03*
Y-543D02*
D03*
Y-743D02*
D03*
X11553Y-125D02*
D03*
X11553Y-343D02*
D03*
Y-543D02*
D03*
Y-743D02*
D03*
X11353Y-125D02*
D03*
X11353Y-343D02*
D03*
Y-543D02*
D03*
Y-743D02*
D03*
X11153Y-125D02*
D03*
X10953Y-125D02*
D03*
X11693Y-1025D02*
D03*
Y-1225D02*
D03*
Y-1425D02*
D03*
Y-1605D02*
D03*
Y-1805D02*
D03*
X10753Y-125D02*
D03*
X11493Y-1025D02*
D03*
Y-1225D02*
D03*
Y-1425D02*
D03*
Y-1605D02*
D03*
Y-1805D02*
D03*
X10553Y-125D02*
D03*
X11293Y-1025D02*
D03*
Y-1225D02*
D03*
Y-1425D02*
D03*
Y-1605D02*
D03*
Y-1805D02*
D03*
Y-2005D02*
D03*
Y-2205D02*
D03*
X10353Y-125D02*
D03*
X11093Y-1025D02*
D03*
Y-1225D02*
D03*
Y-1425D02*
D03*
Y-1605D02*
D03*
Y-1805D02*
D03*
Y-2005D02*
D03*
Y-2205D02*
D03*
X10153Y-125D02*
D03*
X10893Y-1025D02*
D03*
Y-1225D02*
D03*
Y-1425D02*
D03*
Y-1605D02*
D03*
Y-1805D02*
D03*
Y-2005D02*
D03*
Y-2205D02*
D03*
X9953Y-125D02*
D03*
X10693Y-1025D02*
D03*
Y-1225D02*
D03*
Y-1605D02*
D03*
Y-1805D02*
D03*
Y-2005D02*
D03*
Y-2205D02*
D03*
X9753Y-125D02*
D03*
X9753Y-353D02*
D03*
X10493Y-1025D02*
D03*
Y-1225D02*
D03*
Y-1425D02*
D03*
Y-1605D02*
D03*
Y-1805D02*
D03*
Y-2005D02*
D03*
Y-2205D02*
D03*
X10293Y-1025D02*
D03*
Y-1225D02*
D03*
Y-1425D02*
D03*
Y-1605D02*
D03*
Y-1805D02*
D03*
Y-2005D02*
D03*
Y-2205D02*
D03*
X10093Y-1025D02*
D03*
Y-1225D02*
D03*
Y-1425D02*
D03*
Y-1605D02*
D03*
Y-1805D02*
D03*
Y-2005D02*
D03*
Y-2205D02*
D03*
X9893Y-1025D02*
D03*
Y-1225D02*
D03*
Y-1425D02*
D03*
Y-1605D02*
D03*
Y-1805D02*
D03*
Y-2005D02*
D03*
Y-2205D02*
D03*
X9693Y-1025D02*
D03*
Y-1225D02*
D03*
Y-1425D02*
D03*
Y-1605D02*
D03*
Y-1805D02*
D03*
Y-2005D02*
D03*
Y-2205D02*
D03*
X11753Y1775D02*
D03*
Y1575D02*
D03*
Y1375D02*
D03*
Y1175D02*
D03*
Y995D02*
D03*
Y795D02*
D03*
Y595D02*
D03*
Y395D02*
D03*
Y195D02*
D03*
X11553Y1775D02*
D03*
Y1575D02*
D03*
Y1375D02*
D03*
Y1175D02*
D03*
Y995D02*
D03*
Y795D02*
D03*
Y595D02*
D03*
Y395D02*
D03*
Y195D02*
D03*
X11353Y2175D02*
D03*
Y1975D02*
D03*
Y1775D02*
D03*
Y1575D02*
D03*
Y1375D02*
D03*
Y1175D02*
D03*
Y995D02*
D03*
Y795D02*
D03*
Y595D02*
D03*
Y395D02*
D03*
Y195D02*
D03*
X11153Y2175D02*
D03*
Y1975D02*
D03*
Y1775D02*
D03*
Y1575D02*
D03*
Y1375D02*
D03*
Y1175D02*
D03*
Y995D02*
D03*
Y795D02*
D03*
Y595D02*
D03*
Y395D02*
D03*
X10953Y2175D02*
D03*
Y1975D02*
D03*
Y1775D02*
D03*
Y1575D02*
D03*
Y1375D02*
D03*
Y1175D02*
D03*
X10953Y995D02*
D03*
Y795D02*
D03*
Y595D02*
D03*
Y395D02*
D03*
Y195D02*
D03*
X10753Y2175D02*
D03*
Y1975D02*
D03*
Y1775D02*
D03*
Y1575D02*
D03*
Y1375D02*
D03*
Y1175D02*
D03*
Y995D02*
D03*
Y795D02*
D03*
Y595D02*
D03*
Y395D02*
D03*
Y195D02*
D03*
X10553Y2175D02*
D03*
Y1975D02*
D03*
Y1775D02*
D03*
Y1575D02*
D03*
Y1175D02*
D03*
X10553Y995D02*
D03*
Y795D02*
D03*
Y595D02*
D03*
Y395D02*
D03*
Y195D02*
D03*
X10353Y2175D02*
D03*
Y1975D02*
D03*
Y1775D02*
D03*
Y1575D02*
D03*
Y1375D02*
D03*
Y1175D02*
D03*
Y995D02*
D03*
X10353Y795D02*
D03*
Y595D02*
D03*
Y395D02*
D03*
Y195D02*
D03*
X10153Y2175D02*
D03*
Y1975D02*
D03*
Y1775D02*
D03*
Y1575D02*
D03*
Y1375D02*
D03*
Y1175D02*
D03*
Y995D02*
D03*
Y795D02*
D03*
Y595D02*
D03*
Y395D02*
D03*
Y195D02*
D03*
X9953Y2175D02*
D03*
Y1975D02*
D03*
Y1775D02*
D03*
Y1575D02*
D03*
Y1375D02*
D03*
Y1175D02*
D03*
Y995D02*
D03*
X9953Y795D02*
D03*
Y595D02*
D03*
Y395D02*
D03*
Y195D02*
D03*
X9753Y2175D02*
D03*
Y1975D02*
D03*
Y1775D02*
D03*
Y1575D02*
D03*
Y1375D02*
D03*
Y1175D02*
D03*
Y995D02*
D03*
Y795D02*
D03*
Y595D02*
D03*
Y395D02*
D03*
X9553Y2175D02*
D03*
Y1975D02*
D03*
Y1775D02*
D03*
Y1575D02*
D03*
Y1375D02*
D03*
X9553Y1175D02*
D03*
X9553Y995D02*
D03*
Y795D02*
D03*
Y595D02*
D03*
Y395D02*
D03*
Y195D02*
D03*
X9353Y2175D02*
D03*
Y1975D02*
D03*
Y1775D02*
D03*
Y1575D02*
D03*
Y1375D02*
D03*
Y1175D02*
D03*
X9353Y995D02*
D03*
X9353Y795D02*
D03*
Y595D02*
D03*
Y395D02*
D03*
Y195D02*
D03*
X9153Y2175D02*
D03*
Y1975D02*
D03*
Y1775D02*
D03*
Y1575D02*
D03*
Y1375D02*
D03*
Y1175D02*
D03*
Y795D02*
D03*
Y595D02*
D03*
Y395D02*
D03*
Y195D02*
D03*
X8953Y2175D02*
D03*
Y1975D02*
D03*
Y1775D02*
D03*
Y1575D02*
D03*
Y1375D02*
D03*
Y1175D02*
D03*
Y795D02*
D03*
Y595D02*
D03*
Y395D02*
D03*
Y195D02*
D03*
X8753Y2175D02*
D03*
Y1975D02*
D03*
Y1775D02*
D03*
Y1575D02*
D03*
Y1375D02*
D03*
Y1175D02*
D03*
Y795D02*
D03*
Y595D02*
D03*
Y395D02*
D03*
Y195D02*
D03*
X8553Y2175D02*
D03*
Y1975D02*
D03*
Y1775D02*
D03*
Y1575D02*
D03*
Y1375D02*
D03*
Y1175D02*
D03*
Y795D02*
D03*
Y595D02*
D03*
Y395D02*
D03*
Y195D02*
D03*
X8353Y2175D02*
D03*
Y1975D02*
D03*
Y1775D02*
D03*
Y1575D02*
D03*
Y1375D02*
D03*
Y1175D02*
D03*
Y795D02*
D03*
Y595D02*
D03*
Y395D02*
D03*
Y195D02*
D03*
X8153Y2175D02*
D03*
Y1975D02*
D03*
Y1775D02*
D03*
Y1575D02*
D03*
Y1375D02*
D03*
Y1175D02*
D03*
Y795D02*
D03*
Y595D02*
D03*
Y395D02*
D03*
Y195D02*
D03*
X7953Y2175D02*
D03*
Y1975D02*
D03*
Y1775D02*
D03*
Y1575D02*
D03*
Y1375D02*
D03*
Y1175D02*
D03*
Y795D02*
D03*
Y595D02*
D03*
Y395D02*
D03*
Y195D02*
D03*
Y-5D02*
D03*
X7753Y2175D02*
D03*
Y1975D02*
D03*
Y1775D02*
D03*
Y1575D02*
D03*
Y1375D02*
D03*
Y1175D02*
D03*
Y795D02*
D03*
Y595D02*
D03*
Y395D02*
D03*
Y195D02*
D03*
Y-5D02*
D03*
X7553Y2175D02*
D03*
Y1975D02*
D03*
Y1775D02*
D03*
Y1575D02*
D03*
Y1375D02*
D03*
Y1175D02*
D03*
Y795D02*
D03*
Y595D02*
D03*
Y395D02*
D03*
Y195D02*
D03*
Y-5D02*
D03*
X7353Y2175D02*
D03*
Y1975D02*
D03*
Y1775D02*
D03*
Y1575D02*
D03*
Y1375D02*
D03*
Y1175D02*
D03*
Y795D02*
D03*
Y595D02*
D03*
Y395D02*
D03*
Y195D02*
D03*
Y-5D02*
D03*
X7153Y2175D02*
D03*
Y1975D02*
D03*
Y1775D02*
D03*
Y1575D02*
D03*
Y1375D02*
D03*
Y1175D02*
D03*
Y795D02*
D03*
Y595D02*
D03*
Y395D02*
D03*
Y195D02*
D03*
Y-5D02*
D03*
X6953Y2175D02*
D03*
Y1975D02*
D03*
Y1775D02*
D03*
Y1575D02*
D03*
Y1375D02*
D03*
Y1175D02*
D03*
Y795D02*
D03*
Y595D02*
D03*
Y395D02*
D03*
Y195D02*
D03*
Y-5D02*
D03*
X6753Y2175D02*
D03*
Y1975D02*
D03*
Y1775D02*
D03*
Y1575D02*
D03*
Y1375D02*
D03*
Y1175D02*
D03*
Y595D02*
D03*
Y395D02*
D03*
Y195D02*
D03*
X6553Y2175D02*
D03*
Y1975D02*
D03*
X6353Y2175D02*
D03*
Y1975D02*
D03*
X6153Y2175D02*
D03*
Y1975D02*
D03*
X5953Y2175D02*
D03*
Y1975D02*
D03*
X5753Y2175D02*
D03*
Y1975D02*
D03*
X5553Y2175D02*
D03*
Y1975D02*
D03*
X11153Y195D02*
D03*
X11153Y-343D02*
D03*
Y-743D02*
D03*
X10960Y-342D02*
D03*
X10953Y-543D02*
D03*
Y-743D02*
D03*
X11153Y-543D02*
D03*
X10753Y-350D02*
D03*
Y-750D02*
D03*
X10560Y-350D02*
D03*
X10553Y-550D02*
D03*
X10553Y-750D02*
D03*
X10753Y-550D02*
D03*
X8475Y-1018D02*
D03*
X8695D02*
D03*
X7830Y-1085D02*
D03*
Y-1642D02*
D03*
X7595Y-1210D02*
D03*
X9115Y-1018D02*
D03*
D67*
X4922Y1673D02*
D03*
X9180Y-2025D02*
D03*
X4920Y615D02*
D03*
Y265D02*
D03*
X4922Y962D02*
D03*
D68*
X5810Y-1635D02*
D03*
Y-1890D02*
D03*
D69*
Y-1385D02*
D03*
X4850Y2150D02*
D03*
Y-2150D02*
D03*
X11647Y2152D02*
D03*
X11650Y-2150D02*
D03*
D70*
X6030Y-1385D02*
D03*
Y-1830D02*
D03*
X6665Y-1385D02*
D03*
Y-1830D02*
D03*
X5585Y-1827D02*
D03*
Y-1382D02*
D03*
X4950Y-1827D02*
D03*
Y-1382D02*
D03*
D71*
X10700Y-1355D02*
D03*
D72*
X4978Y1293D02*
D03*
D73*
X4722D02*
D03*
D74*
X10585Y1330D02*
D03*
D75*
X4903Y-1060D02*
D03*
D76*
Y-805D02*
D03*
Y-555D02*
D03*
Y-300D02*
D03*
Y-45D02*
D03*
M02*
