%FSLAX42Y42*%
%MOMM*%
G71*
G01*
G75*
%ADD10C,0.45*%
%ADD11O,2.00X1.00*%
%ADD12R,1.50X1.25*%
%ADD13O,0.50X2.00*%
%ADD14R,0.80X0.95*%
%ADD15R,0.90X0.95*%
%ADD16R,0.91X0.91*%
%ADD17R,1.27X0.91*%
%ADD18R,0.91X1.27*%
%ADD19R,0.90X0.90*%
%ADD20R,0.90X1.25*%
%ADD21R,2.00X2.00*%
%ADD22R,0.90X3.20*%
%ADD23R,11.50X9.00*%
%ADD24R,6.35X1.52*%
%ADD25R,1.25X1.50*%
%ADD26R,0.95X0.80*%
%ADD27R,0.95X0.90*%
%ADD28O,2.00X0.60*%
%ADD29R,3.20X1.00*%
%ADD30R,0.50X2.00*%
%ADD31R,8.00X4.00*%
%ADD32C,0.50*%
%ADD33C,0.30*%
%ADD34C,1.20*%
%ADD35C,2.50*%
%ADD36C,1.40*%
%ADD37C,1.50*%
%ADD38C,1.80*%
%ADD39R,22.00X8.00*%
%ADD40R,1.75X1.75*%
%ADD41C,1.75*%
%ADD42R,25.00X8.00*%
%ADD43R,1.30X1.30*%
%ADD44C,1.30*%
%ADD45O,2.20X1.20*%
%ADD46R,1.70X1.45*%
%ADD47O,0.70X2.20*%
%ADD48R,1.00X1.15*%
%ADD49R,1.10X1.15*%
%ADD50R,1.12X1.12*%
%ADD51R,1.47X1.12*%
%ADD52R,1.12X1.47*%
%ADD53R,1.10X1.10*%
%ADD54R,1.10X1.45*%
%ADD55R,2.20X2.20*%
%ADD56R,1.10X3.40*%
%ADD57R,11.70X9.20*%
%ADD58R,6.55X1.73*%
%ADD59R,1.45X1.70*%
%ADD60R,1.15X1.00*%
%ADD61R,1.15X1.10*%
%ADD62O,2.20X0.80*%
%ADD63R,3.40X1.20*%
%ADD64R,0.70X2.20*%
%ADD65R,8.20X4.20*%
%ADD66C,1.40*%
%ADD67C,2.70*%
%ADD68C,1.60*%
%ADD69C,1.70*%
%ADD70C,2.00*%
%ADD71R,22.20X8.20*%
%ADD72R,1.95X1.95*%
%ADD73C,1.95*%
%ADD74R,25.20X8.20*%
%ADD75R,1.50X1.50*%
%ADD76C,1.50*%
D10*
X11818Y-2315D02*
Y-1043D01*
X11800Y-2315D02*
Y-1043D01*
X11760Y-2315D02*
Y-1043D01*
X11720Y-2315D02*
Y-1043D01*
X11680Y-2315D02*
Y-1043D01*
X11640Y-2315D02*
Y-1043D01*
X11600Y-2315D02*
Y-1043D01*
X11560Y-2315D02*
Y-1043D01*
X11520Y-2315D02*
Y-1043D01*
X11480Y-2315D02*
Y-1043D01*
X11440Y-2315D02*
Y-1043D01*
X11400Y-2315D02*
Y-1043D01*
X11360Y-2315D02*
Y-1043D01*
X11320Y-2315D02*
Y-1043D01*
X11280Y-2315D02*
Y-1043D01*
X11240Y-2315D02*
Y-1043D01*
X11200Y-2315D02*
Y-1043D01*
X11160Y-2315D02*
Y-1043D01*
X11120Y-2315D02*
Y-1043D01*
X11080Y-2315D02*
Y-1043D01*
X11040Y-2315D02*
Y-1043D01*
X11000Y-2315D02*
Y-1043D01*
X10960Y-2315D02*
Y-1043D01*
X10920Y-2315D02*
Y-1043D01*
X10880Y-2315D02*
Y-1043D01*
X10840Y-2315D02*
Y-1043D01*
X10800Y-2315D02*
Y-1043D01*
X10760Y-2315D02*
Y-1043D01*
X10720Y-2315D02*
Y-1043D01*
X10680Y-2315D02*
Y-1043D01*
X10640Y-2315D02*
Y-1043D01*
X10600Y-2315D02*
Y-1043D01*
X10560Y-2315D02*
Y-1043D01*
X10520Y-2315D02*
Y-1043D01*
X10480Y-2315D02*
Y-1043D01*
X10440Y-2315D02*
Y-1043D01*
X10400Y-2315D02*
Y-1043D01*
X10360Y-2315D02*
Y-1043D01*
X10320Y-2315D02*
Y-1043D01*
X10280Y-2315D02*
Y-1043D01*
X10240Y-2315D02*
Y-1043D01*
X10200Y-2315D02*
Y-1043D01*
X10160Y-2315D02*
Y-1043D01*
X10120Y-2315D02*
Y-1043D01*
X10080Y-2315D02*
Y-1043D01*
X10040Y-2315D02*
Y-1043D01*
X10000Y-2315D02*
Y-1043D01*
X9460D02*
X11818D01*
X9460Y-1080D02*
X11818D01*
X9460Y-1120D02*
X11818D01*
X9460Y-1160D02*
X11818D01*
X9460Y-1200D02*
X11818D01*
X9460Y-1240D02*
X11818D01*
X9460Y-1280D02*
X11818D01*
X9460Y-1320D02*
X11818D01*
X9460Y-1360D02*
X11818D01*
X9460Y-1400D02*
X11818D01*
X9460Y-1440D02*
X11818D01*
X9460Y-1480D02*
X11818D01*
X9460Y-1520D02*
X11818D01*
X9460Y-1560D02*
X11818D01*
X9460Y-1600D02*
X11818D01*
X9460Y-1640D02*
X11818D01*
X9460Y-1680D02*
X11818D01*
X9460Y-1720D02*
X11818D01*
X9460Y-1760D02*
X11818D01*
X9460Y-1800D02*
X11818D01*
X9460Y-1840D02*
X11818D01*
X9460Y-1880D02*
X11818D01*
X9460Y-1920D02*
X11818D01*
X9460Y-1960D02*
X11818D01*
X9960Y-2315D02*
Y-1043D01*
X9920Y-2315D02*
Y-1043D01*
X9880Y-2315D02*
Y-1043D01*
X9460Y-2000D02*
X11818D01*
X9460Y-2040D02*
X11818D01*
X9460Y-2080D02*
X11818D01*
X9460Y-2120D02*
X11818D01*
X9460Y-2160D02*
X11818D01*
X9460Y-2200D02*
X11818D01*
X9460Y-2240D02*
X11818D01*
X9460Y-2280D02*
X11818D01*
X9460Y-2315D02*
X11818D01*
X9840D02*
Y-1043D01*
X9800Y-2315D02*
Y-1043D01*
X9760Y-2315D02*
Y-1043D01*
X9720Y-2315D02*
Y-1043D01*
X9680Y-2315D02*
Y-1043D01*
X9640Y-2315D02*
Y-1043D01*
X9600Y-2315D02*
Y-1043D01*
X9560Y-2315D02*
Y-1043D01*
X9520Y-2315D02*
Y-1043D01*
X9480Y-2315D02*
Y-1043D01*
X9460Y-2315D02*
Y-1043D01*
X8900Y-2320D02*
Y-1250D01*
X8880Y-2320D02*
Y-1250D01*
X8055D02*
X8900D01*
X8840Y-2320D02*
Y-1250D01*
X8800Y-2320D02*
Y-1250D01*
X8760Y-2320D02*
Y-1250D01*
X8055Y-1280D02*
X8900D01*
X8720Y-2320D02*
Y-1250D01*
X8680Y-2320D02*
Y-1250D01*
X8640Y-2320D02*
Y-1250D01*
X8600Y-2320D02*
Y-1250D01*
X8560Y-2320D02*
Y-1250D01*
X8520Y-2320D02*
Y-1250D01*
X8480Y-2320D02*
Y-1250D01*
X8440Y-2320D02*
Y-1250D01*
X8400Y-2320D02*
Y-1250D01*
X8360Y-2320D02*
Y-1250D01*
X8320Y-2320D02*
Y-1250D01*
X8280Y-2320D02*
Y-1250D01*
X8055Y-2320D02*
X8900D01*
X8240D02*
Y-1250D01*
X8200Y-2320D02*
Y-1250D01*
X8160Y-2320D02*
Y-1250D01*
X8120Y-2320D02*
Y-1250D01*
X8080Y-2320D02*
Y-1250D01*
X8055Y-2320D02*
Y-1250D01*
Y-1320D02*
X8900D01*
X8055Y-1360D02*
X8900D01*
X8055Y-1400D02*
X8900D01*
X8055Y-1440D02*
X8900D01*
X8055Y-1480D02*
X8900D01*
X8055Y-1520D02*
X8900D01*
X8055Y-1560D02*
X8900D01*
X8055Y-1600D02*
X8900D01*
X8055Y-1640D02*
X8900D01*
X8055Y-1680D02*
X8900D01*
X8055Y-1720D02*
X8900D01*
X8055Y-1760D02*
X8900D01*
X8055Y-1800D02*
X8900D01*
X8055Y-1840D02*
X8900D01*
X8055Y-1880D02*
X8900D01*
X8055Y-1920D02*
X8900D01*
X8055Y-1960D02*
X8900D01*
X8055Y-2000D02*
X8900D01*
X8055Y-2040D02*
X8900D01*
X8055Y-2080D02*
X8900D01*
X8055Y-2120D02*
X8900D01*
X8055Y-2160D02*
X8900D01*
X8055Y-2200D02*
X8900D01*
X8055Y-2240D02*
X8900D01*
X8055Y-2280D02*
X8900D01*
X8798Y-2320D02*
Y-1825D01*
X8760Y-2320D02*
Y-1825D01*
X8720Y-2320D02*
Y-1825D01*
X8680Y-2320D02*
Y-1825D01*
X8640Y-2320D02*
Y-1825D01*
X8600Y-2320D02*
Y-1825D01*
X8560Y-2320D02*
Y-1825D01*
X8520Y-2320D02*
Y-1825D01*
X8480Y-2320D02*
Y-1825D01*
X8440Y-2320D02*
Y-1825D01*
X8400Y-2320D02*
Y-1825D01*
X8360Y-2320D02*
Y-1825D01*
X8320Y-2320D02*
Y-1825D01*
X8280Y-2320D02*
Y-1825D01*
X8240Y-2320D02*
Y-1825D01*
X8200Y-2320D02*
Y-1825D01*
X8160Y-2320D02*
Y-1825D01*
X8120Y-2320D02*
Y-1825D01*
X8080Y-2320D02*
Y-1825D01*
X8040Y-2320D02*
Y-1825D01*
X8000Y-2320D02*
Y-1825D01*
X7960Y-2320D02*
Y-1825D01*
X7920Y-2320D02*
Y-1825D01*
X7880Y-2320D02*
Y-1825D01*
X7840Y-2320D02*
Y-1825D01*
X7440D02*
X8798D01*
X7440Y-1840D02*
X8798D01*
X7440Y-1880D02*
X8798D01*
X7440Y-1920D02*
X8798D01*
X7440Y-1960D02*
X8798D01*
X7440Y-2000D02*
X8798D01*
X7440Y-2040D02*
X8798D01*
X7440Y-2080D02*
X8798D01*
X7440Y-2120D02*
X8798D01*
X7440Y-2160D02*
X8798D01*
X7440Y-2200D02*
X8798D01*
X7440Y-2240D02*
X8798D01*
X7800Y-2320D02*
Y-1825D01*
X7760Y-2320D02*
Y-1825D01*
X7720Y-2320D02*
Y-1825D01*
X7440Y-2280D02*
X8798D01*
X7680Y-2320D02*
Y-1825D01*
X7440Y-2320D02*
X8798D01*
X7640D02*
Y-1825D01*
X7600Y-2320D02*
Y-1825D01*
X7560Y-2320D02*
Y-1825D01*
X7520Y-2320D02*
Y-1825D01*
X7480Y-2320D02*
Y-1825D01*
X7440Y-2320D02*
Y-1825D01*
X6925Y-1022D02*
X7580D01*
X6925Y-1040D02*
X7580D01*
X6925Y-1080D02*
X7580D01*
X6925Y-1120D02*
X7580D01*
X6925Y-1160D02*
X7580D01*
X6925Y-1200D02*
X7580D01*
X6925Y-1240D02*
X7580D01*
Y-2323D02*
Y-1022D01*
X7560Y-2323D02*
Y-1022D01*
X7520Y-2323D02*
Y-1022D01*
X7480Y-2323D02*
Y-1022D01*
X7440Y-2323D02*
Y-1022D01*
X7400Y-2323D02*
Y-1022D01*
X6925Y-1280D02*
X7580D01*
X7360Y-2323D02*
Y-1022D01*
X7320Y-2323D02*
Y-1022D01*
X7280Y-2323D02*
Y-1022D01*
X7240Y-2323D02*
Y-1022D01*
X7200Y-2323D02*
Y-1022D01*
X7160Y-2323D02*
Y-1022D01*
X6925Y-2323D02*
X7580D01*
X7120D02*
Y-1022D01*
X7080Y-2323D02*
Y-1022D01*
X7040Y-2323D02*
Y-1022D01*
X7000Y-2323D02*
Y-1022D01*
X6960Y-2323D02*
Y-1022D01*
X6925Y-2323D02*
Y-1022D01*
Y-1320D02*
X7580D01*
X6925Y-1360D02*
X7580D01*
X6925Y-1400D02*
X7580D01*
X6925Y-1440D02*
X7580D01*
X6925Y-1480D02*
X7580D01*
X6925Y-1520D02*
X7580D01*
X6925Y-1560D02*
X7580D01*
X6925Y-1600D02*
X7580D01*
X6925Y-1640D02*
X7580D01*
X6925Y-1680D02*
X7580D01*
X6925Y-1720D02*
X7580D01*
X6925Y-1760D02*
X7580D01*
X6925Y-1800D02*
X7580D01*
X6925Y-1840D02*
X7580D01*
X6925Y-1880D02*
X7580D01*
X6925Y-1920D02*
X7580D01*
X6925Y-1960D02*
X7580D01*
X6925Y-2000D02*
X7580D01*
X6925Y-2040D02*
X7580D01*
X6925Y-2080D02*
X7580D01*
X6925Y-2120D02*
X7580D01*
X6925Y-2160D02*
X7580D01*
X6925Y-2200D02*
X7580D01*
X6925Y-2240D02*
X7580D01*
X6925Y-2280D02*
X7580D01*
X6925Y-2320D02*
X7580D01*
X11753Y-743D02*
Y-130D01*
X11720Y-743D02*
Y-130D01*
X11680Y-743D02*
Y-130D01*
X11640Y-743D02*
Y-130D01*
X11600Y-743D02*
Y-130D01*
X11560Y-743D02*
Y-130D01*
X11520Y-743D02*
Y-130D01*
X11480Y-743D02*
Y-130D01*
X11440Y-743D02*
Y-130D01*
X11400Y-743D02*
Y-130D01*
X11360Y-743D02*
Y-130D01*
X11320Y-743D02*
Y-130D01*
X11280Y-743D02*
Y-130D01*
X11240Y-743D02*
Y-130D01*
X11200Y-743D02*
Y-130D01*
X11160Y-743D02*
Y-130D01*
X11120Y-743D02*
Y-130D01*
X11080Y-743D02*
Y-130D01*
X11040Y-743D02*
Y-130D01*
X11000Y-743D02*
Y-130D01*
X10960Y-743D02*
Y-130D01*
X10920Y-743D02*
Y-130D01*
X10880Y-743D02*
Y-130D01*
X10840Y-743D02*
Y-130D01*
X10800Y-743D02*
Y-130D01*
X10760Y-743D02*
Y-130D01*
X10720Y-743D02*
Y-130D01*
X10680Y-743D02*
Y-130D01*
X10640Y-743D02*
Y-130D01*
X10600Y-743D02*
Y-130D01*
X10560Y-743D02*
Y-130D01*
X10520Y-743D02*
Y-130D01*
X10480Y-743D02*
Y-130D01*
X10440Y-743D02*
Y-130D01*
X10400Y-743D02*
Y-130D01*
X10360Y-743D02*
Y-130D01*
X10320Y-743D02*
Y-130D01*
X10280Y-743D02*
Y-130D01*
X10240Y-743D02*
Y-130D01*
X10200Y-743D02*
Y-130D01*
X10160Y-743D02*
Y-130D01*
X10120Y-743D02*
Y-130D01*
X9162D02*
X11753D01*
X9162Y-160D02*
X11753D01*
X9162Y-200D02*
X11753D01*
X9162Y-240D02*
X11753D01*
X9162Y-280D02*
X11753D01*
X9162Y-320D02*
X11753D01*
X9162Y-360D02*
X11753D01*
X9162Y-400D02*
X11753D01*
X9162Y-440D02*
X11753D01*
X9162Y-480D02*
X11753D01*
X9162Y-520D02*
X11753D01*
X10080Y-743D02*
Y-130D01*
X10040Y-743D02*
Y-130D01*
X10000Y-743D02*
Y-130D01*
X9960Y-743D02*
Y-130D01*
X9920Y-743D02*
Y-130D01*
X9162Y-560D02*
X11753D01*
X9162Y-600D02*
X11753D01*
X9162Y-640D02*
X11753D01*
X9162Y-680D02*
X11753D01*
X9162Y-720D02*
X11753D01*
X9880Y-743D02*
Y-130D01*
X9840Y-743D02*
Y-130D01*
X9800Y-743D02*
Y-130D01*
X9760Y-743D02*
Y-130D01*
X9720Y-743D02*
Y-130D01*
X9680Y-743D02*
Y-130D01*
X9640Y-743D02*
Y-130D01*
X9600Y-743D02*
Y-130D01*
X9560Y-743D02*
Y-130D01*
X9162Y-743D02*
X11753D01*
X9520D02*
Y-130D01*
X9480Y-743D02*
Y-130D01*
X9440Y-743D02*
Y-130D01*
X9400Y-743D02*
Y-130D01*
X9360Y-743D02*
Y-130D01*
X9320Y-743D02*
Y-130D01*
X9280Y-743D02*
Y-130D01*
X9240Y-743D02*
Y-130D01*
X9200Y-743D02*
Y-130D01*
X9162Y-743D02*
Y-130D01*
X8850Y-755D02*
Y488D01*
X8840Y-755D02*
Y488D01*
X8800Y-755D02*
Y488D01*
X8760Y-755D02*
Y488D01*
X8720Y-755D02*
Y488D01*
X8680Y-755D02*
Y488D01*
X8640Y-755D02*
Y488D01*
X8600Y-755D02*
Y488D01*
X8560Y-755D02*
Y488D01*
X8520Y-755D02*
Y488D01*
X8480Y-755D02*
Y488D01*
X8440Y-755D02*
Y488D01*
X8400Y-755D02*
Y488D01*
X8360Y-755D02*
Y488D01*
X8320Y-755D02*
Y488D01*
X8280Y-755D02*
Y488D01*
X8240Y-755D02*
Y488D01*
X8200Y-755D02*
Y488D01*
X8160Y-755D02*
Y488D01*
X8120Y-755D02*
Y488D01*
X8080Y-755D02*
Y488D01*
X8040Y-755D02*
Y488D01*
X8000Y-755D02*
Y488D01*
X7960Y-755D02*
Y488D01*
X7920Y-755D02*
Y488D01*
X7880Y-755D02*
Y488D01*
X7840Y-755D02*
Y488D01*
X7800Y-755D02*
Y488D01*
X7760Y-755D02*
Y488D01*
X7720Y-755D02*
Y488D01*
X7680Y-755D02*
Y488D01*
X7640Y-755D02*
Y488D01*
X7600Y-755D02*
Y488D01*
X7560Y-755D02*
Y488D01*
X7520Y-755D02*
Y488D01*
X7480Y-755D02*
Y488D01*
X7440Y-755D02*
Y488D01*
X7400Y-755D02*
Y488D01*
X7360Y-755D02*
Y488D01*
X7320Y-755D02*
Y488D01*
X7280Y-755D02*
Y488D01*
X7240Y-755D02*
Y488D01*
X7200Y-755D02*
Y488D01*
X7160Y-755D02*
Y488D01*
X7120Y-755D02*
Y488D01*
X7080Y-755D02*
Y488D01*
X7040Y-755D02*
Y488D01*
X7000Y-755D02*
Y488D01*
X6960Y-755D02*
Y488D01*
X6920Y-755D02*
Y488D01*
X6880Y-755D02*
Y488D01*
X6840Y-755D02*
Y488D01*
X6800Y-755D02*
Y488D01*
X6760Y-755D02*
Y488D01*
X6720Y-755D02*
Y488D01*
X6680Y-755D02*
Y488D01*
X6640Y-755D02*
Y488D01*
X6600Y-755D02*
Y488D01*
X6560Y-755D02*
Y488D01*
X6520Y-755D02*
Y488D01*
X6480Y-755D02*
Y488D01*
X6440Y-755D02*
Y488D01*
X5338D02*
X8850D01*
X5338Y480D02*
X8850D01*
X5338Y440D02*
X8850D01*
X5338Y400D02*
X8850D01*
X5338Y360D02*
X8850D01*
X5338Y320D02*
X8850D01*
X5338Y280D02*
X8850D01*
X5338Y240D02*
X8850D01*
X5338Y200D02*
X8850D01*
X5338Y160D02*
X8850D01*
X5338Y120D02*
X8850D01*
X5338Y80D02*
X8850D01*
X5338Y40D02*
X8850D01*
X5338Y-0D02*
X8850D01*
X5338Y-40D02*
X8850D01*
X5338Y-80D02*
X8850D01*
X5338Y-120D02*
X8850D01*
X5338Y-160D02*
X8850D01*
X5338Y-200D02*
X8850D01*
X5338Y-240D02*
X8850D01*
X5338Y-280D02*
X8850D01*
X5338Y-320D02*
X8850D01*
X5338Y-360D02*
X8850D01*
X5338Y-400D02*
X8850D01*
X5338Y-440D02*
X8850D01*
X5338Y-480D02*
X8850D01*
X5338Y-520D02*
X8850D01*
X5338Y-560D02*
X8850D01*
X5338Y-600D02*
X8850D01*
X5338Y-640D02*
X8850D01*
X5338Y-680D02*
X8850D01*
X6400Y-755D02*
Y488D01*
X6360Y-755D02*
Y488D01*
X6320Y-755D02*
Y488D01*
X6280Y-755D02*
Y488D01*
X6240Y-755D02*
Y488D01*
X6200Y-755D02*
Y488D01*
X6160Y-755D02*
Y488D01*
X6120Y-755D02*
Y488D01*
X6080Y-755D02*
Y488D01*
X6040Y-755D02*
Y488D01*
X6000Y-755D02*
Y488D01*
X5960Y-755D02*
Y488D01*
X5338Y-720D02*
X8850D01*
X5920Y-755D02*
Y488D01*
X5338Y-755D02*
X8850D01*
X5880D02*
Y488D01*
X5840Y-755D02*
Y488D01*
X5800Y-755D02*
Y488D01*
X5760Y-755D02*
Y488D01*
X5720Y-755D02*
Y488D01*
X5680Y-755D02*
Y488D01*
X5640Y-755D02*
Y488D01*
X5600Y-755D02*
Y488D01*
X5560Y-755D02*
Y488D01*
X5520Y-755D02*
Y488D01*
X5480Y-755D02*
Y488D01*
X5440Y-755D02*
Y488D01*
X5400Y-755D02*
Y488D01*
X5360Y-755D02*
Y488D01*
X5338Y-755D02*
Y488D01*
X11835Y148D02*
Y2330D01*
X11800Y148D02*
Y2330D01*
X11760Y148D02*
Y2330D01*
X11720Y148D02*
Y2330D01*
X11680Y148D02*
Y2330D01*
X11640Y148D02*
Y2330D01*
X11600Y148D02*
Y2330D01*
X11560Y148D02*
Y2330D01*
X11520Y148D02*
Y2330D01*
X11480Y148D02*
Y2330D01*
X11440Y148D02*
Y2330D01*
X11400Y148D02*
Y2330D01*
X11360Y148D02*
Y2330D01*
X11320Y148D02*
Y2330D01*
X11280Y148D02*
Y2330D01*
X11240Y148D02*
Y2330D01*
X11200Y148D02*
Y2330D01*
X11160Y148D02*
Y2330D01*
X11120Y148D02*
Y2330D01*
X11080Y148D02*
Y2330D01*
X11040Y148D02*
Y2330D01*
X11000Y148D02*
Y2330D01*
X10960Y148D02*
Y2330D01*
X10920Y148D02*
Y2330D01*
X10880Y148D02*
Y2330D01*
X10840Y148D02*
Y2330D01*
X10800Y148D02*
Y2330D01*
X10760Y148D02*
Y2330D01*
X10720Y148D02*
Y2330D01*
X10680Y148D02*
Y2330D01*
X10640Y148D02*
Y2330D01*
X10600Y148D02*
Y2330D01*
X10560Y148D02*
Y2330D01*
X10520Y148D02*
Y2330D01*
X10480Y148D02*
Y2330D01*
X10440Y148D02*
Y2330D01*
X10400Y148D02*
Y2330D01*
X10360Y148D02*
Y2330D01*
X10320Y148D02*
Y2330D01*
X10280Y148D02*
Y2330D01*
X10240Y148D02*
Y2330D01*
X10200Y148D02*
Y2330D01*
X10160Y148D02*
Y2330D01*
X10120Y148D02*
Y2330D01*
X10080Y148D02*
Y2330D01*
X10040Y148D02*
Y2330D01*
X10000Y148D02*
Y2330D01*
X9960Y148D02*
Y2330D01*
X9920Y148D02*
Y2330D01*
X9880Y148D02*
Y2330D01*
X9840Y148D02*
Y2330D01*
X9800Y148D02*
Y2330D01*
X9760Y148D02*
Y2330D01*
X9720Y148D02*
Y2330D01*
X9680Y148D02*
Y2330D01*
X9640Y148D02*
Y2330D01*
X9600Y148D02*
Y2330D01*
X9560Y148D02*
Y2330D01*
X9520Y148D02*
Y2330D01*
X9480Y148D02*
Y2330D01*
X9440Y148D02*
Y2330D01*
X9400Y148D02*
Y2330D01*
X9360Y148D02*
Y2330D01*
X9320Y148D02*
Y2330D01*
X9280Y148D02*
Y2330D01*
X9240Y148D02*
Y2330D01*
X9200Y148D02*
Y2330D01*
X9160Y148D02*
Y2330D01*
X9120Y148D02*
Y2330D01*
X9080Y148D02*
Y2330D01*
X9040Y148D02*
Y2330D01*
X9000Y148D02*
Y2330D01*
X8960Y148D02*
Y2330D01*
X8920Y148D02*
Y2330D01*
X8880Y148D02*
Y2330D01*
X8840Y148D02*
Y2330D01*
X8800Y148D02*
Y2330D01*
X8760Y148D02*
Y2330D01*
X8720Y148D02*
Y2330D01*
X8680Y148D02*
Y2330D01*
X8640Y148D02*
Y2330D01*
X8600Y148D02*
Y2330D01*
X8560Y148D02*
Y2330D01*
X8520Y148D02*
Y2330D01*
X8480Y148D02*
Y2330D01*
X8440Y148D02*
Y2330D01*
X8400Y148D02*
Y2330D01*
X8360Y148D02*
Y2330D01*
X8320Y148D02*
Y2330D01*
X8280Y148D02*
Y2330D01*
X8240Y148D02*
Y2330D01*
X8200Y148D02*
Y2330D01*
X8160Y148D02*
Y2330D01*
X8120Y148D02*
Y2330D01*
X8080Y148D02*
Y2330D01*
X8040Y148D02*
Y2330D01*
X8000Y148D02*
Y2330D01*
X7960Y148D02*
Y2330D01*
X7920Y148D02*
Y2330D01*
X7880Y148D02*
Y2330D01*
X7840Y148D02*
Y2330D01*
X7800Y148D02*
Y2330D01*
X7760Y148D02*
Y2330D01*
X7720Y148D02*
Y2330D01*
X7680Y148D02*
Y2330D01*
X7640Y148D02*
Y2330D01*
X7600Y148D02*
Y2330D01*
X7560Y148D02*
Y2330D01*
X7520Y148D02*
Y2330D01*
X7480Y148D02*
Y2330D01*
X7440Y148D02*
Y2330D01*
X5338D02*
X11835D01*
X5338Y2320D02*
X11835D01*
X5338Y2280D02*
X11835D01*
X5338Y2240D02*
X11835D01*
X5338Y2200D02*
X11835D01*
X5338Y2160D02*
X11835D01*
X5338Y2120D02*
X11835D01*
X5338Y2080D02*
X11835D01*
X5338Y2040D02*
X11835D01*
X5338Y2000D02*
X11835D01*
X5338Y1960D02*
X11835D01*
X5338Y1920D02*
X11835D01*
X5338Y1880D02*
X11835D01*
X5338Y1840D02*
X11835D01*
X5338Y1800D02*
X11835D01*
X5338Y1760D02*
X11835D01*
X5338Y1720D02*
X11835D01*
X5338Y1680D02*
X11835D01*
X5338Y1640D02*
X11835D01*
X5338Y1600D02*
X11835D01*
X5338Y1560D02*
X11835D01*
X5338Y1520D02*
X11835D01*
X5338Y1480D02*
X11835D01*
X5338Y1440D02*
X11835D01*
X5338Y1400D02*
X11835D01*
X5338Y1360D02*
X11835D01*
X5338Y1320D02*
X11835D01*
X5338Y1280D02*
X11835D01*
X5338Y1240D02*
X11835D01*
X5338Y1200D02*
X11835D01*
X5338Y1160D02*
X11835D01*
X5338Y1120D02*
X11835D01*
X5338Y1080D02*
X11835D01*
X5338Y1040D02*
X11835D01*
X5338Y1000D02*
X11835D01*
X5338Y960D02*
X11835D01*
X5338Y920D02*
X11835D01*
X5338Y880D02*
X11835D01*
X5338Y840D02*
X11835D01*
X5338Y800D02*
X11835D01*
X5338Y760D02*
X11835D01*
X5338Y720D02*
X11835D01*
X5338Y680D02*
X11835D01*
X5338Y640D02*
X11835D01*
X5338Y600D02*
X11835D01*
X5338Y560D02*
X11835D01*
X5338Y520D02*
X11835D01*
X5338Y480D02*
X11835D01*
X5338Y440D02*
X11835D01*
X5338Y400D02*
X11835D01*
X5338Y360D02*
X11835D01*
X5338Y320D02*
X11835D01*
X5338Y280D02*
X11835D01*
X5338Y240D02*
X11835D01*
X5338Y200D02*
X11835D01*
X7400Y148D02*
Y2330D01*
X7360Y148D02*
Y2330D01*
X7320Y148D02*
Y2330D01*
X7280Y148D02*
Y2330D01*
X7240Y148D02*
Y2330D01*
X7200Y148D02*
Y2330D01*
X7160Y148D02*
Y2330D01*
X7120Y148D02*
Y2330D01*
X7080Y148D02*
Y2330D01*
X7040Y148D02*
Y2330D01*
X7000Y148D02*
Y2330D01*
X6960Y148D02*
Y2330D01*
X6920Y148D02*
Y2330D01*
X6880Y148D02*
Y2330D01*
X6840Y148D02*
Y2330D01*
X6800Y148D02*
Y2330D01*
X6760Y148D02*
Y2330D01*
X6720Y148D02*
Y2330D01*
X6680Y148D02*
Y2330D01*
X6640Y148D02*
Y2330D01*
X6600Y148D02*
Y2330D01*
X6560Y148D02*
Y2330D01*
X5338Y160D02*
X11835D01*
X6520Y148D02*
Y2330D01*
X6480Y148D02*
Y2330D01*
X6440Y148D02*
Y2330D01*
X5338Y148D02*
X11835D01*
X6400D02*
Y2330D01*
X6360Y148D02*
Y2330D01*
X6320Y148D02*
Y2330D01*
X6280Y148D02*
Y2330D01*
X6240Y148D02*
Y2330D01*
X6200Y148D02*
Y2330D01*
X6160Y148D02*
Y2330D01*
X6120Y148D02*
Y2330D01*
X6080Y148D02*
Y2330D01*
X6040Y148D02*
Y2330D01*
X6000Y148D02*
Y2330D01*
X5960Y148D02*
Y2330D01*
X5920Y148D02*
Y2330D01*
X5880Y148D02*
Y2330D01*
X5840Y148D02*
Y2330D01*
X5800Y148D02*
Y2330D01*
X5760Y148D02*
Y2330D01*
X5720Y148D02*
Y2330D01*
X5680Y148D02*
Y2330D01*
X5640Y148D02*
Y2330D01*
X5600Y148D02*
Y2330D01*
X5560Y148D02*
Y2330D01*
X5520Y148D02*
Y2330D01*
X5480Y148D02*
Y2330D01*
X5440Y148D02*
Y2330D01*
X5400Y148D02*
Y2330D01*
X5360Y148D02*
Y2330D01*
X5338Y148D02*
Y2330D01*
D66*
X8753Y-5D02*
D03*
X8553D02*
D03*
X8353D02*
D03*
X8153D02*
D03*
X9753Y192D02*
D03*
X6747Y795D02*
D03*
X9150Y1002D02*
D03*
X8950D02*
D03*
X8750D02*
D03*
X8550D02*
D03*
X8350D02*
D03*
X8150D02*
D03*
X7950D02*
D03*
X7750D02*
D03*
X7550D02*
D03*
X7350D02*
D03*
X7150D02*
D03*
X6950D02*
D03*
X6750D02*
D03*
X10353Y-750D02*
D03*
X10153Y-747D02*
D03*
X9953D02*
D03*
X9753D02*
D03*
Y-550D02*
D03*
X10353Y-350D02*
D03*
Y-550D02*
D03*
X10153Y-350D02*
D03*
Y-553D02*
D03*
X9953Y-353D02*
D03*
Y-550D02*
D03*
X11753Y-125D02*
D03*
X11753Y-343D02*
D03*
Y-543D02*
D03*
Y-743D02*
D03*
X11553Y-125D02*
D03*
X11553Y-343D02*
D03*
Y-543D02*
D03*
Y-743D02*
D03*
X11353Y-125D02*
D03*
X11353Y-343D02*
D03*
Y-543D02*
D03*
Y-743D02*
D03*
X11153Y-125D02*
D03*
X10953Y-125D02*
D03*
X11693Y-1025D02*
D03*
Y-1225D02*
D03*
Y-1425D02*
D03*
Y-1605D02*
D03*
Y-1805D02*
D03*
X10753Y-125D02*
D03*
X11493Y-1025D02*
D03*
Y-1225D02*
D03*
Y-1425D02*
D03*
Y-1605D02*
D03*
Y-1805D02*
D03*
X10553Y-125D02*
D03*
X11293Y-1025D02*
D03*
Y-1225D02*
D03*
Y-1425D02*
D03*
Y-1605D02*
D03*
Y-1805D02*
D03*
Y-2005D02*
D03*
Y-2205D02*
D03*
X10353Y-125D02*
D03*
X11093Y-1025D02*
D03*
Y-1225D02*
D03*
Y-1425D02*
D03*
Y-1605D02*
D03*
Y-1805D02*
D03*
Y-2005D02*
D03*
Y-2205D02*
D03*
X10153Y-125D02*
D03*
X10893Y-1025D02*
D03*
Y-1225D02*
D03*
Y-1425D02*
D03*
Y-1605D02*
D03*
Y-1805D02*
D03*
Y-2005D02*
D03*
Y-2205D02*
D03*
X9953Y-125D02*
D03*
X10693Y-1025D02*
D03*
Y-1225D02*
D03*
Y-1605D02*
D03*
Y-1805D02*
D03*
Y-2005D02*
D03*
Y-2205D02*
D03*
X9753Y-125D02*
D03*
X9753Y-353D02*
D03*
X10493Y-1025D02*
D03*
Y-1225D02*
D03*
Y-1425D02*
D03*
Y-1605D02*
D03*
Y-1805D02*
D03*
Y-2005D02*
D03*
Y-2205D02*
D03*
X10293Y-1025D02*
D03*
Y-1225D02*
D03*
Y-1425D02*
D03*
Y-1605D02*
D03*
Y-1805D02*
D03*
Y-2005D02*
D03*
Y-2205D02*
D03*
X10093Y-1025D02*
D03*
Y-1225D02*
D03*
Y-1425D02*
D03*
Y-1605D02*
D03*
Y-1805D02*
D03*
Y-2005D02*
D03*
Y-2205D02*
D03*
X9893Y-1025D02*
D03*
Y-1225D02*
D03*
Y-1425D02*
D03*
Y-1605D02*
D03*
Y-1805D02*
D03*
Y-2005D02*
D03*
Y-2205D02*
D03*
X9693Y-1025D02*
D03*
Y-1225D02*
D03*
Y-1425D02*
D03*
Y-1605D02*
D03*
Y-1805D02*
D03*
Y-2005D02*
D03*
Y-2205D02*
D03*
X11753Y1775D02*
D03*
Y1575D02*
D03*
Y1375D02*
D03*
Y1175D02*
D03*
Y995D02*
D03*
Y795D02*
D03*
Y595D02*
D03*
Y395D02*
D03*
Y195D02*
D03*
X11553Y1775D02*
D03*
Y1575D02*
D03*
Y1375D02*
D03*
Y1175D02*
D03*
Y995D02*
D03*
Y795D02*
D03*
Y595D02*
D03*
Y395D02*
D03*
Y195D02*
D03*
X11353Y2175D02*
D03*
Y1975D02*
D03*
Y1775D02*
D03*
Y1575D02*
D03*
Y1375D02*
D03*
Y1175D02*
D03*
Y995D02*
D03*
Y795D02*
D03*
Y595D02*
D03*
Y395D02*
D03*
Y195D02*
D03*
X11153Y2175D02*
D03*
Y1975D02*
D03*
Y1775D02*
D03*
Y1575D02*
D03*
Y1375D02*
D03*
Y1175D02*
D03*
Y995D02*
D03*
Y795D02*
D03*
Y595D02*
D03*
Y395D02*
D03*
X10953Y2175D02*
D03*
Y1975D02*
D03*
Y1775D02*
D03*
Y1575D02*
D03*
Y1375D02*
D03*
Y1175D02*
D03*
X10953Y995D02*
D03*
Y795D02*
D03*
Y595D02*
D03*
Y395D02*
D03*
Y195D02*
D03*
X10753Y2175D02*
D03*
Y1975D02*
D03*
Y1775D02*
D03*
Y1575D02*
D03*
Y1375D02*
D03*
Y1175D02*
D03*
Y995D02*
D03*
Y795D02*
D03*
Y595D02*
D03*
Y395D02*
D03*
Y195D02*
D03*
X10553Y2175D02*
D03*
Y1975D02*
D03*
Y1775D02*
D03*
Y1575D02*
D03*
Y1175D02*
D03*
X10553Y995D02*
D03*
Y795D02*
D03*
Y595D02*
D03*
Y395D02*
D03*
Y195D02*
D03*
X10353Y2175D02*
D03*
Y1975D02*
D03*
Y1775D02*
D03*
Y1575D02*
D03*
Y1375D02*
D03*
Y1175D02*
D03*
Y995D02*
D03*
X10353Y795D02*
D03*
Y595D02*
D03*
Y395D02*
D03*
Y195D02*
D03*
X10153Y2175D02*
D03*
Y1975D02*
D03*
Y1775D02*
D03*
Y1575D02*
D03*
Y1375D02*
D03*
Y1175D02*
D03*
Y995D02*
D03*
Y795D02*
D03*
Y595D02*
D03*
Y395D02*
D03*
Y195D02*
D03*
X9953Y2175D02*
D03*
Y1975D02*
D03*
Y1775D02*
D03*
Y1575D02*
D03*
Y1375D02*
D03*
Y1175D02*
D03*
Y995D02*
D03*
X9953Y795D02*
D03*
Y595D02*
D03*
Y395D02*
D03*
Y195D02*
D03*
X9753Y2175D02*
D03*
Y1975D02*
D03*
Y1775D02*
D03*
Y1575D02*
D03*
Y1375D02*
D03*
Y1175D02*
D03*
Y995D02*
D03*
Y795D02*
D03*
Y595D02*
D03*
Y395D02*
D03*
X9553Y2175D02*
D03*
Y1975D02*
D03*
Y1775D02*
D03*
Y1575D02*
D03*
Y1375D02*
D03*
X9553Y1175D02*
D03*
X9553Y995D02*
D03*
Y795D02*
D03*
Y595D02*
D03*
Y395D02*
D03*
Y195D02*
D03*
X9353Y2175D02*
D03*
Y1975D02*
D03*
Y1775D02*
D03*
Y1575D02*
D03*
Y1375D02*
D03*
Y1175D02*
D03*
X9353Y995D02*
D03*
X9353Y795D02*
D03*
Y595D02*
D03*
Y395D02*
D03*
Y195D02*
D03*
X9153Y2175D02*
D03*
Y1975D02*
D03*
Y1775D02*
D03*
Y1575D02*
D03*
Y1375D02*
D03*
Y1175D02*
D03*
Y795D02*
D03*
Y595D02*
D03*
Y395D02*
D03*
Y195D02*
D03*
X8953Y2175D02*
D03*
Y1975D02*
D03*
Y1775D02*
D03*
Y1575D02*
D03*
Y1375D02*
D03*
Y1175D02*
D03*
Y795D02*
D03*
Y595D02*
D03*
Y395D02*
D03*
Y195D02*
D03*
X8753Y2175D02*
D03*
Y1975D02*
D03*
Y1775D02*
D03*
Y1575D02*
D03*
Y1375D02*
D03*
Y1175D02*
D03*
Y795D02*
D03*
Y595D02*
D03*
Y395D02*
D03*
Y195D02*
D03*
X8553Y2175D02*
D03*
Y1975D02*
D03*
Y1775D02*
D03*
Y1575D02*
D03*
Y1375D02*
D03*
Y1175D02*
D03*
Y795D02*
D03*
Y595D02*
D03*
Y395D02*
D03*
Y195D02*
D03*
X8353Y2175D02*
D03*
Y1975D02*
D03*
Y1775D02*
D03*
Y1575D02*
D03*
Y1375D02*
D03*
Y1175D02*
D03*
Y795D02*
D03*
Y595D02*
D03*
Y395D02*
D03*
Y195D02*
D03*
X8153Y2175D02*
D03*
Y1975D02*
D03*
Y1775D02*
D03*
Y1575D02*
D03*
Y1375D02*
D03*
Y1175D02*
D03*
Y795D02*
D03*
Y595D02*
D03*
Y395D02*
D03*
Y195D02*
D03*
X7953Y2175D02*
D03*
Y1975D02*
D03*
Y1775D02*
D03*
Y1575D02*
D03*
Y1375D02*
D03*
Y1175D02*
D03*
Y795D02*
D03*
Y595D02*
D03*
Y395D02*
D03*
Y195D02*
D03*
Y-5D02*
D03*
X7753Y2175D02*
D03*
Y1975D02*
D03*
Y1775D02*
D03*
Y1575D02*
D03*
Y1375D02*
D03*
Y1175D02*
D03*
Y795D02*
D03*
Y595D02*
D03*
Y395D02*
D03*
Y195D02*
D03*
Y-5D02*
D03*
X7553Y2175D02*
D03*
Y1975D02*
D03*
Y1775D02*
D03*
Y1575D02*
D03*
Y1375D02*
D03*
Y1175D02*
D03*
Y795D02*
D03*
Y595D02*
D03*
Y395D02*
D03*
Y195D02*
D03*
Y-5D02*
D03*
X7353Y2175D02*
D03*
Y1975D02*
D03*
Y1775D02*
D03*
Y1575D02*
D03*
Y1375D02*
D03*
Y1175D02*
D03*
Y795D02*
D03*
Y595D02*
D03*
Y395D02*
D03*
Y195D02*
D03*
Y-5D02*
D03*
X7153Y2175D02*
D03*
Y1975D02*
D03*
Y1775D02*
D03*
Y1575D02*
D03*
Y1375D02*
D03*
Y1175D02*
D03*
Y795D02*
D03*
Y595D02*
D03*
Y395D02*
D03*
Y195D02*
D03*
Y-5D02*
D03*
X6953Y2175D02*
D03*
Y1975D02*
D03*
Y1775D02*
D03*
Y1575D02*
D03*
Y1375D02*
D03*
Y1175D02*
D03*
Y795D02*
D03*
Y595D02*
D03*
Y395D02*
D03*
Y195D02*
D03*
Y-5D02*
D03*
X6753Y2175D02*
D03*
Y1975D02*
D03*
Y1775D02*
D03*
Y1575D02*
D03*
Y1375D02*
D03*
Y1175D02*
D03*
Y595D02*
D03*
Y395D02*
D03*
Y195D02*
D03*
X6553Y2175D02*
D03*
Y1975D02*
D03*
X6353Y2175D02*
D03*
Y1975D02*
D03*
X6153Y2175D02*
D03*
Y1975D02*
D03*
X5953Y2175D02*
D03*
Y1975D02*
D03*
X5753Y2175D02*
D03*
Y1975D02*
D03*
X5553Y2175D02*
D03*
Y1975D02*
D03*
X11153Y195D02*
D03*
X11153Y-343D02*
D03*
Y-743D02*
D03*
X10960Y-342D02*
D03*
X10953Y-543D02*
D03*
Y-743D02*
D03*
X11153Y-543D02*
D03*
X10753Y-350D02*
D03*
Y-750D02*
D03*
X10560Y-350D02*
D03*
X10553Y-550D02*
D03*
X10553Y-750D02*
D03*
X10753Y-550D02*
D03*
X8475Y-1018D02*
D03*
X8695D02*
D03*
X7830Y-1085D02*
D03*
Y-1642D02*
D03*
X7595Y-1210D02*
D03*
X9115Y-1018D02*
D03*
D67*
X4922Y1673D02*
D03*
X9180Y-2025D02*
D03*
X4920Y615D02*
D03*
Y265D02*
D03*
X4922Y962D02*
D03*
D68*
X5810Y-1635D02*
D03*
Y-1890D02*
D03*
D69*
Y-1385D02*
D03*
X4850Y2150D02*
D03*
Y-2150D02*
D03*
X11647Y2152D02*
D03*
X11650Y-2150D02*
D03*
D70*
X6030Y-1385D02*
D03*
Y-1830D02*
D03*
X6665Y-1385D02*
D03*
Y-1830D02*
D03*
X5585Y-1827D02*
D03*
Y-1382D02*
D03*
X4950Y-1827D02*
D03*
Y-1382D02*
D03*
D71*
X10700Y-1355D02*
D03*
D72*
X4978Y1293D02*
D03*
D73*
X4722D02*
D03*
D74*
X10585Y1330D02*
D03*
D75*
X4903Y-1060D02*
D03*
D76*
Y-805D02*
D03*
Y-555D02*
D03*
Y-300D02*
D03*
Y-45D02*
D03*
M02*
