METRIC,LZ
M48
T1F00S00C0.70
T2F00S00C0.80
T3F00S00C0.90
T4F00S00C1.00
T5F00S00C1.60
T6F00S00C3.00
%
T01
X007953Y-000005
Y000195
X008153
X008353
X008553
X008753
X008953
X009153
X009353
X009553
X009753Y000192
X009953Y000195
X010153
X010353
X010553
X010753
X010953
X011153
X011353Y000195
X011553
X011753
X011753Y-000125
X011553
X011353
X011153Y-000125
X010953Y-000125
X010753
X010553
X010353
X010153
X009953
X009753
X009753Y-000353
Y-00055
Y-000747
X009953
Y-00055
Y-000353
X010153Y-00035
X010353
Y-00055
Y-00075
X010553Y-00075
X010753
X010753Y-00055
X010553Y-00055
X01056Y-00035
X010753Y-00035
X01096Y-000342
X011153Y-000343
X011353
X011553
X011753
Y-000543
Y-000743
X011553
Y-000543
X011353
Y-000743
X011153
X010953
Y-000543
X011153Y-000543
X011093Y-001025
X011293
Y-001225
X011093
Y-001425
Y-001605
X011293
Y-001425
X011493
Y-001605
X011693
Y-001425
Y-001225
Y-001025
X011493
Y-001225
Y-001805
X011693
X011293
X011093
Y-002005
X011293
Y-002205
X011093
X010893
Y-002005
Y-001805
Y-001605
Y-001425
Y-001225
Y-001025
X010693
Y-001225
X0107Y-001355
X010693Y-001605
Y-001805
X010493
Y-001605
Y-001425
Y-001225
Y-001025
X010293
Y-001225
X010093
Y-001025
X009893
Y-001225
X009693
Y-001025
Y-001425
Y-001605
X009893
Y-001425
X010093
Y-001605
X010293
Y-001425
Y-001805
X010093
Y-002005
X010293
X010493
X010693
Y-002205
X010493
X010293
X010093
X009893
X009693
Y-002005
X009893
Y-001805
X009693
X009115Y-001018
X008695
X008475
X008553Y-000005
X008753
X008353
X008153
X010153Y-000553
Y-000747
X00783Y-001085
X007595Y-00121
X00783Y-001642
X007753Y-000005
Y000195
X007553
X007353
Y-000005
X007553
X007153
X006953
Y000195
X007153
X006753
Y000395
X006953
X007153
X007353
X007553
X007753
Y000595
Y000795
X007553
X007353
Y000595
X007553
X007153
X006953
Y000795
X007153
X00715Y001002
X007153Y001175
X006953
X00695Y001002
X00675
X006753Y001175
Y001375
Y001575
X006953
X007153
Y001375
X006953
X007353
X007553
Y001575
X007353
Y001775
X007553
Y001975
X007353
Y002175
X007553
X007753
Y001975
Y001775
Y001575
Y001375
Y001175
X00775Y001002
X00755
X007553Y001175
X007353
X00735Y001002
X006747Y000795
X006753Y000595
Y001775
Y001975
X006953
X007153
Y001775
X006953
Y002175
X007153
X006753
X006553
X006353
Y001975
X006553
X006153
X005953
Y002175
X006153
X005753
X005553
Y001975
X005753
X007953
Y001775
X008153
Y001975
X008353
X008553
Y001775
X008353
Y001575
X008553
Y001375
X008353
Y001175
X00835Y001002
X00855
X008553Y001175
X008753
X00875Y001002
X00895
X008953Y001175
X009153
X00915Y001002
X009153Y000795
X009353
X009353Y000995
X009353Y001175
Y001375
Y001575
X009153
Y001375
X008953
Y001575
X008753
Y001375
Y001775
X008953
Y001975
X008753
Y002175
X008953
X009153
X009353
X009553
X009753
X009953
X010153
X010353
X010553
X010753
X010953
X011153
X011353
Y001975
Y001775
X011153
Y001975
X010953
Y001775
X010753
Y001975
X010553
Y001775
Y001575
X010753
X010953
Y001375
X010753
Y001175
Y000995
X010553
X010553Y001175
X010585Y00133
X010353Y001375
Y001575
X010153
Y001375
Y001175
Y000995
X010353
Y001175
X010353Y000795
Y000595
X010553
X010753
Y000795
X010553
X010953
Y000595
X011153Y000595
X011353
X011553
X011753
Y000795
Y000995
Y001175
X011553
Y000995
Y000795
X011353
Y000995
Y001175
X011153
Y000995
Y000795
X010953Y000995
X010953Y001175
X011153Y001375
X011353
Y001575
X011153
X011553
X011753
Y001375
X011553
Y001775
X011753
Y000395
X011553
X011353
X011153
X010953Y000395
X010753
X010553
X010353
X010153
X009953
Y000595
X010153
Y000795
X009953
X009753
Y000595
Y000395
X009553Y000395
Y000595
Y000795
Y000995
X009553Y001175
X009753Y001175
Y000995
X009953
Y001175
Y001375
Y001575
X009753
Y001375
X009553
Y001575
Y001775
Y001975
X009753
X009953
Y001775
X009753
X010153
X010353
Y001975
X010153
X009353
Y001775
X009153
Y001975
X008553Y002175
X008353
X008153
X007953
Y001575
Y001375
X008153
Y001575
Y001175
X00815Y001002
X00795
X007953Y001175
Y000795
X008153
X008353
X008553
X008753
X008953
Y000595
X008753
Y000395
X008953
X009153
X009353
Y000595
X009153
X008553
X008353
Y000395
X008553
X008153
Y000595
X007953
Y000395
T02
X004903Y-000045
Y-0003
Y-000555
Y-000805
Y-00106
T03
X00581Y-001385
Y-001635
Y-00189
T04
X00495Y-001382
Y-001827
X005585
Y-001382
X00603Y-001385
Y-00183
X006665
Y-001385
X004978Y001293
X004722
T05
X00918Y-002025
X00492Y000265
Y000615
X004922Y000962
Y001673
T06
X01165Y-00215
X00485
Y00215
X011647Y002152
M30
