M48
;Layer_Color=9474304
;FILE_FORMAT=4:4
METRIC,LZ
;TYPE=PLATED
T1F00S00C0.7000
T2F00S00C0.8000
T3F00S00C0.9000
T4F00S00C1.0000
T5F00S00C1.6000
T6F00S00C3.0000
%
T01
X003525Y-00379
X003625Y-0031675
X003845
X004265
X0048425Y-003175
Y-003375
X0050425
Y-003175
X0052425
Y-003375
X0054425
Y-003175
X0056425
Y-003375
X0058425
X00585Y-003505
X0058425Y-003755
X0056425
Y-003575
X0054425
Y-003755
X0052425
Y-003575
X0050425
Y-003755
X0048425
Y-003575
Y-003955
X0050425
Y-004155
X0048425
Y-004355
X0050425
X0052425
X0054425
Y-004155
X0052425
Y-003955
X0054425
X0056425
X0058425
Y-004155
X0056425
Y-004355
X0058425
X0060425
Y-004155
Y-003955
Y-003755
Y-003575
Y-003375
Y-003175
X0058425
X00590253Y-00290002
X00570253
X00570253Y-00270001
X0059025Y-0027
X00590253Y-00250002
X00571Y-0025
X0055025
Y-0027
Y-0029
X0053025Y-0028975
Y-0027025
X0051025Y-0027
Y-0025025
X0049025
Y-0027
Y-0028975
X0051025
X0053025Y-0025
X00530253Y-00227503
X00510253
X00490253
X0049025Y-0019575
X0051025Y-001955
X0053025
X0055025
X0057025
X0059025
X0061025
X0063025
X0065025Y-001955
X0067025
X0069025
X00690253Y-00227503
X00670253
X00650253
X00630253Y-00227502
X00610253Y-00227503
X00590253
X00570253
X00550253
X00611Y-0024925
X00630253Y-00249251
X00650253
Y-00269251
Y-00289251
X00630253
X00610253
Y-00269251
X0063025Y-0026925
X00670253Y-00269251
Y-00289251
X00690253
Y-00269251
Y-00249251
X00670253
X0066425Y-003175
Y-003375
X0068425
Y-003175
X0064425
X0062425
Y-003375
X0064425
Y-003575
Y-003755
X0062425
Y-003575
Y-003955
X0064425
Y-004155
X0062425
Y-004355
X0064425
X0066425Y-003955
Y-003755
Y-003575
X0068425
Y-003755
Y-003955
X0047025Y-001955
X0045025
X0043025
X0041025
X0039025
X0037025
X0035025
X0033025
X0031025
Y-002155
X0033025
X0035025
X0037025
X0039025
X0029025
X0027025
X0025025
X0023025
X0021025
Y-001955
X0023025
X0025025
X0027025
X0029025
X0019025
X002745Y-00336
X00298Y-003235
Y-0037925
X00241Y-0037975
X0025025Y-001755
X0027025
Y-001555
X0025025
X0023025
X0021025
X0019025
Y-001755
X0021025
X0023025
Y-001355
X0021025
X0018975Y-001355
X0019Y-0011475
X0019025Y-000975
Y-000775
Y-000575
Y-000375
Y-000175
X0017025
X0015025
X0013025
X0011025
X0009025
X0007025
Y000025
X0009025
X0011025
X0013025
X0015025
X0017025
X0019025
X0021025
X0023025
Y-000175
X0021025
Y-000375
X0023025
Y-000575
X0021025
Y-000775
X0023025
Y-000975
X0023Y-0011475
X0021
X0021025Y-000975
X0025025
X0025Y-0011475
X0027
X0027025Y-000975
Y-000775
X0025025
Y-000575
X0027025
Y-000375
X0025025
Y-000175
X0027025
Y000025
X0025025
X0029025
Y-000175
Y-000375
Y-000575
Y-000775
Y-000975
X0029Y-0011475
X0029025Y-001355
X0027025
X0025025
X0029025Y-001555
Y-001755
X0031025
Y-001555
Y-001355
X0033025
Y-001555
Y-001755
X0035025
X0037025
Y-001555
X0035025
Y-001355
X0037025
X0039025
X0041025
Y-001555
X0039025
Y-001755
X0041025
X0043025
X0045025
Y-001555
X0043025
Y-001355
X0045025
X0045025Y-001155
X0045025Y-000975
X0043025
X0043Y-0011475
X0041
X0041025Y-000975
X0039025
X0039Y-0011475
X0037
X0037025Y-000975
X0035025
X0035Y-0011475
X0033
X0033025Y-000975
X0031025
X0031Y-0011475
X0031025Y-000775
Y-000575
Y-000375
Y-000175
Y000025
X0033025
Y-000175
Y-000375
Y-000575
Y-000775
X0035025
Y-000575
X0037025
Y-000775
X0039025
Y-000575
X0041025
Y-000775
X0043025
Y-000575
X0045025
Y-000775
X0047025
Y-000575
Y-000375
Y-000175
X0045025
X0043025
Y-000375
X0045025
X0041025
X0039025
Y-000175
X0041025
Y000025
X0039025
X0037025
X0035025
Y-000175
Y-000375
X0037025
Y-000175
X0043025Y000025
X0045025
X0047025
X0049025
X0051025
Y-000175
X0049025
Y-000375
X0051025
Y-000575
X0049025
Y-000775
X0051025
Y-000975
Y-001155
X0049025
Y-000975
X0047025Y-000975
X0047025Y-001155
Y-001355
Y-001555
Y-001755
X0049025Y-001755
Y-001555
Y-001355
X0051025
Y-001555
X0053025
Y-001355
X0055025
Y-001555
Y-001755
X0053025
X0051025
X0057025
X0059025
Y-001555
X0057025
Y-001355
X0059025
Y-001155
Y-000975
X0061025
X0061025Y-001155
Y-001355
Y-001555
Y-001755
X0063025Y-001755
X0065025
Y-001555
X0063025
Y-001355
Y-001155
Y-000975
X0065025
Y-001155
Y-001355
X0067025
Y-001155
Y-000975
X0069025
Y-001155
Y-001355
Y-001555
X0067025
Y-001755
X0069025
Y-000775
X0067025
Y-000575
X0069025
Y-000375
X0067025
X0065025
X0063025
Y-000175
X0065025
Y000025
X0063025
X0061025
X0059025
X0057025
X0055025
X0053025
Y-000175
Y-000375
X0055025
Y-000175
X0057025
Y-000375
Y-000575
X0055025
X0053025
Y-000775
X0055025
Y-000975
Y-001155
X0053025
Y-000975
X0057025
X0057025Y-001155
X005735Y-00082
X0059025Y-000775
Y-000575
X0061025
Y-000775
X0063025
Y-000575
X0065025
Y-000775
X0061025Y-000375
X0059025
Y-000175
X0061025
T02
X0000525Y-00321
Y-002955
Y-002705
Y-00245
Y-002195
T03
X00096Y-00404
Y-003785
Y-003535
T04
X0001Y-0039775
Y-0035325
X000735Y-0035325
Y-0039775
X00118Y-00398
Y-003535
X001815
Y-00398
X0001275Y-0008575
X-0001275
T05
X00433Y-004175
X00007Y-001885
Y-001535
X0000725Y-0011875
Y-0004775
T06
X0068Y-0043
X0
Y0
X0067975Y0000025
M30
