%FSLAX42Y42*%
%MOMM*%
G71*
G01*
G75*
%ADD10C,0.45*%
%ADD11R,0.95X0.80*%
%ADD12R,0.80X0.95*%
%ADD13O,2.00X0.50*%
%ADD14R,1.52X1.27*%
%ADD15R,2.00X0.50*%
%ADD16O,0.50X2.00*%
%ADD17R,1.50X1.25*%
%ADD18R,2.54X1.52*%
%ADD19R,1.25X1.50*%
%ADD20R,1.27X0.91*%
%ADD21R,0.91X0.91*%
%ADD22R,0.95X0.90*%
%ADD23R,0.90X0.95*%
%ADD24R,0.50X2.00*%
%ADD25R,2.30X1.90*%
%ADD26R,1.90X2.30*%
%ADD27R,3.20X0.90*%
%ADD28R,9.00X11.50*%
%ADD29C,0.50*%
%ADD30C,0.75*%
%ADD31C,1.90*%
%ADD32C,0.65*%
%ADD33C,1.20*%
%ADD34C,2.15*%
%ADD35R,3.02X1.68*%
%ADD36R,1.90X1.90*%
%ADD37C,3.00*%
%ADD38O,3.00X1.80*%
%ADD39R,16.00X8.00*%
%ADD40R,5.50X9.00*%
%ADD41C,1.90*%
%ADD42R,5.00X5.00*%
%ADD43O,2.00X1.45*%
%ADD44C,1.75*%
%ADD45R,1.75X1.75*%
%ADD46C,1.50*%
%ADD47R,1.75X1.45*%
%ADD48O,1.75X1.45*%
%ADD49R,2.00X1.45*%
%ADD50C,2.00*%
%ADD51R,1.50X1.50*%
%ADD52C,1.20*%
%ADD53R,10.00X3.50*%
%ADD54R,1.15X1.00*%
%ADD55R,1.00X1.15*%
%ADD56O,2.20X0.70*%
%ADD57R,1.73X1.47*%
%ADD58R,2.20X0.70*%
%ADD59O,0.70X2.20*%
%ADD60R,1.70X1.45*%
%ADD61R,2.74X1.73*%
%ADD62R,1.45X1.70*%
%ADD63R,1.47X1.12*%
%ADD64R,1.12X1.12*%
%ADD65R,1.15X1.10*%
%ADD66R,1.10X1.15*%
%ADD67R,0.70X2.20*%
%ADD68R,2.50X2.10*%
%ADD69R,2.10X2.50*%
%ADD70R,3.40X1.10*%
%ADD71R,9.20X11.70*%
%ADD72R,2.10X2.10*%
%ADD73C,3.20*%
%ADD74O,3.20X2.00*%
%ADD75R,16.20X8.20*%
%ADD76R,5.70X9.20*%
%ADD77C,2.10*%
%ADD78R,5.20X5.20*%
%ADD79O,2.20X1.65*%
%ADD80C,1.95*%
%ADD81R,1.95X1.95*%
%ADD82C,1.70*%
%ADD83R,1.95X1.65*%
%ADD84O,1.95X1.65*%
%ADD85R,2.20X1.65*%
%ADD86C,2.20*%
%ADD87R,1.70X1.70*%
%ADD88C,1.40*%
%ADD89R,10.20X3.70*%
D70*
X9532Y-80D02*
D03*
X8065Y-1227D02*
D03*
Y-1992D02*
D03*
Y-1865D02*
D03*
Y-1738D02*
D03*
Y-1482D02*
D03*
Y-1355D02*
D03*
X8718Y852D02*
D03*
X8718Y342D02*
D03*
X8718Y342D02*
D03*
Y215D02*
D03*
Y470D02*
D03*
Y725D02*
D03*
Y852D02*
D03*
Y980D02*
D03*
X9532Y-208D02*
D03*
Y-335D02*
D03*
X9532Y-590D02*
D03*
Y-718D02*
D03*
Y-845D02*
D03*
D71*
X6897Y-1610D02*
D03*
X9885Y597D02*
D03*
X9885Y597D02*
D03*
X8365Y-462D02*
D03*
D72*
X9117Y-80D02*
D03*
X8862Y-1227D02*
D03*
X9145Y568D02*
D03*
D73*
X4175Y1780D02*
D03*
Y1385D02*
D03*
Y988D02*
D03*
Y593D02*
D03*
Y-1785D02*
D03*
Y-595D02*
D03*
Y-200D02*
D03*
Y195D02*
D03*
Y-993D02*
D03*
Y-1388D02*
D03*
D74*
Y-2180D02*
D03*
Y2175D02*
D03*
D75*
X11165Y1652D02*
D03*
Y-1648D02*
D03*
Y-547D02*
D03*
Y553D02*
D03*
D76*
X10015Y-1700D02*
D03*
Y-700D02*
D03*
D77*
X8862Y-1735D02*
D03*
Y-1481D02*
D03*
X9145Y822D02*
D03*
Y1076D02*
D03*
X9117Y-334D02*
D03*
Y-588D02*
D03*
X5000Y-1440D02*
D03*
D78*
X10160Y1502D02*
D03*
X8160D02*
D03*
D79*
X4790Y738D02*
D03*
Y993D02*
D03*
Y482D02*
D03*
Y233D02*
D03*
D80*
X5597Y-1788D02*
D03*
X5592Y-1388D02*
D03*
X5800Y-1588D02*
D03*
X5272Y-1692D02*
D03*
X4755Y-1690D02*
D03*
D81*
X5272Y-1438D02*
D03*
X4692Y-1125D02*
D03*
X4500Y-1690D02*
D03*
D82*
X6120Y-1498D02*
D03*
Y-1838D02*
D03*
X5612Y-993D02*
D03*
X5272D02*
D03*
X4503Y-1462D02*
D03*
X4753D02*
D03*
X7715Y-1390D02*
D03*
Y-1200D02*
D03*
D83*
X4692Y1652D02*
D03*
D84*
Y1908D02*
D03*
D85*
X4790Y-22D02*
D03*
D86*
X4692Y-870D02*
D03*
D87*
X7715Y-1010D02*
D03*
D88*
X10720Y-8D02*
D03*
X10520D02*
D03*
X10720Y973D02*
D03*
Y772D02*
D03*
Y572D02*
D03*
X10520Y772D02*
D03*
Y572D02*
D03*
X10720Y372D02*
D03*
Y173D02*
D03*
X10520Y372D02*
D03*
Y173D02*
D03*
Y973D02*
D03*
X10720Y-208D02*
D03*
Y-407D02*
D03*
X10520Y-208D02*
D03*
Y-407D02*
D03*
X10720Y-607D02*
D03*
Y-807D02*
D03*
X10520Y-607D02*
D03*
Y-807D02*
D03*
Y973D02*
D03*
Y772D02*
D03*
Y572D02*
D03*
X10320Y772D02*
D03*
Y572D02*
D03*
X10520Y372D02*
D03*
Y173D02*
D03*
X10320Y372D02*
D03*
Y173D02*
D03*
Y973D02*
D03*
X8572Y1920D02*
D03*
X8372D02*
D03*
X8172D02*
D03*
X8372Y2120D02*
D03*
X8172D02*
D03*
X7972Y1920D02*
D03*
Y2120D02*
D03*
X8572D02*
D03*
X10340Y1920D02*
D03*
X10140D02*
D03*
X9940D02*
D03*
X10140Y2120D02*
D03*
X9940D02*
D03*
X9740Y1920D02*
D03*
X9540D02*
D03*
X9740Y2120D02*
D03*
X9540D02*
D03*
X10340D02*
D03*
X9372Y1920D02*
D03*
X9172D02*
D03*
X8972D02*
D03*
X9172Y2120D02*
D03*
X8972D02*
D03*
X8772Y1920D02*
D03*
X8572D02*
D03*
X8772Y2120D02*
D03*
X8572D02*
D03*
X9372D02*
D03*
X9375Y1520D02*
D03*
X9175D02*
D03*
X8975D02*
D03*
X9175Y1720D02*
D03*
X8975D02*
D03*
X8775Y1520D02*
D03*
X8575D02*
D03*
X8775Y1720D02*
D03*
X8575D02*
D03*
X9375D02*
D03*
X7793Y2120D02*
D03*
Y1920D02*
D03*
Y1720D02*
D03*
X7593Y1920D02*
D03*
Y1720D02*
D03*
X7793Y1520D02*
D03*
Y1320D02*
D03*
X7593Y1520D02*
D03*
Y1320D02*
D03*
Y2120D02*
D03*
X10703Y2120D02*
D03*
Y1920D02*
D03*
Y1720D02*
D03*
X10503Y1920D02*
D03*
Y1720D02*
D03*
X10703Y1520D02*
D03*
Y1320D02*
D03*
X10503Y1520D02*
D03*
Y1320D02*
D03*
Y2120D02*
D03*
X7710Y-2002D02*
D03*
X6325Y-1975D02*
D03*
X7500Y-1835D02*
D03*
X8297Y-1227D02*
D03*
X7715Y-745D02*
D03*
X6325Y-1733D02*
D03*
X4628Y-603D02*
D03*
X7715Y-1562D02*
D03*
X9145Y215D02*
D03*
X8240Y272D02*
D03*
X8440D02*
D03*
X8240Y940D02*
D03*
Y778D02*
D03*
X8440Y938D02*
D03*
Y778D02*
D03*
X9630Y-1065D02*
D03*
Y-865D02*
D03*
Y-665D02*
D03*
X9630Y-465D02*
D03*
X9630Y-265D02*
D03*
X9430D02*
D03*
Y-465D02*
D03*
Y-665D02*
D03*
Y-865D02*
D03*
Y-1065D02*
D03*
X9520Y167D02*
D03*
Y367D02*
D03*
X9520Y568D02*
D03*
X9520Y768D02*
D03*
X9520Y968D02*
D03*
X9720Y968D02*
D03*
X9920D02*
D03*
X10120Y968D02*
D03*
X10120Y768D02*
D03*
X9720D02*
D03*
X9920D02*
D03*
X9720Y568D02*
D03*
X9920Y568D02*
D03*
X10120Y568D02*
D03*
X10120Y368D02*
D03*
X9920Y367D02*
D03*
X9720D02*
D03*
X9720Y167D02*
D03*
X9920D02*
D03*
X10120Y168D02*
D03*
X7372Y857D02*
D03*
X9140Y-1840D02*
D03*
Y-1640D02*
D03*
Y-1440D02*
D03*
Y-1240D02*
D03*
X9200Y-868D02*
D03*
Y-1065D02*
D03*
X9540Y-1840D02*
D03*
Y-1640D02*
D03*
Y-1440D02*
D03*
Y-1240D02*
D03*
X9340D02*
D03*
Y-1440D02*
D03*
Y-1640D02*
D03*
Y-1840D02*
D03*
X8240Y412D02*
D03*
X8440D02*
D03*
X4385Y-8D02*
D03*
X4912Y1138D02*
D03*
X5978Y-920D02*
D03*
X4480Y1362D02*
D03*
X4628Y1360D02*
D03*
X4520Y455D02*
D03*
X4600Y340D02*
D03*
X4897Y-800D02*
D03*
X4495Y-1960D02*
D03*
X4700D02*
D03*
X4897D02*
D03*
X5092D02*
D03*
X5297D02*
D03*
X6217Y-2120D02*
D03*
X6022D02*
D03*
X5458Y-1560D02*
D03*
X4480Y-1290D02*
D03*
X4650Y-1320D02*
D03*
X4920Y360D02*
D03*
X4440Y342D02*
D03*
X4503Y2040D02*
D03*
X4800Y2080D02*
D03*
X5520Y1837D02*
D03*
X10672Y-1327D02*
D03*
Y-1527D02*
D03*
Y-1727D02*
D03*
Y-1927D02*
D03*
Y-2127D02*
D03*
X10472D02*
D03*
Y-1927D02*
D03*
Y-1727D02*
D03*
Y-1527D02*
D03*
Y-1327D02*
D03*
X9825Y-2080D02*
D03*
D89*
X4897Y-2000D02*
D03*
Y2000D02*
D03*
M02*
