%FSLAX42Y42*%
%MOMM*%
G71*
G01*
G75*
G04 Layer_Physical_Order=2*
%ADD10C,0.45*%
%ADD11R,0.95X0.80*%
%ADD12R,0.80X0.95*%
%ADD13O,2.00X0.50*%
%ADD14R,1.52X1.27*%
%ADD15R,2.00X0.50*%
%ADD16O,0.50X2.00*%
%ADD17R,1.50X1.25*%
%ADD18R,2.54X1.52*%
%ADD19R,1.25X1.50*%
%ADD20R,1.27X0.91*%
%ADD21R,0.91X0.91*%
%ADD22R,0.95X0.90*%
%ADD23R,0.90X0.95*%
%ADD24R,0.50X2.00*%
%ADD25R,2.30X1.90*%
%ADD26R,1.90X2.30*%
%ADD27R,3.20X0.90*%
%ADD28R,9.00X11.50*%
%ADD29C,0.50*%
%ADD30C,0.75*%
%ADD31C,1.90*%
%ADD32C,0.65*%
%ADD33C,1.20*%
%ADD34C,2.15*%
%ADD35R,3.02X1.68*%
%ADD36R,1.90X1.90*%
%ADD37C,3.00*%
%ADD38O,3.00X1.80*%
%ADD39R,16.00X8.00*%
%ADD40R,5.50X9.00*%
%ADD41C,1.90*%
%ADD42R,5.00X5.00*%
%ADD43O,2.00X1.45*%
%ADD44C,1.75*%
%ADD45R,1.75X1.75*%
%ADD46C,1.50*%
%ADD47R,1.75X1.45*%
%ADD48O,1.75X1.45*%
%ADD49R,2.00X1.45*%
%ADD50C,2.00*%
%ADD51R,1.50X1.50*%
%ADD52C,1.20*%
%ADD53R,10.00X3.50*%
D10*
X8257Y-1332D02*
G03*
X8335Y-1334I40J105D01*
G01*
X4628Y-1437D02*
G03*
X4408Y-1377I-125J-25D01*
G01*
X4860Y-1394D02*
G03*
X4628Y-1437I-107J-69D01*
G01*
X4845Y-870D02*
G03*
X4592Y-985I-152J0D01*
G01*
X4553Y-519D02*
G03*
X4740Y-603I75J-84D01*
G01*
X4574Y123D02*
G03*
X4553Y70I53J-53D01*
G01*
X4574Y123D02*
G03*
X4553Y70I53J-53D01*
G01*
X4762Y358D02*
G03*
X4644Y193I0J-125D01*
G01*
X4762Y607D02*
G03*
X4762Y358I0J-125D01*
G01*
Y862D02*
G03*
X4762Y612I0J-125D01*
G01*
Y1118D02*
G03*
X4762Y868I0J-125D01*
G01*
X4740Y-603D02*
G03*
X4703Y-519I-112J0D01*
G01*
X4793Y-985D02*
G03*
X4845Y-870I-100J115D01*
G01*
X4960Y-1298D02*
G03*
X4860Y-1394I40J-142D01*
G01*
X4817Y108D02*
G03*
X4942Y233I0J125D01*
G01*
G03*
X4817Y358I-125J0D01*
G01*
G03*
X4942Y482I0J125D01*
G01*
G03*
X4817Y607I-125J0D01*
G01*
Y612D02*
G03*
X4942Y738I0J125D01*
G01*
G03*
X4817Y862I-125J0D01*
G01*
Y868D02*
G03*
X4942Y993I0J125D01*
G01*
G03*
X4817Y1118I-125J0D01*
G01*
X4683Y-1570D02*
G03*
X4640Y-1610I72J-120D01*
G01*
X4868Y-1773D02*
G03*
X4895Y-1690I-113J83D01*
G01*
G03*
X4824Y-1568I-140J0D01*
G01*
X4595Y-1550D02*
G03*
X4628Y-1488I-93J88D01*
G01*
Y-1437D02*
G03*
X4408Y-1377I-125J-25D01*
G01*
X4824Y-1568D02*
G03*
X4871Y-1511I-71J106D01*
G01*
X4628Y-1488D02*
G03*
X4683Y-1570I125J25D01*
G01*
X4871Y-1511D02*
G03*
X5133Y-1505I129J71D01*
G01*
X4860Y-1394D02*
G03*
X4628Y-1437I-107J-69D01*
G01*
X5193Y-1577D02*
G03*
X5158Y-1773I80J-115D01*
G01*
X5387D02*
G03*
X5412Y-1692I-115J80D01*
G01*
G03*
X5352Y-1577I-140J0D01*
G01*
X5133Y-1375D02*
G03*
X4860Y-1394I-133J-65D01*
G01*
X5462Y-1337D02*
G03*
X5462Y-1438I56J-50D01*
G01*
X4540Y-862D02*
G03*
X4592Y-985I152J-8D01*
G01*
X4793D02*
G03*
X4845Y-870I-100J115D01*
G01*
X5400Y-993D02*
G03*
X5400Y-993I-127J0D01*
G01*
X5885Y-1915D02*
G03*
X5907Y-1968I75J0D01*
G01*
X5967Y-2028D02*
G03*
X6020Y-2050I53J53D01*
G01*
X5885Y-1915D02*
G03*
X5907Y-1968I75J0D01*
G01*
X5738Y-1788D02*
G03*
X5738Y-1788I-140J0D01*
G01*
X5737Y-1462D02*
G03*
X5885Y-1699I63J-125D01*
G01*
X5967Y-2028D02*
G03*
X6020Y-2050I53J53D01*
G01*
X6241D02*
G03*
X6362Y-2081I84J75D01*
G01*
X6247Y-1838D02*
G03*
X6035Y-1742I-127J0D01*
G01*
X6231Y-1900D02*
G03*
X6247Y-1838I-111J62D01*
G01*
X6362Y-1869D02*
G03*
X6241Y-1900I-38J-106D01*
G01*
X5462Y-1438D02*
G03*
X5711Y-1462I131J50D01*
G01*
Y-1312D02*
G03*
X5462Y-1337I-118J-75D01*
G01*
X5740Y-993D02*
G03*
X5740Y-993I-127J0D01*
G01*
X6035Y-1593D02*
G03*
X6247Y-1498I85J95D01*
G01*
X6021Y-1417D02*
G03*
X6013Y-1408I-61J-44D01*
G01*
X6021Y-1417D02*
G03*
X6013Y-1408I-61J-44D01*
G01*
X6247Y-1498D02*
G03*
X6021Y-1417I-127J0D01*
G01*
X5939Y-1334D02*
G03*
X5886Y-1312I-53J-53D01*
G01*
X5939Y-1334D02*
G03*
X5886Y-1312I-53J-53D01*
G01*
X9218Y1075D02*
Y1550D01*
X9200Y1075D02*
Y1550D01*
X9160Y1075D02*
Y1550D01*
X9120Y1075D02*
Y1550D01*
X9080Y1075D02*
Y1550D01*
X9040Y1075D02*
Y1550D01*
X9000Y1075D02*
Y1550D01*
X8960Y1075D02*
Y1550D01*
X8920Y1075D02*
Y1550D01*
X8880Y1075D02*
Y1550D01*
X8840Y1075D02*
Y1550D01*
X8800Y1075D02*
Y1550D01*
X8760Y1075D02*
Y1550D01*
X8720Y1075D02*
Y1550D01*
X8680Y1075D02*
Y1550D01*
X8640Y1075D02*
Y1550D01*
X8600Y1075D02*
Y1550D01*
X8560Y1075D02*
Y1550D01*
X8520Y1075D02*
Y1550D01*
X8480Y1075D02*
Y1550D01*
X8305D02*
X9218D01*
X8305Y1520D02*
X9218D01*
X8305Y1480D02*
X9218D01*
X8305Y1440D02*
X9218D01*
X8305Y1400D02*
X9218D01*
X8305Y1360D02*
X9218D01*
X8305Y1320D02*
X9218D01*
X8305Y1280D02*
X9218D01*
X8305Y1240D02*
X9218D01*
X8305Y1200D02*
X9218D01*
X8305Y1160D02*
X9218D01*
X8440Y1075D02*
Y1550D01*
X8305Y1120D02*
X9218D01*
X8305Y1080D02*
X9218D01*
X8305Y1075D02*
X9218D01*
X8400D02*
Y1550D01*
X8360Y1075D02*
Y1550D01*
X8320Y1075D02*
Y1550D01*
X8305Y1075D02*
Y1550D01*
X10447Y1275D02*
Y2175D01*
X10440Y1275D02*
Y2175D01*
X10400Y1275D02*
Y2175D01*
X10360Y1275D02*
Y2175D01*
X10320Y1275D02*
Y2175D01*
X10280Y1275D02*
Y2175D01*
X10240Y1275D02*
Y2175D01*
X10200Y1275D02*
Y2175D01*
X10160Y1275D02*
Y2175D01*
X10120Y1275D02*
Y2175D01*
X10080Y1275D02*
Y2175D01*
X10040Y1275D02*
Y2175D01*
X10000Y1275D02*
Y2175D01*
X9960Y1275D02*
Y2175D01*
X9920Y1275D02*
Y2175D01*
X9880Y1275D02*
Y2175D01*
X9840Y1275D02*
Y2175D01*
X9800Y1275D02*
Y2175D01*
X9760Y1275D02*
Y2175D01*
X9720Y1275D02*
Y2175D01*
X9680Y1275D02*
Y2175D01*
X9640Y1275D02*
Y2175D01*
X9600Y1275D02*
Y2175D01*
X9560Y1275D02*
Y2175D01*
X9520Y1275D02*
Y2175D01*
X9480Y1275D02*
Y2175D01*
X9440Y1275D02*
Y2175D01*
X9400Y1275D02*
Y2175D01*
X9360Y1275D02*
Y2175D01*
X9320Y1275D02*
Y2175D01*
X9280Y1275D02*
Y2175D01*
X9240Y1275D02*
Y2175D01*
X9200Y1275D02*
Y2175D01*
X8890D02*
X10447D01*
X8890Y2160D02*
X10447D01*
X8890Y2120D02*
X10447D01*
X8890Y2080D02*
X10447D01*
X8890Y2040D02*
X10447D01*
X8890Y2000D02*
X10447D01*
X8890Y1960D02*
X10447D01*
X8890Y1920D02*
X10447D01*
X8890Y1880D02*
X10447D01*
X8890Y1840D02*
X10447D01*
X8890Y1800D02*
X10447D01*
X8890Y1760D02*
X10447D01*
X8890Y1720D02*
X10447D01*
X8890Y1680D02*
X10447D01*
X8890Y1640D02*
X10447D01*
X8890Y1600D02*
X10447D01*
X8890Y1560D02*
X10447D01*
X8890Y1520D02*
X10447D01*
X8890Y1480D02*
X10447D01*
X8890Y1440D02*
X10447D01*
X8890Y1400D02*
X10447D01*
X8890Y1360D02*
X10447D01*
X8890Y1320D02*
X10447D01*
X8890Y1280D02*
X10447D01*
X8890Y1275D02*
X10447D01*
X9160D02*
Y2175D01*
X9120Y1275D02*
Y2175D01*
X9080Y1275D02*
Y2175D01*
X9040Y1275D02*
Y2175D01*
X9000Y1275D02*
Y2175D01*
X8960Y1275D02*
Y2175D01*
X8920Y1275D02*
Y2175D01*
X8890Y1275D02*
Y2175D01*
X11955Y1275D02*
Y2175D01*
X11920Y1275D02*
Y2175D01*
X11880Y1275D02*
Y2175D01*
X11840Y1275D02*
Y2175D01*
X11800Y1275D02*
Y2175D01*
X11760Y1275D02*
Y2175D01*
X11720Y1275D02*
Y2175D01*
X11680Y1275D02*
Y2175D01*
X11640Y1275D02*
Y2175D01*
X11600Y1275D02*
Y2175D01*
X11560Y1275D02*
Y2175D01*
X11520Y1275D02*
Y2175D01*
X11480Y1275D02*
Y2175D01*
X11440Y1275D02*
Y2175D01*
X11400Y1275D02*
Y2175D01*
X11360Y1275D02*
Y2175D01*
X11320Y1275D02*
Y2175D01*
X11280Y1275D02*
Y2175D01*
X11240Y1275D02*
Y2175D01*
X11200Y1275D02*
Y2175D01*
X11160Y1275D02*
Y2175D01*
X11120Y1275D02*
Y2175D01*
X11080Y1275D02*
Y2175D01*
X11040Y1275D02*
Y2175D01*
X11000Y1275D02*
Y2175D01*
X10960Y1275D02*
Y2175D01*
X10920Y1275D02*
Y2175D01*
X10880Y1275D02*
Y2175D01*
X10840Y1275D02*
Y2175D01*
X10800Y1275D02*
Y2175D01*
X10760Y1275D02*
Y2175D01*
X10720Y1275D02*
Y2175D01*
X10680Y1275D02*
Y2175D01*
X10397D02*
X11955D01*
X10397Y2160D02*
X11955D01*
X10397Y2120D02*
X11955D01*
X10397Y2080D02*
X11955D01*
X10397Y2040D02*
X11955D01*
X10397Y2000D02*
X11955D01*
X10397Y1960D02*
X11955D01*
X10397Y1920D02*
X11955D01*
X10397Y1880D02*
X11955D01*
X10397Y1840D02*
X11955D01*
X10397Y1800D02*
X11955D01*
X10397Y1760D02*
X11955D01*
X10397Y1720D02*
X11955D01*
X10397Y1680D02*
X11955D01*
X10397Y1640D02*
X11955D01*
X10397Y1600D02*
X11955D01*
X10397Y1560D02*
X11955D01*
X10397Y1520D02*
X11955D01*
X10397Y1480D02*
X11955D01*
X10397Y1440D02*
X11955D01*
X10397Y1400D02*
X11955D01*
X10397Y1360D02*
X11955D01*
X10397Y1320D02*
X11955D01*
X10397Y1280D02*
X11955D01*
X10397Y1275D02*
X11955D01*
X10640D02*
Y2175D01*
X10600Y1275D02*
Y2175D01*
X10560Y1275D02*
Y2175D01*
X10520Y1275D02*
Y2175D01*
X10480Y1275D02*
Y2175D01*
X10440Y1275D02*
Y2175D01*
X10400Y1275D02*
Y2175D01*
X10397Y1275D02*
Y2175D01*
X7574Y-886D02*
X7715Y-745D01*
X7500Y-1835D02*
Y-1248D01*
X7855Y-840D02*
X8640D01*
X7855Y-880D02*
X8640D01*
X7855Y-920D02*
X8640D01*
X7855Y-960D02*
X8640D01*
X7855Y-1000D02*
X8640D01*
X7855Y-1040D02*
X8640D01*
X7855Y-1080D02*
X8640D01*
Y-1107D02*
Y100D01*
X8600Y-1107D02*
Y100D01*
X8560Y-1107D02*
Y100D01*
X8520Y-1107D02*
Y100D01*
X8480Y-1107D02*
Y100D01*
X8440Y-1107D02*
Y100D01*
X8400Y-1107D02*
Y100D01*
X8360Y-1107D02*
Y100D01*
X8320Y-1107D02*
Y100D01*
X8280Y-1107D02*
Y100D01*
X8240Y-1107D02*
Y100D01*
X8200Y-1107D02*
Y100D01*
X8160Y-1107D02*
Y100D01*
X8120Y-1107D02*
Y100D01*
X8080Y-1107D02*
Y100D01*
X8040Y-1107D02*
Y100D01*
X8000Y-1107D02*
Y100D01*
X7960Y-1107D02*
Y100D01*
X7920Y-1107D02*
Y100D01*
X7880Y-1107D02*
Y100D01*
X7855D02*
X8640D01*
X7855Y80D02*
X8640D01*
X7855Y40D02*
X8640D01*
X7855Y-0D02*
X8640D01*
X7855Y-40D02*
X8640D01*
X7855Y-80D02*
X8640D01*
X7855Y-120D02*
X8640D01*
X7855Y-160D02*
X8640D01*
X7855Y-200D02*
X8640D01*
X7855Y-240D02*
X8640D01*
X7855Y-280D02*
X8640D01*
X7855Y-320D02*
X8640D01*
X7855Y-360D02*
X8640D01*
X7855Y-400D02*
X8640D01*
X7855Y-440D02*
X8640D01*
X7855Y-480D02*
X8640D01*
X7855Y-520D02*
X8640D01*
X7855Y-560D02*
X8640D01*
X7855Y-600D02*
X8640D01*
X7855Y-640D02*
X8640D01*
X7855Y-680D02*
X8640D01*
X7855Y-1107D02*
Y100D01*
Y-720D02*
X8640D01*
X7855Y-760D02*
X8640D01*
X7855Y-800D02*
X8640D01*
X7855Y-1107D02*
X8640D01*
X8335Y-1760D02*
Y-1334D01*
X8320Y-1760D02*
Y-1338D01*
X8280Y-1760D02*
Y-1339D01*
X8240Y-1760D02*
Y-1332D01*
X8200Y-1760D02*
Y-1332D01*
X8160Y-1760D02*
Y-1332D01*
X8120Y-1760D02*
Y-1332D01*
X8080Y-1760D02*
Y-1332D01*
X8040Y-1760D02*
Y-1332D01*
X8000Y-1760D02*
Y-1332D01*
X7960Y-1760D02*
Y-1332D01*
X7920Y-1760D02*
Y-1332D01*
X7880Y-1760D02*
Y-1332D01*
X7850Y-1360D02*
X8335D01*
X7850Y-1400D02*
X8335D01*
X7850Y-1440D02*
X8335D01*
X7850Y-1480D02*
X8335D01*
X7850Y-1332D02*
X8257D01*
X7850Y-1520D02*
X8335D01*
X7850Y-1560D02*
X8335D01*
X7850Y-1600D02*
X8335D01*
X7850Y-1640D02*
X8335D01*
X7850Y-1680D02*
X8335D01*
X7850Y-1760D02*
Y-1332D01*
Y-1720D02*
X8335D01*
X7850Y-1760D02*
X8335D01*
X9407Y-2177D02*
Y-1660D01*
X9400Y-2177D02*
Y-1660D01*
X9360Y-2177D02*
Y-1660D01*
X9320Y-2177D02*
Y-1660D01*
X9280Y-2177D02*
Y-1660D01*
X9240Y-2177D02*
Y-1660D01*
X9200Y-2177D02*
Y-1660D01*
X9160Y-2177D02*
Y-1660D01*
X9120Y-2177D02*
Y-1660D01*
X9080Y-2177D02*
Y-1660D01*
X9040Y-2177D02*
Y-1660D01*
X9000Y-2177D02*
Y-1660D01*
X8960Y-2177D02*
Y-1660D01*
X8920Y-2177D02*
Y-1660D01*
X8880Y-2177D02*
Y-1660D01*
X8840Y-2177D02*
Y-1660D01*
X8800Y-2177D02*
Y-1660D01*
X8760Y-2177D02*
Y-1660D01*
X8720Y-2177D02*
Y-1660D01*
X8680Y-2177D02*
Y-1660D01*
X8640Y-2177D02*
Y-1660D01*
X8600Y-2177D02*
Y-1660D01*
X8560Y-2177D02*
Y-1660D01*
X8520Y-2177D02*
Y-1660D01*
X8480Y-2177D02*
Y-1660D01*
X8440Y-2177D02*
Y-1660D01*
X8400Y-2177D02*
Y-1660D01*
X8360Y-2177D02*
Y-1660D01*
X7850D02*
X9407D01*
X7850Y-1680D02*
X9407D01*
X7850Y-1720D02*
X9407D01*
X7850Y-1760D02*
X9407D01*
X7850Y-1800D02*
X9407D01*
X7850Y-1840D02*
X9407D01*
X7850Y-1880D02*
X9407D01*
X7850Y-1920D02*
X9407D01*
X7850Y-1960D02*
X9407D01*
X7850Y-2000D02*
X9407D01*
X7850Y-2040D02*
X9407D01*
X7850Y-2080D02*
X9407D01*
X7850Y-2120D02*
X9407D01*
X7850Y-2160D02*
X9407D01*
X8320Y-2177D02*
Y-1660D01*
X8280Y-2177D02*
Y-1660D01*
X8240Y-2177D02*
Y-1660D01*
X8200Y-2177D02*
Y-1660D01*
X8160Y-2177D02*
Y-1660D01*
X8120Y-2177D02*
Y-1660D01*
X7850Y-2177D02*
X9407D01*
X8080D02*
Y-1660D01*
X8040Y-2177D02*
Y-1660D01*
X8000Y-2177D02*
Y-1660D01*
X7960Y-2177D02*
Y-1660D01*
X7920Y-2177D02*
Y-1660D01*
X7880Y-2177D02*
Y-1660D01*
X7850Y-2177D02*
Y-1660D01*
X7574Y-1174D02*
Y-886D01*
X7500Y-1248D02*
X7574Y-1174D01*
X7615Y-1908D02*
Y-1720D01*
X7585Y-1330D02*
X7715Y-1200D01*
X7585Y-1690D02*
Y-1330D01*
X7615Y-1908D02*
X7710Y-2002D01*
X7585Y-1690D02*
X7615Y-1720D01*
X5517Y-1388D02*
X5886D01*
X6020Y-1975D02*
X6325D01*
X11955Y-2177D02*
Y-1270D01*
X11920Y-2177D02*
Y-1270D01*
X11880Y-2177D02*
Y-1270D01*
X11840Y-2177D02*
Y-1270D01*
X11800Y-2177D02*
Y-1270D01*
X11760Y-2177D02*
Y-1270D01*
X11720Y-2177D02*
Y-1270D01*
X11680Y-2177D02*
Y-1270D01*
X11640Y-2177D02*
Y-1270D01*
X11600Y-2177D02*
Y-1270D01*
X11560Y-2177D02*
Y-1270D01*
X11520Y-2177D02*
Y-1270D01*
X11480Y-2177D02*
Y-1270D01*
X11440Y-2177D02*
Y-1270D01*
X11400Y-2177D02*
Y-1270D01*
X11360Y-2177D02*
Y-1270D01*
X11320Y-2177D02*
Y-1270D01*
X11280Y-2177D02*
Y-1270D01*
X11240Y-2177D02*
Y-1270D01*
X11200Y-2177D02*
Y-1270D01*
X11160Y-2177D02*
Y-1270D01*
X11120Y-2177D02*
Y-1270D01*
X11080Y-2177D02*
Y-1270D01*
X11040Y-2177D02*
Y-1270D01*
X11000Y-2177D02*
Y-1270D01*
X10960Y-2177D02*
Y-1270D01*
X10920Y-2177D02*
Y-1270D01*
X10880Y-2177D02*
Y-1270D01*
X10840Y-2177D02*
Y-1270D01*
X10800Y-2177D02*
Y-1270D01*
X10760Y-2177D02*
Y-1270D01*
X10720Y-2177D02*
Y-1270D01*
X10680Y-2177D02*
Y-1270D01*
X10640Y-2177D02*
Y-1270D01*
X10600Y-2177D02*
Y-1270D01*
X10560Y-2177D02*
Y-1270D01*
X10520Y-2177D02*
Y-1270D01*
X10480Y-2177D02*
Y-1270D01*
X10440Y-2177D02*
Y-1270D01*
X10400Y-2177D02*
Y-1270D01*
X10360Y-2177D02*
Y-1270D01*
X9757D02*
X11955D01*
X9757Y-1280D02*
X11955D01*
X9757Y-1320D02*
X11955D01*
X9757Y-1360D02*
X11955D01*
X9757Y-1400D02*
X11955D01*
X9757Y-1440D02*
X11955D01*
X9757Y-1480D02*
X11955D01*
X9757Y-1520D02*
X11955D01*
X9757Y-1560D02*
X11955D01*
X9757Y-1600D02*
X11955D01*
X9757Y-1640D02*
X11955D01*
X9757Y-1680D02*
X11955D01*
X9757Y-1720D02*
X11955D01*
X9757Y-1760D02*
X11955D01*
X9757Y-1800D02*
X11955D01*
X9757Y-1840D02*
X11955D01*
X9757Y-1880D02*
X11955D01*
X9757Y-1920D02*
X11955D01*
X9757Y-1960D02*
X11955D01*
X9757Y-2000D02*
X11955D01*
X9757Y-2040D02*
X11955D01*
X10320Y-2177D02*
Y-1270D01*
X10280Y-2177D02*
Y-1270D01*
X10240Y-2177D02*
Y-1270D01*
X10200Y-2177D02*
Y-1270D01*
X10160Y-2177D02*
Y-1270D01*
X9757Y-2080D02*
X11955D01*
X9757Y-2120D02*
X11955D01*
X10120Y-2177D02*
Y-1270D01*
X9757Y-2160D02*
X11955D01*
X9757Y-2177D02*
X11955D01*
X10080D02*
Y-1270D01*
X10040Y-2177D02*
Y-1270D01*
X10000Y-2177D02*
Y-1270D01*
X9960Y-2177D02*
Y-1270D01*
X9920Y-2177D02*
Y-1270D01*
X9880Y-2177D02*
Y-1270D01*
X9840Y-2177D02*
Y-1270D01*
X9800Y-2177D02*
Y-1270D01*
X9760Y-2177D02*
Y-1270D01*
X9757Y-2177D02*
Y-1270D01*
X5960Y-1915D02*
Y-1461D01*
Y-1915D02*
X6020Y-1975D01*
X5886Y-1388D02*
X5960Y-1461D01*
X6468Y-1760D02*
X7377D01*
X6468Y-1800D02*
X7377D01*
X6468Y-1840D02*
X7377D01*
X6468Y-1880D02*
X7377D01*
X6468Y-1920D02*
X7377D01*
X6468Y-1960D02*
X7377D01*
X6468Y-2000D02*
X7377D01*
X6468Y-2040D02*
X7377D01*
X6468Y-2080D02*
X7377D01*
Y-2177D02*
Y-497D01*
X7360Y-2177D02*
Y-497D01*
X7320Y-2177D02*
Y-497D01*
X7280Y-2177D02*
Y-497D01*
X7240Y-2177D02*
Y-497D01*
X7200Y-2177D02*
Y-497D01*
X7160Y-2177D02*
Y-497D01*
X6468Y-2120D02*
X7377D01*
X6468Y-2160D02*
X7377D01*
X7120Y-2177D02*
Y-497D01*
X7080Y-2177D02*
Y-497D01*
X7040Y-2177D02*
Y-497D01*
X7000Y-2177D02*
Y-497D01*
X6960Y-2177D02*
Y-497D01*
X6920Y-2177D02*
Y-497D01*
X6880Y-2177D02*
Y-497D01*
X6840Y-2177D02*
Y-497D01*
X6800Y-2177D02*
Y-497D01*
X6760Y-2177D02*
Y-497D01*
X6720Y-2177D02*
Y-497D01*
X6680Y-2177D02*
Y-497D01*
X6640Y-2177D02*
Y-497D01*
X6600Y-2177D02*
Y-497D01*
X6560Y-2177D02*
Y-497D01*
X6520Y-2177D02*
Y-497D01*
X6480Y-2177D02*
Y-497D01*
X6468D02*
X7377D01*
X6468Y-520D02*
X7377D01*
X6468Y-560D02*
X7377D01*
X6468Y-600D02*
X7377D01*
X6468Y-640D02*
X7377D01*
X6468Y-680D02*
X7377D01*
X6468Y-720D02*
X7377D01*
X6468Y-760D02*
X7377D01*
X6468Y-800D02*
X7377D01*
X6468Y-840D02*
X7377D01*
X6468Y-880D02*
X7377D01*
X6468Y-920D02*
X7377D01*
X6468Y-960D02*
X7377D01*
X6468Y-1000D02*
X7377D01*
X6468Y-1040D02*
X7377D01*
X6468Y-1080D02*
X7377D01*
X6468Y-1120D02*
X7377D01*
X6468Y-1160D02*
X7377D01*
X6468Y-1200D02*
X7377D01*
X6468Y-1240D02*
X7377D01*
X6468Y-1280D02*
X7377D01*
X6468Y-1320D02*
X7377D01*
X6468Y-1360D02*
X7377D01*
X6468Y-1400D02*
X7377D01*
X6468Y-1440D02*
X7377D01*
X6468Y-1480D02*
X7377D01*
X6468Y-1520D02*
X7377D01*
X6468Y-2177D02*
Y-497D01*
Y-1560D02*
X7377D01*
X6468Y-1600D02*
X7377D01*
X6468Y-1640D02*
X7377D01*
X6468Y-1680D02*
X7377D01*
X6468Y-1720D02*
X7377D01*
X6468Y-2177D02*
X7377D01*
X11152Y-55D02*
Y357D01*
X11120Y-55D02*
Y357D01*
X11080Y-55D02*
Y357D01*
X11040Y-55D02*
Y357D01*
X11000Y-55D02*
Y357D01*
X10960Y-55D02*
Y357D01*
X10920Y-55D02*
Y357D01*
X10880Y-55D02*
Y357D01*
X10840Y-55D02*
Y357D01*
X10800Y-55D02*
Y357D01*
X10760Y-55D02*
Y357D01*
X10720Y-55D02*
Y357D01*
X10680Y-55D02*
Y357D01*
X10640Y-55D02*
Y357D01*
X10600Y-55D02*
Y357D01*
X10560Y-55D02*
Y357D01*
X10520Y-55D02*
Y357D01*
X10480Y-55D02*
Y357D01*
X10440Y-55D02*
Y357D01*
X10400Y-55D02*
Y357D01*
X10360Y-55D02*
Y357D01*
X10320Y-55D02*
Y357D01*
X10280Y-55D02*
Y357D01*
X10240Y-55D02*
Y357D01*
X10200Y-55D02*
Y357D01*
X9750D02*
X11152D01*
X9750Y320D02*
X11152D01*
X9750Y280D02*
X11152D01*
X9750Y240D02*
X11152D01*
X9750Y200D02*
X11152D01*
X9750Y160D02*
X11152D01*
X9750Y120D02*
X11152D01*
X10160Y-55D02*
Y357D01*
X9750Y80D02*
X11152D01*
X9750Y40D02*
X11152D01*
X9750Y-0D02*
X11152D01*
X9750Y-40D02*
X11152D01*
X10120Y-55D02*
Y357D01*
X10080Y-55D02*
Y357D01*
X10040Y-55D02*
Y357D01*
X10000Y-55D02*
Y357D01*
X9960Y-55D02*
Y357D01*
X9750Y-55D02*
X11152D01*
X9920D02*
Y357D01*
X9880Y-55D02*
Y357D01*
X9840Y-55D02*
Y357D01*
X9800Y-55D02*
Y357D01*
X9760Y-55D02*
Y357D01*
X9750Y-55D02*
Y357D01*
X11142Y47D02*
Y1152D01*
X11120Y47D02*
Y1152D01*
X11080Y47D02*
Y1152D01*
X11040Y47D02*
Y1152D01*
X11000Y47D02*
Y1152D01*
X10960Y47D02*
Y1152D01*
X10920Y47D02*
Y1152D01*
X10880Y47D02*
Y1152D01*
X10840Y47D02*
Y1152D01*
X10800Y47D02*
Y1152D01*
X10760Y47D02*
Y1152D01*
X10720Y47D02*
Y1152D01*
X10680Y47D02*
Y1152D01*
X10640Y47D02*
Y1152D01*
X10600Y47D02*
Y1152D01*
X10560Y47D02*
Y1152D01*
X10520Y47D02*
Y1152D01*
X10480Y47D02*
Y1152D01*
X10440Y47D02*
Y1152D01*
X10400Y47D02*
Y1152D01*
X10360Y47D02*
Y1152D01*
X10320Y47D02*
Y1152D01*
X10280Y47D02*
Y1152D01*
X10240Y47D02*
Y1152D01*
X10200Y47D02*
Y1152D01*
X10160Y47D02*
Y1152D01*
X10120Y47D02*
Y1152D01*
X10080Y47D02*
Y1152D01*
X10040Y47D02*
Y1152D01*
X10000Y47D02*
Y1152D01*
X9960Y47D02*
Y1152D01*
X9920Y47D02*
Y1152D01*
X9880Y47D02*
Y1152D01*
X9840Y47D02*
Y1152D01*
X9800Y47D02*
Y1152D01*
X9760Y47D02*
Y1152D01*
X9720Y47D02*
Y1152D01*
X9680Y47D02*
Y1152D01*
X9345D02*
X11142D01*
X9345Y1120D02*
X11142D01*
X9345Y1080D02*
X11142D01*
X9345Y1040D02*
X11142D01*
X9345Y1000D02*
X11142D01*
X9345Y960D02*
X11142D01*
X9345Y920D02*
X11142D01*
X9345Y880D02*
X11142D01*
X9345Y840D02*
X11142D01*
X9345Y800D02*
X11142D01*
X9345Y760D02*
X11142D01*
X9345Y720D02*
X11142D01*
X9345Y680D02*
X11142D01*
X9345Y640D02*
X11142D01*
X9345Y600D02*
X11142D01*
X9345Y560D02*
X11142D01*
X9345Y520D02*
X11142D01*
X9345Y480D02*
X11142D01*
X9345Y440D02*
X11142D01*
X9345Y400D02*
X11142D01*
X9345Y360D02*
X11142D01*
X9345Y320D02*
X11142D01*
X9345Y280D02*
X11142D01*
X9345Y240D02*
X11142D01*
X9345Y200D02*
X11142D01*
X9345Y160D02*
X11142D01*
X9345Y120D02*
X11142D01*
X9345Y80D02*
X11142D01*
X9345Y47D02*
X11142D01*
X9640D02*
Y1152D01*
X9600Y47D02*
Y1152D01*
X9560Y47D02*
Y1152D01*
X9520Y47D02*
Y1152D01*
X9480Y47D02*
Y1152D01*
X9440Y47D02*
Y1152D01*
X9400Y47D02*
Y1152D01*
X9360Y47D02*
Y1152D01*
X9345Y47D02*
Y1152D01*
X8718Y215D02*
X9145D01*
X10397Y-760D02*
X11955D01*
Y-1127D02*
Y1150D01*
X11920Y-1127D02*
Y1150D01*
X11880Y-1127D02*
Y1150D01*
X10397Y-800D02*
X11955D01*
X10397Y-840D02*
X11955D01*
X10397Y-880D02*
X11955D01*
X10397Y-920D02*
X11955D01*
X10397Y-960D02*
X11955D01*
X10397Y-1000D02*
X11955D01*
X10397Y-1040D02*
X11955D01*
X10397Y-1080D02*
X11955D01*
X10397Y-1120D02*
X11955D01*
X11840Y-1127D02*
Y1150D01*
X11800Y-1127D02*
Y1150D01*
X11760Y-1127D02*
Y1150D01*
X11720Y-1127D02*
Y1150D01*
X11680Y-1127D02*
Y1150D01*
X11640Y-1127D02*
Y1150D01*
X11600Y-1127D02*
Y1150D01*
X11560Y-1127D02*
Y1150D01*
X11520Y-1127D02*
Y1150D01*
X11480Y-1127D02*
Y1150D01*
X11440Y-1127D02*
Y1150D01*
X11400Y-1127D02*
Y1150D01*
X11360Y-1127D02*
Y1150D01*
X11320Y-1127D02*
Y1150D01*
X11280Y-1127D02*
Y1150D01*
X11240Y-1127D02*
Y1150D01*
X11200Y-1127D02*
Y1150D01*
X11160Y-1127D02*
Y1150D01*
X11120Y-1127D02*
Y1150D01*
X11080Y-1127D02*
Y1150D01*
X11040Y-1127D02*
Y1150D01*
X11000Y-1127D02*
Y1150D01*
X10960Y-1127D02*
Y1150D01*
X10920Y-1127D02*
Y1150D01*
X10880Y-1127D02*
Y1150D01*
X10840Y-1127D02*
Y1150D01*
X10800Y-1127D02*
Y1150D01*
X10760Y-1127D02*
Y1150D01*
X10720Y-1127D02*
Y1150D01*
X10680Y-1127D02*
Y1150D01*
X10640Y-1127D02*
Y1150D01*
X10600Y-1127D02*
Y1150D01*
X10560Y-1127D02*
Y1150D01*
X10520Y-1127D02*
Y1150D01*
X10480Y-1127D02*
Y1150D01*
X10440Y-1127D02*
Y1150D01*
X10400Y-1127D02*
Y1150D01*
X10397D02*
X11955D01*
X10397Y1120D02*
X11955D01*
X10397Y1080D02*
X11955D01*
X10397Y1040D02*
X11955D01*
X10397Y1000D02*
X11955D01*
X10397Y960D02*
X11955D01*
X10397Y920D02*
X11955D01*
X10397Y880D02*
X11955D01*
X10397Y840D02*
X11955D01*
X10397Y800D02*
X11955D01*
X10397Y760D02*
X11955D01*
X10397Y720D02*
X11955D01*
X10397Y680D02*
X11955D01*
X10397Y640D02*
X11955D01*
X10397Y600D02*
X11955D01*
X10397Y560D02*
X11955D01*
X10397Y520D02*
X11955D01*
X10397Y480D02*
X11955D01*
X10397Y440D02*
X11955D01*
X10397Y400D02*
X11955D01*
X10397Y360D02*
X11955D01*
X10397Y320D02*
X11955D01*
X10397Y280D02*
X11955D01*
X10397Y240D02*
X11955D01*
X10397Y200D02*
X11955D01*
X10397Y160D02*
X11955D01*
X10397Y120D02*
X11955D01*
X10397Y80D02*
X11955D01*
X10397Y40D02*
X11955D01*
X10397Y-0D02*
X11955D01*
X10397Y-40D02*
X11955D01*
X10397Y-80D02*
X11955D01*
X10397Y-120D02*
X11955D01*
X10397Y-160D02*
X11955D01*
X10397Y-200D02*
X11955D01*
X10397Y-240D02*
X11955D01*
X10397Y-280D02*
X11955D01*
X10397Y-320D02*
X11955D01*
X10397Y-360D02*
X11955D01*
X10397Y-400D02*
X11955D01*
X10397Y-1127D02*
Y1150D01*
Y-440D02*
X11955D01*
X10397Y-480D02*
X11955D01*
X10397Y-520D02*
X11955D01*
X10397Y-560D02*
X11955D01*
X10397Y-600D02*
X11955D01*
X10397Y-640D02*
X11955D01*
X10397Y-680D02*
X11955D01*
X10397Y-720D02*
X11955D01*
X10397Y-1127D02*
X11955D01*
X9288Y-1120D02*
X10268D01*
X9288Y-1080D02*
X10268D01*
X9288Y-1040D02*
X10268D01*
X9288Y-1000D02*
X10268D01*
X9288Y-1127D02*
Y-183D01*
Y-960D02*
X10268D01*
X9288Y-920D02*
X10268D01*
X9288Y-880D02*
X10268D01*
X9288Y-840D02*
X10268D01*
X9288Y-800D02*
X10268D01*
X9288Y-760D02*
X10268D01*
X9288Y-720D02*
X10268D01*
X9288Y-680D02*
X10268D01*
X9288Y-640D02*
X10268D01*
X9288Y-600D02*
X10268D01*
X9288Y-560D02*
X10268D01*
X9288Y-520D02*
X10268D01*
X9288Y-480D02*
X10268D01*
X9288Y-440D02*
X10268D01*
X9288Y-400D02*
X10268D01*
X9288Y-360D02*
X10268D01*
X9288Y-320D02*
X10268D01*
X9288Y-280D02*
X10268D01*
X9288Y-240D02*
X10268D01*
X9288Y-200D02*
X10268D01*
X9288Y-183D02*
X10268D01*
X9320Y-1127D02*
Y-183D01*
X9360Y-1127D02*
Y-183D01*
X9400Y-1127D02*
Y-183D01*
X9440Y-1127D02*
Y-183D01*
X9480Y-1127D02*
Y-183D01*
X9520Y-1127D02*
Y-183D01*
X9288Y-1127D02*
X10268D01*
X9560D02*
Y-183D01*
X9600Y-1127D02*
Y-183D01*
X9640Y-1127D02*
Y-183D01*
X9680Y-1127D02*
Y-183D01*
X9720Y-1127D02*
Y-183D01*
X9760Y-1127D02*
Y-183D01*
X9800Y-1127D02*
Y-183D01*
X9840Y-1127D02*
Y-183D01*
X9880Y-1127D02*
Y-183D01*
X9920Y-1127D02*
Y-183D01*
X9960Y-1127D02*
Y-183D01*
X10000Y-1127D02*
Y-183D01*
X10040Y-1127D02*
Y-183D01*
X10080Y-1127D02*
Y-183D01*
X10120Y-1127D02*
Y-183D01*
X10160Y-1127D02*
Y-183D01*
X10200Y-1127D02*
Y-183D01*
X10240Y-1127D02*
Y-183D01*
X10268Y-1127D02*
Y-183D01*
X8440Y-1555D02*
X8680D01*
X8440Y-1240D02*
X8680D01*
X8440Y-1555D02*
Y-852D01*
Y-1200D02*
X8680D01*
X8440Y-1160D02*
X8680D01*
X8440Y-1120D02*
X8680D01*
X8440Y-1080D02*
X8680D01*
X8440Y-1040D02*
X8680D01*
X8440Y-1000D02*
X8680D01*
X8440Y-960D02*
X8680D01*
X8440Y-920D02*
X8680D01*
X8440Y-880D02*
X8680D01*
X8440Y-852D02*
X8680D01*
X8440Y-1555D02*
Y-852D01*
X8480Y-1555D02*
Y-852D01*
X8520Y-1555D02*
Y-852D01*
X8560Y-1555D02*
Y-852D01*
X8600Y-1555D02*
Y-852D01*
X8640Y-1555D02*
Y-852D01*
X8680Y-1555D02*
Y-852D01*
X8440Y-1520D02*
X8680D01*
X8440Y-1480D02*
X8680D01*
X8440Y-1440D02*
X8680D01*
X8440Y-1400D02*
X8680D01*
X8440Y-1360D02*
X8680D01*
X8440Y-1320D02*
X8680D01*
X8440Y-1280D02*
X8680D01*
X8590Y-1050D02*
X8935D01*
X8590Y-600D02*
X8935D01*
X8590Y-560D02*
X8935D01*
X8590Y-1050D02*
Y100D01*
Y-520D02*
X8935D01*
X8590Y-480D02*
X8935D01*
X8590Y-440D02*
X8935D01*
X8590Y-400D02*
X8935D01*
X8590Y-360D02*
X8935D01*
X8590Y-320D02*
X8935D01*
X8590Y-280D02*
X8935D01*
X8590Y-240D02*
X8935D01*
X8590Y-200D02*
X8935D01*
X8590Y-160D02*
X8935D01*
X8590Y-120D02*
X8935D01*
X8590Y-80D02*
X8935D01*
X8590Y-40D02*
X8935D01*
X8590Y-0D02*
X8935D01*
X8590Y40D02*
X8935D01*
X8590Y80D02*
X8935D01*
X8590Y100D02*
X8935D01*
X8600Y-1050D02*
Y100D01*
X8640Y-1050D02*
Y100D01*
X8680Y-1050D02*
Y100D01*
X8720Y-1050D02*
Y100D01*
X8760Y-1050D02*
Y100D01*
X8800Y-1050D02*
Y100D01*
X8840Y-1050D02*
Y100D01*
X8880Y-1050D02*
Y100D01*
X8920Y-1050D02*
Y100D01*
X8935Y-1050D02*
Y100D01*
X8590Y-1040D02*
X8935D01*
X8590Y-1000D02*
X8935D01*
X8590Y-960D02*
X8935D01*
X8590Y-920D02*
X8935D01*
X8590Y-880D02*
X8935D01*
X8590Y-840D02*
X8935D01*
X8590Y-800D02*
X8935D01*
X8590Y-760D02*
X8935D01*
X8590Y-720D02*
X8935D01*
X8590Y-680D02*
X8935D01*
X8590Y-640D02*
X8935D01*
X9043Y-2177D02*
X9665D01*
X9043Y-1560D02*
X9665D01*
X9043Y-1520D02*
X9665D01*
X9043Y-1480D02*
X9665D01*
X9043Y-1440D02*
X9665D01*
X9043Y-2177D02*
Y-515D01*
Y-1400D02*
X9665D01*
X9043Y-1360D02*
X9665D01*
X9043Y-1320D02*
X9665D01*
X9043Y-1280D02*
X9665D01*
X9043Y-1240D02*
X9665D01*
X9043Y-1200D02*
X9665D01*
X9043Y-1160D02*
X9665D01*
X9043Y-1120D02*
X9665D01*
X9043Y-1080D02*
X9665D01*
X9043Y-1040D02*
X9665D01*
X9043Y-1000D02*
X9665D01*
X9043Y-960D02*
X9665D01*
X9043Y-920D02*
X9665D01*
X9043Y-880D02*
X9665D01*
X9043Y-840D02*
X9665D01*
X9043Y-800D02*
X9665D01*
X9043Y-760D02*
X9665D01*
X9043Y-720D02*
X9665D01*
X9043Y-680D02*
X9665D01*
X9043Y-640D02*
X9665D01*
X9043Y-600D02*
X9665D01*
X9043Y-560D02*
X9665D01*
X9043Y-520D02*
X9665D01*
X9043Y-515D02*
X9665D01*
X9080Y-2177D02*
Y-515D01*
X9120Y-2177D02*
Y-515D01*
X9160Y-2177D02*
Y-515D01*
X9200Y-2177D02*
Y-515D01*
X9240Y-2177D02*
Y-515D01*
X9280Y-2177D02*
Y-515D01*
X9320Y-2177D02*
Y-515D01*
X9360Y-2177D02*
Y-515D01*
X9400Y-2177D02*
Y-515D01*
X9440Y-2177D02*
Y-515D01*
X9480Y-2177D02*
Y-515D01*
X9520Y-2177D02*
Y-515D01*
X9560Y-2177D02*
Y-515D01*
X9600Y-2177D02*
Y-515D01*
X9640Y-2177D02*
Y-515D01*
X9043Y-2160D02*
X9665D01*
X9043Y-2120D02*
X9665D01*
X9043Y-2080D02*
X9665D01*
X9043Y-2040D02*
X9665D01*
X9043Y-2000D02*
X9665D01*
X9043Y-1960D02*
X9665D01*
Y-2177D02*
Y-515D01*
X9043Y-1920D02*
X9665D01*
X9043Y-1880D02*
X9665D01*
X9043Y-1840D02*
X9665D01*
X9043Y-1800D02*
X9665D01*
X9043Y-1760D02*
X9665D01*
X9043Y-1720D02*
X9665D01*
X9043Y-1680D02*
X9665D01*
X9043Y-1640D02*
X9665D01*
X9043Y-1600D02*
X9665D01*
X5065Y-762D02*
Y8D01*
X5080Y-762D02*
Y8D01*
X5120Y-762D02*
Y8D01*
X5160Y-762D02*
Y8D01*
X5200Y-762D02*
Y8D01*
X5240Y-762D02*
Y8D01*
X5280Y-762D02*
Y8D01*
X5320Y-762D02*
Y8D01*
X5065Y-760D02*
X6840D01*
X5065Y-762D02*
X6840D01*
X5065Y-720D02*
X6840D01*
X5065Y-680D02*
X6840D01*
X5360Y-762D02*
Y8D01*
X5065Y-640D02*
X6840D01*
X5400Y-762D02*
Y8D01*
X5440Y-762D02*
Y8D01*
X5480Y-762D02*
Y8D01*
X5065Y-600D02*
X6840D01*
X5065Y-560D02*
X6840D01*
X5065Y-520D02*
X6840D01*
X5065Y-480D02*
X6840D01*
X5065Y-440D02*
X6840D01*
X5065Y-400D02*
X6840D01*
X5065Y-360D02*
X6840D01*
X5065Y-320D02*
X6840D01*
X5065Y-280D02*
X6840D01*
X5065Y-240D02*
X6840D01*
X5065Y-200D02*
X6840D01*
X5065Y-160D02*
X6840D01*
X5065Y-120D02*
X6840D01*
X5065Y-80D02*
X6840D01*
X5065Y-40D02*
X6840D01*
X5065Y-0D02*
X6840D01*
X5065Y8D02*
X6840D01*
X5520Y-762D02*
Y8D01*
X5560Y-762D02*
Y8D01*
X5600Y-762D02*
Y8D01*
X5640Y-762D02*
Y8D01*
X5680Y-762D02*
Y8D01*
X5720Y-762D02*
Y8D01*
X5760Y-762D02*
Y8D01*
X5800Y-762D02*
Y8D01*
X5840Y-762D02*
Y8D01*
X5880Y-762D02*
Y8D01*
X5920Y-762D02*
Y8D01*
X5960Y-762D02*
Y8D01*
X6000Y-762D02*
Y8D01*
X6040Y-762D02*
Y8D01*
X6080Y-762D02*
Y8D01*
X6120Y-762D02*
Y8D01*
X6160Y-762D02*
Y8D01*
X6200Y-762D02*
Y8D01*
X6240Y-762D02*
Y8D01*
X6280Y-762D02*
Y8D01*
X6320Y-762D02*
Y8D01*
X6360Y-762D02*
Y8D01*
X6400Y-762D02*
Y8D01*
X6440Y-762D02*
Y8D01*
X6480Y-762D02*
Y8D01*
X6520Y-762D02*
Y8D01*
X6560Y-762D02*
Y8D01*
X6600Y-762D02*
Y8D01*
X6640Y-762D02*
Y8D01*
X6680Y-762D02*
Y8D01*
X6720Y-762D02*
Y8D01*
X6760Y-762D02*
Y8D01*
X6800Y-762D02*
Y8D01*
X6840Y-762D02*
Y8D01*
X4628Y-603D02*
Y70D01*
X4790Y233D01*
X5065Y-612D02*
Y1040D01*
X5080Y-612D02*
Y1040D01*
X5120Y-612D02*
Y1040D01*
X5160Y-612D02*
Y1040D01*
X5200Y-612D02*
Y1040D01*
X5240Y-612D02*
Y1040D01*
X5280Y-612D02*
Y1040D01*
X5320Y-612D02*
Y1040D01*
X5360Y-612D02*
Y1040D01*
X5400Y-612D02*
Y1040D01*
X5440Y-612D02*
Y1040D01*
X5480Y-612D02*
Y1040D01*
X5520Y-612D02*
Y1040D01*
X5560Y-612D02*
Y1040D01*
X5600Y-612D02*
Y1040D01*
X5640Y-612D02*
Y1040D01*
X5065Y-612D02*
X8493D01*
X5065Y-600D02*
X8493D01*
X5065Y-560D02*
X8493D01*
X5065Y-520D02*
X8493D01*
X5065Y-480D02*
X8493D01*
X5065Y-440D02*
X8493D01*
X5065Y-400D02*
X8493D01*
X5065Y-360D02*
X8493D01*
X5680Y-612D02*
Y1040D01*
X5720Y-612D02*
Y1040D01*
X5065Y-320D02*
X8493D01*
X5065Y-280D02*
X8493D01*
X5760Y-612D02*
Y1040D01*
X5800Y-612D02*
Y1040D01*
X5840Y-612D02*
Y1040D01*
X5880Y-612D02*
Y1040D01*
X5065Y-240D02*
X8493D01*
X5065Y-200D02*
X8493D01*
X5065Y-160D02*
X8493D01*
X5065Y-120D02*
X8493D01*
X5065Y-80D02*
X8493D01*
X5065Y-40D02*
X8493D01*
X5065Y-0D02*
X8493D01*
X5065Y40D02*
X8493D01*
X5065Y80D02*
X8493D01*
X5065Y120D02*
X8493D01*
X5065Y160D02*
X8493D01*
X5065Y200D02*
X8493D01*
X5065Y240D02*
X8493D01*
X5065Y280D02*
X8493D01*
X5065Y320D02*
X8493D01*
X5065Y360D02*
X8493D01*
X5065Y400D02*
X8493D01*
X5065Y440D02*
X8493D01*
X5065Y480D02*
X8493D01*
X5065Y520D02*
X8493D01*
X5065Y560D02*
X8493D01*
X5065Y600D02*
X8493D01*
X5065Y640D02*
X8493D01*
X5065Y680D02*
X8493D01*
X5065Y720D02*
X8493D01*
X5065Y760D02*
X8493D01*
X5065Y800D02*
X8493D01*
X5065Y840D02*
X8493D01*
X5065Y880D02*
X8493D01*
X5065Y920D02*
X8493D01*
X5065Y960D02*
X8493D01*
X5065Y1000D02*
X8493D01*
X5065Y1040D02*
X8493D01*
X5920Y-612D02*
Y1040D01*
X5960Y-612D02*
Y1040D01*
X6000Y-612D02*
Y1040D01*
X6040Y-612D02*
Y1040D01*
X6080Y-612D02*
Y1040D01*
X6120Y-612D02*
Y1040D01*
X6160Y-612D02*
Y1040D01*
X6200Y-612D02*
Y1040D01*
X6240Y-612D02*
Y1040D01*
X6280Y-612D02*
Y1040D01*
X6320Y-612D02*
Y1040D01*
X6360Y-612D02*
Y1040D01*
X6400Y-612D02*
Y1040D01*
X6440Y-612D02*
Y1040D01*
X6480Y-612D02*
Y1040D01*
X6520Y-612D02*
Y1040D01*
X6560Y-612D02*
Y1040D01*
X6600Y-612D02*
Y1040D01*
X6640Y-612D02*
Y1040D01*
X6680Y-612D02*
Y1040D01*
X6720Y-612D02*
Y1040D01*
X6760Y-612D02*
Y1040D01*
X6800Y-612D02*
Y1040D01*
X6840Y-612D02*
Y1040D01*
X6880Y-612D02*
Y1040D01*
X6920Y-612D02*
Y1040D01*
X6960Y-612D02*
Y1040D01*
X7000Y-612D02*
Y1040D01*
X7040Y-612D02*
Y1040D01*
X7080Y-612D02*
Y1040D01*
X7120Y-612D02*
Y1040D01*
X7160Y-612D02*
Y1040D01*
X7200Y-612D02*
Y1040D01*
X7240Y-612D02*
Y1040D01*
X7280Y-612D02*
Y1040D01*
X7320Y-612D02*
Y1040D01*
X7360Y-612D02*
Y1040D01*
X7400Y-612D02*
Y1040D01*
X7440Y-612D02*
Y1040D01*
X7480Y-612D02*
Y1040D01*
X7520Y-612D02*
Y1040D01*
X7560Y-612D02*
Y1040D01*
X7600Y-612D02*
Y1040D01*
X7640Y-612D02*
Y1040D01*
X7680Y-612D02*
Y1040D01*
X7720Y-612D02*
Y1040D01*
X7760Y-612D02*
Y1040D01*
X7800Y-612D02*
Y1040D01*
X7840Y-612D02*
Y1040D01*
X7880Y-612D02*
Y1040D01*
X7920Y-612D02*
Y1040D01*
X7960Y-612D02*
Y1040D01*
X8000Y-612D02*
Y1040D01*
X8040Y-612D02*
Y1040D01*
X8080Y-612D02*
Y1040D01*
X8120Y-612D02*
Y1040D01*
X8160Y-612D02*
Y1040D01*
X8200Y-612D02*
Y1040D01*
X8240Y-612D02*
Y1040D01*
X8280Y-612D02*
Y1040D01*
X8320Y-612D02*
Y1040D01*
X8360Y-612D02*
Y1040D01*
X8400Y-612D02*
Y1040D01*
X8440Y-612D02*
Y1040D01*
X8480Y-612D02*
Y1040D01*
X8493Y-612D02*
Y1040D01*
X4408Y-1360D02*
X4427D01*
X4408Y-1240D02*
X4553D01*
X4408Y-1200D02*
X4553D01*
X4408Y-1160D02*
X4553D01*
X4408Y-1120D02*
X4553D01*
X4408Y-1080D02*
X4553D01*
X4408Y-1040D02*
X4553D01*
X4408Y-1000D02*
X4553D01*
X4520Y-1336D02*
Y-636D01*
X4553Y-1265D02*
Y-985D01*
X4408Y-920D02*
X4548D01*
X4408Y-880D02*
X4540D01*
X4408Y-840D02*
X4543D01*
X4408Y-800D02*
X4557D01*
X4408Y-680D02*
X4546D01*
X4408Y-640D02*
X4521D01*
X4408Y-600D02*
X4515D01*
X4408Y-560D02*
X4523D01*
X4408Y-520D02*
X4551D01*
X4408Y-480D02*
X4553D01*
X4408Y-440D02*
X4553D01*
X4408Y-400D02*
X4553D01*
X4408Y-360D02*
X4553D01*
X4408Y-1377D02*
Y1772D01*
X4440Y-1351D02*
Y1772D01*
X4480Y-1337D02*
Y1772D01*
X4520Y-569D02*
Y1772D01*
X4408Y-320D02*
X4553D01*
Y-519D02*
Y70D01*
X4408Y-280D02*
X4553D01*
X4408Y-240D02*
X4553D01*
X4560Y-1349D02*
Y-1265D01*
X4408Y-1320D02*
X4914D01*
X4553Y-985D02*
X4592D01*
X4408Y-960D02*
X4569D01*
X4408Y-1280D02*
X4960D01*
X4553Y-1265D02*
X4833D01*
X4614Y-1400D02*
X4641D01*
X4600Y-1380D02*
Y-1265D01*
X4640Y-1403D02*
Y-1265D01*
X4578Y-1360D02*
X4677D01*
X4560Y-985D02*
Y-945D01*
X4680Y-1358D02*
Y-1265D01*
X4408Y-200D02*
X4553D01*
X4408Y-160D02*
X4553D01*
X4408Y-760D02*
X4587D01*
X4408Y-720D02*
X4665D01*
X4408Y-120D02*
X4553D01*
X4408Y-80D02*
X4553D01*
X4408Y-40D02*
X4553D01*
X4408Y-0D02*
X4553D01*
X4560Y-795D02*
Y-692D01*
X4600Y-749D02*
Y-712D01*
X4408Y40D02*
X4553D01*
X4640Y-727D02*
Y-714D01*
X4680Y-718D02*
Y-702D01*
X4408Y80D02*
X4553D01*
X4408Y120D02*
X4572D01*
X4408Y160D02*
X4611D01*
X4408Y200D02*
X4642D01*
X4408Y240D02*
X4638D01*
X4408Y480D02*
X4638D01*
X4408Y280D02*
X4647D01*
X4408Y440D02*
X4645D01*
X4574Y123D02*
X4644Y193D01*
X4640Y189D02*
Y208D01*
Y257D02*
Y458D01*
Y507D02*
Y713D01*
X4408Y520D02*
X4643D01*
X4408Y720D02*
X4639D01*
X4408Y760D02*
X4640D01*
X4408Y1520D02*
X4553D01*
X4408Y960D02*
X4642D01*
X4408Y1000D02*
X4638D01*
X4408Y1560D02*
X4553D01*
X4408Y1600D02*
X4553D01*
X4408Y1640D02*
X4553D01*
X4408Y1680D02*
X4553D01*
X4560Y103D02*
Y1510D01*
X4600Y149D02*
Y1510D01*
X4640Y762D02*
Y968D01*
Y1017D02*
Y1510D01*
X4408Y1720D02*
X4553D01*
Y1510D02*
Y1772D01*
X4408Y1760D02*
X4553D01*
X4408Y1772D02*
X4553D01*
X4408Y320D02*
X4673D01*
X4408Y560D02*
X4664D01*
X4408Y360D02*
X4738D01*
X4408Y400D02*
X4669D01*
X4408Y680D02*
X4652D01*
X4408Y800D02*
X4654D01*
X4408Y600D02*
X4720D01*
X4408Y640D02*
X4684D01*
X4680Y326D02*
Y389D01*
Y576D02*
Y644D01*
X4408Y840D02*
X4691D01*
X4408Y880D02*
X4708D01*
X4408Y920D02*
X4661D01*
X4408Y1040D02*
X4647D01*
X4408Y1080D02*
X4673D01*
X4408Y1120D02*
X4960D01*
X4408Y1160D02*
X4960D01*
X4408Y1200D02*
X4960D01*
X4408Y1240D02*
X4960D01*
X4408Y1280D02*
X4960D01*
X4680Y831D02*
Y899D01*
Y1086D02*
Y1510D01*
X4408Y1320D02*
X4960D01*
X4408Y1360D02*
X4960D01*
X4553Y1510D02*
X4833D01*
X4408Y1400D02*
X4960D01*
X4408Y1440D02*
X4960D01*
X4408Y1480D02*
X4960D01*
X4720Y-1339D02*
Y-1265D01*
X4760Y-1335D02*
Y-1265D01*
X4828Y-1360D02*
X4876D01*
X4800Y-1344D02*
Y-1265D01*
X4720Y-720D02*
Y-667D01*
X4793Y-985D02*
X4833D01*
Y-1265D02*
Y-985D01*
X4840Y-1370D02*
Y-909D01*
X4833Y-1240D02*
X4960D01*
X4833Y-1200D02*
X4960D01*
X4833Y-1160D02*
X4960D01*
X4833Y-1120D02*
X4960D01*
X4833Y-1080D02*
X4960D01*
X4703Y-519D02*
Y-148D01*
X4720Y-538D02*
Y-148D01*
X4760Y-733D02*
Y-148D01*
X4800Y-762D02*
Y-148D01*
X4703D02*
X4942D01*
X4771Y108D02*
X4817D01*
X4766Y102D02*
X4942D01*
X4880Y-1354D02*
Y-148D01*
X4920Y-1316D02*
Y-148D01*
X4960Y-1298D02*
Y1772D01*
X4960Y-1298D02*
Y1772D01*
X4840Y-831D02*
Y-148D01*
X4880Y102D02*
Y124D01*
X4942Y-148D02*
Y102D01*
X4920D02*
Y161D01*
X4798Y-760D02*
X4960D01*
X4720Y-720D02*
X4960D01*
X4709Y-680D02*
X4960D01*
X4734Y-640D02*
X4960D01*
X4740Y-600D02*
X4960D01*
X4732Y-560D02*
X4960D01*
X4704Y-520D02*
X4960D01*
X4703Y-480D02*
X4960D01*
X4833Y-1040D02*
X4960D01*
X4833Y-1000D02*
X4960D01*
X4816Y-960D02*
X4960D01*
X4837Y-920D02*
X4960D01*
X4845Y-880D02*
X4960D01*
X4842Y-840D02*
X4960D01*
X4828Y-800D02*
X4960D01*
X4703Y-440D02*
X4960D01*
X4703Y-400D02*
X4960D01*
X4703Y-360D02*
X4960D01*
X4703Y-320D02*
X4960D01*
X4703Y-280D02*
X4960D01*
X4703Y-240D02*
X4960D01*
X4703Y-200D02*
X4960D01*
X4703Y-160D02*
X4960D01*
X4942Y-120D02*
X4960D01*
X4942Y-80D02*
X4960D01*
X4942Y-40D02*
X4960D01*
X4942Y-0D02*
X4960D01*
X4942Y40D02*
X4960D01*
X4942Y80D02*
X4960D01*
X4872Y120D02*
X4960D01*
X4919Y160D02*
X4960D01*
X4938Y200D02*
X4960D01*
X4720Y350D02*
Y365D01*
X4762Y358D02*
X4817D01*
X4762D02*
X4817D01*
X4762Y607D02*
X4817D01*
X4720Y600D02*
Y620D01*
X4762Y612D02*
X4817D01*
X4880Y341D02*
Y374D01*
X4920Y304D02*
Y411D01*
X4840Y605D02*
Y615D01*
X4880Y591D02*
Y629D01*
X4762Y862D02*
X4817D01*
X4720Y855D02*
Y875D01*
X4762Y868D02*
X4817D01*
X4720Y1110D02*
Y1510D01*
X4760Y1117D02*
Y1510D01*
X4762Y1118D02*
X4817D01*
X4800D02*
Y1510D01*
X4840Y860D02*
Y870D01*
X4880Y846D02*
Y884D01*
X4920Y554D02*
Y666D01*
Y809D02*
Y921D01*
X4833Y1510D02*
Y1772D01*
X4840Y1115D02*
Y1772D01*
X4880Y1101D02*
Y1772D01*
X4920Y1064D02*
Y1772D01*
X4907Y320D02*
X4960D01*
X4842Y360D02*
X4960D01*
X4911Y400D02*
X4960D01*
X4916Y560D02*
X4960D01*
X4860Y600D02*
X4960D01*
X4896Y640D02*
X4960D01*
X4926Y800D02*
X4960D01*
X4889Y840D02*
X4960D01*
X4942Y240D02*
X4960D01*
X4933Y280D02*
X4960D01*
X4935Y440D02*
X4960D01*
X4942Y480D02*
X4960D01*
X4937Y520D02*
X4960D01*
X4928Y680D02*
X4960D01*
X4941Y720D02*
X4960D01*
X4940Y760D02*
X4960D01*
X4833Y1520D02*
X4960D01*
X4833Y1560D02*
X4960D01*
X4833Y1600D02*
X4960D01*
X4833Y1640D02*
X4960D01*
X4833Y1680D02*
X4960D01*
X4872Y880D02*
X4960D01*
X4919Y920D02*
X4960D01*
X4938Y960D02*
X4960D01*
X4942Y1000D02*
X4960D01*
X4933Y1040D02*
X4960D01*
X4907Y1080D02*
X4960D01*
X4833Y1720D02*
X4960D01*
X4833Y1760D02*
X4960D01*
X4833Y1772D02*
X4960D01*
X5065Y760D02*
X5865D01*
X5065Y800D02*
X5865D01*
X5065Y840D02*
X5865D01*
X5065Y880D02*
X5865D01*
X5065Y920D02*
X5865D01*
X5065Y960D02*
X5865D01*
X5065Y1000D02*
X5865D01*
X5065Y1040D02*
X5865D01*
X5065Y1080D02*
X5865D01*
X5065Y1120D02*
X5865D01*
X5065Y1160D02*
X5865D01*
X5065Y1200D02*
X5865D01*
X5065Y1240D02*
X5865D01*
X5065Y1280D02*
X5865D01*
X5065Y1320D02*
X5865D01*
X5065Y1360D02*
X5865D01*
X5065Y1400D02*
X5865D01*
X5065Y1440D02*
X5865D01*
X5065Y1480D02*
X5865D01*
X5065Y1520D02*
X5865D01*
X5065Y1560D02*
X5865D01*
X5065Y1600D02*
X5865D01*
X5065Y1640D02*
X5865D01*
X5065Y1680D02*
X5865D01*
X5065Y720D02*
Y1715D01*
X5080Y720D02*
Y1715D01*
X5120Y720D02*
Y1715D01*
X5160Y720D02*
Y1715D01*
X5200Y720D02*
Y1715D01*
X5240Y720D02*
Y1715D01*
X5065Y720D02*
X5865D01*
X5280D02*
Y1715D01*
X5320Y720D02*
Y1715D01*
X5360Y720D02*
Y1715D01*
X5400Y720D02*
Y1715D01*
X5440Y720D02*
Y1715D01*
X5480Y720D02*
Y1715D01*
X5520Y720D02*
Y1715D01*
X5560Y720D02*
Y1715D01*
X5600Y720D02*
Y1715D01*
X5640Y720D02*
Y1715D01*
X5680Y720D02*
Y1715D01*
X5720Y720D02*
Y1715D01*
X5760Y720D02*
Y1715D01*
X5800Y720D02*
Y1715D01*
X5065D02*
X5865D01*
X5840Y720D02*
Y1715D01*
X5865Y720D02*
Y1715D01*
X5728Y318D02*
Y2175D01*
X5760Y318D02*
Y2175D01*
X5800Y318D02*
Y2175D01*
X5840Y318D02*
Y2175D01*
X5880Y318D02*
Y2175D01*
X5920Y318D02*
Y2175D01*
X5960Y318D02*
Y2175D01*
X6000Y318D02*
Y2175D01*
X6040Y318D02*
Y2175D01*
X6080Y318D02*
Y2175D01*
X6120Y318D02*
Y2175D01*
X6160Y318D02*
Y2175D01*
X6200Y318D02*
Y2175D01*
X6240Y318D02*
Y2175D01*
X6280Y318D02*
Y2175D01*
X6320Y318D02*
Y2175D01*
X5728Y318D02*
X8938D01*
X5728Y320D02*
X8938D01*
X5728Y360D02*
X8938D01*
X5728Y400D02*
X8938D01*
X5728Y440D02*
X8938D01*
X5728Y480D02*
X8938D01*
X5728Y520D02*
X8938D01*
X5728Y560D02*
X8938D01*
X5728Y600D02*
X8938D01*
X5728Y640D02*
X8938D01*
X5728Y680D02*
X8938D01*
X5728Y720D02*
X8938D01*
X5728Y760D02*
X8938D01*
X5728Y800D02*
X8938D01*
X5728Y840D02*
X8938D01*
X5728Y880D02*
X8938D01*
X5728Y920D02*
X8938D01*
X5728Y960D02*
X8938D01*
X5728Y1000D02*
X8938D01*
X5728Y1040D02*
X8938D01*
X5728Y1080D02*
X8938D01*
X5728Y1120D02*
X8938D01*
X5728Y1160D02*
X8938D01*
X5728Y1200D02*
X8938D01*
X5728Y1240D02*
X8938D01*
X5728Y1280D02*
X8938D01*
X5728Y1320D02*
X8938D01*
X5728Y1360D02*
X8938D01*
X5728Y1400D02*
X8938D01*
X5728Y1440D02*
X8938D01*
X5728Y1480D02*
X8938D01*
X5728Y1520D02*
X8938D01*
X5728Y1560D02*
X8938D01*
X5728Y1600D02*
X8938D01*
X5728Y1640D02*
X8938D01*
X5728Y1680D02*
X8938D01*
X5728Y1720D02*
X8938D01*
X5728Y1760D02*
X8938D01*
X5728Y1800D02*
X8938D01*
X5728Y1840D02*
X8938D01*
X5728Y1880D02*
X8938D01*
X5728Y1920D02*
X8938D01*
X5728Y1960D02*
X8938D01*
X5728Y2000D02*
X8938D01*
X5728Y2040D02*
X8938D01*
X5728Y2080D02*
X8938D01*
X5728Y2120D02*
X8938D01*
X5728Y2160D02*
X8938D01*
X5728Y2175D02*
X8938D01*
X6360Y318D02*
Y2175D01*
X6400Y318D02*
Y2175D01*
X6440Y318D02*
Y2175D01*
X6480Y318D02*
Y2175D01*
X6520Y318D02*
Y2175D01*
X6560Y318D02*
Y2175D01*
X6600Y318D02*
Y2175D01*
X6640Y318D02*
Y2175D01*
X6680Y318D02*
Y2175D01*
X6720Y318D02*
Y2175D01*
X6760Y318D02*
Y2175D01*
X6800Y318D02*
Y2175D01*
X6840Y318D02*
Y2175D01*
X6880Y318D02*
Y2175D01*
X6920Y318D02*
Y2175D01*
X6960Y318D02*
Y2175D01*
X7000Y318D02*
Y2175D01*
X7040Y318D02*
Y2175D01*
X7080Y318D02*
Y2175D01*
X7120Y318D02*
Y2175D01*
X7160Y318D02*
Y2175D01*
X7200Y318D02*
Y2175D01*
X7240Y318D02*
Y2175D01*
X7280Y318D02*
Y2175D01*
X7320Y318D02*
Y2175D01*
X7360Y318D02*
Y2175D01*
X7400Y318D02*
Y2175D01*
X7440Y318D02*
Y2175D01*
X7480Y318D02*
Y2175D01*
X7520Y318D02*
Y2175D01*
X7560Y318D02*
Y2175D01*
X7600Y318D02*
Y2175D01*
X7640Y318D02*
Y2175D01*
X7680Y318D02*
Y2175D01*
X7720Y318D02*
Y2175D01*
X7760Y318D02*
Y2175D01*
X7800Y318D02*
Y2175D01*
X7840Y318D02*
Y2175D01*
X7880Y318D02*
Y2175D01*
X7920Y318D02*
Y2175D01*
X7960Y318D02*
Y2175D01*
X8000Y318D02*
Y2175D01*
X8040Y318D02*
Y2175D01*
X8080Y318D02*
Y2175D01*
X8120Y318D02*
Y2175D01*
X8160Y318D02*
Y2175D01*
X8200Y318D02*
Y2175D01*
X8240Y318D02*
Y2175D01*
X8280Y318D02*
Y2175D01*
X8320Y318D02*
Y2175D01*
X8360Y318D02*
Y2175D01*
X8400Y318D02*
Y2175D01*
X8440Y318D02*
Y2175D01*
X8480Y318D02*
Y2175D01*
X8520Y318D02*
Y2175D01*
X8560Y318D02*
Y2175D01*
X8600Y318D02*
Y2175D01*
X8640Y318D02*
Y2175D01*
X8680Y318D02*
Y2175D01*
X8720Y318D02*
Y2175D01*
X8760Y318D02*
Y2175D01*
X8800Y318D02*
Y2175D01*
X8840Y318D02*
Y2175D01*
X8880Y318D02*
Y2175D01*
X8920Y318D02*
Y2175D01*
X8938Y318D02*
Y2175D01*
X4475Y1692D02*
Y1920D01*
X5100Y-1892D02*
Y-1733D01*
X5450Y1840D02*
X5620D01*
X5450Y1880D02*
X5620D01*
X5450Y1920D02*
X5620D01*
X5450Y1960D02*
X5620D01*
X5450Y2000D02*
X5620D01*
X5450Y2040D02*
X5620D01*
X5450Y2080D02*
X5620D01*
X5450Y2120D02*
X5620D01*
X5450Y1800D02*
Y2175D01*
X5480Y1800D02*
Y2175D01*
X5450Y1800D02*
X5620D01*
X5520D02*
Y2175D01*
X5560Y1800D02*
Y2175D01*
X5600Y1800D02*
Y2175D01*
X5450Y2160D02*
X5620D01*
X5450Y2175D02*
X5620D01*
Y1800D02*
Y2175D01*
X5320Y1852D02*
X5450D01*
X5330Y1938D02*
X5480D01*
X4640Y-1610D02*
Y-1550D01*
X4595D02*
X4640D01*
X4640D02*
Y-1522D01*
X4640Y-1560D02*
X4670D01*
X4835D02*
X4914D01*
X4840Y-1579D02*
Y-1555D01*
X4880Y-1773D02*
Y-1753D01*
X4960Y-1773D02*
Y-1582D01*
X4920Y-1773D02*
Y-1564D01*
X5000Y-1773D02*
Y-1588D01*
X4880Y-1627D02*
Y-1526D01*
X5040Y-1773D02*
Y-1582D01*
X5080Y-1773D02*
Y-1564D01*
X5120Y-1773D02*
Y-1526D01*
X4616Y-1520D02*
X4639D01*
X4408Y-1360D02*
X4427D01*
X4408Y-1377D02*
Y-862D01*
X4578Y-1360D02*
X4677D01*
X4600Y-1380D02*
Y-1265D01*
X4866Y-1520D02*
X4876D01*
X4614Y-1400D02*
X4641D01*
X4640Y-1403D02*
Y-1265D01*
X4840Y-1370D02*
Y-909D01*
X4868Y-1773D02*
X5158D01*
X4876Y-1760D02*
X5150D01*
X4892Y-1720D02*
X5135D01*
X4895Y-1680D02*
X5133D01*
X4886Y-1640D02*
X5143D01*
X4862Y-1600D02*
X5167D01*
X5160Y-1609D02*
Y-1577D01*
X5400Y-1773D02*
Y-1750D01*
X5450Y-2080D02*
X6285D01*
X5387Y-1773D02*
X5450D01*
X5395Y-1760D02*
X5460D01*
X5410Y-1720D02*
X5475D01*
X5412Y-1680D02*
X5508D01*
X5378Y-1600D02*
X5661D01*
X5402Y-1640D02*
X5670D01*
X5086Y-1560D02*
X5133D01*
Y-1577D02*
Y-1505D01*
Y-1577D02*
X5193D01*
X5124Y-1520D02*
X5133D01*
Y-1375D02*
Y-1298D01*
X5400Y-1635D02*
Y-1577D01*
X5352D02*
X5412D01*
Y-1560D02*
X5663D01*
X5412Y-1577D02*
Y-1298D01*
X5440Y-1773D02*
Y-862D01*
X5412Y-1440D02*
X5463D01*
X5412Y-1400D02*
X5444D01*
X5412Y-1520D02*
X5547D01*
X5412Y-1480D02*
X5487D01*
X4408Y-1240D02*
X4553D01*
X4408Y-1200D02*
X4553D01*
X4408Y-1320D02*
X4914D01*
X4553Y-1265D02*
X4833D01*
X4408Y-1160D02*
X4553D01*
X4408Y-1120D02*
X4553D01*
X4408Y-1080D02*
X4553D01*
X4408Y-1040D02*
X4553D01*
X4408Y-1000D02*
X4553D01*
X4560Y-1349D02*
Y-1265D01*
X4680Y-1358D02*
Y-1265D01*
X4828Y-1360D02*
X4876D01*
X4720Y-1339D02*
Y-1265D01*
X4553D02*
Y-985D01*
X4592D01*
X4760Y-1335D02*
Y-1265D01*
X4800Y-1344D02*
Y-1265D01*
X4833D02*
Y-985D01*
X4440Y-1351D02*
Y-862D01*
X4480Y-1337D02*
Y-862D01*
X4520Y-1336D02*
Y-862D01*
X4408Y-880D02*
X4540D01*
X4408Y-862D02*
X4540D01*
X4408Y-960D02*
X4569D01*
X4408Y-920D02*
X4548D01*
X4560Y-985D02*
Y-945D01*
X4880Y-1354D02*
Y-862D01*
X4920Y-1316D02*
Y-862D01*
X4960Y-1298D02*
Y-862D01*
X5040Y-1298D02*
Y-862D01*
X5080Y-1316D02*
Y-862D01*
X4793Y-985D02*
X4833D01*
X5000Y-1293D02*
Y-862D01*
X5124Y-1360D02*
X5133D01*
X5086Y-1320D02*
X5133D01*
Y-1298D02*
X5412D01*
X4408Y-1280D02*
X5503D01*
X4833Y-1240D02*
X6362D01*
X4833Y-1080D02*
X5180D01*
X4833Y-1200D02*
X6362D01*
X4833Y-1160D02*
X6362D01*
X4833Y-1120D02*
X6362D01*
X5200Y-1298D02*
Y-1097D01*
X5160Y-1298D02*
Y-1052D01*
X5412Y-1360D02*
X5448D01*
X5412Y-1320D02*
X5470D01*
X5280Y-1298D02*
Y-1120D01*
X5240Y-1298D02*
Y-1116D01*
X5320Y-1298D02*
Y-1111D01*
X5360Y-1298D02*
Y-1085D01*
X5365Y-1080D02*
X5520D01*
X4833Y-1000D02*
X5145D01*
X5120Y-1354D02*
Y-862D01*
X4833Y-1040D02*
X5154D01*
X4816Y-960D02*
X5149D01*
X5160Y-933D02*
Y-862D01*
X4837Y-920D02*
X5168D01*
X4845Y-880D02*
X5212D01*
X4845Y-862D02*
X6362D01*
X5400Y-1298D02*
Y-995D01*
Y-990D02*
Y-862D01*
X5391Y-1040D02*
X5494D01*
X5400Y-1000D02*
X5485D01*
X5396Y-960D02*
X5489D01*
X5200Y-888D02*
Y-862D01*
X5320Y-874D02*
Y-862D01*
X5377Y-920D02*
X5508D01*
X5333Y-880D02*
X5552D01*
X5360Y-900D02*
Y-862D01*
X5560Y-2177D02*
Y-1922D01*
X5520Y-2177D02*
Y-1904D01*
X5600Y-2177D02*
Y-1927D01*
X5640Y-2177D02*
Y-1921D01*
X5450Y-1920D02*
X5552D01*
X5450Y-1880D02*
X5492D01*
X5450Y-2040D02*
X5983D01*
X5450Y-2000D02*
X5939D01*
X5450Y-1960D02*
X5900D01*
X5920Y-2177D02*
Y-1981D01*
X5680Y-2177D02*
Y-1901D01*
X6000Y-2177D02*
Y-2047D01*
X5960Y-2177D02*
Y-2021D01*
X5643Y-1920D02*
X5885D01*
X5907Y-1968D02*
X5967Y-2028D01*
X5480Y-2177D02*
Y-1864D01*
X5450Y-2177D02*
Y-1773D01*
X5720Y-2177D02*
Y-1855D01*
X5450Y-1840D02*
X5468D01*
X5450Y-1800D02*
X5458D01*
X5703Y-1880D02*
X5885D01*
X5720Y-1720D02*
X5755D01*
X5800Y-2177D02*
Y-1727D01*
X5760Y-2177D02*
Y-1722D01*
X5840Y-2177D02*
Y-1722D01*
X5880Y-2177D02*
Y-1702D01*
X5885Y-1915D02*
Y-1699D01*
X5727Y-1840D02*
X5885D01*
X5720Y-1720D02*
Y-1702D01*
X5737Y-1800D02*
X5885D01*
X5735Y-1760D02*
X5885D01*
X5845Y-1720D02*
X5885D01*
X6040Y-2177D02*
Y-2050D01*
X6080Y-2177D02*
Y-2050D01*
X5450Y-2177D02*
X6362D01*
X6120D02*
Y-2050D01*
X6160Y-2177D02*
Y-2050D01*
X5450Y-2160D02*
X6362D01*
X5450Y-2120D02*
X6362D01*
X6020Y-2050D02*
X6241D01*
X6200Y-2177D02*
Y-2050D01*
X6240Y-2177D02*
Y-2050D01*
X6320Y-2177D02*
Y-2087D01*
X6280Y-2177D02*
Y-2078D01*
X6231Y-1900D02*
X6241D01*
X6240D02*
Y-1881D01*
X6362Y-2177D02*
Y-2081D01*
X6360Y-2177D02*
Y-2082D01*
X6035Y-1742D02*
Y-1593D01*
X6040Y-1738D02*
Y-1597D01*
X6221Y-1760D02*
X6362D01*
X6035Y-1720D02*
X6070D01*
X6080Y-1716D02*
Y-1619D01*
X6170Y-1720D02*
X6362D01*
X6160Y-1716D02*
Y-1619D01*
X6200Y-1738D02*
Y-1597D01*
X6240Y-1880D02*
X6265D01*
X6280Y-1872D02*
Y-862D01*
X6362Y-1869D02*
Y-862D01*
X6240Y-1794D02*
Y-1541D01*
X6320Y-1863D02*
Y-862D01*
X6247Y-1840D02*
X6362D01*
X6242Y-1800D02*
X6362D01*
X6360Y-1868D02*
Y-862D01*
X5520Y-1671D02*
Y-1507D01*
X5480Y-1711D02*
Y-1471D01*
X5600Y-1648D02*
Y-1527D01*
X5560Y-1653D02*
Y-1524D01*
X5640Y-1654D02*
Y-1519D01*
X5600Y-1248D02*
Y-1119D01*
X5638Y-1520D02*
X5677D01*
X5680Y-1674D02*
Y-1660D01*
Y-1515D02*
Y-1497D01*
X5698Y-1480D02*
X5710D01*
X5640Y-1256D02*
Y-1117D01*
X5720Y-1473D02*
Y-1462D01*
X5711D02*
X5737D01*
X5711Y-1312D02*
X5886D01*
X5520Y-1268D02*
Y-1080D01*
X5480Y-1304D02*
Y-862D01*
X5560Y-1251D02*
Y-1109D01*
X5520Y-905D02*
Y-862D01*
X5560Y-876D02*
Y-862D01*
X5720Y-1312D02*
Y-1061D01*
X5760Y-1312D02*
Y-862D01*
X5800Y-1312D02*
Y-862D01*
X5840Y-1312D02*
Y-862D01*
X5920Y-1321D02*
Y-862D01*
X5680Y-1278D02*
Y-1101D01*
Y-884D02*
Y-862D01*
X5720Y-924D02*
Y-862D01*
X5880Y-1312D02*
Y-862D01*
X6035Y-1600D02*
X6044D01*
X6035Y-1680D02*
X6362D01*
X6035Y-1640D02*
X6362D01*
X6005Y-1400D02*
X6038D01*
X5965Y-1360D02*
X6362D01*
X6120Y-1710D02*
Y-1625D01*
X6196Y-1600D02*
X6362D01*
X6231Y-1560D02*
X6362D01*
X6245Y-1520D02*
X6362D01*
X6246Y-1480D02*
X6362D01*
X6202Y-1400D02*
X6362D01*
X6234Y-1440D02*
X6362D01*
X5682Y-1280D02*
X6362D01*
X5705Y-1080D02*
X6362D01*
X5731Y-1040D02*
X6362D01*
X5740Y-1000D02*
X6362D01*
X5736Y-960D02*
X6362D01*
X5673Y-880D02*
X6362D01*
X5717Y-920D02*
X6362D01*
X5939Y-1334D02*
X6013Y-1408D01*
X6000Y-1395D02*
Y-862D01*
X6040Y-1398D02*
Y-862D01*
X6200Y-1398D02*
Y-862D01*
X6240Y-1454D02*
Y-862D01*
X5960Y-1355D02*
Y-862D01*
X6080Y-1376D02*
Y-862D01*
X5919Y-1320D02*
X6362D01*
X6120Y-1370D02*
Y-862D01*
X6160Y-1376D02*
Y-862D01*
D27*
X9532Y-80D02*
D03*
X8065Y-1227D02*
D03*
Y-1992D02*
D03*
Y-1865D02*
D03*
Y-1738D02*
D03*
Y-1482D02*
D03*
Y-1355D02*
D03*
X8718Y852D02*
D03*
X8718Y342D02*
D03*
X8718Y342D02*
D03*
Y215D02*
D03*
Y470D02*
D03*
Y725D02*
D03*
Y852D02*
D03*
Y980D02*
D03*
X9532Y-208D02*
D03*
Y-335D02*
D03*
X9532Y-590D02*
D03*
Y-718D02*
D03*
Y-845D02*
D03*
D28*
X6897Y-1610D02*
D03*
X9885Y597D02*
D03*
X9885Y597D02*
D03*
X8365Y-462D02*
D03*
D29*
X4503Y-1462D02*
Y-1357D01*
Y-1462D02*
X4608D01*
X4562Y-870D02*
X4692D01*
Y-740D01*
Y-870D02*
X4822D01*
X4660Y482D02*
X4790D01*
X5000Y-1440D02*
Y-1315D01*
X4790Y380D02*
Y482D01*
X4920D01*
X4790D02*
Y585D01*
X4897Y1795D02*
Y2000D01*
X4858Y-1298D02*
X5000Y-1440D01*
X5003Y-1438D02*
X5272D01*
X5340Y-1873D02*
X5471D01*
X4422Y1717D02*
Y1880D01*
X4955Y1728D02*
Y1880D01*
X4897Y2000D02*
X5428D01*
X4897Y-2000D02*
Y-1795D01*
X4503Y-1462D02*
X4608D01*
X4503D02*
Y-1357D01*
X5000Y-1565D02*
Y-1440D01*
Y-1315D01*
X4897Y-2000D02*
X5428D01*
X5272Y-1438D02*
X5390D01*
X5272D02*
Y-1320D01*
X4562Y-870D02*
X4692D01*
X4822D01*
X5800Y-1705D02*
Y-1588D01*
X5683D02*
X5800D01*
X5612Y-1098D02*
Y-993D01*
X5508D02*
X5612D01*
X5717D01*
X5612D02*
Y-888D01*
X6120Y-1602D02*
Y-1498D01*
X6225D01*
X6120D02*
Y-1393D01*
D30*
X9118Y-80D02*
X9532D01*
X8065Y-1227D02*
X8297D01*
D31*
X9912Y550D02*
X11178D01*
X9595Y867D02*
X9912Y550D01*
X9145Y822D02*
X9567D01*
X8811Y1076D02*
X9145D01*
X9117Y-588D02*
X9451D01*
X8784Y-334D02*
X9117D01*
X8520Y-1482D02*
X8862Y-1481D01*
D33*
X7715Y-1562D02*
X8109D01*
X4170Y-2140D02*
X5510D01*
X4188Y2138D02*
X5510D01*
D36*
X9117Y-80D02*
D03*
X8862Y-1227D02*
D03*
X9145Y568D02*
D03*
D37*
X4175Y1780D02*
D03*
Y1385D02*
D03*
Y988D02*
D03*
Y593D02*
D03*
Y-1785D02*
D03*
Y-595D02*
D03*
Y-200D02*
D03*
Y195D02*
D03*
Y-993D02*
D03*
Y-1388D02*
D03*
D38*
Y-2180D02*
D03*
Y2175D02*
D03*
D39*
X11165Y1652D02*
D03*
Y-1648D02*
D03*
Y-547D02*
D03*
Y553D02*
D03*
D40*
X10015Y-1700D02*
D03*
Y-700D02*
D03*
D41*
X8862Y-1735D02*
D03*
Y-1481D02*
D03*
X9145Y822D02*
D03*
Y1076D02*
D03*
X9117Y-334D02*
D03*
Y-588D02*
D03*
X5000Y-1440D02*
D03*
D42*
X10160Y1502D02*
D03*
X8160D02*
D03*
D43*
X4790Y738D02*
D03*
Y993D02*
D03*
Y482D02*
D03*
Y233D02*
D03*
D44*
X5597Y-1788D02*
D03*
X5592Y-1388D02*
D03*
X5800Y-1588D02*
D03*
X5272Y-1692D02*
D03*
X4755Y-1690D02*
D03*
D45*
X5272Y-1438D02*
D03*
X4692Y-1125D02*
D03*
X4500Y-1690D02*
D03*
D46*
X6120Y-1498D02*
D03*
Y-1838D02*
D03*
X5612Y-993D02*
D03*
X5272D02*
D03*
X4503Y-1462D02*
D03*
X4753D02*
D03*
X7715Y-1390D02*
D03*
Y-1200D02*
D03*
D47*
X4692Y1652D02*
D03*
D48*
Y1908D02*
D03*
D49*
X4790Y-22D02*
D03*
D50*
X4692Y-870D02*
D03*
D51*
X7715Y-1010D02*
D03*
D52*
X10720Y-8D02*
D03*
X10520D02*
D03*
X10720Y973D02*
D03*
Y772D02*
D03*
Y572D02*
D03*
X10520Y772D02*
D03*
Y572D02*
D03*
X10720Y372D02*
D03*
Y173D02*
D03*
X10520Y372D02*
D03*
Y173D02*
D03*
Y973D02*
D03*
X10720Y-208D02*
D03*
Y-407D02*
D03*
X10520Y-208D02*
D03*
Y-407D02*
D03*
X10720Y-607D02*
D03*
Y-807D02*
D03*
X10520Y-607D02*
D03*
Y-807D02*
D03*
Y973D02*
D03*
Y772D02*
D03*
Y572D02*
D03*
X10320Y772D02*
D03*
Y572D02*
D03*
X10520Y372D02*
D03*
Y173D02*
D03*
X10320Y372D02*
D03*
Y173D02*
D03*
Y973D02*
D03*
X8572Y1920D02*
D03*
X8372D02*
D03*
X8172D02*
D03*
X8372Y2120D02*
D03*
X8172D02*
D03*
X7972Y1920D02*
D03*
Y2120D02*
D03*
X8572D02*
D03*
X10340Y1920D02*
D03*
X10140D02*
D03*
X9940D02*
D03*
X10140Y2120D02*
D03*
X9940D02*
D03*
X9740Y1920D02*
D03*
X9540D02*
D03*
X9740Y2120D02*
D03*
X9540D02*
D03*
X10340D02*
D03*
X9372Y1920D02*
D03*
X9172D02*
D03*
X8972D02*
D03*
X9172Y2120D02*
D03*
X8972D02*
D03*
X8772Y1920D02*
D03*
X8572D02*
D03*
X8772Y2120D02*
D03*
X8572D02*
D03*
X9372D02*
D03*
X9375Y1520D02*
D03*
X9175D02*
D03*
X8975D02*
D03*
X9175Y1720D02*
D03*
X8975D02*
D03*
X8775Y1520D02*
D03*
X8575D02*
D03*
X8775Y1720D02*
D03*
X8575D02*
D03*
X9375D02*
D03*
X7793Y2120D02*
D03*
Y1920D02*
D03*
Y1720D02*
D03*
X7593Y1920D02*
D03*
Y1720D02*
D03*
X7793Y1520D02*
D03*
Y1320D02*
D03*
X7593Y1520D02*
D03*
Y1320D02*
D03*
Y2120D02*
D03*
X10703Y2120D02*
D03*
Y1920D02*
D03*
Y1720D02*
D03*
X10503Y1920D02*
D03*
Y1720D02*
D03*
X10703Y1520D02*
D03*
Y1320D02*
D03*
X10503Y1520D02*
D03*
Y1320D02*
D03*
Y2120D02*
D03*
X7710Y-2002D02*
D03*
X6325Y-1975D02*
D03*
X7500Y-1835D02*
D03*
X8297Y-1227D02*
D03*
X7715Y-745D02*
D03*
X6325Y-1733D02*
D03*
X4628Y-603D02*
D03*
X7715Y-1562D02*
D03*
X9145Y215D02*
D03*
X8240Y272D02*
D03*
X8440D02*
D03*
X8240Y940D02*
D03*
Y778D02*
D03*
X8440Y938D02*
D03*
Y778D02*
D03*
X9630Y-1065D02*
D03*
Y-865D02*
D03*
Y-665D02*
D03*
X9630Y-465D02*
D03*
X9630Y-265D02*
D03*
X9430D02*
D03*
Y-465D02*
D03*
Y-665D02*
D03*
Y-865D02*
D03*
Y-1065D02*
D03*
X9520Y167D02*
D03*
Y367D02*
D03*
X9520Y568D02*
D03*
X9520Y768D02*
D03*
X9520Y968D02*
D03*
X9720Y968D02*
D03*
X9920D02*
D03*
X10120Y968D02*
D03*
X10120Y768D02*
D03*
X9720D02*
D03*
X9920D02*
D03*
X9720Y568D02*
D03*
X9920Y568D02*
D03*
X10120Y568D02*
D03*
X10120Y368D02*
D03*
X9920Y367D02*
D03*
X9720D02*
D03*
X9720Y167D02*
D03*
X9920D02*
D03*
X10120Y168D02*
D03*
X7372Y857D02*
D03*
X9140Y-1840D02*
D03*
Y-1640D02*
D03*
Y-1440D02*
D03*
Y-1240D02*
D03*
X9200Y-868D02*
D03*
Y-1065D02*
D03*
X9540Y-1840D02*
D03*
Y-1640D02*
D03*
Y-1440D02*
D03*
Y-1240D02*
D03*
X9340D02*
D03*
Y-1440D02*
D03*
Y-1640D02*
D03*
Y-1840D02*
D03*
X8240Y412D02*
D03*
X8440D02*
D03*
X4385Y-8D02*
D03*
X4912Y1138D02*
D03*
X5978Y-920D02*
D03*
X4480Y1362D02*
D03*
X4628Y1360D02*
D03*
X4520Y455D02*
D03*
X4600Y340D02*
D03*
X4897Y-800D02*
D03*
X4495Y-1960D02*
D03*
X4700D02*
D03*
X4897D02*
D03*
X5092D02*
D03*
X5297D02*
D03*
X6217Y-2120D02*
D03*
X6022D02*
D03*
X5458Y-1560D02*
D03*
X4480Y-1290D02*
D03*
X4650Y-1320D02*
D03*
X4920Y360D02*
D03*
X4440Y342D02*
D03*
X4503Y2040D02*
D03*
X4800Y2080D02*
D03*
X5520Y1837D02*
D03*
X10672Y-1327D02*
D03*
Y-1527D02*
D03*
Y-1727D02*
D03*
Y-1927D02*
D03*
Y-2127D02*
D03*
X10472D02*
D03*
Y-1927D02*
D03*
Y-1727D02*
D03*
Y-1527D02*
D03*
Y-1327D02*
D03*
X9825Y-2080D02*
D03*
D53*
X4897Y-2000D02*
D03*
Y2000D02*
D03*
M02*
