METRIC,LZ
M48
T1F00S00C0.70
T2F00S00C0.80
T3F00S00C0.90
T4F00S00C1.00
T5F00S00C1.30
T6F00S00C1.80
T7F00S00C3.00
T8F00S00C4.50
%
T01
X009145Y000215
X00952Y000167
X00972
X00992
X01012Y000168
X01032Y000173
X01052
X01052Y-000008
X01072
X01072Y000173
Y-000208
X01052
Y-000407
X01072
Y-000607
X01052
Y-000807
X01072
X010672Y-001327
Y-001527
Y-001727
Y-001927
Y-002127
X010472
Y-001927
Y-001727
Y-001527
Y-001327
X00954Y-00124
Y-00144
Y-00164
Y-00184
X00934
Y-00164
Y-00144
Y-00124
X00914
Y-00144
Y-00164
Y-00184
X0092Y-001065
Y-000868
X00943Y-000865
X00963
Y-000665
X00943
Y-000465
Y-000265
X00963
X00963Y-000465
X00963Y-001065
X00943
X008297Y-001227
X009825Y-00208
X00771Y-002002
X0075Y-001835
X007715Y-001562
Y-000745
X005978Y-00092
X006325Y-001733
Y-001975
X006217Y-00212
X006022
X005297Y-00196
X005092
X004897
X0047
X004495
X00448Y-00129
X00465Y-00132
X004628Y-000603
X004897Y-0008
X004385Y-000008
X005458Y-00156
X00492Y00036
X0046Y00034
X00444Y000342
X00452Y000455
X00448Y001362
X004628Y00136
X004912Y001138
X0048Y00208
X004503Y00204
X00552Y001837
X007593Y00192
X007793
Y00212
X007593
Y00172
X007793
Y00152
X007593
Y00132
X007793
X007372Y000857
X00824Y000778
Y00094
X00844Y000938
Y000778
Y000412
Y000272
X00824
Y000412
X00952Y000367
X00972
X00992
Y000568
X00992Y000768
X01012
Y000568
X01012Y000368
X01032Y000372
X01052
X01072
Y000572
X01052
X01032
Y000772
X01052
X01072
Y000973
X01052
X01032
X01012Y000968
X00992Y000968
X00972
X00972Y000768
X00952
X00952Y000568
X00972Y000568
X00952Y000968
X009375Y00152
Y00172
X009175
Y00152
X008975
Y00172
X008775
Y00152
X008575
Y00172
X008572Y00192
Y00212
X008372
Y00192
X008172
Y00212
X007972
Y00192
X008772
Y00212
X008972
Y00192
X009172
Y00212
X009372
X00954
Y00192
X009372
X00974
Y00212
X00994
Y00192
X01014
Y00212
X01034
X010503Y00212
X010703
Y00192
X010503
X01034Y00192
X010503Y00172
X010703
Y00152
X010503
Y00132
X010703
T02
X007715Y-00101
Y-0012
Y-00139
T03
X004503Y-001462
X004753
X005272Y-000993
X005612
X00612Y-001498
Y-001838
T04
X009117Y-00008
Y-000334
Y-000588
X008862Y-001227
Y-001481
Y-001735
X0058Y-001588
X005597Y-001788
X005592Y-001388
X005272Y-001438
Y-001692
X004755Y-00169
X0045
X005Y-00144
X004692Y-001125
X00479Y-000022
Y000233
Y000482
Y000738
Y000993
X004692Y001652
Y001908
X009145Y001076
Y000822
Y000568
T05
X004692Y-00087
T06
X004175Y000195
Y-0002
Y-000595
Y-000993
Y-001388
Y-001785
Y-00218
Y000593
Y000988
Y001385
Y00178
Y002175
T07
X011165Y-000547
Y-001648
Y000553
Y001652
X01016Y001502
X00816
T08
X010015Y-0007
Y-0017
M30
