%FSLAX42Y42*%
%MOMM*%
G71*
G01*
G75*
G04 Layer_Physical_Order=1*
%ADD10C,0.45*%
%ADD11R,0.95X0.80*%
%ADD12R,0.80X0.95*%
%ADD13O,2.00X0.50*%
%ADD14R,1.52X1.27*%
%ADD15R,2.00X0.50*%
%ADD16O,0.50X2.00*%
%ADD17R,1.50X1.25*%
%ADD18R,2.54X1.52*%
%ADD19R,1.25X1.50*%
%ADD20R,1.27X0.91*%
%ADD21R,0.91X0.91*%
%ADD22R,0.95X0.90*%
%ADD23R,0.90X0.95*%
%ADD24R,0.50X2.00*%
%ADD25R,2.30X1.90*%
%ADD26R,1.90X2.30*%
%ADD27R,3.20X0.90*%
%ADD28R,9.00X11.50*%
%ADD29C,0.50*%
%ADD30C,0.75*%
%ADD31C,1.90*%
%ADD32C,0.65*%
%ADD33C,1.20*%
%ADD34C,2.15*%
%ADD35R,3.02X1.68*%
%ADD36R,1.90X1.90*%
%ADD37C,3.00*%
%ADD38O,3.00X1.80*%
%ADD39R,16.00X8.00*%
%ADD40R,5.50X9.00*%
%ADD41C,1.90*%
%ADD42R,5.00X5.00*%
%ADD43O,2.00X1.45*%
%ADD44C,1.75*%
%ADD45R,1.75X1.75*%
%ADD46C,1.50*%
%ADD47R,1.75X1.45*%
%ADD48O,1.75X1.45*%
%ADD49R,2.00X1.45*%
%ADD50C,2.00*%
%ADD51R,1.50X1.50*%
%ADD52C,1.20*%
D10*
X8603Y-857D02*
G03*
X8638Y-849I0J77D01*
G01*
X8603Y-857D02*
G03*
X8638Y-849I0J77D01*
G01*
X8580Y-550D02*
G03*
X8548Y-488I-77J0D01*
G01*
X8365Y-1138D02*
G03*
X8365Y-1318I-68J-90D01*
G01*
X8130Y-835D02*
G03*
X8185Y-857I55J55D01*
G01*
X8130Y-835D02*
G03*
X8185Y-857I55J55D01*
G01*
X8767Y-725D02*
G03*
X8790Y-670I-55J55D01*
G01*
X8767Y-725D02*
G03*
X8790Y-670I-55J55D01*
G01*
X8610Y-857D02*
G03*
X8657Y-835I-7J77D01*
G01*
X8610Y-857D02*
G03*
X8657Y-835I-7J77D01*
G01*
X8579Y20D02*
G03*
X8577Y30I-77J-10D01*
G01*
X8580Y10D02*
G03*
X8579Y20I-77J0D01*
G01*
X8440Y-186D02*
G03*
X8569Y-180I62J46D01*
G01*
X8312Y-182D02*
G03*
X8440Y-186I65J42D01*
G01*
X8200Y-201D02*
G03*
X8312Y-182I47J61D01*
G01*
X8455Y-489D02*
G03*
X8432Y-443I-77J-8D01*
G01*
X8455Y-489D02*
G03*
X8432Y-443I-77J-8D01*
G01*
X8767Y-725D02*
G03*
X8790Y-670I-55J55D01*
G01*
X8767Y-725D02*
G03*
X8790Y-670I-55J55D01*
G01*
X8603Y-857D02*
G03*
X8657Y-835I0J77D01*
G01*
X8603Y-857D02*
G03*
X8657Y-835I0J77D01*
G01*
X8580Y-550D02*
G03*
X8455Y-489I-77J0D01*
G01*
X8130Y-835D02*
G03*
X8185Y-857I55J55D01*
G01*
X8130Y-835D02*
G03*
X8185Y-857I55J55D01*
G01*
X7447Y267D02*
G03*
X7465Y270I0J77D01*
G01*
X7238Y296D02*
G03*
X7297Y267I60J49D01*
G01*
X7252Y-127D02*
G03*
X7297Y-267I46J-62D01*
G01*
X7465Y-506D02*
G03*
X7488Y-560I77J1D01*
G01*
X7465Y-506D02*
G03*
X7488Y-560I77J1D01*
G01*
X7236Y112D02*
G03*
X7255Y0I61J-47D01*
G01*
Y-0D02*
G03*
X7252Y-127I42J-65D01*
G01*
X7797Y-668D02*
G03*
X7797Y-823I-82J-77D01*
G01*
X7885D02*
G03*
X7940Y-800I0J77D01*
G01*
X7885Y-823D02*
G03*
X7940Y-800I0J77D01*
G01*
X7533Y-605D02*
G03*
X7588Y-628I55J55D01*
G01*
X7533Y-605D02*
G03*
X7588Y-628I55J55D01*
G01*
X10832Y-8D02*
G03*
X10620Y44I-112J0D01*
G01*
X10822Y-55D02*
G03*
X10832Y-8I-102J47D01*
G01*
X10620Y44D02*
G03*
X10418Y-55I-100J-52D01*
G01*
X5740Y642D02*
G03*
X5847Y624I62J46D01*
G01*
X4550Y-740D02*
G03*
X4571Y-700I-55J55D01*
G01*
X4550Y-740D02*
G03*
X4571Y-700I-55J55D01*
G01*
X4845Y-870D02*
G03*
X4541Y-890I-152J0D01*
G01*
X4571Y-700D02*
G03*
X4709Y-680I56J97D01*
G01*
X4642Y267D02*
G03*
X4615Y272I-27J-72D01*
G01*
X4642Y267D02*
G03*
X4615Y272I-27J-72D01*
G01*
X4762Y358D02*
G03*
X4642Y267I0J-125D01*
G01*
X4916Y310D02*
G03*
X4817Y358I-98J-77D01*
G01*
X4638Y497D02*
G03*
X4762Y358I124J-15D01*
G01*
X4817D02*
G03*
X4942Y482I0J125D01*
G01*
X4844Y-890D02*
G03*
X4845Y-870I-151J20D01*
G01*
X5162Y287D02*
G03*
X5138Y304I-55J-55D01*
G01*
X5162Y287D02*
G03*
X5138Y304I-55J-55D01*
G01*
X4942Y482D02*
G03*
X4942Y497I-125J0D01*
G01*
X4780Y1400D02*
G03*
X4725Y1377I0J-77D01*
G01*
X4780Y1400D02*
G03*
X4725Y1377I0J-77D01*
G01*
X4975Y1435D02*
G03*
X5030Y1458I0J77D01*
G01*
X4975Y1435D02*
G03*
X5030Y1458I0J77D01*
G01*
X5155Y1435D02*
G03*
X5103Y1412I3J-77D01*
G01*
X5155Y1435D02*
G03*
X5103Y1412I3J-77D01*
G01*
X5087Y1515D02*
G03*
X5110Y1570I-55J55D01*
G01*
X5087Y1515D02*
G03*
X5110Y1570I-55J55D01*
G01*
X4678Y2033D02*
G03*
X4556Y1880I0J-125D01*
G01*
X4833Y1908D02*
G03*
X4708Y2033I-125J0D01*
G01*
X4865Y2027D02*
G03*
X4842Y1972I55J-55D01*
G01*
X4865Y2027D02*
G03*
X4842Y1972I55J-55D01*
G01*
X4980Y2110D02*
G03*
X4925Y2087I0J-77D01*
G01*
X4980Y2110D02*
G03*
X4925Y2087I0J-77D01*
G01*
X5360Y1667D02*
G03*
X5347Y1650I55J-55D01*
G01*
X5360Y1667D02*
G03*
X5347Y1650I55J-55D01*
G01*
X5465Y1740D02*
G03*
X5410Y1717I0J-77D01*
G01*
X5465Y1740D02*
G03*
X5410Y1717I0J-77D01*
G01*
X6938Y1983D02*
G03*
X6930Y1992I-63J-45D01*
G01*
X6938Y1983D02*
G03*
X6930Y1992I-63J-45D01*
G01*
X6835Y2087D02*
G03*
X6780Y2110I-55J-55D01*
G01*
X6835Y2087D02*
G03*
X6780Y2110I-55J-55D01*
G01*
X4410Y-1862D02*
G03*
X4460Y-1840I-5J77D01*
G01*
X4410Y-1862D02*
G03*
X4460Y-1840I-5J77D01*
G01*
X4677Y-1574D02*
G03*
X4640Y-1610I78J-116D01*
G01*
Y-1770D02*
G03*
X4831Y-1808I115J80D01*
G01*
X4628Y-1488D02*
G03*
X4675Y-1564I125J25D01*
G01*
G03*
X4677Y-1574I77J6D01*
G01*
X4595Y-1550D02*
G03*
X4628Y-1488I-93J88D01*
G01*
X5193Y-1808D02*
G03*
X5389Y-1770I80J115D01*
G01*
Y-1615D02*
G03*
X5352Y-1577I-117J-77D01*
G01*
X5459Y-1770D02*
G03*
X5490Y-1877I139J-17D01*
G01*
X5741Y-1715D02*
G03*
X5715Y-1710I-26J-73D01*
G01*
X5741Y-1715D02*
G03*
X5715Y-1710I-26J-73D01*
G01*
X5557Y-1638D02*
G03*
X5503Y-1615I-55J-55D01*
G01*
X5460Y-1343D02*
G03*
X5733Y-1388I133J-44D01*
G01*
X5714Y-1710D02*
G03*
X5570Y-1650I-117J-77D01*
G01*
X5940Y-1588D02*
G03*
X5741Y-1715I-140J0D01*
G01*
X5557Y-1638D02*
G03*
X5503Y-1615I-55J-55D01*
G01*
X4628Y-1437D02*
G03*
X4410Y-1375I-125J-25D01*
G01*
X4482Y-1190D02*
G03*
X4505Y-1135I-55J55D01*
G01*
X4482Y-1190D02*
G03*
X4505Y-1135I-55J55D01*
G01*
X4860Y-1394D02*
G03*
X4628Y-1437I-107J-69D01*
G01*
X4580Y-768D02*
G03*
X4592Y-985I113J-102D01*
G01*
X4838Y-917D02*
G03*
X4842Y-900I-145J47D01*
G01*
G03*
X4845Y-870I-150J30D01*
G01*
G03*
X4805Y-768I-152J0D01*
G01*
X4962Y-1298D02*
G03*
X4860Y-1394I38J-142D01*
G01*
X5133Y-1375D02*
G03*
X5038Y-1298I-133J-65D01*
G01*
X5422Y-1323D02*
G03*
X5460Y-1343I53J53D01*
G01*
X5422Y-1323D02*
G03*
X5460Y-1343I53J53D01*
G01*
X5770Y-1733D02*
G03*
X5749Y-1718I-55J-55D01*
G01*
X5770Y-1733D02*
G03*
X5749Y-1718I-55J-55D01*
G01*
G03*
X5940Y-1588I51J130D01*
G01*
X6213Y-1985D02*
G03*
X6407Y-2052I112J10D01*
G01*
X6398Y-1701D02*
G03*
X6468Y-1745I70J34D01*
G01*
X6618D02*
G03*
X6695Y-1667I0J77D01*
G01*
X6845Y-1700D02*
G03*
X6868Y-1755I77J0D01*
G01*
X6845Y-1700D02*
G03*
X6868Y-1755I77J0D01*
G01*
X5733Y-1388D02*
G03*
X5731Y-1370I-140J0D01*
G01*
X6695Y-1667D02*
G03*
X6663Y-1605I-77J0D01*
G01*
G03*
X6686Y-1578I-46J62D01*
G01*
X6868Y-1443D02*
G03*
X6845Y-1498I55J-55D01*
G01*
X6868Y-1443D02*
G03*
X6845Y-1498I55J-55D01*
G01*
X6867Y-1397D02*
G03*
X6890Y-1343I-55J55D01*
G01*
X6867Y-1397D02*
G03*
X6890Y-1343I-55J55D01*
G01*
X6973Y-1343D02*
G03*
X6953Y-1358I34J-70D01*
G01*
X6973Y-1343D02*
G03*
X6953Y-1358I34J-70D01*
G01*
X7028Y-1210D02*
G03*
X6973Y-1343I0J-77D01*
G01*
X7013Y-1107D02*
G03*
X7033Y-1142I75J20D01*
G01*
X7055Y-1165D02*
G03*
X7110Y-1188I55J55D01*
G01*
X7013Y-1107D02*
G03*
X7033Y-1142I75J20D01*
G01*
X7188Y-1211D02*
G03*
X7178Y-1210I-10J-77D01*
G01*
X7055Y-1165D02*
G03*
X7110Y-1188I55J55D01*
G01*
X7195Y765D02*
X7257Y827D01*
X8574Y-520D02*
X8597D01*
X8580Y-560D02*
X8597D01*
X8580Y-600D02*
X8597D01*
Y-668D02*
Y-488D01*
X8548D02*
X8597D01*
X8580Y-640D02*
X8597D01*
X8580Y-693D02*
X8605Y-668D01*
X8638Y-1138D02*
Y-849D01*
X8331Y-1120D02*
X8638D01*
X8380Y-857D02*
X8603D01*
X8600Y-1138D02*
Y-857D01*
X8580Y-680D02*
X8593D01*
X8560Y-498D02*
Y-488D01*
X8580Y-693D02*
Y-550D01*
X8560Y-1138D02*
Y-857D01*
X8520Y-1138D02*
Y-857D01*
X8480Y-1138D02*
Y-857D01*
X8440Y-1138D02*
Y-857D01*
X8320Y-1117D02*
Y-857D01*
X8280Y-1116D02*
Y-857D01*
X8400Y-1138D02*
Y-857D01*
X8638Y-2177D02*
Y-1318D01*
X8600Y-2177D02*
Y-1318D01*
X8560Y-2177D02*
Y-1318D01*
X8520Y-2177D02*
Y-1318D01*
X8365Y-1138D02*
X8638D01*
X8362Y-1320D02*
X8638D01*
X8365Y-1318D02*
X8638D01*
X8220Y-1800D02*
X8638D01*
X8220Y-1840D02*
X8638D01*
X8220Y-1880D02*
X8638D01*
X8220Y-1920D02*
X8638D01*
X8220Y-1960D02*
X8638D01*
X8220Y-2000D02*
X8638D01*
X8480Y-2177D02*
Y-1318D01*
X8360Y-1134D02*
Y-857D01*
X8440Y-2177D02*
Y-1318D01*
X8400Y-2177D02*
Y-1318D01*
X8240Y-1131D02*
Y-857D01*
X8200Y-1171D02*
Y-857D01*
Y-1773D02*
Y-1284D01*
X8360Y-2177D02*
Y-1321D01*
X8320Y-2177D02*
Y-1338D01*
X8280Y-2177D02*
Y-1339D01*
X8240Y-2177D02*
Y-1324D01*
X8220Y-2002D02*
Y-1773D01*
X8200Y-2177D02*
Y-2002D01*
X8038Y-880D02*
X8638D01*
X8185Y-857D02*
X8380D01*
X8038Y-920D02*
X8638D01*
X8038Y-960D02*
X8638D01*
X8038Y-1000D02*
X8638D01*
X8038Y-1040D02*
X8638D01*
X8038Y-1080D02*
X8638D01*
X8038Y-1120D02*
X8264D01*
X8038Y-1360D02*
X8638D01*
X8038Y-1400D02*
X8638D01*
X8038Y-1440D02*
X8638D01*
X8038Y-1480D02*
X8638D01*
X8073Y-778D02*
X8130Y-835D01*
X8045Y-718D02*
Y-703D01*
Y-778D02*
X8073D01*
X8045D02*
Y-718D01*
X8038Y-800D02*
X8095D01*
X8038Y-1160D02*
X8207D01*
X8038Y-840D02*
X8136D01*
X8038Y-1200D02*
X8188D01*
X8038Y-1280D02*
X8198D01*
X8038Y-1240D02*
X8186D01*
X8038Y-1320D02*
X8233D01*
X8038Y-1520D02*
X8638D01*
X8038Y-1560D02*
X8638D01*
X8038Y-1600D02*
X8638D01*
X8038Y-1640D02*
X8638D01*
X8038Y-1680D02*
X8638D01*
X8038Y-1720D02*
X8638D01*
X8038Y-1760D02*
X8638D01*
X8038Y-2040D02*
X8638D01*
X8038Y-1773D02*
X8220D01*
X8038Y-2080D02*
X8638D01*
X8038Y-2120D02*
X8638D01*
X8038Y-2160D02*
X8638D01*
X8038Y-2177D02*
X8638D01*
X8160Y-1773D02*
Y-853D01*
X8120Y-1773D02*
Y-825D01*
X8080Y-1773D02*
Y-785D01*
X8038Y-1773D02*
Y-703D01*
X8160Y-2177D02*
Y-2002D01*
X8120Y-2177D02*
Y-2002D01*
X8080Y-2177D02*
Y-2002D01*
X8038D02*
X8220D01*
X8040Y-2177D02*
Y-2002D01*
X8038Y-2177D02*
Y-2002D01*
X8828Y-195D02*
X8857D01*
X8828Y-200D02*
X8857D01*
X8828Y-240D02*
X8857D01*
X8828Y-280D02*
X8857D01*
X8828Y-320D02*
X8857D01*
X8828Y-360D02*
X8857D01*
X8828Y-400D02*
X8857D01*
X8828Y-412D02*
Y-195D01*
Y-438D02*
Y-412D01*
Y-438D02*
Y-412D01*
Y-440D02*
X8857D01*
X8828Y-480D02*
X8857D01*
X8828Y-520D02*
X8857D01*
X8828Y-560D02*
X8857D01*
X8828Y-600D02*
X8857D01*
X8828Y-640D02*
X8857D01*
X8789Y-680D02*
X8857D01*
Y-1065D02*
Y-195D01*
X8840Y-1065D02*
Y-195D01*
X8828Y-668D02*
Y-438D01*
X8800Y-1065D02*
Y-668D01*
X8790D02*
X8828D01*
X8772Y-720D02*
X8857D01*
X8732Y-760D02*
X8857D01*
X8692Y-800D02*
X8857D01*
X8652Y-840D02*
X8857D01*
X8610Y-880D02*
X8857D01*
X8657Y-835D02*
X8767Y-725D01*
X8610Y-920D02*
X8857D01*
X8610Y-960D02*
X8857D01*
X8610Y-1000D02*
X8857D01*
X8610Y-1040D02*
X8857D01*
X8610Y-1065D02*
X8857D01*
X8760D02*
Y-732D01*
X8720Y-1065D02*
Y-772D01*
X8680Y-1065D02*
Y-812D01*
X8640Y-1065D02*
Y-848D01*
X8610Y-1065D02*
Y-857D01*
X8747Y-180D02*
X8857D01*
X8722D02*
X8747D01*
X8722D02*
X8747D01*
X8828Y-200D02*
X8857D01*
X8828Y-240D02*
X8857D01*
X8828Y-412D02*
Y-183D01*
X8579Y20D02*
X8722D01*
X8579D02*
X8722D01*
X8569Y-180D02*
X8722D01*
X8597Y-183D02*
X8828D01*
X8552Y-200D02*
X8597D01*
X8230Y-240D02*
X8597D01*
X8828Y-280D02*
X8857D01*
X8828Y-320D02*
X8857D01*
X8828Y-360D02*
X8857D01*
X8828Y-400D02*
X8857D01*
X8828Y-438D02*
Y-412D01*
Y-440D02*
X8857D01*
X8828Y-438D02*
Y-412D01*
X8270Y-280D02*
X8597D01*
X8310Y-320D02*
X8597D01*
X8828Y-480D02*
X8857D01*
X8828Y-520D02*
X8857D01*
X8350Y-360D02*
X8597D01*
Y-412D02*
Y-183D01*
X8560Y-498D02*
Y-192D01*
X8520Y-474D02*
Y-216D01*
X8480Y-476D02*
Y-214D01*
X8427Y-200D02*
X8453D01*
X8297D02*
X8328D01*
X8200Y-210D02*
Y-201D01*
X8440Y-452D02*
Y-186D01*
X8320Y-330D02*
Y-192D01*
X8597Y-438D02*
Y-412D01*
Y-438D02*
Y-412D01*
X8536Y-480D02*
X8597D01*
X8453D02*
X8469D01*
X8574Y-520D02*
X8597D01*
X8360Y-370D02*
Y-215D01*
X8390Y-400D02*
X8597D01*
X8280Y-290D02*
Y-210D01*
X8240Y-250D02*
Y-217D01*
X8200Y-210D02*
X8432Y-443D01*
X8430Y-440D02*
X8597D01*
X8400Y-410D02*
Y-214D01*
X8828Y-560D02*
X8857D01*
X8828Y-600D02*
X8857D01*
X8828Y-668D02*
Y-438D01*
Y-640D02*
X8857D01*
Y-880D02*
Y-180D01*
X8840Y-880D02*
Y-180D01*
X8790Y-668D02*
X8828D01*
X8800Y-880D02*
Y-668D01*
X8580Y-560D02*
X8597D01*
X8580Y-600D02*
X8597D01*
Y-668D02*
Y-438D01*
X8580Y-640D02*
X8597D01*
X8580Y-693D02*
X8605Y-668D01*
X8789Y-680D02*
X8857D01*
X8772Y-720D02*
X8857D01*
X8732Y-760D02*
X8857D01*
X8692Y-800D02*
X8857D01*
X8760Y-880D02*
Y-732D01*
X8720Y-880D02*
Y-772D01*
X8680Y-880D02*
Y-812D01*
X8657Y-835D02*
X8767Y-725D01*
X8652Y-840D02*
X8857D01*
X8640Y-880D02*
Y-848D01*
X8380Y-857D02*
X8603D01*
X8600Y-880D02*
Y-857D01*
X8580Y-680D02*
X8593D01*
X8580Y-693D02*
Y-550D01*
X8073Y-778D02*
X8130Y-835D01*
X8080Y-880D02*
Y-785D01*
X8120Y-880D02*
Y-825D01*
X8045Y-718D02*
Y-703D01*
X8020Y-720D02*
X8045D01*
Y-778D02*
Y-718D01*
X7980Y-760D02*
X8045D01*
X8000Y-880D02*
Y-740D01*
X8045Y-778D02*
X8073D01*
X7960Y-880D02*
Y-780D01*
X8560Y-880D02*
Y-857D01*
X8520Y-880D02*
Y-857D01*
X8480Y-880D02*
Y-857D01*
X8440Y-880D02*
Y-857D01*
X8400Y-880D02*
Y-857D01*
X8360Y-880D02*
Y-857D01*
X8320Y-880D02*
Y-857D01*
X8185D02*
X8380D01*
X8280Y-880D02*
Y-857D01*
X8240Y-880D02*
Y-857D01*
X8200Y-880D02*
Y-857D01*
X8160Y-880D02*
Y-853D01*
X7297Y267D02*
X7447D01*
Y-267D02*
X7465D01*
X7372D02*
X7447D01*
X7372D02*
X7447D01*
X7297D02*
X7372D01*
X7220Y267D02*
X7465D01*
X7274Y-274D02*
X7465D01*
X7280D02*
Y-265D01*
X7274Y-506D02*
Y-274D01*
Y-506D02*
X7465D01*
X7078Y-280D02*
X7274D01*
X7078Y-320D02*
X7274D01*
X7078Y-360D02*
X7274D01*
X7078Y-400D02*
X7274D01*
X7078Y-440D02*
X7274D01*
X7078Y-520D02*
X7466D01*
X7078Y-480D02*
X7274D01*
X7240Y267D02*
Y293D01*
X7222Y280D02*
X7255D01*
X7205Y263D02*
X7238Y296D01*
X7205Y240D02*
X7220D01*
Y112D02*
Y267D01*
X7205Y222D02*
Y263D01*
Y198D02*
Y222D01*
Y200D02*
X7220D01*
X7205Y160D02*
X7220D01*
X7205Y198D02*
Y222D01*
Y38D02*
Y198D01*
Y120D02*
X7220D01*
Y112D02*
X7236D01*
X7205Y40D02*
X7224D01*
X7205Y80D02*
X7221D01*
X7078Y38D02*
X7205D01*
X7240Y-13D02*
Y13D01*
Y-138D02*
Y-117D01*
X7078Y-0D02*
X7255D01*
X7078Y-120D02*
X7243D01*
X7078Y-40D02*
X7224D01*
X7078Y-80D02*
X7221D01*
X7078Y-160D02*
X7226D01*
X7078Y-240D02*
X7238D01*
X7078Y-200D02*
X7221D01*
X7853Y-668D02*
X7893Y-628D01*
X7880Y-640D02*
Y-628D01*
X7840Y-668D02*
Y-628D01*
X7760Y-642D02*
Y-628D01*
X7940Y-800D02*
X8037Y-703D01*
X7940Y-800D02*
X8095D01*
X7800Y-668D02*
Y-628D01*
X7797Y-668D02*
X7853D01*
X7588Y-628D02*
X7893D01*
X7755Y-640D02*
X7880D01*
X7680Y-638D02*
Y-628D01*
X7078Y-640D02*
X7675D01*
X7640Y-661D02*
Y-628D01*
X7078Y-680D02*
X7623D01*
X7920Y-880D02*
Y-814D01*
X7797Y-823D02*
X7885D01*
X7880Y-880D02*
Y-823D01*
X7840Y-880D02*
Y-823D01*
X7800Y-880D02*
Y-823D01*
X7775Y-840D02*
X8136D01*
X7760Y-880D02*
Y-848D01*
X7357Y-840D02*
X7655D01*
X7720Y-880D02*
Y-857D01*
X7680Y-880D02*
Y-852D01*
X7357Y-880D02*
X8857D01*
X7640D02*
Y-829D01*
X7480Y-880D02*
Y-551D01*
X7488Y-560D02*
X7533Y-605D01*
X7320Y-757D02*
Y-506D01*
X7280Y-757D02*
Y-506D01*
X7440Y-880D02*
Y-506D01*
X7400Y-880D02*
Y-506D01*
X7360Y-880D02*
Y-506D01*
X7240Y-757D02*
Y-242D01*
X7078Y-560D02*
X7488D01*
X7200Y-757D02*
Y38D01*
X7160Y-757D02*
Y38D01*
X7120Y-757D02*
Y38D01*
X7080Y-757D02*
Y38D01*
X7078Y-757D02*
Y38D01*
X7600Y-880D02*
Y-628D01*
X7357Y-760D02*
X7604D01*
X7520Y-880D02*
Y-592D01*
X7560Y-880D02*
Y-622D01*
X7357Y-880D02*
Y-757D01*
X7078Y-600D02*
X7528D01*
X7078Y-720D02*
X7605D01*
X7188Y-757D02*
X7357D01*
X7157D02*
X7188D01*
X7157D02*
X7188D01*
X7357Y-800D02*
X7617D01*
X7078Y-757D02*
X7157D01*
X11955Y-1127D02*
Y275D01*
X11920Y-1127D02*
Y275D01*
X11880Y-1127D02*
Y275D01*
X11840Y-1127D02*
Y275D01*
X11800Y-1127D02*
Y275D01*
X11760Y-1127D02*
Y275D01*
X11720Y-1127D02*
Y275D01*
X11680Y-1127D02*
Y275D01*
X11640Y-1127D02*
Y275D01*
X11600Y-1127D02*
Y275D01*
X11560Y-1127D02*
Y275D01*
X11520Y-1127D02*
Y275D01*
X11480Y-1127D02*
Y275D01*
X11440Y-1127D02*
Y275D01*
X11400Y-1127D02*
Y275D01*
X11360Y-1127D02*
Y275D01*
X11320Y-1127D02*
Y275D01*
X11280Y-1127D02*
Y275D01*
X11240Y-1127D02*
Y275D01*
X11200Y-1127D02*
Y275D01*
X11160Y-1127D02*
Y275D01*
X11120Y-1127D02*
Y275D01*
X11080Y-1127D02*
Y275D01*
X11040Y-1127D02*
Y275D01*
X11000Y-1127D02*
Y275D01*
X10960Y-1127D02*
Y275D01*
X10920Y-1127D02*
Y275D01*
X10880Y-1127D02*
Y275D01*
X10840Y-1127D02*
Y275D01*
X10800Y-1127D02*
Y275D01*
X10760Y-1127D02*
Y275D01*
X10720Y-1127D02*
Y275D01*
X10680Y-1127D02*
Y275D01*
X10640Y-1127D02*
Y275D01*
X10600Y-1127D02*
Y275D01*
X10560Y-1127D02*
Y275D01*
X10520Y-1127D02*
Y275D01*
X10480Y-1127D02*
Y275D01*
X10440Y-1127D02*
Y275D01*
X10400D02*
X11955D01*
X10400Y240D02*
X11955D01*
X10400Y200D02*
X11955D01*
X10400Y160D02*
X11955D01*
X10400Y120D02*
X11955D01*
X10400Y80D02*
X11955D01*
X10400Y40D02*
X11955D01*
X10400Y-0D02*
X11955D01*
X10400Y-40D02*
X11955D01*
X10400Y-80D02*
X11955D01*
X10400Y-120D02*
X11955D01*
X10400Y-160D02*
X11955D01*
X10400Y-200D02*
X11955D01*
X10400Y-240D02*
X11955D01*
X10400Y-280D02*
X11955D01*
X10400Y-320D02*
X11955D01*
X10400Y-360D02*
X11955D01*
X10400Y-400D02*
X11955D01*
X10400Y-440D02*
X11955D01*
X10400Y-480D02*
X11955D01*
X10400Y-520D02*
X11955D01*
X10400Y-560D02*
X11955D01*
X10400Y-600D02*
X11955D01*
X10400Y-640D02*
X11955D01*
X10400Y-680D02*
X11955D01*
X10400Y-720D02*
X11955D01*
X10400Y-760D02*
X11955D01*
X10400Y-800D02*
X11955D01*
X10400Y-840D02*
X11955D01*
X10400Y-880D02*
X11955D01*
X10400Y-920D02*
X11955D01*
X10400Y-1127D02*
Y275D01*
Y-960D02*
X11955D01*
X10400Y-1000D02*
X11955D01*
X10400Y-1040D02*
X11955D01*
X10400Y-1080D02*
X11955D01*
X10400Y-1120D02*
X11955D01*
X10400Y-1127D02*
X11955D01*
X11955Y-55D02*
Y1152D01*
X11920Y-55D02*
Y1152D01*
X11880Y-55D02*
Y1152D01*
X11840Y-55D02*
Y1152D01*
X11800Y-55D02*
Y1152D01*
X11760Y-55D02*
Y1152D01*
X11720Y-55D02*
Y1152D01*
X10832Y-0D02*
X11955D01*
X11680Y-55D02*
Y1152D01*
X11640Y-55D02*
Y1152D01*
X11600Y-55D02*
Y1152D01*
X10791Y80D02*
X11955D01*
X10822Y40D02*
X11955D01*
X10828Y-40D02*
X11955D01*
X10760Y98D02*
Y1152D01*
X10720Y105D02*
Y1152D01*
X11560Y-55D02*
Y1152D01*
X10800Y72D02*
Y1152D01*
X10680Y98D02*
Y1152D01*
X10640Y72D02*
Y1152D01*
X10600Y72D02*
Y1152D01*
X10591Y80D02*
X10649D01*
X10560Y98D02*
Y1152D01*
X10520Y105D02*
Y1152D01*
X10480Y98D02*
Y1152D01*
X10440Y72D02*
Y1152D01*
X11520Y-55D02*
Y1152D01*
X11480Y-55D02*
Y1152D01*
X11440Y-55D02*
Y1152D01*
X11400Y-55D02*
Y1152D01*
X11360Y-55D02*
Y1152D01*
X11320Y-55D02*
Y1152D01*
X11280Y-55D02*
Y1152D01*
X11240Y-55D02*
Y1152D01*
X11200Y-55D02*
Y1152D01*
X11160Y-55D02*
Y1152D01*
X11120Y-55D02*
Y1152D01*
X11080Y-55D02*
Y1152D01*
X11040Y-55D02*
Y1152D01*
X10822Y-55D02*
X11955D01*
X11000D02*
Y1152D01*
X10960Y-55D02*
Y1152D01*
X10920Y-55D02*
Y1152D01*
X10880Y-55D02*
Y1152D01*
X10840Y-55D02*
Y1152D01*
X10400Y-55D02*
Y1152D01*
X10360Y-55D02*
Y1152D01*
X10320Y-55D02*
Y1152D01*
X10280Y-55D02*
Y1152D01*
X10240Y-55D02*
Y1152D01*
X10200Y-55D02*
Y1152D01*
X9347D02*
X11955D01*
X9347Y1120D02*
X11955D01*
X9347Y1080D02*
X11955D01*
X9347Y1040D02*
X11955D01*
X9347Y1000D02*
X11955D01*
X9347Y960D02*
X11955D01*
X9347Y920D02*
X11955D01*
X9347Y880D02*
X11955D01*
X9347Y840D02*
X11955D01*
X9347Y800D02*
X11955D01*
X9347Y760D02*
X11955D01*
X9347Y720D02*
X11955D01*
X9347Y680D02*
X11955D01*
X9347Y640D02*
X11955D01*
X9347Y600D02*
X11955D01*
X9347Y560D02*
X11955D01*
X9347Y520D02*
X11955D01*
X9347Y480D02*
X11955D01*
X9347Y440D02*
X11955D01*
X9347Y400D02*
X11955D01*
X9347Y360D02*
X11955D01*
X9347Y320D02*
X11955D01*
X9347Y280D02*
X11955D01*
X9347Y240D02*
X11955D01*
X9347Y200D02*
X11955D01*
X9347Y160D02*
X11955D01*
X9347Y120D02*
X11955D01*
X10160Y-55D02*
Y1152D01*
X10120Y-55D02*
Y1152D01*
X10080Y-55D02*
Y1152D01*
X10040Y-55D02*
Y1152D01*
X10000Y-55D02*
Y1152D01*
X9960Y-55D02*
Y1152D01*
X9920Y-55D02*
Y1152D01*
X9347Y80D02*
X10449D01*
X9347Y40D02*
X10418D01*
X9880Y-55D02*
Y1152D01*
X9840Y-55D02*
Y1152D01*
X9347Y-40D02*
X10412D01*
X9347Y-0D02*
X10408D01*
X9347Y-55D02*
X10418D01*
X9800D02*
Y1152D01*
X9760Y-55D02*
Y1152D01*
X9720Y-55D02*
Y1152D01*
X9680Y-55D02*
Y1152D01*
X9640Y-55D02*
Y1152D01*
X9600Y-55D02*
Y1152D01*
X9560Y-55D02*
Y1152D01*
X9520Y-55D02*
Y1152D01*
X9480Y-55D02*
Y1152D01*
X9440Y-55D02*
Y1152D01*
X9400Y-55D02*
Y1152D01*
X9360Y-55D02*
Y1152D01*
X9347Y-55D02*
Y1152D01*
X8747Y1273D02*
Y2175D01*
X8720Y1273D02*
Y2175D01*
X8680Y1273D02*
Y2175D01*
X8640Y1273D02*
Y2175D01*
X8600Y1273D02*
Y2175D01*
X8560Y1273D02*
Y2175D01*
X8520Y1273D02*
Y2175D01*
X8480Y1273D02*
Y2175D01*
X8440Y1273D02*
Y2175D01*
X8400Y1273D02*
Y2175D01*
X8360Y1273D02*
Y2175D01*
X8320Y1273D02*
Y2175D01*
X8280Y1273D02*
Y2175D01*
X8240Y1273D02*
Y2175D01*
X8200Y1273D02*
Y2175D01*
X8160Y1273D02*
Y2175D01*
X8120Y1273D02*
Y2175D01*
X8080Y1273D02*
Y2175D01*
X8040Y1273D02*
Y2175D01*
X8000Y1273D02*
Y2175D01*
X7960Y1273D02*
Y2175D01*
X7920Y1273D02*
Y2175D01*
X7880Y1273D02*
Y2175D01*
X7840Y1273D02*
Y2175D01*
X7800Y1273D02*
Y2175D01*
X7760Y1273D02*
Y2175D01*
X7720Y1273D02*
Y2175D01*
X7680Y1273D02*
Y2175D01*
X7640Y1273D02*
Y2175D01*
X7600Y1273D02*
Y2175D01*
X7472D02*
X8747D01*
X7472Y2160D02*
X8747D01*
X7472Y2120D02*
X8747D01*
X7472Y2080D02*
X8747D01*
X7472Y2040D02*
X8747D01*
X7472Y2000D02*
X8747D01*
X7472Y1960D02*
X8747D01*
X7472Y1920D02*
X8747D01*
X7472Y1880D02*
X8747D01*
X7472Y1840D02*
X8747D01*
X7472Y1800D02*
X8747D01*
X7472Y1760D02*
X8747D01*
X7472Y1720D02*
X8747D01*
X7472Y1680D02*
X8747D01*
X7472Y1640D02*
X8747D01*
X7472Y1600D02*
X8747D01*
X7472Y1560D02*
X8747D01*
X7472Y1520D02*
X8747D01*
X7472Y1480D02*
X8747D01*
X7472Y1440D02*
X8747D01*
X7472Y1400D02*
X8747D01*
X7472Y1360D02*
X8747D01*
X7560Y1273D02*
Y2175D01*
X7520Y1273D02*
Y2175D01*
X7480Y1273D02*
Y2175D01*
X7472Y1273D02*
Y2175D01*
Y1320D02*
X8747D01*
X7472Y1280D02*
X8747D01*
X7472Y1273D02*
X8747D01*
X10600Y1440D02*
Y2175D01*
X10560Y1440D02*
Y2175D01*
X10520Y1440D02*
Y2175D01*
X10480Y1440D02*
Y2175D01*
X10440Y1440D02*
Y2175D01*
X10400Y1440D02*
Y2175D01*
X10360Y1440D02*
Y2175D01*
X10320Y1440D02*
Y2175D01*
X10280Y1440D02*
Y2175D01*
X10240Y1440D02*
Y2175D01*
X10200Y1440D02*
Y2175D01*
X10160Y1440D02*
Y2175D01*
X10120Y1440D02*
Y2175D01*
X10080Y1440D02*
Y2175D01*
X10040Y1440D02*
Y2175D01*
X10000Y1440D02*
Y2175D01*
X9960Y1440D02*
Y2175D01*
X9920Y1440D02*
Y2175D01*
X9880Y1440D02*
Y2175D01*
X9840Y1440D02*
Y2175D01*
X9800Y1440D02*
Y2175D01*
X9760Y1440D02*
Y2175D01*
X9720Y1440D02*
Y2175D01*
X9680Y1440D02*
Y2175D01*
X9640Y1440D02*
Y2175D01*
X9600Y1440D02*
Y2175D01*
X9560Y1440D02*
Y2175D01*
X9520Y1440D02*
Y2175D01*
X9480Y1440D02*
Y2175D01*
X9440Y1440D02*
Y2175D01*
X9400Y1440D02*
Y2175D01*
X9360Y1440D02*
Y2175D01*
X9320Y1440D02*
Y2175D01*
X9280Y1440D02*
Y2175D01*
X9240Y1440D02*
Y2175D01*
X8680D02*
X10600D01*
X8680Y2160D02*
X10600D01*
X8680Y2120D02*
X10600D01*
X8680Y2080D02*
X10600D01*
X8680Y2040D02*
X10600D01*
X8680Y2000D02*
X10600D01*
X8680Y1960D02*
X10600D01*
X8680Y1920D02*
X10600D01*
X8680Y1880D02*
X10600D01*
X8680Y1840D02*
X10600D01*
X8680Y1800D02*
X10600D01*
X8680Y1760D02*
X10600D01*
X8680Y1720D02*
X10600D01*
X8680Y1680D02*
X10600D01*
X8680Y1640D02*
X10600D01*
X8680Y1600D02*
X10600D01*
X8680Y1560D02*
X10600D01*
X8680Y1520D02*
X10600D01*
X9200Y1440D02*
Y2175D01*
X9160Y1440D02*
Y2175D01*
X9120Y1440D02*
Y2175D01*
X9080Y1440D02*
Y2175D01*
X9040Y1440D02*
Y2175D01*
X9000Y1440D02*
Y2175D01*
X8960Y1440D02*
Y2175D01*
X8680Y1480D02*
X10600D01*
X8680Y1440D02*
X10600D01*
X8920D02*
Y2175D01*
X8880Y1440D02*
Y2175D01*
X8840Y1440D02*
Y2175D01*
X8800Y1440D02*
Y2175D01*
X8760Y1440D02*
Y2175D01*
X8720Y1440D02*
Y2175D01*
X8680Y1440D02*
Y2175D01*
Y1440D02*
Y2175D01*
X11955Y1275D02*
Y2175D01*
X11920Y1275D02*
Y2175D01*
X11880Y1275D02*
Y2175D01*
X11840Y1275D02*
Y2175D01*
X11800Y1275D02*
Y2175D01*
X11760Y1275D02*
Y2175D01*
X11720Y1275D02*
Y2175D01*
X11680Y1275D02*
Y2175D01*
X11640Y1275D02*
Y2175D01*
X11600Y1275D02*
Y2175D01*
X11560Y1275D02*
Y2175D01*
X11520Y1275D02*
Y2175D01*
X11480Y1275D02*
Y2175D01*
X11440Y1275D02*
Y2175D01*
X11400Y1275D02*
Y2175D01*
X11360Y1275D02*
Y2175D01*
X11320Y1275D02*
Y2175D01*
X11280Y1275D02*
Y2175D01*
X11240Y1275D02*
Y2175D01*
X11200Y1275D02*
Y2175D01*
X11160Y1275D02*
Y2175D01*
X11120Y1275D02*
Y2175D01*
X11080Y1275D02*
Y2175D01*
X11040Y1275D02*
Y2175D01*
X11000Y1275D02*
Y2175D01*
X10960Y1275D02*
Y2175D01*
X10920Y1275D02*
Y2175D01*
X10880Y1275D02*
Y2175D01*
X10840Y1275D02*
Y2175D01*
X10800Y1275D02*
Y2175D01*
X10760Y1275D02*
Y2175D01*
X10720Y1275D02*
Y2175D01*
X10680Y1275D02*
Y2175D01*
X10397D02*
X11955D01*
X10397Y2160D02*
X11955D01*
X10397Y2120D02*
X11955D01*
X10397Y2080D02*
X11955D01*
X10397Y2040D02*
X11955D01*
X10397Y2000D02*
X11955D01*
X10397Y1960D02*
X11955D01*
X10397Y1920D02*
X11955D01*
X10397Y1880D02*
X11955D01*
X10397Y1840D02*
X11955D01*
X10397Y1800D02*
X11955D01*
X10397Y1760D02*
X11955D01*
X10397Y1720D02*
X11955D01*
X10397Y1680D02*
X11955D01*
X10397Y1640D02*
X11955D01*
X10397Y1600D02*
X11955D01*
X10397Y1560D02*
X11955D01*
X10397Y1520D02*
X11955D01*
X10397Y1480D02*
X11955D01*
X10397Y1440D02*
X11955D01*
X10397Y1400D02*
X11955D01*
X10397Y1360D02*
X11955D01*
X10397Y1320D02*
X11955D01*
X10397Y1280D02*
X11955D01*
X10397Y1275D02*
X11955D01*
X10640D02*
Y2175D01*
X10600Y1275D02*
Y2175D01*
X10560Y1275D02*
Y2175D01*
X10520Y1275D02*
Y2175D01*
X10480Y1275D02*
Y2175D01*
X10440Y1275D02*
Y2175D01*
X10400Y1275D02*
Y2175D01*
X10397Y1275D02*
Y2175D01*
X7747Y-1888D02*
X7862D01*
X7710Y-2002D02*
Y-1925D01*
X7632Y-2080D02*
X7710Y-2002D01*
X7340Y-2080D02*
X7632D01*
X7710Y-1925D02*
X7747Y-1888D01*
X9920Y-2177D02*
Y-2008D01*
X9880Y-2177D02*
Y-2008D01*
X9840Y-2177D02*
Y-2008D01*
X9800Y-2177D02*
Y-2008D01*
X9760Y-2177D02*
Y-2008D01*
X9720Y-2177D02*
Y-2008D01*
X9680Y-2177D02*
Y-2008D01*
X9640Y-2177D02*
Y-2008D01*
X9600Y-2177D02*
Y-2008D01*
X9560Y-2177D02*
Y-2008D01*
X9520Y-2177D02*
Y-2008D01*
X9480Y-2177D02*
Y-2008D01*
X9440Y-2177D02*
Y-2008D01*
X9400Y-2177D02*
Y-2008D01*
X9360Y-2177D02*
Y-2008D01*
X9320Y-2177D02*
Y-2008D01*
X9280Y-2177D02*
Y-2008D01*
X9240Y-2177D02*
Y-2008D01*
X9200Y-2177D02*
Y-2008D01*
X9160Y-2177D02*
Y-2008D01*
X9120Y-2177D02*
Y-2008D01*
X9080Y-2177D02*
Y-2008D01*
X9040Y-2177D02*
Y-2008D01*
X9000Y-2177D02*
Y-2008D01*
X8960Y-2177D02*
Y-2008D01*
X8920Y-2177D02*
Y-2008D01*
X8880Y-2177D02*
Y-2008D01*
X8840Y-2177D02*
Y-2008D01*
X8155D02*
X9920D01*
X8155Y-2040D02*
X9920D01*
X8155Y-2080D02*
X9920D01*
X8155Y-2120D02*
X9920D01*
X8155Y-2160D02*
X9920D01*
X8800Y-2177D02*
Y-2008D01*
X8760Y-2177D02*
Y-2008D01*
X8720Y-2177D02*
Y-2008D01*
X8680Y-2177D02*
Y-2008D01*
X8640Y-2177D02*
Y-2008D01*
X8600Y-2177D02*
Y-2008D01*
X8560Y-2177D02*
Y-2008D01*
X8520Y-2177D02*
Y-2008D01*
X8480Y-2177D02*
Y-2008D01*
X8440Y-2177D02*
Y-2008D01*
X8400Y-2177D02*
Y-2008D01*
X8360Y-2177D02*
Y-2008D01*
X8155Y-2177D02*
X9920D01*
X8320D02*
Y-2008D01*
X8280Y-2177D02*
Y-2008D01*
X8240Y-2177D02*
Y-2008D01*
X8200Y-2177D02*
Y-2008D01*
X8160Y-2177D02*
Y-2008D01*
X8155Y-2177D02*
Y-2008D01*
X11955Y-2177D02*
Y-1270D01*
X11920Y-2177D02*
Y-1270D01*
X11880Y-2177D02*
Y-1270D01*
X11840Y-2177D02*
Y-1270D01*
X11800Y-2177D02*
Y-1270D01*
X11760Y-2177D02*
Y-1270D01*
X11720Y-2177D02*
Y-1270D01*
X11680Y-2177D02*
Y-1270D01*
X11640Y-2177D02*
Y-1270D01*
X11600Y-2177D02*
Y-1270D01*
X11560Y-2177D02*
Y-1270D01*
X11520Y-2177D02*
Y-1270D01*
X11480Y-2177D02*
Y-1270D01*
X11440Y-2177D02*
Y-1270D01*
X11400Y-2177D02*
Y-1270D01*
X11360Y-2177D02*
Y-1270D01*
X11320Y-2177D02*
Y-1270D01*
X11280Y-2177D02*
Y-1270D01*
X11240Y-2177D02*
Y-1270D01*
X11200Y-2177D02*
Y-1270D01*
X11160Y-2177D02*
Y-1270D01*
X11120Y-2177D02*
Y-1270D01*
X11080Y-2177D02*
Y-1270D01*
X11040Y-2177D02*
Y-1270D01*
X11000Y-2177D02*
Y-1270D01*
X10960Y-2177D02*
Y-1270D01*
X10920Y-2177D02*
Y-1270D01*
X10880Y-2177D02*
Y-1270D01*
X10840Y-2177D02*
Y-1270D01*
X10800Y-2177D02*
Y-1270D01*
X10760Y-2177D02*
Y-1270D01*
X10720Y-2177D02*
Y-1270D01*
X10680Y-2177D02*
Y-1270D01*
X10640Y-2177D02*
Y-1270D01*
X10600Y-2177D02*
Y-1270D01*
X10560Y-2177D02*
Y-1270D01*
X10520Y-2177D02*
Y-1270D01*
X10480Y-2177D02*
Y-1270D01*
X10440Y-2177D02*
Y-1270D01*
X10400Y-2177D02*
Y-1270D01*
X10360Y-2177D02*
Y-1270D01*
X9760D02*
X11955D01*
X9760Y-1280D02*
X11955D01*
X9760Y-1320D02*
X11955D01*
X9760Y-1360D02*
X11955D01*
X9760Y-1400D02*
X11955D01*
X9760Y-1440D02*
X11955D01*
X9760Y-1480D02*
X11955D01*
X9760Y-1520D02*
X11955D01*
X9760Y-1560D02*
X11955D01*
X9760Y-1600D02*
X11955D01*
X9760Y-1640D02*
X11955D01*
X9760Y-1680D02*
X11955D01*
X9760Y-1720D02*
X11955D01*
X9760Y-1760D02*
X11955D01*
X9760Y-1800D02*
X11955D01*
X9760Y-1840D02*
X11955D01*
X9760Y-1880D02*
X11955D01*
X9760Y-1920D02*
X11955D01*
X9760Y-1960D02*
X11955D01*
X9760Y-2000D02*
X11955D01*
X10320Y-2177D02*
Y-1270D01*
X10280Y-2177D02*
Y-1270D01*
X10240Y-2177D02*
Y-1270D01*
X10200Y-2177D02*
Y-1270D01*
X10160Y-2177D02*
Y-1270D01*
X9760Y-2040D02*
X11955D01*
X9760Y-2080D02*
X11955D01*
X9760Y-2120D02*
X11955D01*
X9760Y-2160D02*
X11955D01*
X9760Y-2177D02*
X11955D01*
X10120D02*
Y-1270D01*
X10080Y-2177D02*
Y-1270D01*
X10040Y-2177D02*
Y-1270D01*
X10000Y-2177D02*
Y-1270D01*
X9960Y-2177D02*
Y-1270D01*
X9920Y-2177D02*
Y-1270D01*
X9880Y-2177D02*
Y-1270D01*
X9840Y-2177D02*
Y-1270D01*
X9800Y-2177D02*
Y-1270D01*
X9760Y-2177D02*
Y-1270D01*
X5475D02*
X5795D01*
X5592Y-1388D02*
Y-1273D01*
X5272Y-1182D02*
X5388D01*
X5475Y-1270D01*
X5272Y-1182D02*
X5283Y-1193D01*
X8903Y222D02*
Y468D01*
X8880Y222D02*
Y468D01*
X8840Y222D02*
Y468D01*
X8800Y222D02*
Y468D01*
X8760Y222D02*
Y468D01*
X8720Y222D02*
Y468D01*
X8680Y222D02*
Y468D01*
X8640Y222D02*
Y468D01*
X8600Y222D02*
Y468D01*
X8560Y222D02*
Y468D01*
X8520Y222D02*
Y468D01*
X8480Y222D02*
Y468D01*
X8440Y222D02*
Y468D01*
X8400Y222D02*
Y468D01*
X8190D02*
X8903D01*
X8190Y440D02*
X8903D01*
X8190Y400D02*
X8903D01*
X8190Y360D02*
X8903D01*
X8190Y320D02*
X8903D01*
X8190Y280D02*
X8903D01*
X8190Y240D02*
X8903D01*
X8360Y222D02*
Y468D01*
X8320Y222D02*
Y468D01*
X8280Y222D02*
Y468D01*
X8190Y222D02*
X8903D01*
X8240D02*
Y468D01*
X8200Y222D02*
Y468D01*
X8190Y222D02*
Y468D01*
X9288Y-1120D02*
X10268D01*
X9288Y-1080D02*
X10268D01*
X9288Y-1040D02*
X10268D01*
X9288Y-1000D02*
X10268D01*
X9288Y-1127D02*
Y-183D01*
Y-960D02*
X10268D01*
X9288Y-920D02*
X10268D01*
X9288Y-880D02*
X10268D01*
X9288Y-840D02*
X10268D01*
X9288Y-800D02*
X10268D01*
X9288Y-760D02*
X10268D01*
X9288Y-720D02*
X10268D01*
X9288Y-680D02*
X10268D01*
X9288Y-640D02*
X10268D01*
X9288Y-600D02*
X10268D01*
X9288Y-560D02*
X10268D01*
X9288Y-520D02*
X10268D01*
X9288Y-480D02*
X10268D01*
X9288Y-440D02*
X10268D01*
X9288Y-400D02*
X10268D01*
X9288Y-360D02*
X10268D01*
X9288Y-320D02*
X10268D01*
X9288Y-280D02*
X10268D01*
X9288Y-240D02*
X10268D01*
X9288Y-200D02*
X10268D01*
X9288Y-183D02*
X10268D01*
X9320Y-1127D02*
Y-183D01*
X9360Y-1127D02*
Y-183D01*
X9400Y-1127D02*
Y-183D01*
X9440Y-1127D02*
Y-183D01*
X9480Y-1127D02*
Y-183D01*
X9520Y-1127D02*
Y-183D01*
X9288Y-1127D02*
X10268D01*
X9560D02*
Y-183D01*
X9600Y-1127D02*
Y-183D01*
X9640Y-1127D02*
Y-183D01*
X9680Y-1127D02*
Y-183D01*
X9720Y-1127D02*
Y-183D01*
X9760Y-1127D02*
Y-183D01*
X9800Y-1127D02*
Y-183D01*
X9840Y-1127D02*
Y-183D01*
X9880Y-1127D02*
Y-183D01*
X9920Y-1127D02*
Y-183D01*
X9960Y-1127D02*
Y-183D01*
X10000Y-1127D02*
Y-183D01*
X10040Y-1127D02*
Y-183D01*
X10080Y-1127D02*
Y-183D01*
X10120Y-1127D02*
Y-183D01*
X10160Y-1127D02*
Y-183D01*
X10200Y-1127D02*
Y-183D01*
X10240Y-1127D02*
Y-183D01*
X10268Y-1127D02*
Y-183D01*
X9043Y-1880D02*
X9665D01*
X9043Y-1840D02*
X9665D01*
X9043Y-1800D02*
X9665D01*
X9043Y-1760D02*
X9665D01*
X9043Y-1720D02*
X9665D01*
X9043Y-1680D02*
X9665D01*
X9043Y-1640D02*
X9665D01*
X9043Y-1600D02*
X9665D01*
X9043Y-1560D02*
X9665D01*
X9043Y-1520D02*
X9665D01*
X9043Y-1480D02*
X9665D01*
X9043Y-1440D02*
X9665D01*
X9043Y-1400D02*
X9665D01*
X9043Y-1360D02*
X9665D01*
X9043Y-1320D02*
X9665D01*
X9043Y-1280D02*
X9665D01*
X9043Y-1240D02*
X9665D01*
X9043Y-1200D02*
X9665D01*
X9043Y-1160D02*
X9665D01*
X9043Y-1120D02*
X9665D01*
X9043Y-1080D02*
X9665D01*
X9043Y-1040D02*
X9665D01*
X9043Y-1000D02*
X9665D01*
X9043Y-960D02*
X9665D01*
X9043Y-920D02*
X9665D01*
X9043Y-880D02*
X9665D01*
X9043Y-840D02*
X9665D01*
X9043Y-1908D02*
Y-515D01*
X9080Y-1908D02*
Y-515D01*
X9120Y-1908D02*
Y-515D01*
X9160Y-1908D02*
Y-515D01*
X9200Y-1908D02*
Y-515D01*
X9240Y-1908D02*
Y-515D01*
X9043Y-1908D02*
X9665D01*
X9280D02*
Y-515D01*
X9320Y-1908D02*
Y-515D01*
X9360Y-1908D02*
Y-515D01*
X9400Y-1908D02*
Y-515D01*
X9440Y-1908D02*
Y-515D01*
X9480Y-1908D02*
Y-515D01*
X9043Y-800D02*
X9665D01*
X9520Y-1908D02*
Y-515D01*
X9043Y-760D02*
X9665D01*
X9560Y-1908D02*
Y-515D01*
X9600Y-1908D02*
Y-515D01*
X9640Y-1908D02*
Y-515D01*
X9665Y-1908D02*
Y-515D01*
X9043Y-720D02*
X9665D01*
X9043Y-680D02*
X9665D01*
X9043Y-640D02*
X9665D01*
X9043Y-600D02*
X9665D01*
X9043Y-560D02*
X9665D01*
X9043Y-520D02*
X9665D01*
X9043Y-515D02*
X9665D01*
X8735Y-1908D02*
Y-1660D01*
X8760Y-1908D02*
Y-1660D01*
X8800Y-1908D02*
Y-1660D01*
X8840Y-1908D02*
Y-1660D01*
X8735Y-1908D02*
X9665D01*
X8880D02*
Y-1660D01*
X8920Y-1908D02*
Y-1660D01*
X8960Y-1908D02*
Y-1660D01*
X8735Y-1880D02*
X9665D01*
X8735Y-1840D02*
X9665D01*
X8735Y-1800D02*
X9665D01*
X9000Y-1908D02*
Y-1660D01*
X8735Y-1760D02*
X9665D01*
X8735Y-1720D02*
X9665D01*
X8735Y-1680D02*
X9665D01*
X8735Y-1660D02*
X9665D01*
X9040Y-1908D02*
Y-1660D01*
X9080Y-1908D02*
Y-1660D01*
X9120Y-1908D02*
Y-1660D01*
X9160Y-1908D02*
Y-1660D01*
X9200Y-1908D02*
Y-1660D01*
X9240Y-1908D02*
Y-1660D01*
X9280Y-1908D02*
Y-1660D01*
X9320Y-1908D02*
Y-1660D01*
X9360Y-1908D02*
Y-1660D01*
X9400Y-1908D02*
Y-1660D01*
X9440Y-1908D02*
Y-1660D01*
X9480Y-1908D02*
Y-1660D01*
X9520Y-1908D02*
Y-1660D01*
X9560Y-1908D02*
Y-1660D01*
X9600Y-1908D02*
Y-1660D01*
X9640Y-1908D02*
Y-1660D01*
X9665Y-1908D02*
Y-1660D01*
X8193Y728D02*
Y990D01*
X8200Y728D02*
Y990D01*
X8240Y728D02*
Y990D01*
X8193Y728D02*
X8900D01*
X8280D02*
Y990D01*
X8320Y728D02*
Y990D01*
X8360Y728D02*
Y990D01*
X8193Y760D02*
X8900D01*
X8193Y800D02*
X8900D01*
X8193Y840D02*
X8900D01*
X8193Y880D02*
X8900D01*
X8193Y920D02*
X8900D01*
X8193Y960D02*
X8900D01*
X8193Y990D02*
X8900D01*
X8400Y728D02*
Y990D01*
X8440Y728D02*
Y990D01*
X8480Y728D02*
Y990D01*
X8520Y728D02*
Y990D01*
X8560Y728D02*
Y990D01*
X8600Y728D02*
Y990D01*
X8640Y728D02*
Y990D01*
X8680Y728D02*
Y990D01*
X8720Y728D02*
Y990D01*
X8760Y728D02*
Y990D01*
X8800Y728D02*
Y990D01*
X8840Y728D02*
Y990D01*
X8880Y728D02*
Y990D01*
X8900Y728D02*
Y990D01*
X7490Y848D02*
Y912D01*
X5083Y415D02*
X5195D01*
Y490D01*
X5083Y415D02*
Y678D01*
X5120Y415D02*
Y678D01*
X5160Y415D02*
Y678D01*
X5083Y440D02*
X5195D01*
X5083Y480D02*
X5195D01*
Y490D02*
X5370D01*
X5200D02*
Y678D01*
X5240Y490D02*
Y678D01*
X5280Y490D02*
Y678D01*
X5320Y490D02*
Y678D01*
X5360Y490D02*
Y678D01*
X5083Y520D02*
X5370D01*
X5083Y560D02*
X5540D01*
X5083Y600D02*
X5540D01*
X5083Y640D02*
X5540D01*
X5083Y678D02*
X5540D01*
X5370Y490D02*
Y545D01*
X5400D02*
Y678D01*
X5440Y545D02*
Y678D01*
X5370Y545D02*
X5540D01*
X5740Y547D02*
Y642D01*
X5480Y545D02*
Y678D01*
X5520Y545D02*
Y678D01*
X5540Y545D02*
Y678D01*
X5760Y547D02*
Y623D01*
X5800Y547D02*
Y610D01*
X5740Y547D02*
X5847D01*
X5740Y560D02*
X5847D01*
X5740Y600D02*
X5847D01*
X5840Y547D02*
Y620D01*
X5847Y547D02*
Y624D01*
X7040Y2060D02*
X7242D01*
X7428Y975D02*
X7490Y912D01*
X7257Y827D02*
Y905D01*
X7328Y975D01*
X7428D01*
X7168Y1548D02*
X7335D01*
X7150Y1370D02*
X7168Y1388D01*
X7150Y1090D02*
Y1370D01*
X7110Y1050D02*
X7150Y1090D01*
X7075Y1050D02*
X7110D01*
X7003Y977D02*
X7075Y1050D01*
X7003Y940D02*
Y977D01*
X7168Y1388D02*
X7335D01*
X4505Y-890D02*
X4541D01*
X4505Y-880D02*
X4540D01*
X4505Y-840D02*
X4543D01*
X4505Y-800D02*
X4557D01*
X4505Y-890D02*
Y-785D01*
X4520Y-890D02*
Y-770D01*
X4505Y-785D02*
X4550Y-740D01*
X4530Y-760D02*
X4587D01*
X4560Y-795D02*
Y-727D01*
X4600Y-749D02*
Y-712D01*
X4640Y-727D02*
Y-714D01*
X4558Y40D02*
Y98D01*
X4600Y40D02*
Y100D01*
X4560Y40D02*
Y117D01*
X4564Y-720D02*
X4665D01*
X4828Y-800D02*
X4995D01*
X4720Y-720D02*
X4915D01*
X4798Y-760D02*
X4955D01*
X4680Y-718D02*
Y-702D01*
X4558Y40D02*
X4638D01*
Y63D01*
X4760Y-733D02*
Y-680D01*
X4800Y-762D02*
Y-680D01*
X4720Y-720D02*
Y-680D01*
X4709D02*
X4875D01*
X4709Y-680D02*
X4875D01*
X4558Y98D02*
Y117D01*
Y80D02*
X4620D01*
X4558Y98D02*
Y117D01*
X4410Y292D02*
X4558D01*
Y117D02*
X4583D01*
X4638Y63D01*
X4558Y272D02*
Y292D01*
Y272D02*
X4615D01*
X4410Y292D02*
Y497D01*
X4440Y292D02*
Y497D01*
X4410Y480D02*
X4638D01*
X4410Y497D02*
X4638D01*
X4560Y272D02*
Y497D01*
X4600Y272D02*
Y497D01*
X4480Y292D02*
Y497D01*
X4640Y268D02*
Y458D01*
X4520Y292D02*
Y497D01*
X4558Y280D02*
X4647D01*
X4410Y320D02*
X4673D01*
X4410Y360D02*
X4738D01*
X4762Y358D02*
X4817D01*
X4762D02*
X4817D01*
X4410Y400D02*
X4669D01*
X4410Y440D02*
X4645D01*
X4680Y326D02*
Y389D01*
X4720Y350D02*
Y365D01*
X4844Y-890D02*
X5085D01*
X4842Y-840D02*
X5035D01*
X4845Y-880D02*
X5075D01*
X5040Y-890D02*
Y-845D01*
X5504Y-820D02*
X5622D01*
X5647D01*
X4880Y-890D02*
Y-685D01*
X4875Y-680D02*
X5085Y-890D01*
X4840Y-831D02*
Y-680D01*
X4920Y-890D02*
Y-725D01*
X4960Y-890D02*
Y-765D01*
X5000Y-890D02*
Y-805D01*
X5622Y-820D02*
X5647D01*
X5506Y-825D02*
X5717D01*
X5647Y-820D02*
X5717D01*
X5872Y-890D02*
Y-825D01*
Y-890D02*
X6090D01*
X5872Y-880D02*
X6090D01*
X5872Y-840D02*
X6090D01*
X5880Y-890D02*
Y-825D01*
X5920Y-890D02*
Y-825D01*
X5872D02*
X5940D01*
X5960Y-890D02*
Y-825D01*
X5940D02*
X5965D01*
X5940D02*
X5965D01*
X6090D01*
X6000Y-890D02*
Y-825D01*
X6040Y-890D02*
Y-825D01*
X6080Y-890D02*
Y-825D01*
X6090Y-890D02*
Y-825D01*
X4916Y310D02*
X4938D01*
Y325D01*
X4907Y320D02*
X4938D01*
Y325D02*
X5138D01*
X5162Y287D02*
X5195Y255D01*
X5138Y304D02*
Y325D01*
X4920Y310D02*
Y411D01*
X4960Y325D02*
Y497D01*
X4880Y341D02*
Y374D01*
X5000Y325D02*
Y497D01*
X5160Y290D02*
Y497D01*
X5040Y325D02*
Y497D01*
X5080Y325D02*
Y497D01*
X5120Y325D02*
Y497D01*
X5138Y320D02*
X5195D01*
X4842Y360D02*
X5195D01*
X4911Y400D02*
X5370D01*
X4935Y440D02*
X5370D01*
X5195Y255D02*
Y388D01*
X5170Y280D02*
X5195D01*
Y388D02*
X5370D01*
X5200D02*
Y497D01*
X5240Y388D02*
Y497D01*
X4942Y480D02*
X5370D01*
X4942Y497D02*
X5370D01*
X5280Y388D02*
Y497D01*
X5320Y388D02*
Y497D01*
X5360Y388D02*
Y497D01*
X5370Y388D02*
Y497D01*
X4408Y1320D02*
Y1412D01*
Y1320D02*
X4668D01*
X4408Y1360D02*
X4708D01*
X4408Y1412D02*
X4420D01*
X4408D02*
X4420D01*
X4408Y1400D02*
X4778D01*
X4420Y1412D02*
X4580D01*
X4440Y1320D02*
Y1412D01*
X4480Y1320D02*
Y1412D01*
X4520Y1320D02*
Y1412D01*
X4668Y1320D02*
X4725Y1377D01*
X4560Y1320D02*
Y1412D01*
X4600Y1320D02*
Y1435D01*
X4640Y1320D02*
Y1435D01*
X4680Y1332D02*
Y1435D01*
X4580Y1412D02*
Y1435D01*
X4720Y1372D02*
Y1435D01*
X4760Y1397D02*
Y1435D01*
X4580D02*
X4975D01*
X4800Y1400D02*
Y1435D01*
X4840Y1400D02*
Y1435D01*
X4880Y1400D02*
Y1435D01*
X4920Y1400D02*
Y1435D01*
X4960Y1400D02*
Y1435D01*
X5000Y1400D02*
Y1439D01*
X5040Y1400D02*
Y1468D01*
X4780Y1400D02*
X5090D01*
X5080D02*
Y1508D01*
X5030Y1458D02*
X5087Y1515D01*
X5002Y1440D02*
X5155D01*
X5052Y1480D02*
X5162D01*
X5090Y1400D02*
X5103Y1412D01*
X5155Y1435D02*
Y1450D01*
X5092Y1520D02*
X5162D01*
Y1450D02*
X5178D01*
X5162Y1450D02*
X5178D01*
X5120Y1425D02*
Y1875D01*
X5109Y1560D02*
X5162D01*
X5110Y1570D02*
Y1875D01*
Y1600D02*
X5162D01*
X5110Y1640D02*
X5162D01*
Y1450D02*
Y1650D01*
X5200D02*
Y1875D01*
X5162Y1650D02*
X5322D01*
X5240D02*
Y1875D01*
X5280Y1650D02*
Y1875D01*
X5320Y1650D02*
Y1875D01*
X5322Y1650D02*
X5347D01*
X5322D02*
X5347D01*
X4408Y1880D02*
X4435D01*
X4460D01*
X4435D02*
X4460D01*
X4556D01*
X4408Y1920D02*
X4553D01*
X4408Y1960D02*
X4564D01*
X4408Y2000D02*
X4593D01*
X4832Y1905D02*
X4842D01*
Y1972D01*
X4832Y1920D02*
X4842D01*
X4821Y1960D02*
X4842D01*
X4408Y1880D02*
Y2175D01*
X4440Y1880D02*
Y2175D01*
X4480Y1880D02*
Y2175D01*
X4520Y1880D02*
Y2175D01*
X4560Y1950D02*
Y2175D01*
X4600Y2006D02*
Y2175D01*
X4760Y2021D02*
Y2175D01*
X4800Y1992D02*
Y2175D01*
X4840Y1905D02*
Y2175D01*
X4640Y2027D02*
Y2175D01*
X4680Y2033D02*
Y2175D01*
X4678Y2033D02*
X4708D01*
X4720Y2032D02*
Y2175D01*
X4792Y2000D02*
X4848D01*
X4408Y2040D02*
X4878D01*
X4408Y2080D02*
X4918D01*
X4865Y2027D02*
X4925Y2087D01*
X5110Y1680D02*
X5373D01*
X5110Y1720D02*
X5413D01*
X5110Y1800D02*
X5797D01*
X5110Y1840D02*
X5797D01*
X5110Y1875D02*
X6415D01*
X4980Y2110D02*
X6780D01*
X4880Y2042D02*
Y2175D01*
X4920Y2082D02*
Y2175D01*
X4960Y2107D02*
Y2175D01*
X4408Y2120D02*
X7360D01*
X5000Y2110D02*
Y2175D01*
X4408Y2160D02*
X7360D01*
X4408Y2175D02*
X7360D01*
X5040Y2110D02*
Y2175D01*
X5080Y2110D02*
Y2175D01*
X5120Y2110D02*
Y2175D01*
X5160Y2110D02*
Y2175D01*
X5200Y2110D02*
Y2175D01*
X5240Y2110D02*
Y2175D01*
X5280Y2110D02*
Y2175D01*
X5320Y2110D02*
Y2175D01*
X5360Y1667D02*
X5410Y1717D01*
X5360Y1667D02*
Y1875D01*
X5400Y1707D02*
Y1875D01*
X5465Y1740D02*
X5478D01*
Y1755D01*
X5650D01*
X5678D01*
X5650Y1760D02*
X5797D01*
X5440Y1736D02*
Y1875D01*
X5480Y1755D02*
Y1875D01*
X5520Y1755D02*
Y1875D01*
X5560Y1755D02*
Y1875D01*
X5600Y1755D02*
Y1875D01*
X5640Y1755D02*
Y1875D01*
X5680Y1760D02*
Y1875D01*
X5720Y1760D02*
Y1875D01*
X5760Y1760D02*
Y1875D01*
X5797Y1760D02*
Y1873D01*
X5958D01*
X5983D01*
X5958D02*
X5983D01*
X6105D01*
X6142D01*
X7265Y1680D02*
X7360D01*
X7265Y1720D02*
X7360D01*
X6105Y1873D02*
X6142D01*
X6265D01*
X7265Y1760D02*
X7360D01*
X7265Y1645D02*
Y1783D01*
X7268Y1640D02*
X7360D01*
X7265Y1783D02*
Y1820D01*
Y1783D02*
Y1820D01*
Y1800D02*
X7360D01*
X7265Y1840D02*
X7360D01*
X6265Y1873D02*
X6290D01*
X6265D02*
X6290D01*
X6415D01*
X7280Y1640D02*
Y2175D01*
X7320Y1640D02*
Y2175D01*
X7360Y1640D02*
Y2175D01*
X7360Y1640D02*
Y2175D01*
X7265Y1880D02*
X7360D01*
X7265Y1820D02*
Y1983D01*
Y1920D02*
X7360D01*
X7265Y1960D02*
X7360D01*
X5360Y2110D02*
Y2175D01*
X5400Y2110D02*
Y2175D01*
X5440Y2110D02*
Y2175D01*
X5480Y2110D02*
Y2175D01*
X5520Y2110D02*
Y2175D01*
X5560Y2110D02*
Y2175D01*
X5600Y2110D02*
Y2175D01*
X5640Y2110D02*
Y2175D01*
X5680Y2110D02*
Y2175D01*
X5720Y2110D02*
Y2175D01*
X5760Y2110D02*
Y2175D01*
X5800Y2110D02*
Y2175D01*
X5840Y2110D02*
Y2175D01*
X5880Y2110D02*
Y2175D01*
X5920Y2110D02*
Y2175D01*
X5960Y2110D02*
Y2175D01*
X6000Y2110D02*
Y2175D01*
X6040Y2110D02*
Y2175D01*
X6080Y2110D02*
Y2175D01*
X6120Y2110D02*
Y2175D01*
X6160Y2110D02*
Y2175D01*
X6200Y2110D02*
Y2175D01*
X6240Y2110D02*
Y2175D01*
X6280Y2110D02*
Y2175D01*
X6320Y2110D02*
Y2175D01*
X6360Y2110D02*
Y2175D01*
X6400Y2110D02*
Y2175D01*
X6440Y2110D02*
Y2175D01*
X6480Y2110D02*
Y2175D01*
X6842Y2080D02*
X7360D01*
X6520Y2110D02*
Y2175D01*
X6560Y2110D02*
Y2175D01*
X6600Y2110D02*
Y2175D01*
X6640Y2110D02*
Y2175D01*
X6938Y1983D02*
X7070D01*
X7105D01*
X7070D02*
X7105D01*
X7265D01*
X6835Y2087D02*
X6930Y1992D01*
X6922Y2000D02*
X7360D01*
X6882Y2040D02*
X7360D01*
X6840Y2082D02*
Y2175D01*
X6880Y2042D02*
Y2175D01*
X6920Y2002D02*
Y2175D01*
X6680Y2110D02*
Y2175D01*
X6720Y2110D02*
Y2175D01*
X6760Y2110D02*
Y2175D01*
X6800Y2107D02*
Y2175D01*
X6960Y1983D02*
Y2175D01*
X7000Y1983D02*
Y2175D01*
X7040Y1983D02*
Y2175D01*
X7080Y1983D02*
Y2175D01*
X7120Y1983D02*
Y2175D01*
X7160Y1983D02*
Y2175D01*
X7200Y1983D02*
Y2175D01*
X7240Y1983D02*
Y2175D01*
X6415Y1855D02*
X6468Y1802D01*
X6415Y1855D02*
Y1873D01*
X6412Y1867D02*
X6414Y1873D01*
X6415Y1875D01*
X6515Y1773D02*
X6685D01*
X8653Y-180D02*
X8655Y-80D01*
X6305Y-1502D02*
X6470Y-1667D01*
X6305Y-1502D02*
Y-1382D01*
X6192Y-1270D02*
X6305Y-1382D01*
X6470Y-1667D02*
X6543D01*
X5795Y-1270D02*
X6192D01*
X4410Y-2177D02*
Y-1862D01*
X4440Y-2177D02*
Y-1854D01*
X4480Y-2177D02*
Y-1830D01*
X4520Y-2177D02*
Y-1830D01*
X4560Y-2177D02*
Y-1830D01*
X4600Y-2177D02*
Y-1830D01*
X4460Y-1840D02*
X4470Y-1830D01*
X4640D01*
X4640Y-2177D02*
Y-1830D01*
X4640Y-1800D02*
X4668D01*
X4680Y-2177D02*
Y-1808D01*
X4720Y-2177D02*
Y-1826D01*
X4760Y-2177D02*
Y-1830D01*
X4800Y-2177D02*
Y-1823D01*
X4840Y-2177D02*
Y-1808D01*
X4880Y-2177D02*
Y-1808D01*
X4920Y-2177D02*
Y-1808D01*
X4960Y-2177D02*
Y-1808D01*
X4831D02*
X4997D01*
X5000Y-2177D02*
Y-1808D01*
X5240Y-2177D02*
Y-1829D01*
X5280Y-2177D02*
Y-1832D01*
X5200Y-2177D02*
Y-1812D01*
X5320Y-2177D02*
Y-1824D01*
X4640Y-1830D02*
Y-1770D01*
Y-1610D02*
Y-1550D01*
X4595D02*
X4640D01*
Y-1560D02*
X4670D01*
X4616Y-1520D02*
X4639D01*
X4640Y-1550D02*
Y-1522D01*
X5040Y-2177D02*
Y-1808D01*
X5080Y-2177D02*
Y-1808D01*
X5120Y-2177D02*
Y-1808D01*
X5160Y-2177D02*
Y-1808D01*
X5360Y-2177D02*
Y-1802D01*
X5400Y-2177D02*
Y-1770D01*
X4997Y-1808D02*
X5022D01*
X4997D02*
X5022D01*
X5193D01*
X4410Y-2080D02*
X5490D01*
X4410Y-2040D02*
X5490D01*
X5440Y-2177D02*
Y-1770D01*
X4410Y-2177D02*
X7378D01*
X4410Y-2160D02*
X7378D01*
X4410Y-2120D02*
X7378D01*
X4460Y-1840D02*
X5468D01*
X5362Y-1800D02*
X5458D01*
X5389Y-1770D02*
X5459D01*
X4410Y-2000D02*
X5490D01*
X4410Y-1960D02*
X5490D01*
X4410Y-1920D02*
X5490D01*
X4410Y-1880D02*
X5490D01*
X5520Y-2177D02*
Y-2083D01*
X5480Y-2177D02*
Y-1864D01*
X5560Y-2177D02*
Y-2083D01*
X5600Y-2177D02*
Y-2083D01*
X5640Y-2177D02*
Y-2083D01*
X5490D02*
X5720D01*
X5680Y-2177D02*
Y-2083D01*
X5490D02*
Y-1877D01*
X5680Y-1674D02*
Y-1660D01*
X5400Y-1615D02*
Y-1577D01*
X5440Y-1615D02*
Y-1336D01*
X5480Y-1615D02*
Y-1471D01*
X5389Y-1615D02*
X5503D01*
X5378Y-1600D02*
X5661D01*
X5352Y-1577D02*
X5412D01*
Y-1440D02*
X5463D01*
X5412Y-1577D02*
Y-1314D01*
Y-1560D02*
X5663D01*
X5412Y-1520D02*
X5547D01*
X5412Y-1480D02*
X5487D01*
X5557Y-1638D02*
X5570Y-1650D01*
X5560Y-1640D02*
Y-1524D01*
X5600Y-1648D02*
Y-1527D01*
X5560Y-1640D02*
X5670D01*
X5640Y-1654D02*
Y-1519D01*
X5520Y-1617D02*
Y-1507D01*
X5638Y-1520D02*
X5677D01*
X5680Y-1515D02*
Y-1497D01*
X5698Y-1480D02*
X5710D01*
X5722Y-1440D02*
X5953D01*
X4410Y-1360D02*
X4427D01*
X4410Y-1375D02*
Y-1262D01*
X4440Y-1351D02*
Y-1232D01*
X4410Y-1320D02*
X4914D01*
X4480Y-1337D02*
Y-1192D01*
X4410Y-1262D02*
X4482Y-1190D01*
X4432Y-1240D02*
X4553D01*
X4472Y-1200D02*
X4553D01*
X4501Y-1160D02*
X4553D01*
X4505Y-1120D02*
X4553D01*
X4614Y-1400D02*
X4641D01*
X4600Y-1380D02*
Y-1265D01*
X4640Y-1403D02*
Y-1265D01*
X4578Y-1360D02*
X4677D01*
X4680Y-1358D02*
Y-1265D01*
X4560Y-1349D02*
Y-1265D01*
X4720Y-1339D02*
Y-1265D01*
X4760Y-1335D02*
Y-1265D01*
X4800Y-1344D02*
Y-1265D01*
X4828Y-1360D02*
X4876D01*
X4553Y-1265D02*
X4833D01*
Y-1095D01*
X4505Y-1080D02*
X4553D01*
X4505Y-1135D02*
Y-785D01*
X4520Y-1336D02*
Y-770D01*
X4505Y-1040D02*
X4553D01*
X4505Y-1000D02*
X4553D01*
X4505Y-920D02*
X4548D01*
X4505Y-880D02*
X4540D01*
X4505Y-785D02*
X4522Y-768D01*
X4505Y-960D02*
X4569D01*
X4505Y-840D02*
X4543D01*
X4505Y-800D02*
X4557D01*
X4522Y-768D02*
X4580D01*
X4553Y-1265D02*
Y-985D01*
X4592D01*
X4560D02*
Y-945D01*
X4840Y-1370D02*
Y-1100D01*
X4880Y-1354D02*
Y-1100D01*
X4838D02*
Y-1090D01*
X4560Y-795D02*
Y-768D01*
X4840Y-831D02*
Y-768D01*
X4880Y-900D02*
Y-768D01*
X4920Y-1316D02*
Y-1298D01*
X5120Y-1354D02*
Y-1298D01*
X5124Y-1360D02*
X5133D01*
X5086Y-1320D02*
X5133D01*
X4410Y-1280D02*
X4915D01*
X4833Y-1240D02*
X4915D01*
X4833Y-1200D02*
X4915D01*
Y-1298D02*
X4962D01*
X5080Y-1316D02*
Y-1298D01*
X5038D02*
X5133D01*
X5412Y-1314D02*
X5422Y-1323D01*
X5133Y-1375D02*
Y-1298D01*
X5396D02*
X5412Y-1314D01*
Y-1400D02*
X5453D01*
X5412Y-1360D02*
X5455D01*
X5133Y-1298D02*
X5145D01*
X5133D02*
X5145D01*
X5170D01*
X5145D02*
X5170D01*
X5145D02*
X5170D01*
X5396D01*
X5170D02*
X5396D01*
X4833Y-1160D02*
X4915D01*
X4833Y-1120D02*
X4915D01*
Y-1298D02*
Y-1100D01*
X4838D02*
X4915D01*
X4842Y-900D02*
X4997D01*
X4920D02*
Y-768D01*
X4805D02*
X4963D01*
X4960Y-900D02*
Y-768D01*
X4845Y-880D02*
X5075D01*
X4842Y-840D02*
X5035D01*
X4828Y-800D02*
X4995D01*
X4963Y-768D02*
X5095Y-900D01*
X4997D02*
X5022D01*
X4997D02*
X5022D01*
X5000D02*
Y-805D01*
X5022Y-900D02*
X5095D01*
X5080D02*
Y-885D01*
X5040Y-900D02*
Y-845D01*
X5504Y-820D02*
X5622D01*
X5647D01*
X5622D02*
X5647D01*
X5506Y-825D02*
X5717D01*
X5647Y-820D02*
X5717D01*
X5720Y-2177D02*
Y-2083D01*
X5760Y-2177D02*
Y-2083D01*
X5800Y-2177D02*
Y-2083D01*
X5840Y-2177D02*
Y-2083D01*
X5880Y-2177D02*
Y-2083D01*
X5920Y-2177D02*
Y-2083D01*
X5720D02*
X5745D01*
X5720D02*
X5745D01*
X5812Y-1775D02*
X5953Y-1773D01*
X5745Y-2083D02*
X5975D01*
X5960Y-2177D02*
Y-2083D01*
X5975Y-2080D02*
X6285D01*
X5975Y-2040D02*
X6233D01*
X6000Y-2177D02*
Y-1985D01*
X6040Y-2177D02*
Y-1985D01*
X6080Y-2177D02*
Y-1985D01*
X6120Y-2177D02*
Y-1985D01*
X6160Y-2177D02*
Y-1985D01*
X6200Y-2177D02*
Y-1985D01*
X5975Y-2000D02*
X6215D01*
X5975Y-2083D02*
Y-1985D01*
X6213D01*
X6280Y-2177D02*
Y-2078D01*
X6320Y-2177D02*
Y-2087D01*
X6240Y-2177D02*
Y-2049D01*
X6360Y-2177D02*
Y-2082D01*
X5770Y-1733D02*
X5812Y-1775D01*
X5840Y-1774D02*
Y-1722D01*
X5880Y-1774D02*
Y-1702D01*
X5797Y-1760D02*
X5953D01*
X5920Y-1774D02*
Y-1660D01*
X5953Y-1773D02*
Y-1690D01*
X5800Y-1763D02*
Y-1727D01*
X5845Y-1720D02*
X5953D01*
X5905Y-1680D02*
X6376D01*
X6288Y-1777D02*
Y-1690D01*
X5960D02*
Y-1645D01*
X6000Y-1690D02*
Y-1645D01*
X5953Y-1690D02*
X6288D01*
X6360Y-1777D02*
Y-1664D01*
X6288Y-1591D02*
X6398Y-1701D01*
X6320Y-1777D02*
Y-1624D01*
X6040Y-1690D02*
Y-1645D01*
X6080Y-1690D02*
Y-1645D01*
X6120Y-1690D02*
Y-1645D01*
X6160Y-1690D02*
Y-1645D01*
X6200Y-1690D02*
Y-1645D01*
X6240Y-1690D02*
Y-1645D01*
X6280Y-1690D02*
Y-1645D01*
X6400Y-2177D02*
Y-2059D01*
X6440Y-2177D02*
Y-2052D01*
X6480Y-2177D02*
Y-2052D01*
X6520Y-2177D02*
Y-2052D01*
X6560Y-2177D02*
Y-2052D01*
X6600Y-2177D02*
Y-2052D01*
X6640Y-2177D02*
Y-2052D01*
X6680Y-2177D02*
Y-2052D01*
X6720Y-2177D02*
Y-2052D01*
X6365Y-2080D02*
X7378D01*
X6760Y-2177D02*
Y-2052D01*
X6800Y-2177D02*
Y-2052D01*
X6840Y-2177D02*
Y-2052D01*
X6880Y-2177D02*
Y-2052D01*
X6920Y-2177D02*
Y-2052D01*
X6960Y-2177D02*
Y-2052D01*
X7000Y-2177D02*
Y-2052D01*
X7040Y-2177D02*
Y-2052D01*
X7080Y-2177D02*
Y-2052D01*
X7120Y-2177D02*
Y-2052D01*
X7160Y-2177D02*
Y-2052D01*
X7200Y-2177D02*
Y-2052D01*
X7240Y-2177D02*
Y-2052D01*
X7280Y-2177D02*
Y-2052D01*
X7320Y-2177D02*
Y-2052D01*
X7360Y-2177D02*
Y-2052D01*
X7378Y-2177D02*
Y-2052D01*
X6400Y-1777D02*
Y-1706D01*
X6440Y-1777D02*
Y-1740D01*
X6407Y-2052D02*
X7378D01*
X6288Y-1777D02*
X6890D01*
X6480D02*
Y-1745D01*
X6520Y-1777D02*
Y-1745D01*
X6288Y-1720D02*
X6411D01*
X6288Y-1760D02*
X6873D01*
X6560Y-1777D02*
Y-1745D01*
X6468D02*
X6618D01*
X6600Y-1777D02*
Y-1745D01*
X6640Y-1777D02*
Y-1742D01*
X6680Y-1777D02*
Y-1713D01*
X6720Y-1777D02*
Y-1545D01*
X6760Y-1777D02*
Y-1505D01*
X6868Y-1755D02*
X6890Y-1777D01*
X6800D02*
Y-1465D01*
X6840Y-1777D02*
Y-1425D01*
X6694Y-1680D02*
X6845D01*
Y-1700D02*
Y-1498D01*
X6674Y-1720D02*
X6848D01*
X6880Y-1777D02*
Y-1767D01*
X5720Y-1473D02*
Y-1445D01*
X5760Y-1453D02*
Y-1370D01*
X5880Y-1473D02*
Y-1370D01*
X5890Y-1480D02*
X5953D01*
X5800Y-1448D02*
Y-1370D01*
X5840Y-1453D02*
Y-1370D01*
X5732Y-1400D02*
X5953D01*
X5731Y-1370D02*
X5862D01*
X5888D01*
X5862D02*
X5888D01*
X5930Y-1640D02*
X5953D01*
X5939Y-1600D02*
X5953D01*
Y-1645D02*
Y-1370D01*
X5937Y-1560D02*
X5953D01*
Y-1645D02*
X6288D01*
X5923Y-1520D02*
X5953D01*
X5888Y-1370D02*
X5953D01*
X5920Y-1515D02*
Y-1370D01*
X6047Y-1345D02*
X6161D01*
X5800Y-1088D02*
Y-1050D01*
X5760Y-1040D02*
X5790D01*
X5760Y-1088D02*
Y-1010D01*
Y-1088D02*
X5838D01*
X5760Y-1080D02*
X5830D01*
X5760Y-1010D02*
X5838Y-1088D01*
X5872Y-903D02*
X5935Y-965D01*
X5872Y-903D02*
Y-825D01*
X5880Y-910D02*
Y-825D01*
X5872Y-880D02*
X6090D01*
X5890Y-920D02*
X6090D01*
X5872Y-840D02*
X6090D01*
X5872Y-825D02*
X5940D01*
X5960Y-965D02*
Y-825D01*
X6000Y-965D02*
Y-825D01*
X6040Y-965D02*
Y-825D01*
X5935Y-965D02*
X6090D01*
X6047Y-1350D02*
X6166D01*
X6080Y-965D02*
Y-825D01*
X6090Y-965D02*
Y-825D01*
X5920Y-950D02*
Y-825D01*
X5940D02*
X5965D01*
X5940D02*
X5965D01*
X5930Y-960D02*
X6090D01*
X5965Y-825D02*
X6090D01*
X6288Y-1640D02*
X6336D01*
X6288Y-1600D02*
X6296D01*
X6288Y-1645D02*
Y-1591D01*
X6690Y-1640D02*
X6845D01*
X6680Y-1622D02*
Y-1588D01*
X6669Y-1600D02*
X6845D01*
X6705Y-1560D02*
X6845D01*
X6745Y-1520D02*
X6845D01*
X6785Y-1480D02*
X6847D01*
X6686Y-1578D02*
X6867Y-1397D01*
X6825Y-1440D02*
X6870D01*
X6880Y-1430D02*
Y-1381D01*
X6865Y-1400D02*
X6910D01*
X6868Y-1443D02*
X6953Y-1358D01*
X6888Y-1360D02*
X6950D01*
X6890Y-1280D02*
X6950D01*
X6960Y-1351D02*
Y-1326D01*
X6890Y-1320D02*
X6957D01*
X6890Y-1343D02*
Y-1107D01*
X6920Y-1390D02*
Y-1107D01*
X6960Y-1249D02*
Y-1107D01*
X6890Y-1240D02*
X6966D01*
X7000Y-1215D02*
Y-1107D01*
X6890D02*
X7013D01*
X6988Y-1102D02*
X7011D01*
X6890Y-1200D02*
X7188D01*
X6890Y-1160D02*
X7050D01*
X6890Y-1120D02*
X7017D01*
X7040Y-1210D02*
Y-1150D01*
X7080Y-1210D02*
Y-1181D01*
X7028Y-1210D02*
X7178D01*
X7120D02*
Y-1188D01*
X7160Y-1210D02*
Y-1188D01*
X7033Y-1142D02*
X7055Y-1165D01*
X7188Y-1211D02*
Y-1188D01*
X7110D02*
X7188D01*
D11*
X8380Y568D02*
D03*
Y728D02*
D03*
X7105Y130D02*
D03*
X5578Y1662D02*
D03*
Y1502D02*
D03*
X5255Y1357D02*
D03*
Y1198D02*
D03*
X5750Y1188D02*
D03*
Y1348D02*
D03*
X6693Y-965D02*
D03*
Y-1125D02*
D03*
X6522Y-965D02*
D03*
Y-1125D02*
D03*
X6693Y-793D02*
D03*
X6522Y-620D02*
D03*
Y-780D02*
D03*
X6693Y-632D02*
D03*
X6685Y1933D02*
D03*
Y1773D02*
D03*
X5470Y292D02*
D03*
Y453D02*
D03*
X5640Y292D02*
D03*
Y133D02*
D03*
X4920Y1812D02*
D03*
Y1652D02*
D03*
X7105Y600D02*
D03*
Y440D02*
D03*
Y290D02*
D03*
X5038Y233D02*
D03*
Y73D02*
D03*
X5640Y-43D02*
D03*
Y-203D02*
D03*
X7088Y-1010D02*
D03*
Y-850D02*
D03*
X7288Y-1380D02*
D03*
Y-1220D02*
D03*
X7607Y-1720D02*
D03*
Y-1560D02*
D03*
X7257Y-850D02*
D03*
Y-1010D02*
D03*
X7335Y1388D02*
D03*
Y1548D02*
D03*
X7903Y-1280D02*
D03*
Y-1120D02*
D03*
X6183Y362D02*
D03*
Y522D02*
D03*
D12*
X8815Y-80D02*
D03*
Y120D02*
D03*
X8218Y568D02*
D03*
X8655Y-80D02*
D03*
X5955Y-1270D02*
D03*
X5795D02*
D03*
X7035Y765D02*
D03*
X7195D02*
D03*
X8655Y120D02*
D03*
X5872Y-725D02*
D03*
X6033D02*
D03*
X7447Y-1543D02*
D03*
X5715Y-720D02*
D03*
X5555D02*
D03*
X6693Y-460D02*
D03*
X6532D02*
D03*
X4353Y1532D02*
D03*
X4512D02*
D03*
X5255Y1550D02*
D03*
X5415D02*
D03*
X4528Y1780D02*
D03*
X4367D02*
D03*
X4930Y-1000D02*
D03*
X5090D02*
D03*
X8378Y568D02*
D03*
X4597Y-200D02*
D03*
X4438D02*
D03*
X4750Y-303D02*
D03*
X4910D02*
D03*
X7288Y-1543D02*
D03*
X7003Y940D02*
D03*
X7903Y-1390D02*
D03*
X7743D02*
D03*
X7162Y940D02*
D03*
X6197Y1773D02*
D03*
X6358D02*
D03*
X6050D02*
D03*
X5890D02*
D03*
X4435Y610D02*
D03*
X4595D02*
D03*
Y782D02*
D03*
X4435D02*
D03*
D13*
X7932Y725D02*
D03*
X7372Y-65D02*
D03*
Y345D02*
D03*
X6543Y-1667D02*
D03*
X6462Y1602D02*
D03*
Y1477D02*
D03*
X5903Y1223D02*
D03*
Y1348D02*
D03*
Y1477D02*
D03*
X7932Y345D02*
D03*
Y190D02*
D03*
Y65D02*
D03*
Y-190D02*
D03*
X7372Y600D02*
D03*
Y470D02*
D03*
X7932Y600D02*
D03*
X7103Y-1412D02*
D03*
X7932Y-65D02*
D03*
X7372Y-190D02*
D03*
Y65D02*
D03*
X7103Y-1543D02*
D03*
Y-1288D02*
D03*
X6543D02*
D03*
Y-1412D02*
D03*
Y-1543D02*
D03*
X7932Y470D02*
D03*
X6462Y1223D02*
D03*
Y1348D02*
D03*
D14*
X7290Y1175D02*
D03*
X7403Y-390D02*
D03*
X7682D02*
D03*
X7011Y1175D02*
D03*
X6320Y1080D02*
D03*
X6041D02*
D03*
D15*
X7372Y190D02*
D03*
X5903Y1602D02*
D03*
X7372Y725D02*
D03*
X7103Y-1667D02*
D03*
D16*
X8503Y-65D02*
D03*
Y-625D02*
D03*
X6947Y762D02*
D03*
X8378Y-65D02*
D03*
X8247D02*
D03*
X6693Y762D02*
D03*
X5928D02*
D03*
X6312D02*
D03*
X6058Y-203D02*
D03*
X6183D02*
D03*
X6312D02*
D03*
X6438D02*
D03*
X6562D02*
D03*
X6693D02*
D03*
X6818D02*
D03*
X6947D02*
D03*
X6818Y762D02*
D03*
X6562D02*
D03*
X6183D02*
D03*
X6058D02*
D03*
X5803D02*
D03*
X8122Y-65D02*
D03*
X8378Y-625D02*
D03*
X8247D02*
D03*
X5928Y-203D02*
D03*
X6438Y762D02*
D03*
D17*
X8093Y-1888D02*
D03*
X7850Y938D02*
D03*
X7620D02*
D03*
X5847Y-1967D02*
D03*
X5617D02*
D03*
X7862Y-1888D02*
D03*
X4895Y-1692D02*
D03*
X5125D02*
D03*
X5272Y-1182D02*
D03*
X5042D02*
D03*
D18*
X10520Y-1375D02*
D03*
Y-1032D02*
D03*
D19*
X8712Y-310D02*
D03*
Y-540D02*
D03*
D20*
X5601Y1291D02*
D03*
D21*
X5397Y1197D02*
D03*
Y1388D02*
D03*
D22*
X5750Y1662D02*
D03*
Y1502D02*
D03*
X6515Y1933D02*
D03*
Y1773D02*
D03*
X5640Y447D02*
D03*
Y607D02*
D03*
X4458Y195D02*
D03*
Y35D02*
D03*
X5295Y130D02*
D03*
Y290D02*
D03*
X6915Y-850D02*
D03*
Y-1010D02*
D03*
X7555Y-1010D02*
D03*
Y-1170D02*
D03*
Y-1390D02*
D03*
Y-1230D02*
D03*
X7168Y1548D02*
D03*
Y1388D02*
D03*
X6685Y1477D02*
D03*
Y1638D02*
D03*
D23*
X6188Y-902D02*
D03*
X6347D02*
D03*
X6350Y-725D02*
D03*
X6190D02*
D03*
X4365Y1175D02*
D03*
X4525D02*
D03*
X4460Y-60D02*
D03*
X4620D02*
D03*
X7168Y1883D02*
D03*
X7007D02*
D03*
Y1720D02*
D03*
X7168D02*
D03*
D24*
X5803Y-203D02*
D03*
X8122Y-625D02*
D03*
D25*
X6120Y-1498D02*
D03*
Y-1838D02*
D03*
D26*
X5612Y-993D02*
D03*
X5272D02*
D03*
D27*
X8718Y342D02*
D03*
X8718Y852D02*
D03*
D28*
X9885Y597D02*
D03*
D29*
X8182Y568D02*
X8218D01*
X8025Y725D02*
X8182Y568D01*
X7932Y725D02*
X8025D01*
X4175Y1385D02*
X4322Y1532D01*
X4353D01*
X7620Y938D02*
X7770Y788D01*
X7847Y600D02*
X7932D01*
X7770Y678D02*
X7847Y600D01*
X7770Y678D02*
Y788D01*
X7490Y848D02*
X7682Y655D01*
Y-390D02*
Y655D01*
Y470D02*
X7932D01*
X8503Y-625D02*
Y-495D01*
Y-625D02*
X8557D01*
X8093Y-1888D02*
X8197D01*
X8093D02*
Y-1795D01*
Y-1980D02*
Y-1888D01*
X8712Y-310D02*
X8805D01*
X8655Y-80D02*
Y-3D01*
X8712Y-310D02*
Y-205D01*
X8655Y-158D02*
Y-80D01*
X8712Y-310D02*
X8805D01*
X8620D02*
X8712D01*
X8503Y-195D02*
Y-65D01*
Y-625D02*
Y-495D01*
Y-625D02*
X8557D01*
X7372Y290D02*
Y345D01*
Y190D02*
Y245D01*
X7243Y190D02*
X7372D01*
X7243Y-65D02*
X7372D01*
X7403Y-390D02*
Y-296D01*
X7297Y-390D02*
X7403D01*
Y-484D02*
Y-390D01*
X7105Y130D02*
X7182D01*
X7105Y60D02*
Y130D01*
X7715Y-745D02*
X7885D01*
X8005Y-625D02*
X8122D01*
X7480Y-1855D02*
X7500Y-1835D01*
X7885Y-745D02*
X8005Y-625D01*
X8185Y-780D02*
X8603D01*
X8712Y-670D02*
Y-540D01*
X8379Y-625D02*
X8380Y-780D01*
X8122Y-718D02*
X8185Y-780D01*
X8095Y120D02*
Y292D01*
X7822Y65D02*
X8040D01*
X7770Y12D02*
X7822Y65D01*
X8090Y190D02*
X8095Y185D01*
X7932Y345D02*
X8043D01*
X7932Y190D02*
X8090D01*
X8378Y-65D02*
Y120D01*
X8247Y-65D02*
Y117D01*
X7818Y-190D02*
X7932D01*
X7770Y-142D02*
X7818Y-190D01*
X7770Y-142D02*
Y12D01*
X6457Y-2080D02*
X7340D01*
X7712Y-1020D02*
X7853D01*
X7903Y-1600D02*
Y-1070D01*
X6325Y-1975D02*
X7528D01*
X7903Y-1600D01*
X6098Y-1849D02*
X6165Y-1849D01*
X5780Y-1852D02*
X6098Y-1849D01*
X5597Y-1788D02*
X5715D01*
X6165Y-1855D02*
X7480D01*
X5847Y-1967D02*
Y-1852D01*
X6980Y-1758D02*
X7382D01*
X7543Y-1655D02*
X7607Y-1720D01*
X7382Y-1758D02*
X7485Y-1655D01*
X7345Y-1667D02*
X7447Y-1565D01*
X7103Y-1667D02*
X7345D01*
X7485Y-1655D02*
X7543D01*
X7447Y-1390D02*
X7715D01*
X7447Y-1565D02*
Y-1152D01*
X7088Y-1088D02*
Y-1010D01*
X5715Y-1788D02*
X5780Y-1852D01*
X5902Y-1043D02*
X6222D01*
X5795Y-935D02*
Y-725D01*
X5720D02*
X5872D01*
X6222Y-1043D02*
X6467Y-1288D01*
X6543D01*
X5795Y-935D02*
X5902Y-1043D01*
X6522Y-965D02*
Y-780D01*
X6347Y-902D02*
X6520D01*
X5290Y-685D02*
X5395D01*
X5430Y-720D01*
X5555D01*
X4175Y-993D02*
X4347Y-820D01*
X5435Y-1115D02*
Y-855D01*
X4965Y-485D02*
X5271Y-791D01*
X5371D02*
X5435Y-855D01*
X5271Y-791D02*
X5371D01*
X5010Y-405D02*
X5290Y-685D01*
X5272Y-1182D02*
Y-968D01*
X5267Y-1123D02*
X5272Y-1127D01*
X6190Y-900D02*
Y-725D01*
X6033D02*
X6190D01*
X7003Y-1288D02*
X7220D01*
X7288Y-1220D01*
X7588Y-550D02*
X7912D01*
X7543Y-505D02*
Y397D01*
X8247Y-625D02*
Y-510D01*
X7372Y65D02*
X7540D01*
X7543Y-505D02*
X7588Y-550D01*
X7372Y-190D02*
X7543D01*
X7912Y-550D02*
X8027Y-435D01*
X8173D01*
X8247Y-510D01*
X7850Y938D02*
X8367D01*
X8040Y65D02*
X8095Y120D01*
X8043Y345D02*
X8095Y292D01*
X6947Y762D02*
X7032D01*
X7035Y765D01*
X9145Y215D02*
Y568D01*
X8603Y-780D02*
X8712Y-670D01*
X8378Y-497D02*
X8379Y-625D01*
X8122Y-242D02*
Y-65D01*
X7610Y-1562D02*
X7715D01*
X6325Y-1733D02*
X6342Y-1750D01*
X6965Y-1325D02*
X7003Y-1288D01*
X6415Y-2123D02*
X6457Y-2080D01*
X7516Y424D02*
X7543Y397D01*
X7470Y470D02*
X7516Y424D01*
X7555Y-1200D02*
X7715D01*
X6922Y-1700D02*
Y-1498D01*
Y-1700D02*
X6980Y-1758D01*
X7257Y-1010D02*
X7715D01*
X7853Y-1020D02*
X7903Y-1070D01*
X7405Y-1110D02*
X7447Y-1152D01*
X7110Y-1110D02*
X7405D01*
X7088Y-1088D02*
X7110Y-1110D01*
X6622Y-1412D02*
X6712Y-1323D01*
X6693Y-1125D02*
X6712Y-1145D01*
X6522Y-1125D02*
X6693D01*
X6543Y-1412D02*
X6622D01*
X6712Y-1323D02*
Y-1145D01*
X6693Y-965D02*
X6772D01*
X6693D02*
Y-793D01*
X6812Y-1343D02*
Y-1005D01*
X6772Y-965D02*
X6812Y-1005D01*
X6612Y-1543D02*
X6812Y-1343D01*
X6532Y-610D02*
Y-460D01*
X6522Y-620D02*
X6532Y-610D01*
X6445Y-620D02*
X6522D01*
X6353Y-712D02*
X6445Y-620D01*
X6295Y-348D02*
X6312Y-330D01*
X6693Y-632D02*
Y-203D01*
X6922Y-1498D02*
X7007Y-1412D01*
X7103D01*
X7288Y-1543D02*
Y-1380D01*
X7103Y-1543D02*
X7288D01*
X7932Y-65D02*
X8122D01*
Y-242D02*
X8378Y-497D01*
X6562Y177D02*
X6675Y290D01*
X7212Y380D02*
Y420D01*
X7262Y470D01*
X6562Y-203D02*
Y177D01*
X7122Y290D02*
X7212Y380D01*
X6675Y290D02*
X7122D01*
X7262Y470D02*
X7470D01*
X9143Y570D02*
X9145Y568D01*
X8378D02*
X9145D01*
X6562Y657D02*
X6620Y600D01*
X6562Y657D02*
Y762D01*
X6620Y600D02*
X7372D01*
Y725D02*
Y857D01*
X5995Y-358D02*
X6058Y-295D01*
Y-203D01*
X6122Y-520D02*
X6295Y-348D01*
X6062Y-440D02*
X6183Y-320D01*
X6175Y-603D02*
X6438Y-340D01*
X5640Y-43D02*
X6115D01*
X6183Y-110D01*
X5928Y470D02*
X6058Y600D01*
X5640Y292D02*
X5640Y292D01*
X5480Y292D02*
X5640D01*
X5640Y292D02*
Y470D01*
X5295Y28D02*
X5525Y-203D01*
X4175D02*
Y-200D01*
X5050D01*
X6312Y-330D02*
Y-203D01*
X5005Y-22D02*
X5422Y-440D01*
X6062D01*
X5005Y105D02*
X5467Y-358D01*
X5995D01*
X4175Y-595D02*
X4183Y-603D01*
X4175Y-595D02*
X4467Y-303D01*
X6438Y-340D02*
Y-203D01*
X4467Y-303D02*
X5035D01*
X4615Y195D02*
X4705Y105D01*
X4175Y195D02*
X4615D01*
X4705Y105D02*
X5005D01*
X4620Y-60D02*
X4753D01*
X4790Y-22D01*
X5005D01*
X6183Y-320D02*
Y-110D01*
X5050Y-200D02*
X5370Y-520D01*
X6122D01*
X4495Y-405D02*
X5010D01*
X5035Y-303D02*
X5335Y-603D01*
X6175D01*
X4415Y-485D02*
X4495Y-405D01*
X4533Y-485D02*
X4965D01*
X4495Y-522D02*
X4533Y-485D01*
X4385Y-8D02*
X4458D01*
Y-57D02*
Y35D01*
X4908Y-603D02*
X5272Y-968D01*
X4847Y-1290D02*
X5000Y-1443D01*
Y-1293D01*
Y-1440D02*
X5270D01*
X4175Y593D02*
X4192Y610D01*
X5775Y607D02*
X5803Y635D01*
X5217Y392D02*
X5295D01*
Y468D01*
X5392Y453D02*
X5470D01*
Y522D01*
X5562Y607D02*
X5640D01*
X5717D01*
X5803Y632D02*
Y762D01*
X5210Y130D02*
X5295D01*
X5108Y233D02*
X5210Y130D01*
X5038Y233D02*
X5108D01*
X4790Y233D02*
X5038D01*
X5295Y28D02*
Y130D01*
X5525Y-203D02*
X5803D01*
X4692Y-1125D02*
X4817Y-1000D01*
X4930D01*
X5098Y-993D02*
X5272D01*
X4628Y-603D02*
X4908D01*
X4415Y-652D02*
Y-485D01*
X4347Y-820D02*
Y-719D01*
X4415Y-652D01*
X4428Y-1135D02*
Y-753D01*
X4495Y-685D01*
Y-522D01*
X4175Y-1785D02*
X4405D01*
X4500Y-1690D01*
X4753Y-1557D02*
X4755Y-1560D01*
Y-1690D02*
X4892D01*
X4895Y-1692D01*
X4755Y-1690D02*
Y-1465D01*
X5503Y-1692D02*
X5597Y-1788D01*
X5125Y-1692D02*
X5503D01*
X7035Y765D02*
X7195D01*
X7278Y1055D02*
X7493D01*
X7515Y1077D01*
X6693Y762D02*
Y857D01*
X6818Y762D02*
Y857D01*
X6900Y940D01*
X6693Y857D02*
X7011Y1175D01*
X7007Y1883D02*
X7011Y1879D01*
Y1175D02*
Y1879D01*
X7168Y1548D02*
Y1883D01*
X6900Y940D02*
X7003D01*
X6780Y2033D02*
X6875Y1937D01*
X4980Y2033D02*
X6780D01*
X4175Y988D02*
X4178D01*
X4365Y1175D01*
X4528Y1780D02*
X4888D01*
X4920Y1812D01*
Y1972D01*
X4980Y2033D01*
X4692Y1652D02*
X4920D01*
X4175Y1780D02*
X4367D01*
X4975Y1512D02*
X5033Y1570D01*
Y1915D01*
X5070Y1952D01*
X6735D01*
X6795Y1892D01*
X4512Y1512D02*
X4975D01*
X6312Y762D02*
Y845D01*
X6235Y133D02*
X6543Y440D01*
X6660Y950D02*
X6875Y1165D01*
X6438Y840D02*
X6547Y950D01*
X6660D01*
X5928Y762D02*
Y845D01*
X5855Y918D02*
X5928Y845D01*
X5640Y470D02*
X5928D01*
X6058Y600D02*
Y838D01*
X6312Y845D02*
X6510Y1043D01*
X6612D01*
X6305Y1430D02*
X6388Y1348D01*
X6462D01*
X6222Y1380D02*
X6380Y1223D01*
X6462D01*
X5895Y998D02*
X6058Y835D01*
X5640Y607D02*
X5775D01*
X5803Y635D02*
Y762D01*
X4875Y610D02*
X5028Y762D01*
X4790Y738D02*
X4897Y845D01*
X5692D01*
X5765Y918D01*
X5855D01*
X4858Y925D02*
X5640D01*
X4790Y993D02*
X4858Y925D01*
X4790Y993D02*
X4795Y998D01*
X5640Y925D02*
X5712Y998D01*
X5895D01*
X5045Y1005D02*
X5603D01*
X5678Y1080D01*
X6612Y1043D02*
X6795Y1225D01*
X6570Y1125D02*
X6685Y1240D01*
X6795Y1225D02*
Y1892D01*
X6875Y1165D02*
Y1937D01*
X6685Y1240D02*
Y1457D01*
X6540Y1602D02*
X6665Y1477D01*
X6462Y1602D02*
X6540D01*
X6669Y1461D02*
X6672Y1457D01*
X6685D01*
X6665Y1477D02*
X6685D01*
X6142Y1335D02*
X6180Y1298D01*
Y960D02*
Y1298D01*
X6058Y838D02*
X6180Y960D01*
X6062Y1102D02*
Y1302D01*
X6017Y1348D02*
X6062Y1302D01*
X6041Y1080D02*
X6062Y1102D01*
X5783Y1348D02*
X6017D01*
X5750Y1188D02*
X5785Y1223D01*
X5517Y1090D02*
X5615Y1188D01*
X5138Y1090D02*
X5517D01*
X5615Y1188D02*
X5750D01*
X6142Y1335D02*
Y1515D01*
X6055Y1602D02*
X6142Y1515D01*
X6197Y1765D02*
X6305Y1658D01*
X6197Y1765D02*
Y1773D01*
X6305Y1430D02*
Y1658D01*
X6050Y1727D02*
X6222Y1555D01*
X6050Y1727D02*
Y1773D01*
X6222Y1380D02*
Y1555D01*
X5810Y1602D02*
X6055D01*
X5750Y1662D02*
X5810Y1602D01*
X5415Y1612D02*
X5465Y1662D01*
X5415Y1550D02*
Y1612D01*
X5578Y1662D02*
X5750D01*
X5465Y1662D02*
X5578D01*
X5397Y1198D02*
X5397Y1198D01*
X5255Y1198D02*
X5397D01*
X5458Y1448D02*
X5522D01*
X5397Y1198D02*
Y1388D01*
X5750Y1502D02*
X5775Y1477D01*
X5397Y1388D02*
X5458Y1448D01*
X5522D02*
X5578Y1502D01*
X5775Y1477D02*
X5903D01*
X5578Y1502D02*
X5750D01*
X5601Y1291D02*
X5657Y1348D01*
X5750D01*
X6183Y838D02*
X6320Y975D01*
Y1080D01*
X6543Y440D02*
X7105D01*
X6320Y1080D02*
X6425D01*
X6470Y1125D01*
X6570D01*
X5297Y133D02*
X6235D01*
X6183D02*
Y762D01*
X4912Y1138D02*
X5045Y1005D01*
X5903Y1123D02*
Y1223D01*
X5678Y1080D02*
X5860D01*
X5903Y1123D01*
X5785Y1223D02*
X5978D01*
X4595Y782D02*
Y1012D01*
X4435Y610D02*
Y782D01*
X5028Y762D02*
X5803D01*
X4192Y610D02*
X4875D01*
X4458Y35D02*
X4535D01*
X4562Y-870D02*
X4692D01*
X4822D01*
X4692D02*
Y-740D01*
X4660Y482D02*
X4790D01*
Y380D02*
Y482D01*
X4920D01*
X5612Y-993D02*
Y-848D01*
X6112Y-902D02*
X6188D01*
X6033Y-802D02*
Y-725D01*
X5217Y290D02*
X5295D01*
Y365D01*
X5392Y453D02*
X5470D01*
X4595Y1012D02*
X4825Y1243D01*
X4985D02*
X5138Y1090D01*
X4825Y1243D02*
X4985D01*
X4780Y1323D02*
X5122D01*
X5158Y1357D01*
X5255D01*
Y1550D01*
X4365Y1175D02*
X4633D01*
X4780Y1323D01*
X4575Y1908D02*
X4692D01*
X4810D01*
X4692D02*
Y2010D01*
X5820Y1773D02*
X5890D01*
Y1850D01*
X7168Y1720D02*
X7243D01*
X6358Y1773D02*
Y1850D01*
X7335Y1548D02*
Y1617D01*
X7168Y1883D02*
X7243D01*
X7168D02*
Y1960D01*
X6818Y-807D02*
X6860Y-850D01*
X7257D01*
X6818Y-807D02*
Y-203D01*
X6358Y1773D02*
X6515D01*
X6685Y1638D02*
Y1773D01*
X8503Y-625D02*
Y-65D01*
X6385Y-1450D02*
Y-1338D01*
Y-1450D02*
X6478Y-1543D01*
X6543D01*
X5435Y-1115D02*
X5485Y-1165D01*
X6383Y-1335D02*
X6385Y-1338D01*
X4175Y-1388D02*
X4428Y-1135D01*
X5485Y-1165D02*
X6220D01*
X6316Y-1261D01*
X6383Y-1335D02*
Y-1328D01*
X6316Y-1261D02*
X6383Y-1328D01*
X4503Y-1462D02*
X4608D01*
X4503D02*
Y-1357D01*
X5000Y-1440D02*
Y-1315D01*
X5272Y-1438D02*
X5390D01*
X5272D02*
Y-1320D01*
X5617Y-2060D02*
Y-1967D01*
X5512D02*
X5617D01*
X5683Y-1588D02*
X5800D01*
X4562Y-870D02*
X4692D01*
X4822D01*
X5042Y-1275D02*
Y-1182D01*
X4938D02*
X5042D01*
X5612Y-993D02*
X5717D01*
X5612D02*
X5738D01*
X5612D02*
Y-848D01*
X5800Y-1705D02*
Y-1588D01*
Y-1470D01*
Y-1588D02*
X5917D01*
X6120Y-1623D02*
Y-1498D01*
Y-1602D02*
Y-1498D01*
X5975D02*
X6120D01*
Y-1393D01*
Y-1498D02*
Y-1373D01*
X6112Y-902D02*
X6188D01*
X6033Y-802D02*
Y-725D01*
X6972Y-1288D02*
X7103D01*
X6915Y-1085D02*
Y-1010D01*
X7103Y-1288D02*
Y-1232D01*
X7210Y-1220D02*
X7288D01*
X8930Y1077D02*
X9018Y990D01*
Y949D02*
Y990D01*
X7162Y940D02*
X7278Y1055D01*
X9018Y949D02*
X9145Y822D01*
X7515Y1077D02*
X8930D01*
X8947Y1175D02*
X9050Y1277D01*
X7290Y1175D02*
X8947D01*
X9050Y1277D02*
X9988D01*
D30*
X8120Y120D02*
X8655D01*
X8815Y-80D02*
Y120D01*
X8297Y-1227D02*
X8862D01*
X8947Y-1143D01*
X8815Y-80D02*
X9118D01*
X8947Y-1143D02*
Y-80D01*
D31*
X9118Y-588D02*
X9477D01*
X9145Y822D02*
X9516D01*
D32*
X6915Y-1248D02*
Y-1010D01*
Y-1248D02*
X6965Y-1298D01*
X6325Y-1733D02*
X6358Y-1765D01*
X6705D02*
X6797Y-1673D01*
X6965Y-1325D02*
Y-1298D01*
X6358Y-1765D02*
X6705D01*
X6797Y-1673D02*
Y-1493D01*
X6965Y-1325D01*
X8525Y-310D02*
X8807D01*
D33*
X4188Y2138D02*
X4457D01*
X4170Y-2140D02*
X4440D01*
D34*
X8680Y-2092D02*
X9860D01*
D35*
X7759Y-389D02*
D03*
D36*
X9117Y-80D02*
D03*
X8862Y-1227D02*
D03*
X9145Y568D02*
D03*
D37*
X4175Y1780D02*
D03*
Y1385D02*
D03*
Y988D02*
D03*
Y593D02*
D03*
Y-1785D02*
D03*
Y-595D02*
D03*
Y-200D02*
D03*
Y195D02*
D03*
Y-993D02*
D03*
Y-1388D02*
D03*
D38*
Y-2180D02*
D03*
Y2175D02*
D03*
D39*
X11165Y1652D02*
D03*
Y-1648D02*
D03*
Y-547D02*
D03*
Y553D02*
D03*
D40*
X10015Y-1700D02*
D03*
Y-700D02*
D03*
D41*
X8862Y-1735D02*
D03*
Y-1481D02*
D03*
X9145Y822D02*
D03*
Y1076D02*
D03*
X9117Y-334D02*
D03*
Y-588D02*
D03*
X5000Y-1440D02*
D03*
D42*
X10160Y1502D02*
D03*
X8160D02*
D03*
D43*
X4790Y738D02*
D03*
Y993D02*
D03*
Y482D02*
D03*
Y233D02*
D03*
D44*
X5597Y-1788D02*
D03*
X5592Y-1388D02*
D03*
X5800Y-1588D02*
D03*
X5272Y-1692D02*
D03*
X4755Y-1690D02*
D03*
D45*
X5272Y-1438D02*
D03*
X4692Y-1125D02*
D03*
X4500Y-1690D02*
D03*
D46*
X6120Y-1498D02*
D03*
Y-1838D02*
D03*
X5612Y-993D02*
D03*
X5272D02*
D03*
X4503Y-1462D02*
D03*
X4753D02*
D03*
X7715Y-1390D02*
D03*
Y-1200D02*
D03*
D47*
X4692Y1652D02*
D03*
D48*
Y1908D02*
D03*
D49*
X4790Y-22D02*
D03*
D50*
X4692Y-870D02*
D03*
D51*
X7715Y-1010D02*
D03*
D52*
X10720Y-8D02*
D03*
X10520D02*
D03*
X10720Y973D02*
D03*
Y772D02*
D03*
Y572D02*
D03*
X10520Y772D02*
D03*
Y572D02*
D03*
X10720Y372D02*
D03*
Y173D02*
D03*
X10520Y372D02*
D03*
Y173D02*
D03*
Y973D02*
D03*
X10720Y-208D02*
D03*
Y-407D02*
D03*
X10520Y-208D02*
D03*
Y-407D02*
D03*
X10720Y-607D02*
D03*
Y-807D02*
D03*
X10520Y-607D02*
D03*
Y-807D02*
D03*
Y973D02*
D03*
Y772D02*
D03*
Y572D02*
D03*
X10320Y772D02*
D03*
Y572D02*
D03*
X10520Y372D02*
D03*
Y173D02*
D03*
X10320Y372D02*
D03*
Y173D02*
D03*
Y973D02*
D03*
X8572Y1920D02*
D03*
X8372D02*
D03*
X8172D02*
D03*
X8372Y2120D02*
D03*
X8172D02*
D03*
X7972Y1920D02*
D03*
Y2120D02*
D03*
X8572D02*
D03*
X10340Y1920D02*
D03*
X10140D02*
D03*
X9940D02*
D03*
X10140Y2120D02*
D03*
X9940D02*
D03*
X9740Y1920D02*
D03*
X9540D02*
D03*
X9740Y2120D02*
D03*
X9540D02*
D03*
X10340D02*
D03*
X9372Y1920D02*
D03*
X9172D02*
D03*
X8972D02*
D03*
X9172Y2120D02*
D03*
X8972D02*
D03*
X8772Y1920D02*
D03*
X8572D02*
D03*
X8772Y2120D02*
D03*
X8572D02*
D03*
X9372D02*
D03*
X9375Y1520D02*
D03*
X9175D02*
D03*
X8975D02*
D03*
X9175Y1720D02*
D03*
X8975D02*
D03*
X8775Y1520D02*
D03*
X8575D02*
D03*
X8775Y1720D02*
D03*
X8575D02*
D03*
X9375D02*
D03*
X7793Y2120D02*
D03*
Y1920D02*
D03*
Y1720D02*
D03*
X7593Y1920D02*
D03*
Y1720D02*
D03*
X7793Y1520D02*
D03*
Y1320D02*
D03*
X7593Y1520D02*
D03*
Y1320D02*
D03*
Y2120D02*
D03*
X10703Y2120D02*
D03*
Y1920D02*
D03*
Y1720D02*
D03*
X10503Y1920D02*
D03*
Y1720D02*
D03*
X10703Y1520D02*
D03*
Y1320D02*
D03*
X10503Y1520D02*
D03*
Y1320D02*
D03*
Y2120D02*
D03*
X7710Y-2002D02*
D03*
X6325Y-1975D02*
D03*
X7500Y-1835D02*
D03*
X8297Y-1227D02*
D03*
X7715Y-745D02*
D03*
X6325Y-1733D02*
D03*
X4628Y-603D02*
D03*
X7715Y-1562D02*
D03*
X9145Y215D02*
D03*
X8240Y272D02*
D03*
X8440D02*
D03*
X8240Y940D02*
D03*
Y778D02*
D03*
X8440Y938D02*
D03*
Y778D02*
D03*
X9630Y-1065D02*
D03*
Y-865D02*
D03*
Y-665D02*
D03*
X9630Y-465D02*
D03*
X9630Y-265D02*
D03*
X9430D02*
D03*
Y-465D02*
D03*
Y-665D02*
D03*
Y-865D02*
D03*
Y-1065D02*
D03*
X9520Y167D02*
D03*
Y367D02*
D03*
X9520Y568D02*
D03*
X9520Y768D02*
D03*
X9520Y968D02*
D03*
X9720Y968D02*
D03*
X9920D02*
D03*
X10120Y968D02*
D03*
X10120Y768D02*
D03*
X9720D02*
D03*
X9920D02*
D03*
X9720Y568D02*
D03*
X9920Y568D02*
D03*
X10120Y568D02*
D03*
X10120Y368D02*
D03*
X9920Y367D02*
D03*
X9720D02*
D03*
X9720Y167D02*
D03*
X9920D02*
D03*
X10120Y168D02*
D03*
X7372Y857D02*
D03*
X9140Y-1840D02*
D03*
Y-1640D02*
D03*
Y-1440D02*
D03*
Y-1240D02*
D03*
X9200Y-868D02*
D03*
Y-1065D02*
D03*
X9540Y-1840D02*
D03*
Y-1640D02*
D03*
Y-1440D02*
D03*
Y-1240D02*
D03*
X9340D02*
D03*
Y-1440D02*
D03*
Y-1640D02*
D03*
Y-1840D02*
D03*
X8240Y412D02*
D03*
X8440D02*
D03*
X4385Y-8D02*
D03*
X4912Y1138D02*
D03*
X5978Y-920D02*
D03*
X4480Y1362D02*
D03*
X4628Y1360D02*
D03*
X4520Y455D02*
D03*
X4600Y340D02*
D03*
X4897Y-800D02*
D03*
X4495Y-1960D02*
D03*
X4700D02*
D03*
X4897D02*
D03*
X5092D02*
D03*
X5297D02*
D03*
X6217Y-2120D02*
D03*
X6022D02*
D03*
X5458Y-1560D02*
D03*
X4480Y-1290D02*
D03*
X4650Y-1320D02*
D03*
X4920Y360D02*
D03*
X4440Y342D02*
D03*
X4503Y2040D02*
D03*
X4800Y2080D02*
D03*
X5520Y1837D02*
D03*
X10672Y-1327D02*
D03*
Y-1527D02*
D03*
Y-1727D02*
D03*
Y-1927D02*
D03*
Y-2127D02*
D03*
X10472D02*
D03*
Y-1927D02*
D03*
Y-1727D02*
D03*
Y-1527D02*
D03*
Y-1327D02*
D03*
X9825Y-2080D02*
D03*
M02*
